ISO-10303-21;
HEADER;
/* Generated by software containing ST-Developer
 * from STEP Tools, Inc. (www.steptools.com) 
 */
/* OPTION: using custom renumber hook */

FILE_DESCRIPTION(
/* description */ ('STEP AP242',
'CAx-IF Rec.Pracs.---Representation and Presentation of Product Manufa
cturing Information (PMI)---4.0---2014-10-13',
'CAx-IF Rec.Pracs.---3D Tessellated Geometry---0.4---2014-09-14','2;1'),

/* implementation_level */ '2;1');

FILE_NAME(
/* name */ '6869df66e1723828ff557762',
/* time_stamp */ '2025-07-06T02:28:54Z',
/* author */ (''),
/* organization */ (''),
/* preprocessor_version */ 'ST-DEVELOPER v20',
/* originating_system */ 'ONSHAPE BY PTC INC, 1.200',
/* authorisation */ '  ');

FILE_SCHEMA (('AP242_MANAGED_MODEL_BASED_3D_ENGINEERING_MIM_LF { 1 0 10303 442 1 1 4 }'));
ENDSEC;

DATA;
#10=SHAPE_REPRESENTATION_RELATIONSHIP('','',#322,#11);
#11=ADVANCED_BREP_SHAPE_REPRESENTATION('',(#320),#557);
#12=B_SPLINE_SURFACE_WITH_KNOTS('',3,1,((#540,#541),(#542,#543),(#544,#545),
(#546,#547)),.SURF_OF_LINEAR_EXTRUSION.,.F.,.F.,.F.,(4,4),(2,2),(-2.64106936934955E-15,
1.),(0.,1.),.PIECEWISE_BEZIER_KNOTS.);
#13=B_SPLINE_SURFACE_WITH_KNOTS('',3,1,((#548,#549),(#550,#551),(#552,#553),
(#554,#555)),.SURF_OF_LINEAR_EXTRUSION.,.F.,.F.,.F.,(4,4),(2,2),(-2.77797894133928E-16,
1.),(0.,1.),.PIECEWISE_BEZIER_KNOTS.);
#14=PLANE('',#330);
#15=PLANE('',#331);
#16=PLANE('',#332);
#17=PLANE('',#335);
#18=PLANE('',#336);
#19=PLANE('',#340);
#20=PLANE('',#342);
#21=PLANE('',#345);
#22=PLANE('',#346);
#23=LINE('',#449,#45);
#24=LINE('',#453,#46);
#25=LINE('',#455,#47);
#26=LINE('',#467,#48);
#27=LINE('',#469,#49);
#28=LINE('',#471,#50);
#29=LINE('',#473,#51);
#30=LINE('',#474,#52);
#31=LINE('',#476,#53);
#32=LINE('',#483,#54);
#33=LINE('',#485,#55);
#34=LINE('',#487,#56);
#35=LINE('',#489,#57);
#36=LINE('',#490,#58);
#37=LINE('',#492,#59);
#38=LINE('',#494,#60);
#39=LINE('',#496,#61);
#40=LINE('',#505,#62);
#41=LINE('',#513,#63);
#42=LINE('',#515,#64);
#43=LINE('',#521,#65);
#44=LINE('',#533,#66);
#45=VECTOR('',#363,1.);
#46=VECTOR('',#366,1.);
#47=VECTOR('',#369,1.);
#48=VECTOR('',#370,1.);
#49=VECTOR('',#371,1.);
#50=VECTOR('',#372,1.);
#51=VECTOR('',#373,1.);
#52=VECTOR('',#374,1.);
#53=VECTOR('',#375,1.);
#54=VECTOR('',#378,1.);
#55=VECTOR('',#379,1.);
#56=VECTOR('',#380,1.);
#57=VECTOR('',#381,1.);
#58=VECTOR('',#382,1.);
#59=VECTOR('',#383,1.);
#60=VECTOR('',#384,1.);
#61=VECTOR('',#385,1.);
#62=VECTOR('',#390,1.);
#63=VECTOR('',#395,1.);
#64=VECTOR('',#398,1.);
#65=VECTOR('',#405,1.);
#66=VECTOR('',#418,1.);
#67=B_SPLINE_CURVE_WITH_KNOTS('',3,(#434,#435,#436,#437),.UNSPECIFIED.,
 .F.,.F.,(4,4),(0.,1.),.UNSPECIFIED.);
#68=B_SPLINE_CURVE_WITH_KNOTS('',3,(#441,#442,#443,#444),.UNSPECIFIED.,
 .F.,.F.,(4,4),(0.,1.),.UNSPECIFIED.);
#69=B_SPLINE_CURVE_WITH_KNOTS('',3,(#458,#459,#460,#461),.UNSPECIFIED.,
 .F.,.F.,(4,4),(0.,1.),.UNSPECIFIED.);
#70=B_SPLINE_CURVE_WITH_KNOTS('',3,(#462,#463,#464,#465),.UNSPECIFIED.,
 .F.,.F.,(4,4),(0.,1.),.UNSPECIFIED.);
#71=B_SPLINE_CURVE_WITH_KNOTS('',3,(#478,#479,#480,#481),.UNSPECIFIED.,
 .F.,.F.,(4,4),(0.,1.),.UNSPECIFIED.);
#72=B_SPLINE_CURVE_WITH_KNOTS('',3,(#498,#499,#500,#501),.UNSPECIFIED.,
 .F.,.F.,(4,4),(0.,1.),.UNSPECIFIED.);
#73=B_SPLINE_CURVE_WITH_KNOTS('',3,(#509,#510,#511,#512),.UNSPECIFIED.,
 .F.,.F.,(4,4),(0.,1.),.UNSPECIFIED.);
#74=B_SPLINE_CURVE_WITH_KNOTS('',3,(#529,#530,#531,#532),.UNSPECIFIED.,
 .F.,.F.,(4,4),(0.,1.),.UNSPECIFIED.);
#75=ORIENTED_EDGE('',*,*,#159,.T.);
#76=ORIENTED_EDGE('',*,*,#160,.T.);
#77=ORIENTED_EDGE('',*,*,#161,.F.);
#78=ORIENTED_EDGE('',*,*,#162,.T.);
#79=ORIENTED_EDGE('',*,*,#163,.T.);
#80=ORIENTED_EDGE('',*,*,#164,.F.);
#81=ORIENTED_EDGE('',*,*,#165,.F.);
#82=ORIENTED_EDGE('',*,*,#166,.T.);
#83=ORIENTED_EDGE('',*,*,#167,.T.);
#84=ORIENTED_EDGE('',*,*,#168,.T.);
#85=ORIENTED_EDGE('',*,*,#159,.F.);
#86=ORIENTED_EDGE('',*,*,#169,.T.);
#87=ORIENTED_EDGE('',*,*,#170,.F.);
#88=ORIENTED_EDGE('',*,*,#171,.F.);
#89=ORIENTED_EDGE('',*,*,#172,.T.);
#90=ORIENTED_EDGE('',*,*,#173,.T.);
#91=ORIENTED_EDGE('',*,*,#165,.T.);
#92=ORIENTED_EDGE('',*,*,#174,.F.);
#93=ORIENTED_EDGE('',*,*,#175,.F.);
#94=ORIENTED_EDGE('',*,*,#161,.T.);
#95=ORIENTED_EDGE('',*,*,#176,.T.);
#96=ORIENTED_EDGE('',*,*,#177,.F.);
#97=ORIENTED_EDGE('',*,*,#178,.T.);
#98=ORIENTED_EDGE('',*,*,#179,.T.);
#99=ORIENTED_EDGE('',*,*,#180,.F.);
#100=ORIENTED_EDGE('',*,*,#163,.F.);
#101=ORIENTED_EDGE('',*,*,#181,.F.);
#102=ORIENTED_EDGE('',*,*,#182,.F.);
#103=ORIENTED_EDGE('',*,*,#183,.T.);
#104=ORIENTED_EDGE('',*,*,#184,.T.);
#105=ORIENTED_EDGE('',*,*,#185,.T.);
#106=ORIENTED_EDGE('',*,*,#186,.F.);
#107=ORIENTED_EDGE('',*,*,#187,.F.);
#108=ORIENTED_EDGE('',*,*,#164,.T.);
#109=ORIENTED_EDGE('',*,*,#180,.T.);
#110=ORIENTED_EDGE('',*,*,#188,.T.);
#111=ORIENTED_EDGE('',*,*,#177,.T.);
#112=ORIENTED_EDGE('',*,*,#189,.T.);
#113=ORIENTED_EDGE('',*,*,#167,.F.);
#114=ORIENTED_EDGE('',*,*,#190,.T.);
#115=ORIENTED_EDGE('',*,*,#178,.F.);
#116=ORIENTED_EDGE('',*,*,#190,.F.);
#117=ORIENTED_EDGE('',*,*,#175,.T.);
#118=ORIENTED_EDGE('',*,*,#191,.T.);
#119=ORIENTED_EDGE('',*,*,#192,.F.);
#120=ORIENTED_EDGE('',*,*,#193,.T.);
#121=ORIENTED_EDGE('',*,*,#188,.F.);
#122=ORIENTED_EDGE('',*,*,#179,.F.);
#123=ORIENTED_EDGE('',*,*,#192,.T.);
#124=ORIENTED_EDGE('',*,*,#194,.T.);
#125=ORIENTED_EDGE('',*,*,#187,.T.);
#126=ORIENTED_EDGE('',*,*,#194,.F.);
#127=ORIENTED_EDGE('',*,*,#191,.F.);
#128=ORIENTED_EDGE('',*,*,#174,.T.);
#129=ORIENTED_EDGE('',*,*,#193,.F.);
#130=ORIENTED_EDGE('',*,*,#186,.T.);
#131=ORIENTED_EDGE('',*,*,#195,.F.);
#132=ORIENTED_EDGE('',*,*,#181,.T.);
#133=ORIENTED_EDGE('',*,*,#166,.F.);
#134=ORIENTED_EDGE('',*,*,#173,.F.);
#135=ORIENTED_EDGE('',*,*,#196,.T.);
#136=ORIENTED_EDGE('',*,*,#170,.T.);
#137=ORIENTED_EDGE('',*,*,#197,.T.);
#138=ORIENTED_EDGE('',*,*,#184,.F.);
#139=ORIENTED_EDGE('',*,*,#198,.F.);
#140=ORIENTED_EDGE('',*,*,#183,.F.);
#141=ORIENTED_EDGE('',*,*,#199,.F.);
#142=ORIENTED_EDGE('',*,*,#171,.T.);
#143=ORIENTED_EDGE('',*,*,#198,.T.);
#144=ORIENTED_EDGE('',*,*,#200,.T.);
#145=ORIENTED_EDGE('',*,*,#196,.F.);
#146=ORIENTED_EDGE('',*,*,#172,.F.);
#147=ORIENTED_EDGE('',*,*,#199,.T.);
#148=ORIENTED_EDGE('',*,*,#182,.T.);
#149=ORIENTED_EDGE('',*,*,#200,.F.);
#150=ORIENTED_EDGE('',*,*,#195,.T.);
#151=ORIENTED_EDGE('',*,*,#168,.F.);
#152=ORIENTED_EDGE('',*,*,#189,.F.);
#153=ORIENTED_EDGE('',*,*,#176,.F.);
#154=ORIENTED_EDGE('',*,*,#160,.F.);
#155=ORIENTED_EDGE('',*,*,#169,.F.);
#156=ORIENTED_EDGE('',*,*,#162,.F.);
#157=ORIENTED_EDGE('',*,*,#185,.F.);
#158=ORIENTED_EDGE('',*,*,#197,.F.);
#159=EDGE_CURVE('',#201,#202,#230,.T.);
#160=EDGE_CURVE('',#202,#203,#67,.T.);
#161=EDGE_CURVE('',#204,#203,#231,.T.);
#162=EDGE_CURVE('',#204,#201,#68,.T.);
#163=EDGE_CURVE('',#205,#206,#232,.T.);
#164=EDGE_CURVE('',#207,#206,#23,.T.);
#165=EDGE_CURVE('',#208,#207,#233,.T.);
#166=EDGE_CURVE('',#208,#205,#24,.T.);
#167=EDGE_CURVE('',#209,#210,#25,.T.);
#168=EDGE_CURVE('',#210,#202,#69,.T.);
#169=EDGE_CURVE('',#201,#211,#70,.T.);
#170=EDGE_CURVE('',#212,#211,#26,.T.);
#171=EDGE_CURVE('',#213,#212,#27,.T.);
#172=EDGE_CURVE('',#213,#214,#28,.T.);
#173=EDGE_CURVE('',#214,#208,#29,.T.);
#174=EDGE_CURVE('',#215,#207,#30,.T.);
#175=EDGE_CURVE('',#209,#215,#31,.T.);
#176=EDGE_CURVE('',#203,#216,#71,.T.);
#177=EDGE_CURVE('',#217,#216,#32,.T.);
#178=EDGE_CURVE('',#217,#218,#33,.T.);
#179=EDGE_CURVE('',#218,#219,#34,.T.);
#180=EDGE_CURVE('',#206,#219,#35,.T.);
#181=EDGE_CURVE('',#220,#205,#36,.T.);
#182=EDGE_CURVE('',#221,#220,#37,.T.);
#183=EDGE_CURVE('',#221,#222,#38,.T.);
#184=EDGE_CURVE('',#222,#223,#39,.T.);
#185=EDGE_CURVE('',#223,#204,#72,.T.);
#186=EDGE_CURVE('',#224,#224,#234,.T.);
#187=EDGE_CURVE('',#207,#225,#40,.T.);
#188=EDGE_CURVE('',#219,#225,#235,.T.);
#189=EDGE_CURVE('',#216,#210,#73,.T.);
#190=EDGE_CURVE('',#209,#217,#41,.T.);
#191=EDGE_CURVE('',#215,#226,#42,.T.);
#192=EDGE_CURVE('',#218,#226,#236,.T.);
#193=EDGE_CURVE('',#227,#227,#237,.T.);
#194=EDGE_CURVE('',#226,#225,#43,.T.);
#195=EDGE_CURVE('',#228,#228,#238,.T.);
#196=EDGE_CURVE('',#214,#220,#239,.T.);
#197=EDGE_CURVE('',#211,#223,#74,.T.);
#198=EDGE_CURVE('',#212,#222,#44,.T.);
#199=EDGE_CURVE('',#213,#221,#240,.T.);
#200=EDGE_CURVE('',#229,#229,#241,.T.);
#201=VERTEX_POINT('',#432);
#202=VERTEX_POINT('',#433);
#203=VERTEX_POINT('',#438);
#204=VERTEX_POINT('',#440);
#205=VERTEX_POINT('',#447);
#206=VERTEX_POINT('',#448);
#207=VERTEX_POINT('',#450);
#208=VERTEX_POINT('',#452);
#209=VERTEX_POINT('',#456);
#210=VERTEX_POINT('',#457);
#211=VERTEX_POINT('',#466);
#212=VERTEX_POINT('',#468);
#213=VERTEX_POINT('',#470);
#214=VERTEX_POINT('',#472);
#215=VERTEX_POINT('',#475);
#216=VERTEX_POINT('',#482);
#217=VERTEX_POINT('',#484);
#218=VERTEX_POINT('',#486);
#219=VERTEX_POINT('',#488);
#220=VERTEX_POINT('',#491);
#221=VERTEX_POINT('',#493);
#222=VERTEX_POINT('',#495);
#223=VERTEX_POINT('',#497);
#224=VERTEX_POINT('',#504);
#225=VERTEX_POINT('',#506);
#226=VERTEX_POINT('',#516);
#227=VERTEX_POINT('',#519);
#228=VERTEX_POINT('',#526);
#229=VERTEX_POINT('',#537);
#230=CIRCLE('',#325,0.008);
#231=CIRCLE('',#326,0.008);
#232=CIRCLE('',#328,0.0105);
#233=CIRCLE('',#329,0.0105);
#234=CIRCLE('',#333,0.0022);
#235=CIRCLE('',#334,0.0045);
#236=CIRCLE('',#337,0.0045);
#237=CIRCLE('',#338,0.0022);
#238=CIRCLE('',#343,0.0022);
#239=CIRCLE('',#344,0.0045);
#240=CIRCLE('',#347,0.0045);
#241=CIRCLE('',#348,0.0022);
#242=EDGE_LOOP('',(#75,#76,#77,#78));
#243=EDGE_LOOP('',(#79,#80,#81,#82));
#244=EDGE_LOOP('',(#83,#84,#85,#86,#87,#88,#89,#90,#91,#92,#93));
#245=EDGE_LOOP('',(#94,#95,#96,#97,#98,#99,#100,#101,#102,#103,#104,#105));
#246=EDGE_LOOP('',(#106));
#247=EDGE_LOOP('',(#107,#108,#109,#110));
#248=EDGE_LOOP('',(#111,#112,#113,#114));
#249=EDGE_LOOP('',(#115,#116,#117,#118,#119));
#250=EDGE_LOOP('',(#120));
#251=EDGE_LOOP('',(#121,#122,#123,#124));
#252=EDGE_LOOP('',(#125,#126,#127,#128));
#253=EDGE_LOOP('',(#129));
#254=EDGE_LOOP('',(#130));
#255=EDGE_LOOP('',(#131));
#256=EDGE_LOOP('',(#132,#133,#134,#135));
#257=EDGE_LOOP('',(#136,#137,#138,#139));
#258=EDGE_LOOP('',(#140,#141,#142,#143));
#259=EDGE_LOOP('',(#144));
#260=EDGE_LOOP('',(#145,#146,#147,#148));
#261=EDGE_LOOP('',(#149));
#262=EDGE_LOOP('',(#150));
#263=EDGE_LOOP('',(#151,#152,#153,#154));
#264=EDGE_LOOP('',(#155,#156,#157,#158));
#265=FACE_BOUND('',#242,.T.);
#266=FACE_BOUND('',#243,.T.);
#267=FACE_BOUND('',#244,.T.);
#268=FACE_BOUND('',#245,.T.);
#269=FACE_BOUND('',#246,.T.);
#270=FACE_BOUND('',#247,.T.);
#271=FACE_BOUND('',#248,.T.);
#272=FACE_BOUND('',#249,.T.);
#273=FACE_BOUND('',#250,.T.);
#274=FACE_BOUND('',#251,.T.);
#275=FACE_BOUND('',#252,.T.);
#276=FACE_BOUND('',#253,.T.);
#277=FACE_BOUND('',#254,.T.);
#278=FACE_BOUND('',#255,.T.);
#279=FACE_BOUND('',#256,.T.);
#280=FACE_BOUND('',#257,.T.);
#281=FACE_BOUND('',#258,.T.);
#282=FACE_BOUND('',#259,.T.);
#283=FACE_BOUND('',#260,.T.);
#284=FACE_BOUND('',#261,.T.);
#285=FACE_BOUND('',#262,.T.);
#286=FACE_BOUND('',#263,.T.);
#287=FACE_BOUND('',#264,.T.);
#288=CYLINDRICAL_SURFACE('',#324,0.008);
#289=CYLINDRICAL_SURFACE('',#327,0.0105);
#290=CYLINDRICAL_SURFACE('',#339,0.0045);
#291=CYLINDRICAL_SURFACE('',#341,0.0022);
#292=CYLINDRICAL_SURFACE('',#349,0.0045);
#293=CYLINDRICAL_SURFACE('',#350,0.0022);
#294=ADVANCED_FACE('',(#265),#288,.F.);
#295=ADVANCED_FACE('',(#266),#289,.T.);
#296=ADVANCED_FACE('',(#267),#14,.T.);
#297=ADVANCED_FACE('',(#268),#15,.F.);
#298=ADVANCED_FACE('',(#269,#270),#16,.F.);
#299=ADVANCED_FACE('',(#271),#17,.T.);
#300=ADVANCED_FACE('',(#272,#273),#18,.T.);
#301=ADVANCED_FACE('',(#274),#290,.T.);
#302=ADVANCED_FACE('',(#275),#19,.F.);
#303=ADVANCED_FACE('',(#276,#277),#291,.F.);
#304=ADVANCED_FACE('',(#278,#279),#20,.F.);
#305=ADVANCED_FACE('',(#280),#21,.F.);
#306=ADVANCED_FACE('',(#281,#282),#22,.T.);
#307=ADVANCED_FACE('',(#283),#292,.T.);
#308=ADVANCED_FACE('',(#284,#285),#293,.F.);
#309=ADVANCED_FACE('',(#286),#12,.T.);
#310=ADVANCED_FACE('',(#287),#13,.T.);
#311=CLOSED_SHELL('',(#294,#295,#296,#297,#298,#299,#300,#301,#302,#303,
#304,#305,#306,#307,#308,#309,#310));
#312=STYLED_ITEM('',(#313),#320);
#313=PRESENTATION_STYLE_ASSIGNMENT((#314));
#314=SURFACE_STYLE_USAGE(.BOTH.,#315);
#315=SURFACE_SIDE_STYLE('',(#316));
#316=SURFACE_STYLE_FILL_AREA(#317);
#317=FILL_AREA_STYLE('',(#318));
#318=FILL_AREA_STYLE_COLOUR('',#319);
#319=COLOUR_RGB('',0.615686274509804,0.811764705882353,0.929411764705882);
#320=MANIFOLD_SOLID_BREP('Part 1',#311);
#321=SHAPE_DEFINITION_REPRESENTATION(#562,#322);
#322=SHAPE_REPRESENTATION('Part 1',(#323),#557);
#323=AXIS2_PLACEMENT_3D('',#429,#351,#352);
#324=AXIS2_PLACEMENT_3D('',#430,#353,#354);
#325=AXIS2_PLACEMENT_3D('',#431,#355,#356);
#326=AXIS2_PLACEMENT_3D('',#439,#357,#358);
#327=AXIS2_PLACEMENT_3D('',#445,#359,#360);
#328=AXIS2_PLACEMENT_3D('',#446,#361,#362);
#329=AXIS2_PLACEMENT_3D('',#451,#364,#365);
#330=AXIS2_PLACEMENT_3D('',#454,#367,#368);
#331=AXIS2_PLACEMENT_3D('',#477,#376,#377);
#332=AXIS2_PLACEMENT_3D('',#502,#386,#387);
#333=AXIS2_PLACEMENT_3D('',#503,#388,#389);
#334=AXIS2_PLACEMENT_3D('',#507,#391,#392);
#335=AXIS2_PLACEMENT_3D('',#508,#393,#394);
#336=AXIS2_PLACEMENT_3D('',#514,#396,#397);
#337=AXIS2_PLACEMENT_3D('',#517,#399,#400);
#338=AXIS2_PLACEMENT_3D('',#518,#401,#402);
#339=AXIS2_PLACEMENT_3D('',#520,#403,#404);
#340=AXIS2_PLACEMENT_3D('',#522,#406,#407);
#341=AXIS2_PLACEMENT_3D('',#523,#408,#409);
#342=AXIS2_PLACEMENT_3D('',#524,#410,#411);
#343=AXIS2_PLACEMENT_3D('',#525,#412,#413);
#344=AXIS2_PLACEMENT_3D('',#527,#414,#415);
#345=AXIS2_PLACEMENT_3D('',#528,#416,#417);
#346=AXIS2_PLACEMENT_3D('',#534,#419,#420);
#347=AXIS2_PLACEMENT_3D('',#535,#421,#422);
#348=AXIS2_PLACEMENT_3D('',#536,#423,#424);
#349=AXIS2_PLACEMENT_3D('',#538,#425,#426);
#350=AXIS2_PLACEMENT_3D('',#539,#427,#428);
#351=DIRECTION('',(0.,0.,1.));
#352=DIRECTION('',(1.,0.,0.));
#353=DIRECTION('',(-1.,0.,0.));
#354=DIRECTION('',(0.,0.,1.));
#355=DIRECTION('',(1.,0.,0.));
#356=DIRECTION('',(0.,0.,-1.));
#357=DIRECTION('',(1.,0.,0.));
#358=DIRECTION('',(0.,0.,-1.));
#359=DIRECTION('',(-1.,0.,0.));
#360=DIRECTION('',(0.,0.,1.));
#361=DIRECTION('',(1.,0.,0.));
#362=DIRECTION('',(0.,0.,-1.));
#363=DIRECTION('',(-1.,0.,0.));
#364=DIRECTION('',(1.,0.,0.));
#365=DIRECTION('',(0.,0.,-1.));
#366=DIRECTION('',(-1.,0.,0.));
#367=DIRECTION('',(1.,0.,0.));
#368=DIRECTION('',(0.,1.,0.));
#369=DIRECTION('',(0.,-1.,0.));
#370=DIRECTION('',(0.,-1.,0.));
#371=DIRECTION('',(0.,1.22464679914735E-16,-1.));
#372=DIRECTION('',(0.,-1.,0.));
#373=DIRECTION('',(0.,1.22464679914735E-16,-1.));
#374=DIRECTION('',(0.,-1.,0.));
#375=DIRECTION('',(0.,1.22464679914735E-16,-1.));
#376=DIRECTION('',(1.,0.,0.));
#377=DIRECTION('',(0.,1.,0.));
#378=DIRECTION('',(0.,-1.,0.));
#379=DIRECTION('',(0.,1.22464679914735E-16,-1.));
#380=DIRECTION('',(0.,-1.,0.));
#381=DIRECTION('',(0.,1.22464679914735E-16,-1.));
#382=DIRECTION('',(0.,1.22464679914735E-16,-1.));
#383=DIRECTION('',(0.,-1.,0.));
#384=DIRECTION('',(0.,1.22464679914735E-16,-1.));
#385=DIRECTION('',(0.,-1.,0.));
#386=DIRECTION('',(0.,1.,1.22464679914735E-16));
#387=DIRECTION('',(0.,-1.22464679914735E-16,1.));
#388=DIRECTION('',(0.,-1.,0.));
#389=DIRECTION('',(0.,0.,-1.));
#390=DIRECTION('',(-0.04782703309043,0.,-0.998855632664584));
#391=DIRECTION('',(0.,-1.,0.));
#392=DIRECTION('',(0.,0.,-1.));
#393=DIRECTION('',(0.,0.,1.));
#394=DIRECTION('',(1.,0.,0.));
#395=DIRECTION('',(-1.,0.,0.));
#396=DIRECTION('',(0.,1.,1.22464679914735E-16));
#397=DIRECTION('',(0.,-1.22464679914735E-16,1.));
#398=DIRECTION('',(-0.04782703309043,0.,-0.998855632664584));
#399=DIRECTION('',(0.,-1.,0.));
#400=DIRECTION('',(0.,0.,-1.));
#401=DIRECTION('',(0.,-1.,0.));
#402=DIRECTION('',(0.,0.,-1.));
#403=DIRECTION('',(0.,-1.,0.));
#404=DIRECTION('',(0.,0.,-1.));
#405=DIRECTION('',(0.,-1.,0.));
#406=DIRECTION('',(-0.998855632664584,0.,0.04782703309043));
#407=DIRECTION('',(0.04782703309043,0.,0.998855632664584));
#408=DIRECTION('',(0.,-1.,0.));
#409=DIRECTION('',(0.,0.,-1.));
#410=DIRECTION('',(0.,1.,1.22464679914735E-16));
#411=DIRECTION('',(0.,-1.22464679914735E-16,1.));
#412=DIRECTION('',(0.,-1.,0.));
#413=DIRECTION('',(0.,0.,-1.));
#414=DIRECTION('',(0.,-1.,0.));
#415=DIRECTION('',(0.,0.,-1.));
#416=DIRECTION('',(0.,0.,1.));
#417=DIRECTION('',(1.,0.,0.));
#418=DIRECTION('',(-1.,0.,0.));
#419=DIRECTION('',(0.,1.,1.22464679914735E-16));
#420=DIRECTION('',(0.,-1.22464679914735E-16,1.));
#421=DIRECTION('',(0.,-1.,0.));
#422=DIRECTION('',(0.,0.,-1.));
#423=DIRECTION('',(0.,-1.,0.));
#424=DIRECTION('',(0.,0.,-1.));
#425=DIRECTION('',(0.,-1.,0.));
#426=DIRECTION('',(0.,0.,-1.));
#427=DIRECTION('',(0.,-1.,0.));
#428=DIRECTION('',(0.,0.,-1.));
#429=CARTESIAN_POINT('',(0.,0.,0.));
#430=CARTESIAN_POINT('',(0.007,-0.0065,-1.32828217270519E-19));
#431=CARTESIAN_POINT('',(0.007,-0.0065,-1.32828217270519E-19));
#432=CARTESIAN_POINT('',(0.007,-0.000628380853299702,0.00543360732811108));
#433=CARTESIAN_POINT('',(0.007,-0.000628380853299702,-0.00543360732811108));
#434=CARTESIAN_POINT('',(0.007,-0.000628380853299697,-0.00543360732811108));
#435=CARTESIAN_POINT('',(0.00466666666666667,-0.000628380853299697,-0.00543360732811108));
#436=CARTESIAN_POINT('',(0.00233333333333333,-0.000628380853299697,-0.00543360732811108));
#437=CARTESIAN_POINT('',(0.,-0.000628380853299697,-0.00543360732811108));
#438=CARTESIAN_POINT('',(0.,-0.000628380853299702,-0.00543360732811108));
#439=CARTESIAN_POINT('',(0.,-0.0065,-1.32828217270519E-19));
#440=CARTESIAN_POINT('',(0.,-0.000628380853299702,0.00543360732811108));
#441=CARTESIAN_POINT('',(0.,-0.000628380853299698,0.00543360732811108));
#442=CARTESIAN_POINT('',(0.00233333333333333,-0.000628380853299698,0.00543360732811108));
#443=CARTESIAN_POINT('',(0.00466666666666667,-0.000628380853299698,0.00543360732811108));
#444=CARTESIAN_POINT('',(0.007,-0.000628380853299698,0.00543360732811108));
#445=CARTESIAN_POINT('',(0.007,-0.0065,-1.7347234759768E-18));
#446=CARTESIAN_POINT('',(0.,-0.0065,-1.7347234759768E-18));
#447=CARTESIAN_POINT('',(0.,-1.43305443044867E-19,0.00824621125123532));
#448=CARTESIAN_POINT('',(0.,1.87643379973878E-18,-0.00824621125123532));
#449=CARTESIAN_POINT('',(0.007,1.87643379973878E-18,-0.00824621125123532));
#450=CARTESIAN_POINT('',(0.007,1.87643379973878E-18,-0.00824621125123532));
#451=CARTESIAN_POINT('',(0.007,-0.0065,-1.7347234759768E-18));
#452=CARTESIAN_POINT('',(0.007,-1.43305443044867E-19,0.00824621125123532));
#453=CARTESIAN_POINT('',(0.007,-1.43305443044867E-19,0.00824621125123532));
#454=CARTESIAN_POINT('',(0.007,-0.00731931724592041,0.));
#455=CARTESIAN_POINT('',(0.007,0.0025,-0.00466368952654441));
#456=CARTESIAN_POINT('',(0.007,0.0025,-0.00466368952654441));
#457=CARTESIAN_POINT('',(0.007,0.00113310489071039,-0.00466368952654441));
#458=CARTESIAN_POINT('',(0.007,0.00113310489071039,-0.00466368952654441));
#459=CARTESIAN_POINT('',(0.007,0.000433769976025077,-0.00466368952654441));
#460=CARTESIAN_POINT('',(0.007,-0.000153391938644956,-0.0049203287937333));
#461=CARTESIAN_POINT('',(0.007,-0.00062838085329971,-0.00543360732811108));
#462=CARTESIAN_POINT('',(0.007,-0.00062838085329971,0.00543360732811108));
#463=CARTESIAN_POINT('',(0.007,-0.000153391938644956,0.0049203287937333));
#464=CARTESIAN_POINT('',(0.007,0.000433769976025074,0.00466368952654441));
#465=CARTESIAN_POINT('',(0.007,0.00113310489071038,0.00466368952654441));
#466=CARTESIAN_POINT('',(0.007,0.00113310489071039,0.00466368952654441));
#467=CARTESIAN_POINT('',(0.007,0.0025,0.00466368952654441));
#468=CARTESIAN_POINT('',(0.007,0.0025,0.00466368952654441));
#469=CARTESIAN_POINT('',(0.007,0.0025,0.00645495038888986));
#470=CARTESIAN_POINT('',(0.007,0.0025,0.00991778412648913));
#471=CARTESIAN_POINT('',(0.007,0.0025,0.00991778412648913));
#472=CARTESIAN_POINT('',(0.007,0.,0.00991778412648913));
#473=CARTESIAN_POINT('',(0.007,7.60607451060617E-20,0.00645495038888986));
#474=CARTESIAN_POINT('',(0.007,0.0025,-0.00824621125123532));
#475=CARTESIAN_POINT('',(0.007,0.0025,-0.00824621125123532));
#476=CARTESIAN_POINT('',(0.007,0.0025,-0.00645495038888986));
#477=CARTESIAN_POINT('',(0.,-0.00731931724592041,0.));
#478=CARTESIAN_POINT('',(0.,-0.00062838085329971,-0.00543360732811108));
#479=CARTESIAN_POINT('',(0.,-0.000153391938644956,-0.0049203287937333));
#480=CARTESIAN_POINT('',(0.,0.000433769976025074,-0.00466368952654441));
#481=CARTESIAN_POINT('',(0.,0.00113310489071038,-0.00466368952654441));
#482=CARTESIAN_POINT('',(0.,0.00113310489071039,-0.00466368952654441));
#483=CARTESIAN_POINT('',(0.,0.0025,-0.00466368952654441));
#484=CARTESIAN_POINT('',(0.,0.0025,-0.00466368952654441));
#485=CARTESIAN_POINT('',(0.,0.0025,-0.00645495038888986));
#486=CARTESIAN_POINT('',(-8.67361737988404E-19,0.0025,-0.00991778412648913));
#487=CARTESIAN_POINT('',(-8.67361737988404E-19,0.0025,-0.00991778412648913));
#488=CARTESIAN_POINT('',(-8.67361737988404E-19,0.,-0.00991778412648913));
#489=CARTESIAN_POINT('',(0.,1.65706761158785E-18,-0.00645495038888986));
#490=CARTESIAN_POINT('',(0.,7.60607451060617E-20,0.00645495038888986));
#491=CARTESIAN_POINT('',(2.60208521396521E-18,0.,0.00991778412648913));
#492=CARTESIAN_POINT('',(2.60208521396521E-18,0.0025,0.00991778412648913));
#493=CARTESIAN_POINT('',(2.60208521396521E-18,0.0025,0.00991778412648913));
#494=CARTESIAN_POINT('',(0.,0.0025,0.00645495038888986));
#495=CARTESIAN_POINT('',(0.,0.0025,0.00466368952654441));
#496=CARTESIAN_POINT('',(0.,0.0025,0.00466368952654441));
#497=CARTESIAN_POINT('',(0.,0.00113310489071039,0.00466368952654441));
#498=CARTESIAN_POINT('',(0.,0.00113310489071038,0.00466368952654441));
#499=CARTESIAN_POINT('',(0.,0.000433769976025074,0.00466368952654441));
#500=CARTESIAN_POINT('',(0.,-0.000153391938644956,0.0049203287937333));
#501=CARTESIAN_POINT('',(0.,-0.00062838085329971,0.00543360732811108));
#502=CARTESIAN_POINT('',(0.007,1.65706761158785E-18,-0.00645495038888986));
#503=CARTESIAN_POINT('',(0.0035,0.,-0.0127462112512353));
#504=CARTESIAN_POINT('',(0.0035,0.,-0.0149462112512353));
#505=CARTESIAN_POINT('',(0.00696216345616778,0.,-0.00903641801266911));
#506=CARTESIAN_POINT('',(0.00692432691233556,0.,-0.00982662477410291));
#507=CARTESIAN_POINT('',(0.0035,0.,-0.0127462112512353));
#508=CARTESIAN_POINT('',(0.007,0.0025,-0.00466368952654441));
#509=CARTESIAN_POINT('',(0.,0.00113310489071039,-0.00466368952654441));
#510=CARTESIAN_POINT('',(0.00233333333333333,0.00113310489071039,-0.00466368952654441));
#511=CARTESIAN_POINT('',(0.00466666666666666,0.00113310489071039,-0.00466368952654441));
#512=CARTESIAN_POINT('',(0.007,0.00113310489071039,-0.00466368952654441));
#513=CARTESIAN_POINT('',(0.007,0.0025,-0.00466368952654441));
#514=CARTESIAN_POINT('',(0.007,0.0025,-0.00645495038888986));
#515=CARTESIAN_POINT('',(0.00696216345616778,0.0025,-0.00903641801266911));
#516=CARTESIAN_POINT('',(0.00692432691233556,0.0025,-0.00982662477410291));
#517=CARTESIAN_POINT('',(0.0035,0.0025,-0.0127462112512353));
#518=CARTESIAN_POINT('',(0.0035,0.0025,-0.0127462112512353));
#519=CARTESIAN_POINT('',(0.0035,0.0025,-0.0149462112512353));
#520=CARTESIAN_POINT('',(0.0035,0.0025,-0.0127462112512353));
#521=CARTESIAN_POINT('',(0.00692432691233556,0.0025,-0.00982662477410291));
#522=CARTESIAN_POINT('',(0.00696216345616778,0.0025,-0.00903641801266911));
#523=CARTESIAN_POINT('',(0.0035,0.0025,-0.0127462112512353));
#524=CARTESIAN_POINT('',(0.007,7.60607451060617E-20,0.00645495038888986));
#525=CARTESIAN_POINT('',(0.0035,0.,0.0127462112512353));
#526=CARTESIAN_POINT('',(0.0035,0.,0.0105462112512353));
#527=CARTESIAN_POINT('',(0.0035,0.,0.0127462112512353));
#528=CARTESIAN_POINT('',(0.007,0.0025,0.00466368952654441));
#529=CARTESIAN_POINT('',(0.007,0.00113310489071039,0.00466368952654441));
#530=CARTESIAN_POINT('',(0.00466666666666666,0.00113310489071039,0.00466368952654441));
#531=CARTESIAN_POINT('',(0.00233333333333333,0.00113310489071039,0.00466368952654441));
#532=CARTESIAN_POINT('',(0.,0.00113310489071039,0.00466368952654441));
#533=CARTESIAN_POINT('',(0.007,0.0025,0.00466368952654441));
#534=CARTESIAN_POINT('',(0.007,0.0025,0.00645495038888986));
#535=CARTESIAN_POINT('',(0.0035,0.0025,0.0127462112512353));
#536=CARTESIAN_POINT('',(0.0035,0.0025,0.0127462112512353));
#537=CARTESIAN_POINT('',(0.0035,0.0025,0.0105462112512353));
#538=CARTESIAN_POINT('',(0.0035,0.0025,0.0127462112512353));
#539=CARTESIAN_POINT('',(0.0035,0.0025,0.0127462112512353));
#540=CARTESIAN_POINT('',(0.007,-0.000628380853299706,-0.00543360732811108));
#541=CARTESIAN_POINT('',(0.,-0.000628380853299706,-0.00543360732811108));
#542=CARTESIAN_POINT('',(0.007,-0.000153391938644953,-0.0049203287937333));
#543=CARTESIAN_POINT('',(0.,-0.000153391938644953,-0.0049203287937333));
#544=CARTESIAN_POINT('',(0.007,0.000433769976025079,-0.0046636895265444));
#545=CARTESIAN_POINT('',(1.73472347597681E-18,0.000433769976025079,-0.0046636895265444));
#546=CARTESIAN_POINT('',(0.007,0.00113310489071039,-0.00466368952654441));
#547=CARTESIAN_POINT('',(-8.67361737988404E-19,0.00113310489071039,-0.00466368952654441));
#548=CARTESIAN_POINT('',(0.007,0.00113310489071039,0.00466368952654441));
#549=CARTESIAN_POINT('',(0.,0.00113310489071039,0.00466368952654441));
#550=CARTESIAN_POINT('',(0.007,0.000433769976025076,0.0046636895265444));
#551=CARTESIAN_POINT('',(1.73472347597681E-18,0.000433769976025077,0.0046636895265444));
#552=CARTESIAN_POINT('',(0.007,-0.000153391938644954,0.0049203287937333));
#553=CARTESIAN_POINT('',(8.67361737988404E-19,-0.000153391938644954,0.0049203287937333));
#554=CARTESIAN_POINT('',(0.007,-0.000628380853299706,0.00543360732811108));
#555=CARTESIAN_POINT('',(8.67361737988404E-19,-0.000628380853299706,0.00543360732811108));
#556=MECHANICAL_DESIGN_GEOMETRIC_PRESENTATION_REPRESENTATION('',(#312),
#557);
#557=(
GEOMETRIC_REPRESENTATION_CONTEXT(3)
GLOBAL_UNCERTAINTY_ASSIGNED_CONTEXT((#558))
GLOBAL_UNIT_ASSIGNED_CONTEXT((#561,#560,#559))
REPRESENTATION_CONTEXT('Part 1','TOP_LEVEL_ASSEMBLY_PART')
);
#558=UNCERTAINTY_MEASURE_WITH_UNIT(LENGTH_MEASURE(2.E-5),#561,
'DISTANCE_ACCURACY_VALUE','Maximum Tolerance applied to model');
#559=(
NAMED_UNIT(*)
SI_UNIT($,.STERADIAN.)
SOLID_ANGLE_UNIT()
);
#560=(
NAMED_UNIT(*)
PLANE_ANGLE_UNIT()
SI_UNIT($,.RADIAN.)
);
#561=(
LENGTH_UNIT()
NAMED_UNIT(*)
SI_UNIT($,.METRE.)
);
#562=PRODUCT_DEFINITION_SHAPE('','',#563);
#563=PRODUCT_DEFINITION('','',#565,#564);
#564=PRODUCT_DEFINITION_CONTEXT('',#571,'design');
#565=PRODUCT_DEFINITION_FORMATION_WITH_SPECIFIED_SOURCE('','',#567,
 .NOT_KNOWN.);
#566=PRODUCT_RELATED_PRODUCT_CATEGORY('','',(#567));
#567=PRODUCT('Part 1','Part 1','Part 1',(#569));
#568=PRODUCT_CATEGORY('','');
#569=PRODUCT_CONTEXT('',#571,'mechanical');
#570=APPLICATION_PROTOCOL_DEFINITION('international standard',
'ap242_managed_model_based_3d_engineering',2011,#571);
#571=APPLICATION_CONTEXT('managed model based 3d engineering');
ENDSEC;
END-ISO-10303-21;
