%TF.GenerationSoftware,KiCad,Pcbnew,9.0.2*%
%TF.CreationDate,2025-07-22T19:33:03-04:00*%
%TF.ProjectId,controllerV2,636f6e74-726f-46c6-9c65-7256322e6b69,rev?*%
%TF.SameCoordinates,Original*%
%TF.FileFunction,Copper,L2,Bot*%
%TF.FilePolarity,Positive*%
%FSLAX46Y46*%
G04 Gerber Fmt 4.6, Leading zero omitted, Abs format (unit mm)*
G04 Created by KiCad (PCBNEW 9.0.2) date 2025-07-22 19:33:03*
%MOMM*%
%LPD*%
G01*
G04 APERTURE LIST*
%TA.AperFunction,ComponentPad*%
%ADD10C,5.000000*%
%TD*%
%TA.AperFunction,ComponentPad*%
%ADD11R,2.000000X1.905000*%
%TD*%
%TA.AperFunction,ComponentPad*%
%ADD12O,2.000000X1.905000*%
%TD*%
%TA.AperFunction,ComponentPad*%
%ADD13R,1.560000X1.560000*%
%TD*%
%TA.AperFunction,ComponentPad*%
%ADD14C,1.560000*%
%TD*%
%TA.AperFunction,ComponentPad*%
%ADD15R,1.700000X1.700000*%
%TD*%
%TA.AperFunction,ComponentPad*%
%ADD16C,1.700000*%
%TD*%
%TA.AperFunction,ComponentPad*%
%ADD17C,1.778000*%
%TD*%
%TA.AperFunction,ComponentPad*%
%ADD18C,2.286000*%
%TD*%
%TA.AperFunction,ViaPad*%
%ADD19C,0.600000*%
%TD*%
%TA.AperFunction,Conductor*%
%ADD20C,1.000000*%
%TD*%
%TA.AperFunction,Conductor*%
%ADD21C,0.200000*%
%TD*%
G04 APERTURE END LIST*
D10*
%TO.P,BT1,1,+*%
%TO.N,/VBAT*%
X77300000Y-42800000D03*
%TO.P,BT1,2,-*%
%TO.N,GND*%
X77300000Y-49800000D03*
%TD*%
D11*
%TO.P,U1,1,IN*%
%TO.N,/VBAT*%
X94270000Y-43752500D03*
D12*
%TO.P,U1,2,GND*%
%TO.N,GND*%
X94270000Y-46292500D03*
%TO.P,U1,3,OUT*%
%TO.N,+5V*%
X94270000Y-48832500D03*
%TD*%
D13*
%TO.P,U3,J2-1,3V3*%
%TO.N,+3.3V*%
X100600000Y-40680000D03*
D14*
%TO.P,U3,J2-2,EN*%
%TO.N,unconnected-(U3-EN-PadJ2-2)*%
X100600000Y-43220000D03*
%TO.P,U3,J2-3,SENSOR_VP*%
%TO.N,unconnected-(U3-SENSOR_VP-PadJ2-3)*%
X100600000Y-45760000D03*
%TO.P,U3,J2-4,SENSOR_VN*%
%TO.N,unconnected-(U3-SENSOR_VN-PadJ2-4)*%
X100600000Y-48300000D03*
%TO.P,U3,J2-5,IO34*%
%TO.N,unconnected-(U3-IO34-PadJ2-5)*%
X100600000Y-50840000D03*
%TO.P,U3,J2-6,IO35*%
%TO.N,unconnected-(U3-IO35-PadJ2-6)*%
X100600000Y-53380000D03*
%TO.P,U3,J2-7,IO32*%
%TO.N,unconnected-(U3-IO32-PadJ2-7)*%
X100600000Y-55920000D03*
%TO.P,U3,J2-8,IO33*%
%TO.N,Y Axis 1*%
X100600000Y-58460000D03*
%TO.P,U3,J2-9,IO25*%
%TO.N,Y Axis 2*%
X100600000Y-61000000D03*
%TO.P,U3,J2-10,IO26*%
%TO.N,X Axis 1*%
X100600000Y-63540000D03*
%TO.P,U3,J2-11,IO27*%
%TO.N,X Axis 2*%
X100600000Y-66080000D03*
%TO.P,U3,J2-12,IO14*%
%TO.N,Button 1*%
X100600000Y-68620000D03*
%TO.P,U3,J2-13,IO12*%
%TO.N,Button 2*%
X100600000Y-71160000D03*
%TO.P,U3,J2-14,GND1*%
%TO.N,GND*%
X100600000Y-73700000D03*
%TO.P,U3,J2-15,IO13*%
%TO.N,SCL*%
X100600000Y-76240000D03*
%TO.P,U3,J2-16,SD2*%
%TO.N,unconnected-(U3-SD2-PadJ2-16)*%
X100600000Y-78780000D03*
%TO.P,U3,J2-17,SD3*%
%TO.N,unconnected-(U3-SD3-PadJ2-17)*%
X100600000Y-81320000D03*
%TO.P,U3,J2-18,CMD*%
%TO.N,unconnected-(U3-CMD-PadJ2-18)*%
X100600000Y-83860000D03*
%TO.P,U3,J2-19,EXT_5V*%
%TO.N,+5V*%
X100600000Y-86400000D03*
%TO.P,U3,J3-1,GND3*%
%TO.N,GND*%
X123500000Y-40680000D03*
%TO.P,U3,J3-2,IO23*%
%TO.N,unconnected-(U3-IO23-PadJ3-2)*%
X123500000Y-43220000D03*
%TO.P,U3,J3-3,IO22*%
%TO.N,unconnected-(U3-IO22-PadJ3-3)*%
X123500000Y-45760000D03*
%TO.P,U3,J3-4,TXD0*%
%TO.N,unconnected-(U3-TXD0-PadJ3-4)*%
X123500000Y-48300000D03*
%TO.P,U3,J3-5,RXD0*%
%TO.N,unconnected-(U3-RXD0-PadJ3-5)*%
X123500000Y-50840000D03*
%TO.P,U3,J3-6,IO21*%
%TO.N,unconnected-(U3-IO21-PadJ3-6)*%
X123500000Y-53380000D03*
%TO.P,U3,J3-7,GND2*%
%TO.N,GND*%
X123500000Y-55920000D03*
%TO.P,U3,J3-8,IO19*%
%TO.N,Out*%
X123500000Y-58460000D03*
%TO.P,U3,J3-9,IO18*%
%TO.N,SCK*%
X123500000Y-61000000D03*
%TO.P,U3,J3-10,IO5*%
%TO.N,unconnected-(U3-IO5-PadJ3-10)*%
X123500000Y-63540000D03*
%TO.P,U3,J3-11,IO17*%
%TO.N,In 1*%
X123500000Y-66080000D03*
%TO.P,U3,J3-12,IO16*%
%TO.N,In 2*%
X123500000Y-68620000D03*
%TO.P,U3,J3-13,IO4*%
%TO.N,SDA*%
X123500000Y-71160000D03*
%TO.P,U3,J3-14,IO0*%
%TO.N,unconnected-(U3-IO0-PadJ3-14)*%
X123500000Y-73700000D03*
%TO.P,U3,J3-15,IO2*%
%TO.N,unconnected-(U3-IO2-PadJ3-15)*%
X123500000Y-76240000D03*
%TO.P,U3,J3-16,IO15*%
%TO.N,unconnected-(U3-IO15-PadJ3-16)*%
X123500000Y-78780000D03*
%TO.P,U3,J3-17,SD1*%
%TO.N,unconnected-(U3-SD1-PadJ3-17)*%
X123500000Y-81320000D03*
%TO.P,U3,J3-18,SD0*%
%TO.N,unconnected-(U3-SD0-PadJ3-18)*%
X123500000Y-83860000D03*
%TO.P,U3,J3-19,CLK*%
%TO.N,unconnected-(U3-CLK-PadJ3-19)*%
X123500000Y-86400000D03*
%TD*%
D15*
%TO.P,J2,1,Pin_1*%
%TO.N,In 1*%
X133270000Y-56057500D03*
D16*
%TO.P,J2,2,Pin_2*%
%TO.N,In 2*%
X133270000Y-58597500D03*
%TD*%
D15*
%TO.P,J4,1,Pin_1*%
%TO.N,SDA*%
X143270000Y-46752500D03*
D16*
%TO.P,J4,2,Pin_2*%
%TO.N,SCL*%
X143270000Y-49292500D03*
%TO.P,J4,3,Pin_3*%
%TO.N,+3.3V*%
X143270000Y-51832500D03*
%TO.P,J4,4,Pin_4*%
%TO.N,GND*%
X143270000Y-54372500D03*
%TD*%
D15*
%TO.P,J3,1,Pin_1*%
%TO.N,GND*%
X133270000Y-48642500D03*
D16*
%TO.P,J3,2,Pin_2*%
%TO.N,SCK*%
X133270000Y-46102500D03*
%TO.P,J3,3,Pin_3*%
%TO.N,Out*%
X133270000Y-43562500D03*
%TO.P,J3,4,Pin_4*%
%TO.N,+3.3V*%
X133270000Y-41022500D03*
%TD*%
D10*
%TO.P,J1,1,Pin_1*%
%TO.N,/VBAT*%
X86270000Y-42832500D03*
%TO.P,J1,2,Pin_2*%
%TO.N,GND*%
X86270000Y-49832500D03*
%TD*%
D17*
%TO.P,SW2,GND,GND*%
%TO.N,GND*%
X153310000Y-78040000D03*
X146325000Y-62800000D03*
X140610000Y-85660000D03*
%TO.P,SW2,Horizontal,Horizontal*%
%TO.N,X Axis 2*%
X143150000Y-85660000D03*
D18*
%TO.P,SW2,MOUNT1*%
%TO.N,N/C*%
X150770000Y-68832500D03*
%TO.P,SW2,MOUNT2*%
X150770000Y-82167500D03*
%TO.P,SW2,MOUNT3*%
X135530000Y-82167500D03*
%TO.P,SW2,MOUNT4*%
X135530000Y-68832500D03*
D17*
%TO.P,SW2,Select,Select*%
%TO.N,Button 2*%
X146325000Y-67880000D03*
%TO.P,SW2,Select-NC1*%
%TO.N,N/C*%
X139975000Y-67880000D03*
%TO.P,SW2,Select-NC2*%
X139975000Y-62800000D03*
%TO.P,SW2,VCC,VCC*%
%TO.N,+3.3V*%
X153310000Y-72960000D03*
X145690000Y-85660000D03*
%TO.P,SW2,Vertical,Vertical*%
%TO.N,Y Axis 2*%
X153310000Y-75500000D03*
%TD*%
%TO.P,SW1,GND,GND*%
%TO.N,GND*%
X91310000Y-78040000D03*
X84325000Y-62800000D03*
X78610000Y-85660000D03*
%TO.P,SW1,Horizontal,Horizontal*%
%TO.N,X Axis 1*%
X81150000Y-85660000D03*
D18*
%TO.P,SW1,MOUNT1*%
%TO.N,N/C*%
X88770000Y-68832500D03*
%TO.P,SW1,MOUNT2*%
X88770000Y-82167500D03*
%TO.P,SW1,MOUNT3*%
X73530000Y-82167500D03*
%TO.P,SW1,MOUNT4*%
X73530000Y-68832500D03*
D17*
%TO.P,SW1,Select,Select*%
%TO.N,Button 1*%
X84325000Y-67880000D03*
%TO.P,SW1,Select-NC1*%
%TO.N,N/C*%
X77975000Y-67880000D03*
%TO.P,SW1,Select-NC2*%
X77975000Y-62800000D03*
%TO.P,SW1,VCC,VCC*%
%TO.N,+3.3V*%
X91310000Y-72960000D03*
X83690000Y-85660000D03*
%TO.P,SW1,Vertical,Vertical*%
%TO.N,Y Axis 1*%
X91310000Y-75500000D03*
%TD*%
D19*
%TO.N,+3.3V*%
X90000000Y-74500000D03*
%TO.N,SCL*%
X137600000Y-51000000D03*
%TO.N,+5V*%
X96900000Y-70900000D03*
X98900000Y-73900000D03*
%TO.N,Y Axis 1*%
X97500000Y-61500000D03*
X97500000Y-69000000D03*
%TO.N,Button 2*%
X126900000Y-73600000D03*
X125600000Y-74900000D03*
%TO.N,Y Axis 2*%
X142900000Y-72700000D03*
X117050000Y-65650000D03*
%TO.N,X Axis 1*%
X89000000Y-73500000D03*
%TO.N,X Axis 2*%
X111000000Y-70900000D03*
%TD*%
D20*
%TO.N,GND*%
X84325000Y-62800000D02*
X86926000Y-65401000D01*
X86270000Y-49832500D02*
X77332500Y-49832500D01*
X86270000Y-60855000D02*
X84325000Y-62800000D01*
X86270000Y-49832500D02*
X90730000Y-49832500D01*
X131462500Y-48642500D02*
X123500000Y-40680000D01*
X96260000Y-78040000D02*
X100600000Y-73700000D01*
X100600000Y-73700000D02*
X105720000Y-73700000D01*
X146325000Y-62800000D02*
X148500000Y-64975000D01*
X86926000Y-74074000D02*
X78610000Y-82390000D01*
X90730000Y-49832500D02*
X94270000Y-46292500D01*
X148500000Y-73230000D02*
X140610000Y-81120000D01*
X148500000Y-64975000D02*
X148500000Y-73230000D01*
X148500000Y-73230000D02*
X153310000Y-78040000D01*
X123500000Y-55920000D02*
X125992500Y-55920000D01*
X86270000Y-49832500D02*
X86270000Y-60855000D01*
X86926000Y-73656000D02*
X91310000Y-78040000D01*
X125992500Y-55920000D02*
X133270000Y-48642500D01*
X140610000Y-81120000D02*
X140610000Y-85660000D01*
X86926000Y-65401000D02*
X86926000Y-73656000D01*
X143270000Y-54372500D02*
X143270000Y-59745000D01*
X133270000Y-48642500D02*
X137540000Y-48642500D01*
X91310000Y-78040000D02*
X96260000Y-78040000D01*
X137540000Y-48642500D02*
X143270000Y-54372500D01*
X143270000Y-59745000D02*
X146325000Y-62800000D01*
X78610000Y-82390000D02*
X78610000Y-85660000D01*
X86926000Y-73656000D02*
X86926000Y-74074000D01*
X77332500Y-49832500D02*
X77300000Y-49800000D01*
X133270000Y-48642500D02*
X131462500Y-48642500D01*
X105720000Y-73700000D02*
X123500000Y-55920000D01*
D21*
%TO.N,+3.3V*%
X143270000Y-51022500D02*
X143270000Y-51832500D01*
X153310000Y-61872500D02*
X153310000Y-72960000D01*
X91350000Y-73150000D02*
X90000000Y-74500000D01*
X133270000Y-41022500D02*
X143270000Y-51022500D01*
X91350000Y-73000000D02*
X91350000Y-73150000D01*
X143270000Y-51832500D02*
X153310000Y-61872500D01*
X91310000Y-72960000D02*
X91350000Y-73000000D01*
%TO.N,SCL*%
X100600000Y-76240000D02*
X104810057Y-76240000D01*
X123947765Y-59541000D02*
X132488765Y-51000000D01*
X121509057Y-59541000D02*
X123947765Y-59541000D01*
X104810057Y-76240000D02*
X121509057Y-59541000D01*
X132488765Y-51000000D02*
X137600000Y-51000000D01*
%TO.N,+5V*%
X98900000Y-72900000D02*
X98900000Y-73900000D01*
X96900000Y-70900000D02*
X98900000Y-72900000D01*
D20*
%TO.N,/VBAT*%
X86270000Y-42832500D02*
X93350000Y-42832500D01*
X93350000Y-42832500D02*
X94270000Y-43752500D01*
X77332500Y-42832500D02*
X77300000Y-42800000D01*
X86270000Y-42832500D02*
X77332500Y-42832500D01*
D21*
%TO.N,Y Axis 1*%
X97500000Y-61500000D02*
X97560000Y-61500000D01*
X97500000Y-69310000D02*
X97500000Y-69000000D01*
X91310000Y-75500000D02*
X97500000Y-69310000D01*
X97560000Y-61500000D02*
X100600000Y-58460000D01*
%TO.N,Button 2*%
X125600000Y-74900000D02*
X126900000Y-73600000D01*
%TO.N,Y Axis 2*%
X142900000Y-72700000D02*
X137361000Y-67161000D01*
X118561000Y-67161000D02*
X117050000Y-65650000D01*
X137361000Y-67161000D02*
X118561000Y-67161000D01*
%TO.N,X Axis 1*%
X98960000Y-63540000D02*
X100600000Y-63540000D01*
X89000000Y-73500000D02*
X98960000Y-63540000D01*
%TO.N,X Axis 2*%
X117421000Y-77321000D02*
X111000000Y-70900000D01*
X123569765Y-77321000D02*
X117421000Y-77321000D01*
X133098765Y-86850000D02*
X123569765Y-77321000D01*
X143150000Y-85660000D02*
X141960000Y-86850000D01*
X141960000Y-86850000D02*
X133098765Y-86850000D01*
%TD*%
M02*
