M48
; DRILL file {KiCad 9.0.2} date 2025-07-06T01:09:29-0400
; FORMAT={-:-/ absolute / metric / decimal}
; #@! TF.CreationDate,2025-07-06T01:09:29-04:00
; #@! TF.GenerationSoftware,Kicad,Pcbnew,9.0.2
; #@! TF.FileFunction,Plated,1,2,PTH
FMAT,2
METRIC
; #@! TA.AperFunction,Plated,PTH,ViaDrill
T1C0.300
; #@! TA.AperFunction,Plated,PTH,ComponentDrill
T2C1.000
; #@! TA.AperFunction,Plated,PTH,ComponentDrill
T3C1.040
; #@! TA.AperFunction,Plated,PTH,ComponentDrill
T4C1.100
; #@! TA.AperFunction,Plated,PTH,ComponentDrill
T5C3.000
%
G90
G05
T1
X208.0Y-106.0
X208.0Y-112.0
X209.0Y-109.5
X215.0Y-107.0
T2
X211.5Y-105.46
X211.5Y-108.0
X211.5Y-110.54
X211.5Y-113.08
X211.5Y-115.62
X211.5Y-119.46
X211.5Y-122.0
X211.5Y-124.54
X211.5Y-127.08
X211.5Y-129.62
X218.5Y-107.46
X218.5Y-110.0
X218.5Y-112.54
X218.5Y-115.08
X218.5Y-123.04
X218.5Y-125.58
T3
X182.11Y-83.76
X182.11Y-86.3
X182.11Y-88.84
X182.11Y-91.38
X182.11Y-93.92
X182.11Y-96.46
X182.11Y-99.0
X182.11Y-101.54
X182.11Y-104.08
X182.11Y-106.62
X182.11Y-109.16
X182.11Y-111.7
X182.11Y-114.24
X182.11Y-116.78
X182.11Y-119.32
X182.11Y-121.86
X182.11Y-124.4
X182.11Y-126.94
X182.11Y-129.48
X205.01Y-83.76
X205.01Y-86.3
X205.01Y-88.84
X205.01Y-91.38
X205.01Y-93.92
X205.01Y-96.46
X205.01Y-99.0
X205.01Y-101.54
X205.01Y-104.08
X205.01Y-106.62
X205.01Y-109.16
X205.01Y-111.7
X205.01Y-114.24
X205.01Y-116.78
X205.01Y-119.32
X205.01Y-121.86
X205.01Y-124.4
X205.01Y-126.94
X205.01Y-129.48
T4
X211.42Y-102.0
X213.96Y-102.0
X216.5Y-102.0
T5
X210.46Y-86.08
X210.46Y-94.38
X217.46Y-86.08
X217.46Y-94.38
M30
