M48
; DRILL file {KiCad 9.0.2} date 2025-07-22T19:33:36-0400
; FORMAT={-:-/ absolute / metric / decimal}
; #@! TF.CreationDate,2025-07-22T19:33:36-04:00
; #@! TF.GenerationSoftware,Kicad,Pcbnew,9.0.2
; #@! TF.FileFunction,Plated,1,2,PTH
FMAT,2
METRIC
; #@! TA.AperFunction,Plated,PTH,ViaDrill
T1C0.300
; #@! TA.AperFunction,Plated,PTH,ComponentDrill
T2C0.889
; #@! TA.AperFunction,Plated,PTH,ComponentDrill
T3C0.900
; #@! TA.AperFunction,Plated,PTH,ComponentDrill
T4C1.000
; #@! TA.AperFunction,Plated,PTH,ComponentDrill
T5C1.040
; #@! TA.AperFunction,Plated,PTH,ComponentDrill
T6C1.100
; #@! TA.AperFunction,Plated,PTH,ComponentDrill
T7C1.397
; #@! TA.AperFunction,Plated,PTH,ComponentDrill
T8C3.000
%
G90
G05
T1
X89.0Y-73.5
X90.0Y-74.5
X96.9Y-70.9
X97.5Y-61.5
X97.5Y-69.0
X98.9Y-73.9
X111.0Y-70.9
X117.05Y-65.65
X125.6Y-74.9
X126.9Y-73.6
X137.6Y-51.0
X142.9Y-72.7
T2
X78.61Y-85.66
X81.15Y-85.66
X83.69Y-85.66
X91.31Y-72.96
X91.31Y-75.5
X91.31Y-78.04
X140.61Y-85.66
X143.15Y-85.66
X145.69Y-85.66
X153.31Y-72.96
X153.31Y-75.5
X153.31Y-78.04
T3
X77.975Y-62.8
X77.975Y-67.88
X84.325Y-62.8
X84.325Y-67.88
X139.975Y-62.8
X139.975Y-67.88
X146.325Y-62.8
X146.325Y-67.88
T4
X133.27Y-41.023
X133.27Y-43.562
X133.27Y-46.102
X133.27Y-48.642
X133.27Y-56.057
X133.27Y-58.597
X143.27Y-46.752
X143.27Y-49.292
X143.27Y-51.832
X143.27Y-54.372
T5
X100.6Y-40.68
X100.6Y-43.22
X100.6Y-45.76
X100.6Y-48.3
X100.6Y-50.84
X100.6Y-53.38
X100.6Y-55.92
X100.6Y-58.46
X100.6Y-61.0
X100.6Y-63.54
X100.6Y-66.08
X100.6Y-68.62
X100.6Y-71.16
X100.6Y-73.7
X100.6Y-76.24
X100.6Y-78.78
X100.6Y-81.32
X100.6Y-83.86
X100.6Y-86.4
X123.5Y-40.68
X123.5Y-43.22
X123.5Y-45.76
X123.5Y-48.3
X123.5Y-50.84
X123.5Y-53.38
X123.5Y-55.92
X123.5Y-58.46
X123.5Y-61.0
X123.5Y-63.54
X123.5Y-66.08
X123.5Y-68.62
X123.5Y-71.16
X123.5Y-73.7
X123.5Y-76.24
X123.5Y-78.78
X123.5Y-81.32
X123.5Y-83.86
X123.5Y-86.4
T6
X94.27Y-43.752
X94.27Y-46.292
X94.27Y-48.832
T7
X73.53Y-68.832
X73.53Y-82.167
X88.77Y-68.832
X88.77Y-82.167
X135.53Y-68.832
X135.53Y-82.167
X150.77Y-68.832
X150.77Y-82.167
T8
X77.3Y-42.8
X77.3Y-49.8
X86.27Y-42.832
X86.27Y-49.832
M30
