%TF.GenerationSoftware,KiCad,Pcbnew,9.0.2*%
%TF.CreationDate,2025-07-22T19:33:36-04:00*%
%TF.ProjectId,controllerV2,636f6e74-726f-46c6-9c65-7256322e6b69,rev?*%
%TF.SameCoordinates,Original*%
%TF.FileFunction,Drillmap*%
%TF.FilePolarity,Positive*%
%FSLAX45Y45*%
G04 Gerber Fmt 4.5, Leading zero omitted, Abs format (unit mm)*
G04 Created by KiCad (PCBNEW 9.0.2) date 2025-07-22 19:33:36*
%MOMM*%
%LPD*%
G01*
G04 APERTURE LIST*
%ADD10C,0.050000*%
%ADD11C,0.200000*%
%ADD12C,0.220000*%
G04 APERTURE END LIST*
D10*
X6820000Y-3890000D02*
X15610000Y-3890000D01*
X15610000Y-8840000D01*
X6820000Y-8840000D01*
X6820000Y-3890000D01*
D11*
D12*
X6955000Y-4025000D02*
X7175000Y-4245000D01*
X7175000Y-4025000D02*
X6955000Y-4245000D01*
X6955000Y-8485000D02*
X7175000Y-8705000D01*
X7175000Y-8485000D02*
X6955000Y-8705000D01*
X15255000Y-4025000D02*
X15475000Y-4245000D01*
X15475000Y-4025000D02*
X15255000Y-4245000D01*
X15255000Y-8485000D02*
X15475000Y-8705000D01*
X15475000Y-8485000D02*
X15255000Y-8705000D01*
D11*
X7078277Y-9153984D02*
X7078277Y-8953984D01*
X7078277Y-8953984D02*
X7125896Y-8953984D01*
X7125896Y-8953984D02*
X7154467Y-8963508D01*
X7154467Y-8963508D02*
X7173515Y-8982555D01*
X7173515Y-8982555D02*
X7183039Y-9001603D01*
X7183039Y-9001603D02*
X7192562Y-9039698D01*
X7192562Y-9039698D02*
X7192562Y-9068270D01*
X7192562Y-9068270D02*
X7183039Y-9106365D01*
X7183039Y-9106365D02*
X7173515Y-9125412D01*
X7173515Y-9125412D02*
X7154467Y-9144460D01*
X7154467Y-9144460D02*
X7125896Y-9153984D01*
X7125896Y-9153984D02*
X7078277Y-9153984D01*
X7278277Y-9153984D02*
X7278277Y-9020650D01*
X7278277Y-9058746D02*
X7287801Y-9039698D01*
X7287801Y-9039698D02*
X7297324Y-9030174D01*
X7297324Y-9030174D02*
X7316372Y-9020650D01*
X7316372Y-9020650D02*
X7335420Y-9020650D01*
X7402086Y-9153984D02*
X7402086Y-9020650D01*
X7402086Y-8953984D02*
X7392562Y-8963508D01*
X7392562Y-8963508D02*
X7402086Y-8973031D01*
X7402086Y-8973031D02*
X7411610Y-8963508D01*
X7411610Y-8963508D02*
X7402086Y-8953984D01*
X7402086Y-8953984D02*
X7402086Y-8973031D01*
X7525896Y-9153984D02*
X7506848Y-9144460D01*
X7506848Y-9144460D02*
X7497324Y-9125412D01*
X7497324Y-9125412D02*
X7497324Y-8953984D01*
X7630658Y-9153984D02*
X7611610Y-9144460D01*
X7611610Y-9144460D02*
X7602086Y-9125412D01*
X7602086Y-9125412D02*
X7602086Y-8953984D01*
X7859229Y-9153984D02*
X7859229Y-8953984D01*
X7859229Y-8953984D02*
X7925896Y-9096841D01*
X7925896Y-9096841D02*
X7992562Y-8953984D01*
X7992562Y-8953984D02*
X7992562Y-9153984D01*
X8173515Y-9153984D02*
X8173515Y-9049222D01*
X8173515Y-9049222D02*
X8163991Y-9030174D01*
X8163991Y-9030174D02*
X8144943Y-9020650D01*
X8144943Y-9020650D02*
X8106848Y-9020650D01*
X8106848Y-9020650D02*
X8087801Y-9030174D01*
X8173515Y-9144460D02*
X8154467Y-9153984D01*
X8154467Y-9153984D02*
X8106848Y-9153984D01*
X8106848Y-9153984D02*
X8087801Y-9144460D01*
X8087801Y-9144460D02*
X8078277Y-9125412D01*
X8078277Y-9125412D02*
X8078277Y-9106365D01*
X8078277Y-9106365D02*
X8087801Y-9087317D01*
X8087801Y-9087317D02*
X8106848Y-9077793D01*
X8106848Y-9077793D02*
X8154467Y-9077793D01*
X8154467Y-9077793D02*
X8173515Y-9068270D01*
X8268753Y-9020650D02*
X8268753Y-9220650D01*
X8268753Y-9030174D02*
X8287801Y-9020650D01*
X8287801Y-9020650D02*
X8325896Y-9020650D01*
X8325896Y-9020650D02*
X8344943Y-9030174D01*
X8344943Y-9030174D02*
X8354467Y-9039698D01*
X8354467Y-9039698D02*
X8363991Y-9058746D01*
X8363991Y-9058746D02*
X8363991Y-9115889D01*
X8363991Y-9115889D02*
X8354467Y-9134936D01*
X8354467Y-9134936D02*
X8344943Y-9144460D01*
X8344943Y-9144460D02*
X8325896Y-9153984D01*
X8325896Y-9153984D02*
X8287801Y-9153984D01*
X8287801Y-9153984D02*
X8268753Y-9144460D01*
X8449705Y-9134936D02*
X8459229Y-9144460D01*
X8459229Y-9144460D02*
X8449705Y-9153984D01*
X8449705Y-9153984D02*
X8440182Y-9144460D01*
X8440182Y-9144460D02*
X8449705Y-9134936D01*
X8449705Y-9134936D02*
X8449705Y-9153984D01*
X8449705Y-9030174D02*
X8459229Y-9039698D01*
X8459229Y-9039698D02*
X8449705Y-9049222D01*
X8449705Y-9049222D02*
X8440182Y-9039698D01*
X8440182Y-9039698D02*
X8449705Y-9030174D01*
X8449705Y-9030174D02*
X8449705Y-9049222D01*
X6617500Y-9382500D02*
X6817500Y-9582500D01*
X6817500Y-9382500D02*
X6617500Y-9582500D01*
X7068753Y-9393031D02*
X7078277Y-9383508D01*
X7078277Y-9383508D02*
X7097324Y-9373984D01*
X7097324Y-9373984D02*
X7144943Y-9373984D01*
X7144943Y-9373984D02*
X7163991Y-9383508D01*
X7163991Y-9383508D02*
X7173515Y-9393031D01*
X7173515Y-9393031D02*
X7183039Y-9412079D01*
X7183039Y-9412079D02*
X7183039Y-9431127D01*
X7183039Y-9431127D02*
X7173515Y-9459698D01*
X7173515Y-9459698D02*
X7059229Y-9573984D01*
X7059229Y-9573984D02*
X7183039Y-9573984D01*
X7268753Y-9554936D02*
X7278277Y-9564460D01*
X7278277Y-9564460D02*
X7268753Y-9573984D01*
X7268753Y-9573984D02*
X7259229Y-9564460D01*
X7259229Y-9564460D02*
X7268753Y-9554936D01*
X7268753Y-9554936D02*
X7268753Y-9573984D01*
X7354467Y-9393031D02*
X7363991Y-9383508D01*
X7363991Y-9383508D02*
X7383039Y-9373984D01*
X7383039Y-9373984D02*
X7430658Y-9373984D01*
X7430658Y-9373984D02*
X7449705Y-9383508D01*
X7449705Y-9383508D02*
X7459229Y-9393031D01*
X7459229Y-9393031D02*
X7468753Y-9412079D01*
X7468753Y-9412079D02*
X7468753Y-9431127D01*
X7468753Y-9431127D02*
X7459229Y-9459698D01*
X7459229Y-9459698D02*
X7344943Y-9573984D01*
X7344943Y-9573984D02*
X7468753Y-9573984D01*
X7592562Y-9373984D02*
X7611610Y-9373984D01*
X7611610Y-9373984D02*
X7630658Y-9383508D01*
X7630658Y-9383508D02*
X7640182Y-9393031D01*
X7640182Y-9393031D02*
X7649705Y-9412079D01*
X7649705Y-9412079D02*
X7659229Y-9450174D01*
X7659229Y-9450174D02*
X7659229Y-9497793D01*
X7659229Y-9497793D02*
X7649705Y-9535889D01*
X7649705Y-9535889D02*
X7640182Y-9554936D01*
X7640182Y-9554936D02*
X7630658Y-9564460D01*
X7630658Y-9564460D02*
X7611610Y-9573984D01*
X7611610Y-9573984D02*
X7592562Y-9573984D01*
X7592562Y-9573984D02*
X7573515Y-9564460D01*
X7573515Y-9564460D02*
X7563991Y-9554936D01*
X7563991Y-9554936D02*
X7554467Y-9535889D01*
X7554467Y-9535889D02*
X7544943Y-9497793D01*
X7544943Y-9497793D02*
X7544943Y-9450174D01*
X7544943Y-9450174D02*
X7554467Y-9412079D01*
X7554467Y-9412079D02*
X7563991Y-9393031D01*
X7563991Y-9393031D02*
X7573515Y-9383508D01*
X7573515Y-9383508D02*
X7592562Y-9373984D01*
X7783039Y-9373984D02*
X7802086Y-9373984D01*
X7802086Y-9373984D02*
X7821134Y-9383508D01*
X7821134Y-9383508D02*
X7830658Y-9393031D01*
X7830658Y-9393031D02*
X7840182Y-9412079D01*
X7840182Y-9412079D02*
X7849705Y-9450174D01*
X7849705Y-9450174D02*
X7849705Y-9497793D01*
X7849705Y-9497793D02*
X7840182Y-9535889D01*
X7840182Y-9535889D02*
X7830658Y-9554936D01*
X7830658Y-9554936D02*
X7821134Y-9564460D01*
X7821134Y-9564460D02*
X7802086Y-9573984D01*
X7802086Y-9573984D02*
X7783039Y-9573984D01*
X7783039Y-9573984D02*
X7763991Y-9564460D01*
X7763991Y-9564460D02*
X7754467Y-9554936D01*
X7754467Y-9554936D02*
X7744943Y-9535889D01*
X7744943Y-9535889D02*
X7735420Y-9497793D01*
X7735420Y-9497793D02*
X7735420Y-9450174D01*
X7735420Y-9450174D02*
X7744943Y-9412079D01*
X7744943Y-9412079D02*
X7754467Y-9393031D01*
X7754467Y-9393031D02*
X7763991Y-9383508D01*
X7763991Y-9383508D02*
X7783039Y-9373984D01*
X7935420Y-9573984D02*
X7935420Y-9440650D01*
X7935420Y-9459698D02*
X7944943Y-9450174D01*
X7944943Y-9450174D02*
X7963991Y-9440650D01*
X7963991Y-9440650D02*
X7992563Y-9440650D01*
X7992563Y-9440650D02*
X8011610Y-9450174D01*
X8011610Y-9450174D02*
X8021134Y-9469222D01*
X8021134Y-9469222D02*
X8021134Y-9573984D01*
X8021134Y-9469222D02*
X8030658Y-9450174D01*
X8030658Y-9450174D02*
X8049705Y-9440650D01*
X8049705Y-9440650D02*
X8078277Y-9440650D01*
X8078277Y-9440650D02*
X8097324Y-9450174D01*
X8097324Y-9450174D02*
X8106848Y-9469222D01*
X8106848Y-9469222D02*
X8106848Y-9573984D01*
X8202086Y-9573984D02*
X8202086Y-9440650D01*
X8202086Y-9459698D02*
X8211610Y-9450174D01*
X8211610Y-9450174D02*
X8230658Y-9440650D01*
X8230658Y-9440650D02*
X8259229Y-9440650D01*
X8259229Y-9440650D02*
X8278277Y-9450174D01*
X8278277Y-9450174D02*
X8287801Y-9469222D01*
X8287801Y-9469222D02*
X8287801Y-9573984D01*
X8287801Y-9469222D02*
X8297324Y-9450174D01*
X8297324Y-9450174D02*
X8316372Y-9440650D01*
X8316372Y-9440650D02*
X8344943Y-9440650D01*
X8344943Y-9440650D02*
X8363991Y-9450174D01*
X8363991Y-9450174D02*
X8373515Y-9469222D01*
X8373515Y-9469222D02*
X8373515Y-9573984D01*
X8763991Y-9364460D02*
X8592563Y-9621603D01*
X9021134Y-9373984D02*
X9040182Y-9373984D01*
X9040182Y-9373984D02*
X9059229Y-9383508D01*
X9059229Y-9383508D02*
X9068753Y-9393031D01*
X9068753Y-9393031D02*
X9078277Y-9412079D01*
X9078277Y-9412079D02*
X9087801Y-9450174D01*
X9087801Y-9450174D02*
X9087801Y-9497793D01*
X9087801Y-9497793D02*
X9078277Y-9535889D01*
X9078277Y-9535889D02*
X9068753Y-9554936D01*
X9068753Y-9554936D02*
X9059229Y-9564460D01*
X9059229Y-9564460D02*
X9040182Y-9573984D01*
X9040182Y-9573984D02*
X9021134Y-9573984D01*
X9021134Y-9573984D02*
X9002087Y-9564460D01*
X9002087Y-9564460D02*
X8992563Y-9554936D01*
X8992563Y-9554936D02*
X8983039Y-9535889D01*
X8983039Y-9535889D02*
X8973515Y-9497793D01*
X8973515Y-9497793D02*
X8973515Y-9450174D01*
X8973515Y-9450174D02*
X8983039Y-9412079D01*
X8983039Y-9412079D02*
X8992563Y-9393031D01*
X8992563Y-9393031D02*
X9002087Y-9383508D01*
X9002087Y-9383508D02*
X9021134Y-9373984D01*
X9173515Y-9554936D02*
X9183039Y-9564460D01*
X9183039Y-9564460D02*
X9173515Y-9573984D01*
X9173515Y-9573984D02*
X9163991Y-9564460D01*
X9163991Y-9564460D02*
X9173515Y-9554936D01*
X9173515Y-9554936D02*
X9173515Y-9573984D01*
X9306848Y-9373984D02*
X9325896Y-9373984D01*
X9325896Y-9373984D02*
X9344944Y-9383508D01*
X9344944Y-9383508D02*
X9354468Y-9393031D01*
X9354468Y-9393031D02*
X9363991Y-9412079D01*
X9363991Y-9412079D02*
X9373515Y-9450174D01*
X9373515Y-9450174D02*
X9373515Y-9497793D01*
X9373515Y-9497793D02*
X9363991Y-9535889D01*
X9363991Y-9535889D02*
X9354468Y-9554936D01*
X9354468Y-9554936D02*
X9344944Y-9564460D01*
X9344944Y-9564460D02*
X9325896Y-9573984D01*
X9325896Y-9573984D02*
X9306848Y-9573984D01*
X9306848Y-9573984D02*
X9287801Y-9564460D01*
X9287801Y-9564460D02*
X9278277Y-9554936D01*
X9278277Y-9554936D02*
X9268753Y-9535889D01*
X9268753Y-9535889D02*
X9259229Y-9497793D01*
X9259229Y-9497793D02*
X9259229Y-9450174D01*
X9259229Y-9450174D02*
X9268753Y-9412079D01*
X9268753Y-9412079D02*
X9278277Y-9393031D01*
X9278277Y-9393031D02*
X9287801Y-9383508D01*
X9287801Y-9383508D02*
X9306848Y-9373984D01*
X9487801Y-9459698D02*
X9468753Y-9450174D01*
X9468753Y-9450174D02*
X9459229Y-9440650D01*
X9459229Y-9440650D02*
X9449706Y-9421603D01*
X9449706Y-9421603D02*
X9449706Y-9412079D01*
X9449706Y-9412079D02*
X9459229Y-9393031D01*
X9459229Y-9393031D02*
X9468753Y-9383508D01*
X9468753Y-9383508D02*
X9487801Y-9373984D01*
X9487801Y-9373984D02*
X9525896Y-9373984D01*
X9525896Y-9373984D02*
X9544944Y-9383508D01*
X9544944Y-9383508D02*
X9554468Y-9393031D01*
X9554468Y-9393031D02*
X9563991Y-9412079D01*
X9563991Y-9412079D02*
X9563991Y-9421603D01*
X9563991Y-9421603D02*
X9554468Y-9440650D01*
X9554468Y-9440650D02*
X9544944Y-9450174D01*
X9544944Y-9450174D02*
X9525896Y-9459698D01*
X9525896Y-9459698D02*
X9487801Y-9459698D01*
X9487801Y-9459698D02*
X9468753Y-9469222D01*
X9468753Y-9469222D02*
X9459229Y-9478746D01*
X9459229Y-9478746D02*
X9449706Y-9497793D01*
X9449706Y-9497793D02*
X9449706Y-9535889D01*
X9449706Y-9535889D02*
X9459229Y-9554936D01*
X9459229Y-9554936D02*
X9468753Y-9564460D01*
X9468753Y-9564460D02*
X9487801Y-9573984D01*
X9487801Y-9573984D02*
X9525896Y-9573984D01*
X9525896Y-9573984D02*
X9544944Y-9564460D01*
X9544944Y-9564460D02*
X9554468Y-9554936D01*
X9554468Y-9554936D02*
X9563991Y-9535889D01*
X9563991Y-9535889D02*
X9563991Y-9497793D01*
X9563991Y-9497793D02*
X9554468Y-9478746D01*
X9554468Y-9478746D02*
X9544944Y-9469222D01*
X9544944Y-9469222D02*
X9525896Y-9459698D01*
X9735420Y-9373984D02*
X9697325Y-9373984D01*
X9697325Y-9373984D02*
X9678277Y-9383508D01*
X9678277Y-9383508D02*
X9668753Y-9393031D01*
X9668753Y-9393031D02*
X9649706Y-9421603D01*
X9649706Y-9421603D02*
X9640182Y-9459698D01*
X9640182Y-9459698D02*
X9640182Y-9535889D01*
X9640182Y-9535889D02*
X9649706Y-9554936D01*
X9649706Y-9554936D02*
X9659229Y-9564460D01*
X9659229Y-9564460D02*
X9678277Y-9573984D01*
X9678277Y-9573984D02*
X9716372Y-9573984D01*
X9716372Y-9573984D02*
X9735420Y-9564460D01*
X9735420Y-9564460D02*
X9744944Y-9554936D01*
X9744944Y-9554936D02*
X9754468Y-9535889D01*
X9754468Y-9535889D02*
X9754468Y-9488270D01*
X9754468Y-9488270D02*
X9744944Y-9469222D01*
X9744944Y-9469222D02*
X9735420Y-9459698D01*
X9735420Y-9459698D02*
X9716372Y-9450174D01*
X9716372Y-9450174D02*
X9678277Y-9450174D01*
X9678277Y-9450174D02*
X9659229Y-9459698D01*
X9659229Y-9459698D02*
X9649706Y-9469222D01*
X9649706Y-9469222D02*
X9640182Y-9488270D01*
X9925896Y-9373984D02*
X9887801Y-9373984D01*
X9887801Y-9373984D02*
X9868753Y-9383508D01*
X9868753Y-9383508D02*
X9859229Y-9393031D01*
X9859229Y-9393031D02*
X9840182Y-9421603D01*
X9840182Y-9421603D02*
X9830658Y-9459698D01*
X9830658Y-9459698D02*
X9830658Y-9535889D01*
X9830658Y-9535889D02*
X9840182Y-9554936D01*
X9840182Y-9554936D02*
X9849706Y-9564460D01*
X9849706Y-9564460D02*
X9868753Y-9573984D01*
X9868753Y-9573984D02*
X9906849Y-9573984D01*
X9906849Y-9573984D02*
X9925896Y-9564460D01*
X9925896Y-9564460D02*
X9935420Y-9554936D01*
X9935420Y-9554936D02*
X9944944Y-9535889D01*
X9944944Y-9535889D02*
X9944944Y-9488270D01*
X9944944Y-9488270D02*
X9935420Y-9469222D01*
X9935420Y-9469222D02*
X9925896Y-9459698D01*
X9925896Y-9459698D02*
X9906849Y-9450174D01*
X9906849Y-9450174D02*
X9868753Y-9450174D01*
X9868753Y-9450174D02*
X9849706Y-9459698D01*
X9849706Y-9459698D02*
X9840182Y-9469222D01*
X9840182Y-9469222D02*
X9830658Y-9488270D01*
X10021134Y-9373984D02*
X10021134Y-9412079D01*
X10097325Y-9373984D02*
X10097325Y-9412079D01*
X10392563Y-9650174D02*
X10383039Y-9640650D01*
X10383039Y-9640650D02*
X10363991Y-9612079D01*
X10363991Y-9612079D02*
X10354468Y-9593031D01*
X10354468Y-9593031D02*
X10344944Y-9564460D01*
X10344944Y-9564460D02*
X10335420Y-9516841D01*
X10335420Y-9516841D02*
X10335420Y-9478746D01*
X10335420Y-9478746D02*
X10344944Y-9431127D01*
X10344944Y-9431127D02*
X10354468Y-9402555D01*
X10354468Y-9402555D02*
X10363991Y-9383508D01*
X10363991Y-9383508D02*
X10383039Y-9354936D01*
X10383039Y-9354936D02*
X10392563Y-9345412D01*
X10554468Y-9440650D02*
X10554468Y-9573984D01*
X10506849Y-9364460D02*
X10459230Y-9507317D01*
X10459230Y-9507317D02*
X10583039Y-9507317D01*
X10811611Y-9573984D02*
X10811611Y-9373984D01*
X10897325Y-9573984D02*
X10897325Y-9469222D01*
X10897325Y-9469222D02*
X10887801Y-9450174D01*
X10887801Y-9450174D02*
X10868753Y-9440650D01*
X10868753Y-9440650D02*
X10840182Y-9440650D01*
X10840182Y-9440650D02*
X10821134Y-9450174D01*
X10821134Y-9450174D02*
X10811611Y-9459698D01*
X11021134Y-9573984D02*
X11002087Y-9564460D01*
X11002087Y-9564460D02*
X10992563Y-9554936D01*
X10992563Y-9554936D02*
X10983039Y-9535889D01*
X10983039Y-9535889D02*
X10983039Y-9478746D01*
X10983039Y-9478746D02*
X10992563Y-9459698D01*
X10992563Y-9459698D02*
X11002087Y-9450174D01*
X11002087Y-9450174D02*
X11021134Y-9440650D01*
X11021134Y-9440650D02*
X11049706Y-9440650D01*
X11049706Y-9440650D02*
X11068753Y-9450174D01*
X11068753Y-9450174D02*
X11078277Y-9459698D01*
X11078277Y-9459698D02*
X11087801Y-9478746D01*
X11087801Y-9478746D02*
X11087801Y-9535889D01*
X11087801Y-9535889D02*
X11078277Y-9554936D01*
X11078277Y-9554936D02*
X11068753Y-9564460D01*
X11068753Y-9564460D02*
X11049706Y-9573984D01*
X11049706Y-9573984D02*
X11021134Y-9573984D01*
X11202087Y-9573984D02*
X11183039Y-9564460D01*
X11183039Y-9564460D02*
X11173515Y-9545412D01*
X11173515Y-9545412D02*
X11173515Y-9373984D01*
X11354468Y-9564460D02*
X11335420Y-9573984D01*
X11335420Y-9573984D02*
X11297325Y-9573984D01*
X11297325Y-9573984D02*
X11278277Y-9564460D01*
X11278277Y-9564460D02*
X11268753Y-9545412D01*
X11268753Y-9545412D02*
X11268753Y-9469222D01*
X11268753Y-9469222D02*
X11278277Y-9450174D01*
X11278277Y-9450174D02*
X11297325Y-9440650D01*
X11297325Y-9440650D02*
X11335420Y-9440650D01*
X11335420Y-9440650D02*
X11354468Y-9450174D01*
X11354468Y-9450174D02*
X11363991Y-9469222D01*
X11363991Y-9469222D02*
X11363991Y-9488270D01*
X11363991Y-9488270D02*
X11268753Y-9507317D01*
X11440182Y-9564460D02*
X11459230Y-9573984D01*
X11459230Y-9573984D02*
X11497325Y-9573984D01*
X11497325Y-9573984D02*
X11516372Y-9564460D01*
X11516372Y-9564460D02*
X11525896Y-9545412D01*
X11525896Y-9545412D02*
X11525896Y-9535889D01*
X11525896Y-9535889D02*
X11516372Y-9516841D01*
X11516372Y-9516841D02*
X11497325Y-9507317D01*
X11497325Y-9507317D02*
X11468753Y-9507317D01*
X11468753Y-9507317D02*
X11449706Y-9497793D01*
X11449706Y-9497793D02*
X11440182Y-9478746D01*
X11440182Y-9478746D02*
X11440182Y-9469222D01*
X11440182Y-9469222D02*
X11449706Y-9450174D01*
X11449706Y-9450174D02*
X11468753Y-9440650D01*
X11468753Y-9440650D02*
X11497325Y-9440650D01*
X11497325Y-9440650D02*
X11516372Y-9450174D01*
X11592563Y-9650174D02*
X11602087Y-9640650D01*
X11602087Y-9640650D02*
X11621134Y-9612079D01*
X11621134Y-9612079D02*
X11630658Y-9593031D01*
X11630658Y-9593031D02*
X11640182Y-9564460D01*
X11640182Y-9564460D02*
X11649706Y-9516841D01*
X11649706Y-9516841D02*
X11649706Y-9478746D01*
X11649706Y-9478746D02*
X11640182Y-9431127D01*
X11640182Y-9431127D02*
X11630658Y-9402555D01*
X11630658Y-9402555D02*
X11621134Y-9383508D01*
X11621134Y-9383508D02*
X11602087Y-9354936D01*
X11602087Y-9354936D02*
X11592563Y-9345412D01*
X11954468Y-9650174D02*
X11944944Y-9640650D01*
X11944944Y-9640650D02*
X11925896Y-9612079D01*
X11925896Y-9612079D02*
X11916372Y-9593031D01*
X11916372Y-9593031D02*
X11906849Y-9564460D01*
X11906849Y-9564460D02*
X11897325Y-9516841D01*
X11897325Y-9516841D02*
X11897325Y-9478746D01*
X11897325Y-9478746D02*
X11906849Y-9431127D01*
X11906849Y-9431127D02*
X11916372Y-9402555D01*
X11916372Y-9402555D02*
X11925896Y-9383508D01*
X11925896Y-9383508D02*
X11944944Y-9354936D01*
X11944944Y-9354936D02*
X11954468Y-9345412D01*
X12030658Y-9440650D02*
X12030658Y-9573984D01*
X12030658Y-9459698D02*
X12040182Y-9450174D01*
X12040182Y-9450174D02*
X12059230Y-9440650D01*
X12059230Y-9440650D02*
X12087801Y-9440650D01*
X12087801Y-9440650D02*
X12106849Y-9450174D01*
X12106849Y-9450174D02*
X12116372Y-9469222D01*
X12116372Y-9469222D02*
X12116372Y-9573984D01*
X12240182Y-9573984D02*
X12221134Y-9564460D01*
X12221134Y-9564460D02*
X12211611Y-9554936D01*
X12211611Y-9554936D02*
X12202087Y-9535889D01*
X12202087Y-9535889D02*
X12202087Y-9478746D01*
X12202087Y-9478746D02*
X12211611Y-9459698D01*
X12211611Y-9459698D02*
X12221134Y-9450174D01*
X12221134Y-9450174D02*
X12240182Y-9440650D01*
X12240182Y-9440650D02*
X12268753Y-9440650D01*
X12268753Y-9440650D02*
X12287801Y-9450174D01*
X12287801Y-9450174D02*
X12297325Y-9459698D01*
X12297325Y-9459698D02*
X12306849Y-9478746D01*
X12306849Y-9478746D02*
X12306849Y-9535889D01*
X12306849Y-9535889D02*
X12297325Y-9554936D01*
X12297325Y-9554936D02*
X12287801Y-9564460D01*
X12287801Y-9564460D02*
X12268753Y-9573984D01*
X12268753Y-9573984D02*
X12240182Y-9573984D01*
X12363992Y-9440650D02*
X12440182Y-9440650D01*
X12392563Y-9373984D02*
X12392563Y-9545412D01*
X12392563Y-9545412D02*
X12402087Y-9564460D01*
X12402087Y-9564460D02*
X12421134Y-9573984D01*
X12421134Y-9573984D02*
X12440182Y-9573984D01*
X12659230Y-9440650D02*
X12659230Y-9640650D01*
X12659230Y-9450174D02*
X12678277Y-9440650D01*
X12678277Y-9440650D02*
X12716373Y-9440650D01*
X12716373Y-9440650D02*
X12735420Y-9450174D01*
X12735420Y-9450174D02*
X12744944Y-9459698D01*
X12744944Y-9459698D02*
X12754468Y-9478746D01*
X12754468Y-9478746D02*
X12754468Y-9535889D01*
X12754468Y-9535889D02*
X12744944Y-9554936D01*
X12744944Y-9554936D02*
X12735420Y-9564460D01*
X12735420Y-9564460D02*
X12716373Y-9573984D01*
X12716373Y-9573984D02*
X12678277Y-9573984D01*
X12678277Y-9573984D02*
X12659230Y-9564460D01*
X12868753Y-9573984D02*
X12849706Y-9564460D01*
X12849706Y-9564460D02*
X12840182Y-9545412D01*
X12840182Y-9545412D02*
X12840182Y-9373984D01*
X13030658Y-9573984D02*
X13030658Y-9469222D01*
X13030658Y-9469222D02*
X13021134Y-9450174D01*
X13021134Y-9450174D02*
X13002087Y-9440650D01*
X13002087Y-9440650D02*
X12963992Y-9440650D01*
X12963992Y-9440650D02*
X12944944Y-9450174D01*
X13030658Y-9564460D02*
X13011611Y-9573984D01*
X13011611Y-9573984D02*
X12963992Y-9573984D01*
X12963992Y-9573984D02*
X12944944Y-9564460D01*
X12944944Y-9564460D02*
X12935420Y-9545412D01*
X12935420Y-9545412D02*
X12935420Y-9526365D01*
X12935420Y-9526365D02*
X12944944Y-9507317D01*
X12944944Y-9507317D02*
X12963992Y-9497793D01*
X12963992Y-9497793D02*
X13011611Y-9497793D01*
X13011611Y-9497793D02*
X13030658Y-9488270D01*
X13097325Y-9440650D02*
X13173515Y-9440650D01*
X13125896Y-9373984D02*
X13125896Y-9545412D01*
X13125896Y-9545412D02*
X13135420Y-9564460D01*
X13135420Y-9564460D02*
X13154468Y-9573984D01*
X13154468Y-9573984D02*
X13173515Y-9573984D01*
X13316373Y-9564460D02*
X13297325Y-9573984D01*
X13297325Y-9573984D02*
X13259230Y-9573984D01*
X13259230Y-9573984D02*
X13240182Y-9564460D01*
X13240182Y-9564460D02*
X13230658Y-9545412D01*
X13230658Y-9545412D02*
X13230658Y-9469222D01*
X13230658Y-9469222D02*
X13240182Y-9450174D01*
X13240182Y-9450174D02*
X13259230Y-9440650D01*
X13259230Y-9440650D02*
X13297325Y-9440650D01*
X13297325Y-9440650D02*
X13316373Y-9450174D01*
X13316373Y-9450174D02*
X13325896Y-9469222D01*
X13325896Y-9469222D02*
X13325896Y-9488270D01*
X13325896Y-9488270D02*
X13230658Y-9507317D01*
X13497325Y-9573984D02*
X13497325Y-9373984D01*
X13497325Y-9564460D02*
X13478277Y-9573984D01*
X13478277Y-9573984D02*
X13440182Y-9573984D01*
X13440182Y-9573984D02*
X13421134Y-9564460D01*
X13421134Y-9564460D02*
X13411611Y-9554936D01*
X13411611Y-9554936D02*
X13402087Y-9535889D01*
X13402087Y-9535889D02*
X13402087Y-9478746D01*
X13402087Y-9478746D02*
X13411611Y-9459698D01*
X13411611Y-9459698D02*
X13421134Y-9450174D01*
X13421134Y-9450174D02*
X13440182Y-9440650D01*
X13440182Y-9440650D02*
X13478277Y-9440650D01*
X13478277Y-9440650D02*
X13497325Y-9450174D01*
X13573515Y-9650174D02*
X13583039Y-9640650D01*
X13583039Y-9640650D02*
X13602087Y-9612079D01*
X13602087Y-9612079D02*
X13611611Y-9593031D01*
X13611611Y-9593031D02*
X13621134Y-9564460D01*
X13621134Y-9564460D02*
X13630658Y-9516841D01*
X13630658Y-9516841D02*
X13630658Y-9478746D01*
X13630658Y-9478746D02*
X13621134Y-9431127D01*
X13621134Y-9431127D02*
X13611611Y-9402555D01*
X13611611Y-9402555D02*
X13602087Y-9383508D01*
X13602087Y-9383508D02*
X13583039Y-9354936D01*
X13583039Y-9354936D02*
X13573515Y-9345412D01*
M02*
