%TF.GenerationSoftware,KiCad,Pcbnew,9.0.2*%
%TF.CreationDate,2025-07-06T01:09:29-04:00*%
%TF.ProjectId,controller,636f6e74-726f-46c6-9c65-722e6b696361,rev?*%
%TF.SameCoordinates,Original*%
%TF.FileFunction,Drillmap*%
%TF.FilePolarity,Positive*%
%FSLAX45Y45*%
G04 Gerber Fmt 4.5, Leading zero omitted, Abs format (unit mm)*
G04 Created by KiCad (PCBNEW 9.0.2) date 2025-07-06 01:09:29*
%MOMM*%
%LPD*%
G01*
G04 APERTURE LIST*
%ADD10C,0.050000*%
%ADD11C,0.200000*%
%ADD12C,0.100000*%
%ADD13C,0.104000*%
%ADD14C,0.110000*%
%ADD15C,0.300000*%
G04 APERTURE END LIST*
D10*
X17550000Y-7750000D02*
X22600000Y-7750000D01*
X22600000Y-13550000D01*
X17550000Y-13550000D01*
X17550000Y-7750000D01*
D11*
D12*
X20785000Y-10585000D02*
X20815000Y-10615000D01*
X20815000Y-10585000D02*
X20785000Y-10615000D01*
X20785000Y-11185000D02*
X20815000Y-11215000D01*
X20815000Y-11185000D02*
X20785000Y-11215000D01*
X20885000Y-10935000D02*
X20915000Y-10965000D01*
X20915000Y-10935000D02*
X20885000Y-10965000D01*
X21485000Y-10685000D02*
X21515000Y-10715000D01*
X21515000Y-10685000D02*
X21485000Y-10715000D01*
X21200000Y-10546000D02*
G75*
G02*
X21100000Y-10546000I-50000J0D01*
G01*
X21100000Y-10546000D02*
G75*
G02*
X21200000Y-10546000I50000J0D01*
G01*
X21200000Y-10800000D02*
G75*
G02*
X21100000Y-10800000I-50000J0D01*
G01*
X21100000Y-10800000D02*
G75*
G02*
X21200000Y-10800000I50000J0D01*
G01*
X21200000Y-11054000D02*
G75*
G02*
X21100000Y-11054000I-50000J0D01*
G01*
X21100000Y-11054000D02*
G75*
G02*
X21200000Y-11054000I50000J0D01*
G01*
X21200000Y-11308000D02*
G75*
G02*
X21100000Y-11308000I-50000J0D01*
G01*
X21100000Y-11308000D02*
G75*
G02*
X21200000Y-11308000I50000J0D01*
G01*
X21200000Y-11562000D02*
G75*
G02*
X21100000Y-11562000I-50000J0D01*
G01*
X21100000Y-11562000D02*
G75*
G02*
X21200000Y-11562000I50000J0D01*
G01*
X21200000Y-11946000D02*
G75*
G02*
X21100000Y-11946000I-50000J0D01*
G01*
X21100000Y-11946000D02*
G75*
G02*
X21200000Y-11946000I50000J0D01*
G01*
X21200000Y-12200000D02*
G75*
G02*
X21100000Y-12200000I-50000J0D01*
G01*
X21100000Y-12200000D02*
G75*
G02*
X21200000Y-12200000I50000J0D01*
G01*
X21200000Y-12454000D02*
G75*
G02*
X21100000Y-12454000I-50000J0D01*
G01*
X21100000Y-12454000D02*
G75*
G02*
X21200000Y-12454000I50000J0D01*
G01*
X21200000Y-12708000D02*
G75*
G02*
X21100000Y-12708000I-50000J0D01*
G01*
X21100000Y-12708000D02*
G75*
G02*
X21200000Y-12708000I50000J0D01*
G01*
X21200000Y-12962000D02*
G75*
G02*
X21100000Y-12962000I-50000J0D01*
G01*
X21100000Y-12962000D02*
G75*
G02*
X21200000Y-12962000I50000J0D01*
G01*
X21900000Y-10746000D02*
G75*
G02*
X21800000Y-10746000I-50000J0D01*
G01*
X21800000Y-10746000D02*
G75*
G02*
X21900000Y-10746000I50000J0D01*
G01*
X21900000Y-11000000D02*
G75*
G02*
X21800000Y-11000000I-50000J0D01*
G01*
X21800000Y-11000000D02*
G75*
G02*
X21900000Y-11000000I50000J0D01*
G01*
X21900000Y-11254000D02*
G75*
G02*
X21800000Y-11254000I-50000J0D01*
G01*
X21800000Y-11254000D02*
G75*
G02*
X21900000Y-11254000I50000J0D01*
G01*
X21900000Y-11508000D02*
G75*
G02*
X21800000Y-11508000I-50000J0D01*
G01*
X21800000Y-11508000D02*
G75*
G02*
X21900000Y-11508000I50000J0D01*
G01*
X21900000Y-12304000D02*
G75*
G02*
X21800000Y-12304000I-50000J0D01*
G01*
X21800000Y-12304000D02*
G75*
G02*
X21900000Y-12304000I50000J0D01*
G01*
X21900000Y-12558000D02*
G75*
G02*
X21800000Y-12558000I-50000J0D01*
G01*
X21800000Y-12558000D02*
G75*
G02*
X21900000Y-12558000I50000J0D01*
G01*
D13*
X18211000Y-8324000D02*
X18211000Y-8428000D01*
X18159000Y-8376000D02*
X18263000Y-8376000D01*
X18211000Y-8578000D02*
X18211000Y-8682000D01*
X18159000Y-8630000D02*
X18263000Y-8630000D01*
X18211000Y-8832000D02*
X18211000Y-8936000D01*
X18159000Y-8884000D02*
X18263000Y-8884000D01*
X18211000Y-9086000D02*
X18211000Y-9190000D01*
X18159000Y-9138000D02*
X18263000Y-9138000D01*
X18211000Y-9340000D02*
X18211000Y-9444000D01*
X18159000Y-9392000D02*
X18263000Y-9392000D01*
X18211000Y-9594000D02*
X18211000Y-9698000D01*
X18159000Y-9646000D02*
X18263000Y-9646000D01*
X18211000Y-9848000D02*
X18211000Y-9952000D01*
X18159000Y-9900000D02*
X18263000Y-9900000D01*
X18211000Y-10102000D02*
X18211000Y-10206000D01*
X18159000Y-10154000D02*
X18263000Y-10154000D01*
X18211000Y-10356000D02*
X18211000Y-10460000D01*
X18159000Y-10408000D02*
X18263000Y-10408000D01*
X18211000Y-10610000D02*
X18211000Y-10714000D01*
X18159000Y-10662000D02*
X18263000Y-10662000D01*
X18211000Y-10864000D02*
X18211000Y-10968000D01*
X18159000Y-10916000D02*
X18263000Y-10916000D01*
X18211000Y-11118000D02*
X18211000Y-11222000D01*
X18159000Y-11170000D02*
X18263000Y-11170000D01*
X18211000Y-11372000D02*
X18211000Y-11476000D01*
X18159000Y-11424000D02*
X18263000Y-11424000D01*
X18211000Y-11626000D02*
X18211000Y-11730000D01*
X18159000Y-11678000D02*
X18263000Y-11678000D01*
X18211000Y-11880000D02*
X18211000Y-11984000D01*
X18159000Y-11932000D02*
X18263000Y-11932000D01*
X18211000Y-12134000D02*
X18211000Y-12238000D01*
X18159000Y-12186000D02*
X18263000Y-12186000D01*
X18211000Y-12388000D02*
X18211000Y-12492000D01*
X18159000Y-12440000D02*
X18263000Y-12440000D01*
X18211000Y-12642000D02*
X18211000Y-12746000D01*
X18159000Y-12694000D02*
X18263000Y-12694000D01*
X18211000Y-12896000D02*
X18211000Y-13000000D01*
X18159000Y-12948000D02*
X18263000Y-12948000D01*
X20501000Y-8324000D02*
X20501000Y-8428000D01*
X20449000Y-8376000D02*
X20553000Y-8376000D01*
X20501000Y-8578000D02*
X20501000Y-8682000D01*
X20449000Y-8630000D02*
X20553000Y-8630000D01*
X20501000Y-8832000D02*
X20501000Y-8936000D01*
X20449000Y-8884000D02*
X20553000Y-8884000D01*
X20501000Y-9086000D02*
X20501000Y-9190000D01*
X20449000Y-9138000D02*
X20553000Y-9138000D01*
X20501000Y-9340000D02*
X20501000Y-9444000D01*
X20449000Y-9392000D02*
X20553000Y-9392000D01*
X20501000Y-9594000D02*
X20501000Y-9698000D01*
X20449000Y-9646000D02*
X20553000Y-9646000D01*
X20501000Y-9848000D02*
X20501000Y-9952000D01*
X20449000Y-9900000D02*
X20553000Y-9900000D01*
X20501000Y-10102000D02*
X20501000Y-10206000D01*
X20449000Y-10154000D02*
X20553000Y-10154000D01*
X20501000Y-10356000D02*
X20501000Y-10460000D01*
X20449000Y-10408000D02*
X20553000Y-10408000D01*
X20501000Y-10610000D02*
X20501000Y-10714000D01*
X20449000Y-10662000D02*
X20553000Y-10662000D01*
X20501000Y-10864000D02*
X20501000Y-10968000D01*
X20449000Y-10916000D02*
X20553000Y-10916000D01*
X20501000Y-11118000D02*
X20501000Y-11222000D01*
X20449000Y-11170000D02*
X20553000Y-11170000D01*
X20501000Y-11372000D02*
X20501000Y-11476000D01*
X20449000Y-11424000D02*
X20553000Y-11424000D01*
X20501000Y-11626000D02*
X20501000Y-11730000D01*
X20449000Y-11678000D02*
X20553000Y-11678000D01*
X20501000Y-11880000D02*
X20501000Y-11984000D01*
X20449000Y-11932000D02*
X20553000Y-11932000D01*
X20501000Y-12134000D02*
X20501000Y-12238000D01*
X20449000Y-12186000D02*
X20553000Y-12186000D01*
X20501000Y-12388000D02*
X20501000Y-12492000D01*
X20449000Y-12440000D02*
X20553000Y-12440000D01*
X20501000Y-12642000D02*
X20501000Y-12746000D01*
X20449000Y-12694000D02*
X20553000Y-12694000D01*
X20501000Y-12896000D02*
X20501000Y-13000000D01*
X20449000Y-12948000D02*
X20553000Y-12948000D01*
D14*
X21180891Y-10238891D02*
X21180891Y-10161109D01*
X21103109Y-10161109D01*
X21103109Y-10238891D01*
X21180891Y-10238891D01*
X21434891Y-10238891D02*
X21434891Y-10161109D01*
X21357109Y-10161109D01*
X21357109Y-10238891D01*
X21434891Y-10238891D01*
X21688891Y-10238891D02*
X21688891Y-10161109D01*
X21611109Y-10161109D01*
X21611109Y-10238891D01*
X21688891Y-10238891D01*
D15*
X21046000Y-8758000D02*
X21196000Y-8608000D01*
X21046000Y-8458000D01*
X20896000Y-8608000D01*
X21046000Y-8758000D01*
X21046000Y-9588000D02*
X21196000Y-9438000D01*
X21046000Y-9288000D01*
X20896000Y-9438000D01*
X21046000Y-9588000D01*
X21746000Y-8758000D02*
X21896000Y-8608000D01*
X21746000Y-8458000D01*
X21596000Y-8608000D01*
X21746000Y-8758000D01*
X21746000Y-9588000D02*
X21896000Y-9438000D01*
X21746000Y-9288000D01*
X21596000Y-9438000D01*
X21746000Y-9588000D01*
D11*
X17808277Y-13863984D02*
X17808277Y-13663984D01*
X17808277Y-13663984D02*
X17855896Y-13663984D01*
X17855896Y-13663984D02*
X17884467Y-13673508D01*
X17884467Y-13673508D02*
X17903515Y-13692555D01*
X17903515Y-13692555D02*
X17913039Y-13711603D01*
X17913039Y-13711603D02*
X17922563Y-13749698D01*
X17922563Y-13749698D02*
X17922563Y-13778269D01*
X17922563Y-13778269D02*
X17913039Y-13816365D01*
X17913039Y-13816365D02*
X17903515Y-13835412D01*
X17903515Y-13835412D02*
X17884467Y-13854460D01*
X17884467Y-13854460D02*
X17855896Y-13863984D01*
X17855896Y-13863984D02*
X17808277Y-13863984D01*
X18008277Y-13863984D02*
X18008277Y-13730650D01*
X18008277Y-13768746D02*
X18017801Y-13749698D01*
X18017801Y-13749698D02*
X18027324Y-13740174D01*
X18027324Y-13740174D02*
X18046372Y-13730650D01*
X18046372Y-13730650D02*
X18065420Y-13730650D01*
X18132086Y-13863984D02*
X18132086Y-13730650D01*
X18132086Y-13663984D02*
X18122563Y-13673508D01*
X18122563Y-13673508D02*
X18132086Y-13683031D01*
X18132086Y-13683031D02*
X18141610Y-13673508D01*
X18141610Y-13673508D02*
X18132086Y-13663984D01*
X18132086Y-13663984D02*
X18132086Y-13683031D01*
X18255896Y-13863984D02*
X18236848Y-13854460D01*
X18236848Y-13854460D02*
X18227324Y-13835412D01*
X18227324Y-13835412D02*
X18227324Y-13663984D01*
X18360658Y-13863984D02*
X18341610Y-13854460D01*
X18341610Y-13854460D02*
X18332086Y-13835412D01*
X18332086Y-13835412D02*
X18332086Y-13663984D01*
X18589229Y-13863984D02*
X18589229Y-13663984D01*
X18589229Y-13663984D02*
X18655896Y-13806841D01*
X18655896Y-13806841D02*
X18722563Y-13663984D01*
X18722563Y-13663984D02*
X18722563Y-13863984D01*
X18903515Y-13863984D02*
X18903515Y-13759222D01*
X18903515Y-13759222D02*
X18893991Y-13740174D01*
X18893991Y-13740174D02*
X18874944Y-13730650D01*
X18874944Y-13730650D02*
X18836848Y-13730650D01*
X18836848Y-13730650D02*
X18817801Y-13740174D01*
X18903515Y-13854460D02*
X18884467Y-13863984D01*
X18884467Y-13863984D02*
X18836848Y-13863984D01*
X18836848Y-13863984D02*
X18817801Y-13854460D01*
X18817801Y-13854460D02*
X18808277Y-13835412D01*
X18808277Y-13835412D02*
X18808277Y-13816365D01*
X18808277Y-13816365D02*
X18817801Y-13797317D01*
X18817801Y-13797317D02*
X18836848Y-13787793D01*
X18836848Y-13787793D02*
X18884467Y-13787793D01*
X18884467Y-13787793D02*
X18903515Y-13778269D01*
X18998753Y-13730650D02*
X18998753Y-13930650D01*
X18998753Y-13740174D02*
X19017801Y-13730650D01*
X19017801Y-13730650D02*
X19055896Y-13730650D01*
X19055896Y-13730650D02*
X19074944Y-13740174D01*
X19074944Y-13740174D02*
X19084467Y-13749698D01*
X19084467Y-13749698D02*
X19093991Y-13768746D01*
X19093991Y-13768746D02*
X19093991Y-13825888D01*
X19093991Y-13825888D02*
X19084467Y-13844936D01*
X19084467Y-13844936D02*
X19074944Y-13854460D01*
X19074944Y-13854460D02*
X19055896Y-13863984D01*
X19055896Y-13863984D02*
X19017801Y-13863984D01*
X19017801Y-13863984D02*
X18998753Y-13854460D01*
X19179705Y-13844936D02*
X19189229Y-13854460D01*
X19189229Y-13854460D02*
X19179705Y-13863984D01*
X19179705Y-13863984D02*
X19170182Y-13854460D01*
X19170182Y-13854460D02*
X19179705Y-13844936D01*
X19179705Y-13844936D02*
X19179705Y-13863984D01*
X19179705Y-13740174D02*
X19189229Y-13749698D01*
X19189229Y-13749698D02*
X19179705Y-13759222D01*
X19179705Y-13759222D02*
X19170182Y-13749698D01*
X19170182Y-13749698D02*
X19179705Y-13740174D01*
X19179705Y-13740174D02*
X19179705Y-13759222D01*
D12*
X17517500Y-14177500D02*
X17547500Y-14207500D01*
X17547500Y-14177500D02*
X17517500Y-14207500D01*
D11*
X17846372Y-14083984D02*
X17865420Y-14083984D01*
X17865420Y-14083984D02*
X17884467Y-14093508D01*
X17884467Y-14093508D02*
X17893991Y-14103031D01*
X17893991Y-14103031D02*
X17903515Y-14122079D01*
X17903515Y-14122079D02*
X17913039Y-14160174D01*
X17913039Y-14160174D02*
X17913039Y-14207793D01*
X17913039Y-14207793D02*
X17903515Y-14245888D01*
X17903515Y-14245888D02*
X17893991Y-14264936D01*
X17893991Y-14264936D02*
X17884467Y-14274460D01*
X17884467Y-14274460D02*
X17865420Y-14283984D01*
X17865420Y-14283984D02*
X17846372Y-14283984D01*
X17846372Y-14283984D02*
X17827324Y-14274460D01*
X17827324Y-14274460D02*
X17817801Y-14264936D01*
X17817801Y-14264936D02*
X17808277Y-14245888D01*
X17808277Y-14245888D02*
X17798753Y-14207793D01*
X17798753Y-14207793D02*
X17798753Y-14160174D01*
X17798753Y-14160174D02*
X17808277Y-14122079D01*
X17808277Y-14122079D02*
X17817801Y-14103031D01*
X17817801Y-14103031D02*
X17827324Y-14093508D01*
X17827324Y-14093508D02*
X17846372Y-14083984D01*
X17998753Y-14264936D02*
X18008277Y-14274460D01*
X18008277Y-14274460D02*
X17998753Y-14283984D01*
X17998753Y-14283984D02*
X17989229Y-14274460D01*
X17989229Y-14274460D02*
X17998753Y-14264936D01*
X17998753Y-14264936D02*
X17998753Y-14283984D01*
X18074944Y-14083984D02*
X18198753Y-14083984D01*
X18198753Y-14083984D02*
X18132086Y-14160174D01*
X18132086Y-14160174D02*
X18160658Y-14160174D01*
X18160658Y-14160174D02*
X18179705Y-14169698D01*
X18179705Y-14169698D02*
X18189229Y-14179222D01*
X18189229Y-14179222D02*
X18198753Y-14198269D01*
X18198753Y-14198269D02*
X18198753Y-14245888D01*
X18198753Y-14245888D02*
X18189229Y-14264936D01*
X18189229Y-14264936D02*
X18179705Y-14274460D01*
X18179705Y-14274460D02*
X18160658Y-14283984D01*
X18160658Y-14283984D02*
X18103515Y-14283984D01*
X18103515Y-14283984D02*
X18084467Y-14274460D01*
X18084467Y-14274460D02*
X18074944Y-14264936D01*
X18322563Y-14083984D02*
X18341610Y-14083984D01*
X18341610Y-14083984D02*
X18360658Y-14093508D01*
X18360658Y-14093508D02*
X18370182Y-14103031D01*
X18370182Y-14103031D02*
X18379705Y-14122079D01*
X18379705Y-14122079D02*
X18389229Y-14160174D01*
X18389229Y-14160174D02*
X18389229Y-14207793D01*
X18389229Y-14207793D02*
X18379705Y-14245888D01*
X18379705Y-14245888D02*
X18370182Y-14264936D01*
X18370182Y-14264936D02*
X18360658Y-14274460D01*
X18360658Y-14274460D02*
X18341610Y-14283984D01*
X18341610Y-14283984D02*
X18322563Y-14283984D01*
X18322563Y-14283984D02*
X18303515Y-14274460D01*
X18303515Y-14274460D02*
X18293991Y-14264936D01*
X18293991Y-14264936D02*
X18284467Y-14245888D01*
X18284467Y-14245888D02*
X18274944Y-14207793D01*
X18274944Y-14207793D02*
X18274944Y-14160174D01*
X18274944Y-14160174D02*
X18284467Y-14122079D01*
X18284467Y-14122079D02*
X18293991Y-14103031D01*
X18293991Y-14103031D02*
X18303515Y-14093508D01*
X18303515Y-14093508D02*
X18322563Y-14083984D01*
X18513039Y-14083984D02*
X18532086Y-14083984D01*
X18532086Y-14083984D02*
X18551134Y-14093508D01*
X18551134Y-14093508D02*
X18560658Y-14103031D01*
X18560658Y-14103031D02*
X18570182Y-14122079D01*
X18570182Y-14122079D02*
X18579705Y-14160174D01*
X18579705Y-14160174D02*
X18579705Y-14207793D01*
X18579705Y-14207793D02*
X18570182Y-14245888D01*
X18570182Y-14245888D02*
X18560658Y-14264936D01*
X18560658Y-14264936D02*
X18551134Y-14274460D01*
X18551134Y-14274460D02*
X18532086Y-14283984D01*
X18532086Y-14283984D02*
X18513039Y-14283984D01*
X18513039Y-14283984D02*
X18493991Y-14274460D01*
X18493991Y-14274460D02*
X18484467Y-14264936D01*
X18484467Y-14264936D02*
X18474944Y-14245888D01*
X18474944Y-14245888D02*
X18465420Y-14207793D01*
X18465420Y-14207793D02*
X18465420Y-14160174D01*
X18465420Y-14160174D02*
X18474944Y-14122079D01*
X18474944Y-14122079D02*
X18484467Y-14103031D01*
X18484467Y-14103031D02*
X18493991Y-14093508D01*
X18493991Y-14093508D02*
X18513039Y-14083984D01*
X18665420Y-14283984D02*
X18665420Y-14150650D01*
X18665420Y-14169698D02*
X18674944Y-14160174D01*
X18674944Y-14160174D02*
X18693991Y-14150650D01*
X18693991Y-14150650D02*
X18722563Y-14150650D01*
X18722563Y-14150650D02*
X18741610Y-14160174D01*
X18741610Y-14160174D02*
X18751134Y-14179222D01*
X18751134Y-14179222D02*
X18751134Y-14283984D01*
X18751134Y-14179222D02*
X18760658Y-14160174D01*
X18760658Y-14160174D02*
X18779705Y-14150650D01*
X18779705Y-14150650D02*
X18808277Y-14150650D01*
X18808277Y-14150650D02*
X18827325Y-14160174D01*
X18827325Y-14160174D02*
X18836848Y-14179222D01*
X18836848Y-14179222D02*
X18836848Y-14283984D01*
X18932086Y-14283984D02*
X18932086Y-14150650D01*
X18932086Y-14169698D02*
X18941610Y-14160174D01*
X18941610Y-14160174D02*
X18960658Y-14150650D01*
X18960658Y-14150650D02*
X18989229Y-14150650D01*
X18989229Y-14150650D02*
X19008277Y-14160174D01*
X19008277Y-14160174D02*
X19017801Y-14179222D01*
X19017801Y-14179222D02*
X19017801Y-14283984D01*
X19017801Y-14179222D02*
X19027325Y-14160174D01*
X19027325Y-14160174D02*
X19046372Y-14150650D01*
X19046372Y-14150650D02*
X19074944Y-14150650D01*
X19074944Y-14150650D02*
X19093991Y-14160174D01*
X19093991Y-14160174D02*
X19103515Y-14179222D01*
X19103515Y-14179222D02*
X19103515Y-14283984D01*
X19493991Y-14074460D02*
X19322563Y-14331603D01*
X19751134Y-14083984D02*
X19770182Y-14083984D01*
X19770182Y-14083984D02*
X19789229Y-14093508D01*
X19789229Y-14093508D02*
X19798753Y-14103031D01*
X19798753Y-14103031D02*
X19808277Y-14122079D01*
X19808277Y-14122079D02*
X19817801Y-14160174D01*
X19817801Y-14160174D02*
X19817801Y-14207793D01*
X19817801Y-14207793D02*
X19808277Y-14245888D01*
X19808277Y-14245888D02*
X19798753Y-14264936D01*
X19798753Y-14264936D02*
X19789229Y-14274460D01*
X19789229Y-14274460D02*
X19770182Y-14283984D01*
X19770182Y-14283984D02*
X19751134Y-14283984D01*
X19751134Y-14283984D02*
X19732087Y-14274460D01*
X19732087Y-14274460D02*
X19722563Y-14264936D01*
X19722563Y-14264936D02*
X19713039Y-14245888D01*
X19713039Y-14245888D02*
X19703515Y-14207793D01*
X19703515Y-14207793D02*
X19703515Y-14160174D01*
X19703515Y-14160174D02*
X19713039Y-14122079D01*
X19713039Y-14122079D02*
X19722563Y-14103031D01*
X19722563Y-14103031D02*
X19732087Y-14093508D01*
X19732087Y-14093508D02*
X19751134Y-14083984D01*
X19903515Y-14264936D02*
X19913039Y-14274460D01*
X19913039Y-14274460D02*
X19903515Y-14283984D01*
X19903515Y-14283984D02*
X19893991Y-14274460D01*
X19893991Y-14274460D02*
X19903515Y-14264936D01*
X19903515Y-14264936D02*
X19903515Y-14283984D01*
X20036848Y-14083984D02*
X20055896Y-14083984D01*
X20055896Y-14083984D02*
X20074944Y-14093508D01*
X20074944Y-14093508D02*
X20084468Y-14103031D01*
X20084468Y-14103031D02*
X20093991Y-14122079D01*
X20093991Y-14122079D02*
X20103515Y-14160174D01*
X20103515Y-14160174D02*
X20103515Y-14207793D01*
X20103515Y-14207793D02*
X20093991Y-14245888D01*
X20093991Y-14245888D02*
X20084468Y-14264936D01*
X20084468Y-14264936D02*
X20074944Y-14274460D01*
X20074944Y-14274460D02*
X20055896Y-14283984D01*
X20055896Y-14283984D02*
X20036848Y-14283984D01*
X20036848Y-14283984D02*
X20017801Y-14274460D01*
X20017801Y-14274460D02*
X20008277Y-14264936D01*
X20008277Y-14264936D02*
X19998753Y-14245888D01*
X19998753Y-14245888D02*
X19989229Y-14207793D01*
X19989229Y-14207793D02*
X19989229Y-14160174D01*
X19989229Y-14160174D02*
X19998753Y-14122079D01*
X19998753Y-14122079D02*
X20008277Y-14103031D01*
X20008277Y-14103031D02*
X20017801Y-14093508D01*
X20017801Y-14093508D02*
X20036848Y-14083984D01*
X20293991Y-14283984D02*
X20179706Y-14283984D01*
X20236848Y-14283984D02*
X20236848Y-14083984D01*
X20236848Y-14083984D02*
X20217801Y-14112555D01*
X20217801Y-14112555D02*
X20198753Y-14131603D01*
X20198753Y-14131603D02*
X20179706Y-14141127D01*
X20484468Y-14283984D02*
X20370182Y-14283984D01*
X20427325Y-14283984D02*
X20427325Y-14083984D01*
X20427325Y-14083984D02*
X20408277Y-14112555D01*
X20408277Y-14112555D02*
X20389229Y-14131603D01*
X20389229Y-14131603D02*
X20370182Y-14141127D01*
X20598753Y-14169698D02*
X20579706Y-14160174D01*
X20579706Y-14160174D02*
X20570182Y-14150650D01*
X20570182Y-14150650D02*
X20560658Y-14131603D01*
X20560658Y-14131603D02*
X20560658Y-14122079D01*
X20560658Y-14122079D02*
X20570182Y-14103031D01*
X20570182Y-14103031D02*
X20579706Y-14093508D01*
X20579706Y-14093508D02*
X20598753Y-14083984D01*
X20598753Y-14083984D02*
X20636849Y-14083984D01*
X20636849Y-14083984D02*
X20655896Y-14093508D01*
X20655896Y-14093508D02*
X20665420Y-14103031D01*
X20665420Y-14103031D02*
X20674944Y-14122079D01*
X20674944Y-14122079D02*
X20674944Y-14131603D01*
X20674944Y-14131603D02*
X20665420Y-14150650D01*
X20665420Y-14150650D02*
X20655896Y-14160174D01*
X20655896Y-14160174D02*
X20636849Y-14169698D01*
X20636849Y-14169698D02*
X20598753Y-14169698D01*
X20598753Y-14169698D02*
X20579706Y-14179222D01*
X20579706Y-14179222D02*
X20570182Y-14188746D01*
X20570182Y-14188746D02*
X20560658Y-14207793D01*
X20560658Y-14207793D02*
X20560658Y-14245888D01*
X20560658Y-14245888D02*
X20570182Y-14264936D01*
X20570182Y-14264936D02*
X20579706Y-14274460D01*
X20579706Y-14274460D02*
X20598753Y-14283984D01*
X20598753Y-14283984D02*
X20636849Y-14283984D01*
X20636849Y-14283984D02*
X20655896Y-14274460D01*
X20655896Y-14274460D02*
X20665420Y-14264936D01*
X20665420Y-14264936D02*
X20674944Y-14245888D01*
X20674944Y-14245888D02*
X20674944Y-14207793D01*
X20674944Y-14207793D02*
X20665420Y-14188746D01*
X20665420Y-14188746D02*
X20655896Y-14179222D01*
X20655896Y-14179222D02*
X20636849Y-14169698D01*
X20751134Y-14083984D02*
X20751134Y-14122079D01*
X20827325Y-14083984D02*
X20827325Y-14122079D01*
X21122563Y-14360174D02*
X21113039Y-14350650D01*
X21113039Y-14350650D02*
X21093991Y-14322079D01*
X21093991Y-14322079D02*
X21084468Y-14303031D01*
X21084468Y-14303031D02*
X21074944Y-14274460D01*
X21074944Y-14274460D02*
X21065420Y-14226841D01*
X21065420Y-14226841D02*
X21065420Y-14188746D01*
X21065420Y-14188746D02*
X21074944Y-14141127D01*
X21074944Y-14141127D02*
X21084468Y-14112555D01*
X21084468Y-14112555D02*
X21093991Y-14093508D01*
X21093991Y-14093508D02*
X21113039Y-14064936D01*
X21113039Y-14064936D02*
X21122563Y-14055412D01*
X21284468Y-14150650D02*
X21284468Y-14283984D01*
X21236849Y-14074460D02*
X21189230Y-14217317D01*
X21189230Y-14217317D02*
X21313039Y-14217317D01*
X21541611Y-14283984D02*
X21541611Y-14083984D01*
X21627325Y-14283984D02*
X21627325Y-14179222D01*
X21627325Y-14179222D02*
X21617801Y-14160174D01*
X21617801Y-14160174D02*
X21598753Y-14150650D01*
X21598753Y-14150650D02*
X21570182Y-14150650D01*
X21570182Y-14150650D02*
X21551134Y-14160174D01*
X21551134Y-14160174D02*
X21541611Y-14169698D01*
X21751134Y-14283984D02*
X21732087Y-14274460D01*
X21732087Y-14274460D02*
X21722563Y-14264936D01*
X21722563Y-14264936D02*
X21713039Y-14245888D01*
X21713039Y-14245888D02*
X21713039Y-14188746D01*
X21713039Y-14188746D02*
X21722563Y-14169698D01*
X21722563Y-14169698D02*
X21732087Y-14160174D01*
X21732087Y-14160174D02*
X21751134Y-14150650D01*
X21751134Y-14150650D02*
X21779706Y-14150650D01*
X21779706Y-14150650D02*
X21798753Y-14160174D01*
X21798753Y-14160174D02*
X21808277Y-14169698D01*
X21808277Y-14169698D02*
X21817801Y-14188746D01*
X21817801Y-14188746D02*
X21817801Y-14245888D01*
X21817801Y-14245888D02*
X21808277Y-14264936D01*
X21808277Y-14264936D02*
X21798753Y-14274460D01*
X21798753Y-14274460D02*
X21779706Y-14283984D01*
X21779706Y-14283984D02*
X21751134Y-14283984D01*
X21932087Y-14283984D02*
X21913039Y-14274460D01*
X21913039Y-14274460D02*
X21903515Y-14255412D01*
X21903515Y-14255412D02*
X21903515Y-14083984D01*
X22084468Y-14274460D02*
X22065420Y-14283984D01*
X22065420Y-14283984D02*
X22027325Y-14283984D01*
X22027325Y-14283984D02*
X22008277Y-14274460D01*
X22008277Y-14274460D02*
X21998753Y-14255412D01*
X21998753Y-14255412D02*
X21998753Y-14179222D01*
X21998753Y-14179222D02*
X22008277Y-14160174D01*
X22008277Y-14160174D02*
X22027325Y-14150650D01*
X22027325Y-14150650D02*
X22065420Y-14150650D01*
X22065420Y-14150650D02*
X22084468Y-14160174D01*
X22084468Y-14160174D02*
X22093992Y-14179222D01*
X22093992Y-14179222D02*
X22093992Y-14198269D01*
X22093992Y-14198269D02*
X21998753Y-14217317D01*
X22170182Y-14274460D02*
X22189230Y-14283984D01*
X22189230Y-14283984D02*
X22227325Y-14283984D01*
X22227325Y-14283984D02*
X22246373Y-14274460D01*
X22246373Y-14274460D02*
X22255896Y-14255412D01*
X22255896Y-14255412D02*
X22255896Y-14245888D01*
X22255896Y-14245888D02*
X22246373Y-14226841D01*
X22246373Y-14226841D02*
X22227325Y-14217317D01*
X22227325Y-14217317D02*
X22198753Y-14217317D01*
X22198753Y-14217317D02*
X22179706Y-14207793D01*
X22179706Y-14207793D02*
X22170182Y-14188746D01*
X22170182Y-14188746D02*
X22170182Y-14179222D01*
X22170182Y-14179222D02*
X22179706Y-14160174D01*
X22179706Y-14160174D02*
X22198753Y-14150650D01*
X22198753Y-14150650D02*
X22227325Y-14150650D01*
X22227325Y-14150650D02*
X22246373Y-14160174D01*
X22322563Y-14360174D02*
X22332087Y-14350650D01*
X22332087Y-14350650D02*
X22351134Y-14322079D01*
X22351134Y-14322079D02*
X22360658Y-14303031D01*
X22360658Y-14303031D02*
X22370182Y-14274460D01*
X22370182Y-14274460D02*
X22379706Y-14226841D01*
X22379706Y-14226841D02*
X22379706Y-14188746D01*
X22379706Y-14188746D02*
X22370182Y-14141127D01*
X22370182Y-14141127D02*
X22360658Y-14112555D01*
X22360658Y-14112555D02*
X22351134Y-14093508D01*
X22351134Y-14093508D02*
X22332087Y-14064936D01*
X22332087Y-14064936D02*
X22322563Y-14055412D01*
D12*
X17547500Y-14456500D02*
G75*
G02*
X17447500Y-14456500I-50000J0D01*
G01*
X17447500Y-14456500D02*
G75*
G02*
X17547500Y-14456500I50000J0D01*
G01*
D11*
X17913039Y-14547984D02*
X17798753Y-14547984D01*
X17855896Y-14547984D02*
X17855896Y-14347984D01*
X17855896Y-14347984D02*
X17836848Y-14376555D01*
X17836848Y-14376555D02*
X17817801Y-14395603D01*
X17817801Y-14395603D02*
X17798753Y-14405127D01*
X17998753Y-14528936D02*
X18008277Y-14538460D01*
X18008277Y-14538460D02*
X17998753Y-14547984D01*
X17998753Y-14547984D02*
X17989229Y-14538460D01*
X17989229Y-14538460D02*
X17998753Y-14528936D01*
X17998753Y-14528936D02*
X17998753Y-14547984D01*
X18132086Y-14347984D02*
X18151134Y-14347984D01*
X18151134Y-14347984D02*
X18170182Y-14357508D01*
X18170182Y-14357508D02*
X18179705Y-14367031D01*
X18179705Y-14367031D02*
X18189229Y-14386079D01*
X18189229Y-14386079D02*
X18198753Y-14424174D01*
X18198753Y-14424174D02*
X18198753Y-14471793D01*
X18198753Y-14471793D02*
X18189229Y-14509888D01*
X18189229Y-14509888D02*
X18179705Y-14528936D01*
X18179705Y-14528936D02*
X18170182Y-14538460D01*
X18170182Y-14538460D02*
X18151134Y-14547984D01*
X18151134Y-14547984D02*
X18132086Y-14547984D01*
X18132086Y-14547984D02*
X18113039Y-14538460D01*
X18113039Y-14538460D02*
X18103515Y-14528936D01*
X18103515Y-14528936D02*
X18093991Y-14509888D01*
X18093991Y-14509888D02*
X18084467Y-14471793D01*
X18084467Y-14471793D02*
X18084467Y-14424174D01*
X18084467Y-14424174D02*
X18093991Y-14386079D01*
X18093991Y-14386079D02*
X18103515Y-14367031D01*
X18103515Y-14367031D02*
X18113039Y-14357508D01*
X18113039Y-14357508D02*
X18132086Y-14347984D01*
X18322563Y-14347984D02*
X18341610Y-14347984D01*
X18341610Y-14347984D02*
X18360658Y-14357508D01*
X18360658Y-14357508D02*
X18370182Y-14367031D01*
X18370182Y-14367031D02*
X18379705Y-14386079D01*
X18379705Y-14386079D02*
X18389229Y-14424174D01*
X18389229Y-14424174D02*
X18389229Y-14471793D01*
X18389229Y-14471793D02*
X18379705Y-14509888D01*
X18379705Y-14509888D02*
X18370182Y-14528936D01*
X18370182Y-14528936D02*
X18360658Y-14538460D01*
X18360658Y-14538460D02*
X18341610Y-14547984D01*
X18341610Y-14547984D02*
X18322563Y-14547984D01*
X18322563Y-14547984D02*
X18303515Y-14538460D01*
X18303515Y-14538460D02*
X18293991Y-14528936D01*
X18293991Y-14528936D02*
X18284467Y-14509888D01*
X18284467Y-14509888D02*
X18274944Y-14471793D01*
X18274944Y-14471793D02*
X18274944Y-14424174D01*
X18274944Y-14424174D02*
X18284467Y-14386079D01*
X18284467Y-14386079D02*
X18293991Y-14367031D01*
X18293991Y-14367031D02*
X18303515Y-14357508D01*
X18303515Y-14357508D02*
X18322563Y-14347984D01*
X18513039Y-14347984D02*
X18532086Y-14347984D01*
X18532086Y-14347984D02*
X18551134Y-14357508D01*
X18551134Y-14357508D02*
X18560658Y-14367031D01*
X18560658Y-14367031D02*
X18570182Y-14386079D01*
X18570182Y-14386079D02*
X18579705Y-14424174D01*
X18579705Y-14424174D02*
X18579705Y-14471793D01*
X18579705Y-14471793D02*
X18570182Y-14509888D01*
X18570182Y-14509888D02*
X18560658Y-14528936D01*
X18560658Y-14528936D02*
X18551134Y-14538460D01*
X18551134Y-14538460D02*
X18532086Y-14547984D01*
X18532086Y-14547984D02*
X18513039Y-14547984D01*
X18513039Y-14547984D02*
X18493991Y-14538460D01*
X18493991Y-14538460D02*
X18484467Y-14528936D01*
X18484467Y-14528936D02*
X18474944Y-14509888D01*
X18474944Y-14509888D02*
X18465420Y-14471793D01*
X18465420Y-14471793D02*
X18465420Y-14424174D01*
X18465420Y-14424174D02*
X18474944Y-14386079D01*
X18474944Y-14386079D02*
X18484467Y-14367031D01*
X18484467Y-14367031D02*
X18493991Y-14357508D01*
X18493991Y-14357508D02*
X18513039Y-14347984D01*
X18665420Y-14547984D02*
X18665420Y-14414650D01*
X18665420Y-14433698D02*
X18674944Y-14424174D01*
X18674944Y-14424174D02*
X18693991Y-14414650D01*
X18693991Y-14414650D02*
X18722563Y-14414650D01*
X18722563Y-14414650D02*
X18741610Y-14424174D01*
X18741610Y-14424174D02*
X18751134Y-14443222D01*
X18751134Y-14443222D02*
X18751134Y-14547984D01*
X18751134Y-14443222D02*
X18760658Y-14424174D01*
X18760658Y-14424174D02*
X18779705Y-14414650D01*
X18779705Y-14414650D02*
X18808277Y-14414650D01*
X18808277Y-14414650D02*
X18827325Y-14424174D01*
X18827325Y-14424174D02*
X18836848Y-14443222D01*
X18836848Y-14443222D02*
X18836848Y-14547984D01*
X18932086Y-14547984D02*
X18932086Y-14414650D01*
X18932086Y-14433698D02*
X18941610Y-14424174D01*
X18941610Y-14424174D02*
X18960658Y-14414650D01*
X18960658Y-14414650D02*
X18989229Y-14414650D01*
X18989229Y-14414650D02*
X19008277Y-14424174D01*
X19008277Y-14424174D02*
X19017801Y-14443222D01*
X19017801Y-14443222D02*
X19017801Y-14547984D01*
X19017801Y-14443222D02*
X19027325Y-14424174D01*
X19027325Y-14424174D02*
X19046372Y-14414650D01*
X19046372Y-14414650D02*
X19074944Y-14414650D01*
X19074944Y-14414650D02*
X19093991Y-14424174D01*
X19093991Y-14424174D02*
X19103515Y-14443222D01*
X19103515Y-14443222D02*
X19103515Y-14547984D01*
X19493991Y-14338460D02*
X19322563Y-14595603D01*
X19751134Y-14347984D02*
X19770182Y-14347984D01*
X19770182Y-14347984D02*
X19789229Y-14357508D01*
X19789229Y-14357508D02*
X19798753Y-14367031D01*
X19798753Y-14367031D02*
X19808277Y-14386079D01*
X19808277Y-14386079D02*
X19817801Y-14424174D01*
X19817801Y-14424174D02*
X19817801Y-14471793D01*
X19817801Y-14471793D02*
X19808277Y-14509888D01*
X19808277Y-14509888D02*
X19798753Y-14528936D01*
X19798753Y-14528936D02*
X19789229Y-14538460D01*
X19789229Y-14538460D02*
X19770182Y-14547984D01*
X19770182Y-14547984D02*
X19751134Y-14547984D01*
X19751134Y-14547984D02*
X19732087Y-14538460D01*
X19732087Y-14538460D02*
X19722563Y-14528936D01*
X19722563Y-14528936D02*
X19713039Y-14509888D01*
X19713039Y-14509888D02*
X19703515Y-14471793D01*
X19703515Y-14471793D02*
X19703515Y-14424174D01*
X19703515Y-14424174D02*
X19713039Y-14386079D01*
X19713039Y-14386079D02*
X19722563Y-14367031D01*
X19722563Y-14367031D02*
X19732087Y-14357508D01*
X19732087Y-14357508D02*
X19751134Y-14347984D01*
X19903515Y-14528936D02*
X19913039Y-14538460D01*
X19913039Y-14538460D02*
X19903515Y-14547984D01*
X19903515Y-14547984D02*
X19893991Y-14538460D01*
X19893991Y-14538460D02*
X19903515Y-14528936D01*
X19903515Y-14528936D02*
X19903515Y-14547984D01*
X20036848Y-14347984D02*
X20055896Y-14347984D01*
X20055896Y-14347984D02*
X20074944Y-14357508D01*
X20074944Y-14357508D02*
X20084468Y-14367031D01*
X20084468Y-14367031D02*
X20093991Y-14386079D01*
X20093991Y-14386079D02*
X20103515Y-14424174D01*
X20103515Y-14424174D02*
X20103515Y-14471793D01*
X20103515Y-14471793D02*
X20093991Y-14509888D01*
X20093991Y-14509888D02*
X20084468Y-14528936D01*
X20084468Y-14528936D02*
X20074944Y-14538460D01*
X20074944Y-14538460D02*
X20055896Y-14547984D01*
X20055896Y-14547984D02*
X20036848Y-14547984D01*
X20036848Y-14547984D02*
X20017801Y-14538460D01*
X20017801Y-14538460D02*
X20008277Y-14528936D01*
X20008277Y-14528936D02*
X19998753Y-14509888D01*
X19998753Y-14509888D02*
X19989229Y-14471793D01*
X19989229Y-14471793D02*
X19989229Y-14424174D01*
X19989229Y-14424174D02*
X19998753Y-14386079D01*
X19998753Y-14386079D02*
X20008277Y-14367031D01*
X20008277Y-14367031D02*
X20017801Y-14357508D01*
X20017801Y-14357508D02*
X20036848Y-14347984D01*
X20170182Y-14347984D02*
X20293991Y-14347984D01*
X20293991Y-14347984D02*
X20227325Y-14424174D01*
X20227325Y-14424174D02*
X20255896Y-14424174D01*
X20255896Y-14424174D02*
X20274944Y-14433698D01*
X20274944Y-14433698D02*
X20284468Y-14443222D01*
X20284468Y-14443222D02*
X20293991Y-14462269D01*
X20293991Y-14462269D02*
X20293991Y-14509888D01*
X20293991Y-14509888D02*
X20284468Y-14528936D01*
X20284468Y-14528936D02*
X20274944Y-14538460D01*
X20274944Y-14538460D02*
X20255896Y-14547984D01*
X20255896Y-14547984D02*
X20198753Y-14547984D01*
X20198753Y-14547984D02*
X20179706Y-14538460D01*
X20179706Y-14538460D02*
X20170182Y-14528936D01*
X20389229Y-14547984D02*
X20427325Y-14547984D01*
X20427325Y-14547984D02*
X20446372Y-14538460D01*
X20446372Y-14538460D02*
X20455896Y-14528936D01*
X20455896Y-14528936D02*
X20474944Y-14500365D01*
X20474944Y-14500365D02*
X20484468Y-14462269D01*
X20484468Y-14462269D02*
X20484468Y-14386079D01*
X20484468Y-14386079D02*
X20474944Y-14367031D01*
X20474944Y-14367031D02*
X20465420Y-14357508D01*
X20465420Y-14357508D02*
X20446372Y-14347984D01*
X20446372Y-14347984D02*
X20408277Y-14347984D01*
X20408277Y-14347984D02*
X20389229Y-14357508D01*
X20389229Y-14357508D02*
X20379706Y-14367031D01*
X20379706Y-14367031D02*
X20370182Y-14386079D01*
X20370182Y-14386079D02*
X20370182Y-14433698D01*
X20370182Y-14433698D02*
X20379706Y-14452746D01*
X20379706Y-14452746D02*
X20389229Y-14462269D01*
X20389229Y-14462269D02*
X20408277Y-14471793D01*
X20408277Y-14471793D02*
X20446372Y-14471793D01*
X20446372Y-14471793D02*
X20465420Y-14462269D01*
X20465420Y-14462269D02*
X20474944Y-14452746D01*
X20474944Y-14452746D02*
X20484468Y-14433698D01*
X20655896Y-14414650D02*
X20655896Y-14547984D01*
X20608277Y-14338460D02*
X20560658Y-14481317D01*
X20560658Y-14481317D02*
X20684468Y-14481317D01*
X20751134Y-14347984D02*
X20751134Y-14386079D01*
X20827325Y-14347984D02*
X20827325Y-14386079D01*
X21122563Y-14624174D02*
X21113039Y-14614650D01*
X21113039Y-14614650D02*
X21093991Y-14586079D01*
X21093991Y-14586079D02*
X21084468Y-14567031D01*
X21084468Y-14567031D02*
X21074944Y-14538460D01*
X21074944Y-14538460D02*
X21065420Y-14490841D01*
X21065420Y-14490841D02*
X21065420Y-14452746D01*
X21065420Y-14452746D02*
X21074944Y-14405127D01*
X21074944Y-14405127D02*
X21084468Y-14376555D01*
X21084468Y-14376555D02*
X21093991Y-14357508D01*
X21093991Y-14357508D02*
X21113039Y-14328936D01*
X21113039Y-14328936D02*
X21122563Y-14319412D01*
X21303515Y-14547984D02*
X21189230Y-14547984D01*
X21246372Y-14547984D02*
X21246372Y-14347984D01*
X21246372Y-14347984D02*
X21227325Y-14376555D01*
X21227325Y-14376555D02*
X21208277Y-14395603D01*
X21208277Y-14395603D02*
X21189230Y-14405127D01*
X21474944Y-14347984D02*
X21436849Y-14347984D01*
X21436849Y-14347984D02*
X21417801Y-14357508D01*
X21417801Y-14357508D02*
X21408277Y-14367031D01*
X21408277Y-14367031D02*
X21389230Y-14395603D01*
X21389230Y-14395603D02*
X21379706Y-14433698D01*
X21379706Y-14433698D02*
X21379706Y-14509888D01*
X21379706Y-14509888D02*
X21389230Y-14528936D01*
X21389230Y-14528936D02*
X21398753Y-14538460D01*
X21398753Y-14538460D02*
X21417801Y-14547984D01*
X21417801Y-14547984D02*
X21455896Y-14547984D01*
X21455896Y-14547984D02*
X21474944Y-14538460D01*
X21474944Y-14538460D02*
X21484468Y-14528936D01*
X21484468Y-14528936D02*
X21493991Y-14509888D01*
X21493991Y-14509888D02*
X21493991Y-14462269D01*
X21493991Y-14462269D02*
X21484468Y-14443222D01*
X21484468Y-14443222D02*
X21474944Y-14433698D01*
X21474944Y-14433698D02*
X21455896Y-14424174D01*
X21455896Y-14424174D02*
X21417801Y-14424174D01*
X21417801Y-14424174D02*
X21398753Y-14433698D01*
X21398753Y-14433698D02*
X21389230Y-14443222D01*
X21389230Y-14443222D02*
X21379706Y-14462269D01*
X21732087Y-14547984D02*
X21732087Y-14347984D01*
X21817801Y-14547984D02*
X21817801Y-14443222D01*
X21817801Y-14443222D02*
X21808277Y-14424174D01*
X21808277Y-14424174D02*
X21789230Y-14414650D01*
X21789230Y-14414650D02*
X21760658Y-14414650D01*
X21760658Y-14414650D02*
X21741611Y-14424174D01*
X21741611Y-14424174D02*
X21732087Y-14433698D01*
X21941611Y-14547984D02*
X21922563Y-14538460D01*
X21922563Y-14538460D02*
X21913039Y-14528936D01*
X21913039Y-14528936D02*
X21903515Y-14509888D01*
X21903515Y-14509888D02*
X21903515Y-14452746D01*
X21903515Y-14452746D02*
X21913039Y-14433698D01*
X21913039Y-14433698D02*
X21922563Y-14424174D01*
X21922563Y-14424174D02*
X21941611Y-14414650D01*
X21941611Y-14414650D02*
X21970182Y-14414650D01*
X21970182Y-14414650D02*
X21989230Y-14424174D01*
X21989230Y-14424174D02*
X21998753Y-14433698D01*
X21998753Y-14433698D02*
X22008277Y-14452746D01*
X22008277Y-14452746D02*
X22008277Y-14509888D01*
X22008277Y-14509888D02*
X21998753Y-14528936D01*
X21998753Y-14528936D02*
X21989230Y-14538460D01*
X21989230Y-14538460D02*
X21970182Y-14547984D01*
X21970182Y-14547984D02*
X21941611Y-14547984D01*
X22122563Y-14547984D02*
X22103515Y-14538460D01*
X22103515Y-14538460D02*
X22093992Y-14519412D01*
X22093992Y-14519412D02*
X22093992Y-14347984D01*
X22274944Y-14538460D02*
X22255896Y-14547984D01*
X22255896Y-14547984D02*
X22217801Y-14547984D01*
X22217801Y-14547984D02*
X22198753Y-14538460D01*
X22198753Y-14538460D02*
X22189230Y-14519412D01*
X22189230Y-14519412D02*
X22189230Y-14443222D01*
X22189230Y-14443222D02*
X22198753Y-14424174D01*
X22198753Y-14424174D02*
X22217801Y-14414650D01*
X22217801Y-14414650D02*
X22255896Y-14414650D01*
X22255896Y-14414650D02*
X22274944Y-14424174D01*
X22274944Y-14424174D02*
X22284468Y-14443222D01*
X22284468Y-14443222D02*
X22284468Y-14462269D01*
X22284468Y-14462269D02*
X22189230Y-14481317D01*
X22360658Y-14538460D02*
X22379706Y-14547984D01*
X22379706Y-14547984D02*
X22417801Y-14547984D01*
X22417801Y-14547984D02*
X22436849Y-14538460D01*
X22436849Y-14538460D02*
X22446372Y-14519412D01*
X22446372Y-14519412D02*
X22446372Y-14509888D01*
X22446372Y-14509888D02*
X22436849Y-14490841D01*
X22436849Y-14490841D02*
X22417801Y-14481317D01*
X22417801Y-14481317D02*
X22389230Y-14481317D01*
X22389230Y-14481317D02*
X22370182Y-14471793D01*
X22370182Y-14471793D02*
X22360658Y-14452746D01*
X22360658Y-14452746D02*
X22360658Y-14443222D01*
X22360658Y-14443222D02*
X22370182Y-14424174D01*
X22370182Y-14424174D02*
X22389230Y-14414650D01*
X22389230Y-14414650D02*
X22417801Y-14414650D01*
X22417801Y-14414650D02*
X22436849Y-14424174D01*
X22513039Y-14624174D02*
X22522563Y-14614650D01*
X22522563Y-14614650D02*
X22541611Y-14586079D01*
X22541611Y-14586079D02*
X22551134Y-14567031D01*
X22551134Y-14567031D02*
X22560658Y-14538460D01*
X22560658Y-14538460D02*
X22570182Y-14490841D01*
X22570182Y-14490841D02*
X22570182Y-14452746D01*
X22570182Y-14452746D02*
X22560658Y-14405127D01*
X22560658Y-14405127D02*
X22551134Y-14376555D01*
X22551134Y-14376555D02*
X22541611Y-14357508D01*
X22541611Y-14357508D02*
X22522563Y-14328936D01*
X22522563Y-14328936D02*
X22513039Y-14319412D01*
D13*
X17495500Y-14668500D02*
X17495500Y-14772500D01*
X17443500Y-14720500D02*
X17547500Y-14720500D01*
D11*
X17913039Y-14811984D02*
X17798753Y-14811984D01*
X17855896Y-14811984D02*
X17855896Y-14611984D01*
X17855896Y-14611984D02*
X17836848Y-14640555D01*
X17836848Y-14640555D02*
X17817801Y-14659603D01*
X17817801Y-14659603D02*
X17798753Y-14669127D01*
X17998753Y-14792936D02*
X18008277Y-14802460D01*
X18008277Y-14802460D02*
X17998753Y-14811984D01*
X17998753Y-14811984D02*
X17989229Y-14802460D01*
X17989229Y-14802460D02*
X17998753Y-14792936D01*
X17998753Y-14792936D02*
X17998753Y-14811984D01*
X18132086Y-14611984D02*
X18151134Y-14611984D01*
X18151134Y-14611984D02*
X18170182Y-14621508D01*
X18170182Y-14621508D02*
X18179705Y-14631031D01*
X18179705Y-14631031D02*
X18189229Y-14650079D01*
X18189229Y-14650079D02*
X18198753Y-14688174D01*
X18198753Y-14688174D02*
X18198753Y-14735793D01*
X18198753Y-14735793D02*
X18189229Y-14773888D01*
X18189229Y-14773888D02*
X18179705Y-14792936D01*
X18179705Y-14792936D02*
X18170182Y-14802460D01*
X18170182Y-14802460D02*
X18151134Y-14811984D01*
X18151134Y-14811984D02*
X18132086Y-14811984D01*
X18132086Y-14811984D02*
X18113039Y-14802460D01*
X18113039Y-14802460D02*
X18103515Y-14792936D01*
X18103515Y-14792936D02*
X18093991Y-14773888D01*
X18093991Y-14773888D02*
X18084467Y-14735793D01*
X18084467Y-14735793D02*
X18084467Y-14688174D01*
X18084467Y-14688174D02*
X18093991Y-14650079D01*
X18093991Y-14650079D02*
X18103515Y-14631031D01*
X18103515Y-14631031D02*
X18113039Y-14621508D01*
X18113039Y-14621508D02*
X18132086Y-14611984D01*
X18370182Y-14678650D02*
X18370182Y-14811984D01*
X18322563Y-14602460D02*
X18274944Y-14745317D01*
X18274944Y-14745317D02*
X18398753Y-14745317D01*
X18513039Y-14611984D02*
X18532086Y-14611984D01*
X18532086Y-14611984D02*
X18551134Y-14621508D01*
X18551134Y-14621508D02*
X18560658Y-14631031D01*
X18560658Y-14631031D02*
X18570182Y-14650079D01*
X18570182Y-14650079D02*
X18579705Y-14688174D01*
X18579705Y-14688174D02*
X18579705Y-14735793D01*
X18579705Y-14735793D02*
X18570182Y-14773888D01*
X18570182Y-14773888D02*
X18560658Y-14792936D01*
X18560658Y-14792936D02*
X18551134Y-14802460D01*
X18551134Y-14802460D02*
X18532086Y-14811984D01*
X18532086Y-14811984D02*
X18513039Y-14811984D01*
X18513039Y-14811984D02*
X18493991Y-14802460D01*
X18493991Y-14802460D02*
X18484467Y-14792936D01*
X18484467Y-14792936D02*
X18474944Y-14773888D01*
X18474944Y-14773888D02*
X18465420Y-14735793D01*
X18465420Y-14735793D02*
X18465420Y-14688174D01*
X18465420Y-14688174D02*
X18474944Y-14650079D01*
X18474944Y-14650079D02*
X18484467Y-14631031D01*
X18484467Y-14631031D02*
X18493991Y-14621508D01*
X18493991Y-14621508D02*
X18513039Y-14611984D01*
X18665420Y-14811984D02*
X18665420Y-14678650D01*
X18665420Y-14697698D02*
X18674944Y-14688174D01*
X18674944Y-14688174D02*
X18693991Y-14678650D01*
X18693991Y-14678650D02*
X18722563Y-14678650D01*
X18722563Y-14678650D02*
X18741610Y-14688174D01*
X18741610Y-14688174D02*
X18751134Y-14707222D01*
X18751134Y-14707222D02*
X18751134Y-14811984D01*
X18751134Y-14707222D02*
X18760658Y-14688174D01*
X18760658Y-14688174D02*
X18779705Y-14678650D01*
X18779705Y-14678650D02*
X18808277Y-14678650D01*
X18808277Y-14678650D02*
X18827325Y-14688174D01*
X18827325Y-14688174D02*
X18836848Y-14707222D01*
X18836848Y-14707222D02*
X18836848Y-14811984D01*
X18932086Y-14811984D02*
X18932086Y-14678650D01*
X18932086Y-14697698D02*
X18941610Y-14688174D01*
X18941610Y-14688174D02*
X18960658Y-14678650D01*
X18960658Y-14678650D02*
X18989229Y-14678650D01*
X18989229Y-14678650D02*
X19008277Y-14688174D01*
X19008277Y-14688174D02*
X19017801Y-14707222D01*
X19017801Y-14707222D02*
X19017801Y-14811984D01*
X19017801Y-14707222D02*
X19027325Y-14688174D01*
X19027325Y-14688174D02*
X19046372Y-14678650D01*
X19046372Y-14678650D02*
X19074944Y-14678650D01*
X19074944Y-14678650D02*
X19093991Y-14688174D01*
X19093991Y-14688174D02*
X19103515Y-14707222D01*
X19103515Y-14707222D02*
X19103515Y-14811984D01*
X19493991Y-14602460D02*
X19322563Y-14859603D01*
X19751134Y-14611984D02*
X19770182Y-14611984D01*
X19770182Y-14611984D02*
X19789229Y-14621508D01*
X19789229Y-14621508D02*
X19798753Y-14631031D01*
X19798753Y-14631031D02*
X19808277Y-14650079D01*
X19808277Y-14650079D02*
X19817801Y-14688174D01*
X19817801Y-14688174D02*
X19817801Y-14735793D01*
X19817801Y-14735793D02*
X19808277Y-14773888D01*
X19808277Y-14773888D02*
X19798753Y-14792936D01*
X19798753Y-14792936D02*
X19789229Y-14802460D01*
X19789229Y-14802460D02*
X19770182Y-14811984D01*
X19770182Y-14811984D02*
X19751134Y-14811984D01*
X19751134Y-14811984D02*
X19732087Y-14802460D01*
X19732087Y-14802460D02*
X19722563Y-14792936D01*
X19722563Y-14792936D02*
X19713039Y-14773888D01*
X19713039Y-14773888D02*
X19703515Y-14735793D01*
X19703515Y-14735793D02*
X19703515Y-14688174D01*
X19703515Y-14688174D02*
X19713039Y-14650079D01*
X19713039Y-14650079D02*
X19722563Y-14631031D01*
X19722563Y-14631031D02*
X19732087Y-14621508D01*
X19732087Y-14621508D02*
X19751134Y-14611984D01*
X19903515Y-14792936D02*
X19913039Y-14802460D01*
X19913039Y-14802460D02*
X19903515Y-14811984D01*
X19903515Y-14811984D02*
X19893991Y-14802460D01*
X19893991Y-14802460D02*
X19903515Y-14792936D01*
X19903515Y-14792936D02*
X19903515Y-14811984D01*
X20036848Y-14611984D02*
X20055896Y-14611984D01*
X20055896Y-14611984D02*
X20074944Y-14621508D01*
X20074944Y-14621508D02*
X20084468Y-14631031D01*
X20084468Y-14631031D02*
X20093991Y-14650079D01*
X20093991Y-14650079D02*
X20103515Y-14688174D01*
X20103515Y-14688174D02*
X20103515Y-14735793D01*
X20103515Y-14735793D02*
X20093991Y-14773888D01*
X20093991Y-14773888D02*
X20084468Y-14792936D01*
X20084468Y-14792936D02*
X20074944Y-14802460D01*
X20074944Y-14802460D02*
X20055896Y-14811984D01*
X20055896Y-14811984D02*
X20036848Y-14811984D01*
X20036848Y-14811984D02*
X20017801Y-14802460D01*
X20017801Y-14802460D02*
X20008277Y-14792936D01*
X20008277Y-14792936D02*
X19998753Y-14773888D01*
X19998753Y-14773888D02*
X19989229Y-14735793D01*
X19989229Y-14735793D02*
X19989229Y-14688174D01*
X19989229Y-14688174D02*
X19998753Y-14650079D01*
X19998753Y-14650079D02*
X20008277Y-14631031D01*
X20008277Y-14631031D02*
X20017801Y-14621508D01*
X20017801Y-14621508D02*
X20036848Y-14611984D01*
X20274944Y-14678650D02*
X20274944Y-14811984D01*
X20227325Y-14602460D02*
X20179706Y-14745317D01*
X20179706Y-14745317D02*
X20303515Y-14745317D01*
X20417801Y-14611984D02*
X20436849Y-14611984D01*
X20436849Y-14611984D02*
X20455896Y-14621508D01*
X20455896Y-14621508D02*
X20465420Y-14631031D01*
X20465420Y-14631031D02*
X20474944Y-14650079D01*
X20474944Y-14650079D02*
X20484468Y-14688174D01*
X20484468Y-14688174D02*
X20484468Y-14735793D01*
X20484468Y-14735793D02*
X20474944Y-14773888D01*
X20474944Y-14773888D02*
X20465420Y-14792936D01*
X20465420Y-14792936D02*
X20455896Y-14802460D01*
X20455896Y-14802460D02*
X20436849Y-14811984D01*
X20436849Y-14811984D02*
X20417801Y-14811984D01*
X20417801Y-14811984D02*
X20398753Y-14802460D01*
X20398753Y-14802460D02*
X20389229Y-14792936D01*
X20389229Y-14792936D02*
X20379706Y-14773888D01*
X20379706Y-14773888D02*
X20370182Y-14735793D01*
X20370182Y-14735793D02*
X20370182Y-14688174D01*
X20370182Y-14688174D02*
X20379706Y-14650079D01*
X20379706Y-14650079D02*
X20389229Y-14631031D01*
X20389229Y-14631031D02*
X20398753Y-14621508D01*
X20398753Y-14621508D02*
X20417801Y-14611984D01*
X20579706Y-14811984D02*
X20617801Y-14811984D01*
X20617801Y-14811984D02*
X20636849Y-14802460D01*
X20636849Y-14802460D02*
X20646372Y-14792936D01*
X20646372Y-14792936D02*
X20665420Y-14764365D01*
X20665420Y-14764365D02*
X20674944Y-14726269D01*
X20674944Y-14726269D02*
X20674944Y-14650079D01*
X20674944Y-14650079D02*
X20665420Y-14631031D01*
X20665420Y-14631031D02*
X20655896Y-14621508D01*
X20655896Y-14621508D02*
X20636849Y-14611984D01*
X20636849Y-14611984D02*
X20598753Y-14611984D01*
X20598753Y-14611984D02*
X20579706Y-14621508D01*
X20579706Y-14621508D02*
X20570182Y-14631031D01*
X20570182Y-14631031D02*
X20560658Y-14650079D01*
X20560658Y-14650079D02*
X20560658Y-14697698D01*
X20560658Y-14697698D02*
X20570182Y-14716746D01*
X20570182Y-14716746D02*
X20579706Y-14726269D01*
X20579706Y-14726269D02*
X20598753Y-14735793D01*
X20598753Y-14735793D02*
X20636849Y-14735793D01*
X20636849Y-14735793D02*
X20655896Y-14726269D01*
X20655896Y-14726269D02*
X20665420Y-14716746D01*
X20665420Y-14716746D02*
X20674944Y-14697698D01*
X20751134Y-14611984D02*
X20751134Y-14650079D01*
X20827325Y-14611984D02*
X20827325Y-14650079D01*
X21122563Y-14888174D02*
X21113039Y-14878650D01*
X21113039Y-14878650D02*
X21093991Y-14850079D01*
X21093991Y-14850079D02*
X21084468Y-14831031D01*
X21084468Y-14831031D02*
X21074944Y-14802460D01*
X21074944Y-14802460D02*
X21065420Y-14754841D01*
X21065420Y-14754841D02*
X21065420Y-14716746D01*
X21065420Y-14716746D02*
X21074944Y-14669127D01*
X21074944Y-14669127D02*
X21084468Y-14640555D01*
X21084468Y-14640555D02*
X21093991Y-14621508D01*
X21093991Y-14621508D02*
X21113039Y-14592936D01*
X21113039Y-14592936D02*
X21122563Y-14583412D01*
X21179706Y-14611984D02*
X21303515Y-14611984D01*
X21303515Y-14611984D02*
X21236849Y-14688174D01*
X21236849Y-14688174D02*
X21265420Y-14688174D01*
X21265420Y-14688174D02*
X21284468Y-14697698D01*
X21284468Y-14697698D02*
X21293991Y-14707222D01*
X21293991Y-14707222D02*
X21303515Y-14726269D01*
X21303515Y-14726269D02*
X21303515Y-14773888D01*
X21303515Y-14773888D02*
X21293991Y-14792936D01*
X21293991Y-14792936D02*
X21284468Y-14802460D01*
X21284468Y-14802460D02*
X21265420Y-14811984D01*
X21265420Y-14811984D02*
X21208277Y-14811984D01*
X21208277Y-14811984D02*
X21189230Y-14802460D01*
X21189230Y-14802460D02*
X21179706Y-14792936D01*
X21417801Y-14697698D02*
X21398753Y-14688174D01*
X21398753Y-14688174D02*
X21389230Y-14678650D01*
X21389230Y-14678650D02*
X21379706Y-14659603D01*
X21379706Y-14659603D02*
X21379706Y-14650079D01*
X21379706Y-14650079D02*
X21389230Y-14631031D01*
X21389230Y-14631031D02*
X21398753Y-14621508D01*
X21398753Y-14621508D02*
X21417801Y-14611984D01*
X21417801Y-14611984D02*
X21455896Y-14611984D01*
X21455896Y-14611984D02*
X21474944Y-14621508D01*
X21474944Y-14621508D02*
X21484468Y-14631031D01*
X21484468Y-14631031D02*
X21493991Y-14650079D01*
X21493991Y-14650079D02*
X21493991Y-14659603D01*
X21493991Y-14659603D02*
X21484468Y-14678650D01*
X21484468Y-14678650D02*
X21474944Y-14688174D01*
X21474944Y-14688174D02*
X21455896Y-14697698D01*
X21455896Y-14697698D02*
X21417801Y-14697698D01*
X21417801Y-14697698D02*
X21398753Y-14707222D01*
X21398753Y-14707222D02*
X21389230Y-14716746D01*
X21389230Y-14716746D02*
X21379706Y-14735793D01*
X21379706Y-14735793D02*
X21379706Y-14773888D01*
X21379706Y-14773888D02*
X21389230Y-14792936D01*
X21389230Y-14792936D02*
X21398753Y-14802460D01*
X21398753Y-14802460D02*
X21417801Y-14811984D01*
X21417801Y-14811984D02*
X21455896Y-14811984D01*
X21455896Y-14811984D02*
X21474944Y-14802460D01*
X21474944Y-14802460D02*
X21484468Y-14792936D01*
X21484468Y-14792936D02*
X21493991Y-14773888D01*
X21493991Y-14773888D02*
X21493991Y-14735793D01*
X21493991Y-14735793D02*
X21484468Y-14716746D01*
X21484468Y-14716746D02*
X21474944Y-14707222D01*
X21474944Y-14707222D02*
X21455896Y-14697698D01*
X21732087Y-14811984D02*
X21732087Y-14611984D01*
X21817801Y-14811984D02*
X21817801Y-14707222D01*
X21817801Y-14707222D02*
X21808277Y-14688174D01*
X21808277Y-14688174D02*
X21789230Y-14678650D01*
X21789230Y-14678650D02*
X21760658Y-14678650D01*
X21760658Y-14678650D02*
X21741611Y-14688174D01*
X21741611Y-14688174D02*
X21732087Y-14697698D01*
X21941611Y-14811984D02*
X21922563Y-14802460D01*
X21922563Y-14802460D02*
X21913039Y-14792936D01*
X21913039Y-14792936D02*
X21903515Y-14773888D01*
X21903515Y-14773888D02*
X21903515Y-14716746D01*
X21903515Y-14716746D02*
X21913039Y-14697698D01*
X21913039Y-14697698D02*
X21922563Y-14688174D01*
X21922563Y-14688174D02*
X21941611Y-14678650D01*
X21941611Y-14678650D02*
X21970182Y-14678650D01*
X21970182Y-14678650D02*
X21989230Y-14688174D01*
X21989230Y-14688174D02*
X21998753Y-14697698D01*
X21998753Y-14697698D02*
X22008277Y-14716746D01*
X22008277Y-14716746D02*
X22008277Y-14773888D01*
X22008277Y-14773888D02*
X21998753Y-14792936D01*
X21998753Y-14792936D02*
X21989230Y-14802460D01*
X21989230Y-14802460D02*
X21970182Y-14811984D01*
X21970182Y-14811984D02*
X21941611Y-14811984D01*
X22122563Y-14811984D02*
X22103515Y-14802460D01*
X22103515Y-14802460D02*
X22093992Y-14783412D01*
X22093992Y-14783412D02*
X22093992Y-14611984D01*
X22274944Y-14802460D02*
X22255896Y-14811984D01*
X22255896Y-14811984D02*
X22217801Y-14811984D01*
X22217801Y-14811984D02*
X22198753Y-14802460D01*
X22198753Y-14802460D02*
X22189230Y-14783412D01*
X22189230Y-14783412D02*
X22189230Y-14707222D01*
X22189230Y-14707222D02*
X22198753Y-14688174D01*
X22198753Y-14688174D02*
X22217801Y-14678650D01*
X22217801Y-14678650D02*
X22255896Y-14678650D01*
X22255896Y-14678650D02*
X22274944Y-14688174D01*
X22274944Y-14688174D02*
X22284468Y-14707222D01*
X22284468Y-14707222D02*
X22284468Y-14726269D01*
X22284468Y-14726269D02*
X22189230Y-14745317D01*
X22360658Y-14802460D02*
X22379706Y-14811984D01*
X22379706Y-14811984D02*
X22417801Y-14811984D01*
X22417801Y-14811984D02*
X22436849Y-14802460D01*
X22436849Y-14802460D02*
X22446372Y-14783412D01*
X22446372Y-14783412D02*
X22446372Y-14773888D01*
X22446372Y-14773888D02*
X22436849Y-14754841D01*
X22436849Y-14754841D02*
X22417801Y-14745317D01*
X22417801Y-14745317D02*
X22389230Y-14745317D01*
X22389230Y-14745317D02*
X22370182Y-14735793D01*
X22370182Y-14735793D02*
X22360658Y-14716746D01*
X22360658Y-14716746D02*
X22360658Y-14707222D01*
X22360658Y-14707222D02*
X22370182Y-14688174D01*
X22370182Y-14688174D02*
X22389230Y-14678650D01*
X22389230Y-14678650D02*
X22417801Y-14678650D01*
X22417801Y-14678650D02*
X22436849Y-14688174D01*
X22513039Y-14888174D02*
X22522563Y-14878650D01*
X22522563Y-14878650D02*
X22541611Y-14850079D01*
X22541611Y-14850079D02*
X22551134Y-14831031D01*
X22551134Y-14831031D02*
X22560658Y-14802460D01*
X22560658Y-14802460D02*
X22570182Y-14754841D01*
X22570182Y-14754841D02*
X22570182Y-14716746D01*
X22570182Y-14716746D02*
X22560658Y-14669127D01*
X22560658Y-14669127D02*
X22551134Y-14640555D01*
X22551134Y-14640555D02*
X22541611Y-14621508D01*
X22541611Y-14621508D02*
X22522563Y-14592936D01*
X22522563Y-14592936D02*
X22513039Y-14583412D01*
D14*
X17531391Y-15023391D02*
X17531391Y-14945609D01*
X17453609Y-14945609D01*
X17453609Y-15023391D01*
X17531391Y-15023391D01*
D11*
X17913039Y-15075984D02*
X17798753Y-15075984D01*
X17855896Y-15075984D02*
X17855896Y-14875984D01*
X17855896Y-14875984D02*
X17836848Y-14904555D01*
X17836848Y-14904555D02*
X17817801Y-14923603D01*
X17817801Y-14923603D02*
X17798753Y-14933127D01*
X17998753Y-15056936D02*
X18008277Y-15066460D01*
X18008277Y-15066460D02*
X17998753Y-15075984D01*
X17998753Y-15075984D02*
X17989229Y-15066460D01*
X17989229Y-15066460D02*
X17998753Y-15056936D01*
X17998753Y-15056936D02*
X17998753Y-15075984D01*
X18198753Y-15075984D02*
X18084467Y-15075984D01*
X18141610Y-15075984D02*
X18141610Y-14875984D01*
X18141610Y-14875984D02*
X18122563Y-14904555D01*
X18122563Y-14904555D02*
X18103515Y-14923603D01*
X18103515Y-14923603D02*
X18084467Y-14933127D01*
X18322563Y-14875984D02*
X18341610Y-14875984D01*
X18341610Y-14875984D02*
X18360658Y-14885508D01*
X18360658Y-14885508D02*
X18370182Y-14895031D01*
X18370182Y-14895031D02*
X18379705Y-14914079D01*
X18379705Y-14914079D02*
X18389229Y-14952174D01*
X18389229Y-14952174D02*
X18389229Y-14999793D01*
X18389229Y-14999793D02*
X18379705Y-15037888D01*
X18379705Y-15037888D02*
X18370182Y-15056936D01*
X18370182Y-15056936D02*
X18360658Y-15066460D01*
X18360658Y-15066460D02*
X18341610Y-15075984D01*
X18341610Y-15075984D02*
X18322563Y-15075984D01*
X18322563Y-15075984D02*
X18303515Y-15066460D01*
X18303515Y-15066460D02*
X18293991Y-15056936D01*
X18293991Y-15056936D02*
X18284467Y-15037888D01*
X18284467Y-15037888D02*
X18274944Y-14999793D01*
X18274944Y-14999793D02*
X18274944Y-14952174D01*
X18274944Y-14952174D02*
X18284467Y-14914079D01*
X18284467Y-14914079D02*
X18293991Y-14895031D01*
X18293991Y-14895031D02*
X18303515Y-14885508D01*
X18303515Y-14885508D02*
X18322563Y-14875984D01*
X18513039Y-14875984D02*
X18532086Y-14875984D01*
X18532086Y-14875984D02*
X18551134Y-14885508D01*
X18551134Y-14885508D02*
X18560658Y-14895031D01*
X18560658Y-14895031D02*
X18570182Y-14914079D01*
X18570182Y-14914079D02*
X18579705Y-14952174D01*
X18579705Y-14952174D02*
X18579705Y-14999793D01*
X18579705Y-14999793D02*
X18570182Y-15037888D01*
X18570182Y-15037888D02*
X18560658Y-15056936D01*
X18560658Y-15056936D02*
X18551134Y-15066460D01*
X18551134Y-15066460D02*
X18532086Y-15075984D01*
X18532086Y-15075984D02*
X18513039Y-15075984D01*
X18513039Y-15075984D02*
X18493991Y-15066460D01*
X18493991Y-15066460D02*
X18484467Y-15056936D01*
X18484467Y-15056936D02*
X18474944Y-15037888D01*
X18474944Y-15037888D02*
X18465420Y-14999793D01*
X18465420Y-14999793D02*
X18465420Y-14952174D01*
X18465420Y-14952174D02*
X18474944Y-14914079D01*
X18474944Y-14914079D02*
X18484467Y-14895031D01*
X18484467Y-14895031D02*
X18493991Y-14885508D01*
X18493991Y-14885508D02*
X18513039Y-14875984D01*
X18665420Y-15075984D02*
X18665420Y-14942650D01*
X18665420Y-14961698D02*
X18674944Y-14952174D01*
X18674944Y-14952174D02*
X18693991Y-14942650D01*
X18693991Y-14942650D02*
X18722563Y-14942650D01*
X18722563Y-14942650D02*
X18741610Y-14952174D01*
X18741610Y-14952174D02*
X18751134Y-14971222D01*
X18751134Y-14971222D02*
X18751134Y-15075984D01*
X18751134Y-14971222D02*
X18760658Y-14952174D01*
X18760658Y-14952174D02*
X18779705Y-14942650D01*
X18779705Y-14942650D02*
X18808277Y-14942650D01*
X18808277Y-14942650D02*
X18827325Y-14952174D01*
X18827325Y-14952174D02*
X18836848Y-14971222D01*
X18836848Y-14971222D02*
X18836848Y-15075984D01*
X18932086Y-15075984D02*
X18932086Y-14942650D01*
X18932086Y-14961698D02*
X18941610Y-14952174D01*
X18941610Y-14952174D02*
X18960658Y-14942650D01*
X18960658Y-14942650D02*
X18989229Y-14942650D01*
X18989229Y-14942650D02*
X19008277Y-14952174D01*
X19008277Y-14952174D02*
X19017801Y-14971222D01*
X19017801Y-14971222D02*
X19017801Y-15075984D01*
X19017801Y-14971222D02*
X19027325Y-14952174D01*
X19027325Y-14952174D02*
X19046372Y-14942650D01*
X19046372Y-14942650D02*
X19074944Y-14942650D01*
X19074944Y-14942650D02*
X19093991Y-14952174D01*
X19093991Y-14952174D02*
X19103515Y-14971222D01*
X19103515Y-14971222D02*
X19103515Y-15075984D01*
X19493991Y-14866460D02*
X19322563Y-15123603D01*
X19751134Y-14875984D02*
X19770182Y-14875984D01*
X19770182Y-14875984D02*
X19789229Y-14885508D01*
X19789229Y-14885508D02*
X19798753Y-14895031D01*
X19798753Y-14895031D02*
X19808277Y-14914079D01*
X19808277Y-14914079D02*
X19817801Y-14952174D01*
X19817801Y-14952174D02*
X19817801Y-14999793D01*
X19817801Y-14999793D02*
X19808277Y-15037888D01*
X19808277Y-15037888D02*
X19798753Y-15056936D01*
X19798753Y-15056936D02*
X19789229Y-15066460D01*
X19789229Y-15066460D02*
X19770182Y-15075984D01*
X19770182Y-15075984D02*
X19751134Y-15075984D01*
X19751134Y-15075984D02*
X19732087Y-15066460D01*
X19732087Y-15066460D02*
X19722563Y-15056936D01*
X19722563Y-15056936D02*
X19713039Y-15037888D01*
X19713039Y-15037888D02*
X19703515Y-14999793D01*
X19703515Y-14999793D02*
X19703515Y-14952174D01*
X19703515Y-14952174D02*
X19713039Y-14914079D01*
X19713039Y-14914079D02*
X19722563Y-14895031D01*
X19722563Y-14895031D02*
X19732087Y-14885508D01*
X19732087Y-14885508D02*
X19751134Y-14875984D01*
X19903515Y-15056936D02*
X19913039Y-15066460D01*
X19913039Y-15066460D02*
X19903515Y-15075984D01*
X19903515Y-15075984D02*
X19893991Y-15066460D01*
X19893991Y-15066460D02*
X19903515Y-15056936D01*
X19903515Y-15056936D02*
X19903515Y-15075984D01*
X20036848Y-14875984D02*
X20055896Y-14875984D01*
X20055896Y-14875984D02*
X20074944Y-14885508D01*
X20074944Y-14885508D02*
X20084468Y-14895031D01*
X20084468Y-14895031D02*
X20093991Y-14914079D01*
X20093991Y-14914079D02*
X20103515Y-14952174D01*
X20103515Y-14952174D02*
X20103515Y-14999793D01*
X20103515Y-14999793D02*
X20093991Y-15037888D01*
X20093991Y-15037888D02*
X20084468Y-15056936D01*
X20084468Y-15056936D02*
X20074944Y-15066460D01*
X20074944Y-15066460D02*
X20055896Y-15075984D01*
X20055896Y-15075984D02*
X20036848Y-15075984D01*
X20036848Y-15075984D02*
X20017801Y-15066460D01*
X20017801Y-15066460D02*
X20008277Y-15056936D01*
X20008277Y-15056936D02*
X19998753Y-15037888D01*
X19998753Y-15037888D02*
X19989229Y-14999793D01*
X19989229Y-14999793D02*
X19989229Y-14952174D01*
X19989229Y-14952174D02*
X19998753Y-14914079D01*
X19998753Y-14914079D02*
X20008277Y-14895031D01*
X20008277Y-14895031D02*
X20017801Y-14885508D01*
X20017801Y-14885508D02*
X20036848Y-14875984D01*
X20274944Y-14942650D02*
X20274944Y-15075984D01*
X20227325Y-14866460D02*
X20179706Y-15009317D01*
X20179706Y-15009317D02*
X20303515Y-15009317D01*
X20360658Y-14875984D02*
X20484468Y-14875984D01*
X20484468Y-14875984D02*
X20417801Y-14952174D01*
X20417801Y-14952174D02*
X20446372Y-14952174D01*
X20446372Y-14952174D02*
X20465420Y-14961698D01*
X20465420Y-14961698D02*
X20474944Y-14971222D01*
X20474944Y-14971222D02*
X20484468Y-14990269D01*
X20484468Y-14990269D02*
X20484468Y-15037888D01*
X20484468Y-15037888D02*
X20474944Y-15056936D01*
X20474944Y-15056936D02*
X20465420Y-15066460D01*
X20465420Y-15066460D02*
X20446372Y-15075984D01*
X20446372Y-15075984D02*
X20389229Y-15075984D01*
X20389229Y-15075984D02*
X20370182Y-15066460D01*
X20370182Y-15066460D02*
X20360658Y-15056936D01*
X20551134Y-14875984D02*
X20674944Y-14875984D01*
X20674944Y-14875984D02*
X20608277Y-14952174D01*
X20608277Y-14952174D02*
X20636849Y-14952174D01*
X20636849Y-14952174D02*
X20655896Y-14961698D01*
X20655896Y-14961698D02*
X20665420Y-14971222D01*
X20665420Y-14971222D02*
X20674944Y-14990269D01*
X20674944Y-14990269D02*
X20674944Y-15037888D01*
X20674944Y-15037888D02*
X20665420Y-15056936D01*
X20665420Y-15056936D02*
X20655896Y-15066460D01*
X20655896Y-15066460D02*
X20636849Y-15075984D01*
X20636849Y-15075984D02*
X20579706Y-15075984D01*
X20579706Y-15075984D02*
X20560658Y-15066460D01*
X20560658Y-15066460D02*
X20551134Y-15056936D01*
X20751134Y-14875984D02*
X20751134Y-14914079D01*
X20827325Y-14875984D02*
X20827325Y-14914079D01*
X21122563Y-15152174D02*
X21113039Y-15142650D01*
X21113039Y-15142650D02*
X21093991Y-15114079D01*
X21093991Y-15114079D02*
X21084468Y-15095031D01*
X21084468Y-15095031D02*
X21074944Y-15066460D01*
X21074944Y-15066460D02*
X21065420Y-15018841D01*
X21065420Y-15018841D02*
X21065420Y-14980746D01*
X21065420Y-14980746D02*
X21074944Y-14933127D01*
X21074944Y-14933127D02*
X21084468Y-14904555D01*
X21084468Y-14904555D02*
X21093991Y-14885508D01*
X21093991Y-14885508D02*
X21113039Y-14856936D01*
X21113039Y-14856936D02*
X21122563Y-14847412D01*
X21179706Y-14875984D02*
X21303515Y-14875984D01*
X21303515Y-14875984D02*
X21236849Y-14952174D01*
X21236849Y-14952174D02*
X21265420Y-14952174D01*
X21265420Y-14952174D02*
X21284468Y-14961698D01*
X21284468Y-14961698D02*
X21293991Y-14971222D01*
X21293991Y-14971222D02*
X21303515Y-14990269D01*
X21303515Y-14990269D02*
X21303515Y-15037888D01*
X21303515Y-15037888D02*
X21293991Y-15056936D01*
X21293991Y-15056936D02*
X21284468Y-15066460D01*
X21284468Y-15066460D02*
X21265420Y-15075984D01*
X21265420Y-15075984D02*
X21208277Y-15075984D01*
X21208277Y-15075984D02*
X21189230Y-15066460D01*
X21189230Y-15066460D02*
X21179706Y-15056936D01*
X21541611Y-15075984D02*
X21541611Y-14875984D01*
X21627325Y-15075984D02*
X21627325Y-14971222D01*
X21627325Y-14971222D02*
X21617801Y-14952174D01*
X21617801Y-14952174D02*
X21598753Y-14942650D01*
X21598753Y-14942650D02*
X21570182Y-14942650D01*
X21570182Y-14942650D02*
X21551134Y-14952174D01*
X21551134Y-14952174D02*
X21541611Y-14961698D01*
X21751134Y-15075984D02*
X21732087Y-15066460D01*
X21732087Y-15066460D02*
X21722563Y-15056936D01*
X21722563Y-15056936D02*
X21713039Y-15037888D01*
X21713039Y-15037888D02*
X21713039Y-14980746D01*
X21713039Y-14980746D02*
X21722563Y-14961698D01*
X21722563Y-14961698D02*
X21732087Y-14952174D01*
X21732087Y-14952174D02*
X21751134Y-14942650D01*
X21751134Y-14942650D02*
X21779706Y-14942650D01*
X21779706Y-14942650D02*
X21798753Y-14952174D01*
X21798753Y-14952174D02*
X21808277Y-14961698D01*
X21808277Y-14961698D02*
X21817801Y-14980746D01*
X21817801Y-14980746D02*
X21817801Y-15037888D01*
X21817801Y-15037888D02*
X21808277Y-15056936D01*
X21808277Y-15056936D02*
X21798753Y-15066460D01*
X21798753Y-15066460D02*
X21779706Y-15075984D01*
X21779706Y-15075984D02*
X21751134Y-15075984D01*
X21932087Y-15075984D02*
X21913039Y-15066460D01*
X21913039Y-15066460D02*
X21903515Y-15047412D01*
X21903515Y-15047412D02*
X21903515Y-14875984D01*
X22084468Y-15066460D02*
X22065420Y-15075984D01*
X22065420Y-15075984D02*
X22027325Y-15075984D01*
X22027325Y-15075984D02*
X22008277Y-15066460D01*
X22008277Y-15066460D02*
X21998753Y-15047412D01*
X21998753Y-15047412D02*
X21998753Y-14971222D01*
X21998753Y-14971222D02*
X22008277Y-14952174D01*
X22008277Y-14952174D02*
X22027325Y-14942650D01*
X22027325Y-14942650D02*
X22065420Y-14942650D01*
X22065420Y-14942650D02*
X22084468Y-14952174D01*
X22084468Y-14952174D02*
X22093992Y-14971222D01*
X22093992Y-14971222D02*
X22093992Y-14990269D01*
X22093992Y-14990269D02*
X21998753Y-15009317D01*
X22170182Y-15066460D02*
X22189230Y-15075984D01*
X22189230Y-15075984D02*
X22227325Y-15075984D01*
X22227325Y-15075984D02*
X22246373Y-15066460D01*
X22246373Y-15066460D02*
X22255896Y-15047412D01*
X22255896Y-15047412D02*
X22255896Y-15037888D01*
X22255896Y-15037888D02*
X22246373Y-15018841D01*
X22246373Y-15018841D02*
X22227325Y-15009317D01*
X22227325Y-15009317D02*
X22198753Y-15009317D01*
X22198753Y-15009317D02*
X22179706Y-14999793D01*
X22179706Y-14999793D02*
X22170182Y-14980746D01*
X22170182Y-14980746D02*
X22170182Y-14971222D01*
X22170182Y-14971222D02*
X22179706Y-14952174D01*
X22179706Y-14952174D02*
X22198753Y-14942650D01*
X22198753Y-14942650D02*
X22227325Y-14942650D01*
X22227325Y-14942650D02*
X22246373Y-14952174D01*
X22322563Y-15152174D02*
X22332087Y-15142650D01*
X22332087Y-15142650D02*
X22351134Y-15114079D01*
X22351134Y-15114079D02*
X22360658Y-15095031D01*
X22360658Y-15095031D02*
X22370182Y-15066460D01*
X22370182Y-15066460D02*
X22379706Y-15018841D01*
X22379706Y-15018841D02*
X22379706Y-14980746D01*
X22379706Y-14980746D02*
X22370182Y-14933127D01*
X22370182Y-14933127D02*
X22360658Y-14904555D01*
X22360658Y-14904555D02*
X22351134Y-14885508D01*
X22351134Y-14885508D02*
X22332087Y-14856936D01*
X22332087Y-14856936D02*
X22322563Y-14847412D01*
X17447500Y-15348500D02*
X17547500Y-15248500D01*
X17447500Y-15148500D01*
X17347500Y-15248500D01*
X17447500Y-15348500D01*
X17789229Y-15139984D02*
X17913039Y-15139984D01*
X17913039Y-15139984D02*
X17846372Y-15216174D01*
X17846372Y-15216174D02*
X17874944Y-15216174D01*
X17874944Y-15216174D02*
X17893991Y-15225698D01*
X17893991Y-15225698D02*
X17903515Y-15235222D01*
X17903515Y-15235222D02*
X17913039Y-15254269D01*
X17913039Y-15254269D02*
X17913039Y-15301888D01*
X17913039Y-15301888D02*
X17903515Y-15320936D01*
X17903515Y-15320936D02*
X17893991Y-15330460D01*
X17893991Y-15330460D02*
X17874944Y-15339984D01*
X17874944Y-15339984D02*
X17817801Y-15339984D01*
X17817801Y-15339984D02*
X17798753Y-15330460D01*
X17798753Y-15330460D02*
X17789229Y-15320936D01*
X17998753Y-15320936D02*
X18008277Y-15330460D01*
X18008277Y-15330460D02*
X17998753Y-15339984D01*
X17998753Y-15339984D02*
X17989229Y-15330460D01*
X17989229Y-15330460D02*
X17998753Y-15320936D01*
X17998753Y-15320936D02*
X17998753Y-15339984D01*
X18132086Y-15139984D02*
X18151134Y-15139984D01*
X18151134Y-15139984D02*
X18170182Y-15149508D01*
X18170182Y-15149508D02*
X18179705Y-15159031D01*
X18179705Y-15159031D02*
X18189229Y-15178079D01*
X18189229Y-15178079D02*
X18198753Y-15216174D01*
X18198753Y-15216174D02*
X18198753Y-15263793D01*
X18198753Y-15263793D02*
X18189229Y-15301888D01*
X18189229Y-15301888D02*
X18179705Y-15320936D01*
X18179705Y-15320936D02*
X18170182Y-15330460D01*
X18170182Y-15330460D02*
X18151134Y-15339984D01*
X18151134Y-15339984D02*
X18132086Y-15339984D01*
X18132086Y-15339984D02*
X18113039Y-15330460D01*
X18113039Y-15330460D02*
X18103515Y-15320936D01*
X18103515Y-15320936D02*
X18093991Y-15301888D01*
X18093991Y-15301888D02*
X18084467Y-15263793D01*
X18084467Y-15263793D02*
X18084467Y-15216174D01*
X18084467Y-15216174D02*
X18093991Y-15178079D01*
X18093991Y-15178079D02*
X18103515Y-15159031D01*
X18103515Y-15159031D02*
X18113039Y-15149508D01*
X18113039Y-15149508D02*
X18132086Y-15139984D01*
X18322563Y-15139984D02*
X18341610Y-15139984D01*
X18341610Y-15139984D02*
X18360658Y-15149508D01*
X18360658Y-15149508D02*
X18370182Y-15159031D01*
X18370182Y-15159031D02*
X18379705Y-15178079D01*
X18379705Y-15178079D02*
X18389229Y-15216174D01*
X18389229Y-15216174D02*
X18389229Y-15263793D01*
X18389229Y-15263793D02*
X18379705Y-15301888D01*
X18379705Y-15301888D02*
X18370182Y-15320936D01*
X18370182Y-15320936D02*
X18360658Y-15330460D01*
X18360658Y-15330460D02*
X18341610Y-15339984D01*
X18341610Y-15339984D02*
X18322563Y-15339984D01*
X18322563Y-15339984D02*
X18303515Y-15330460D01*
X18303515Y-15330460D02*
X18293991Y-15320936D01*
X18293991Y-15320936D02*
X18284467Y-15301888D01*
X18284467Y-15301888D02*
X18274944Y-15263793D01*
X18274944Y-15263793D02*
X18274944Y-15216174D01*
X18274944Y-15216174D02*
X18284467Y-15178079D01*
X18284467Y-15178079D02*
X18293991Y-15159031D01*
X18293991Y-15159031D02*
X18303515Y-15149508D01*
X18303515Y-15149508D02*
X18322563Y-15139984D01*
X18513039Y-15139984D02*
X18532086Y-15139984D01*
X18532086Y-15139984D02*
X18551134Y-15149508D01*
X18551134Y-15149508D02*
X18560658Y-15159031D01*
X18560658Y-15159031D02*
X18570182Y-15178079D01*
X18570182Y-15178079D02*
X18579705Y-15216174D01*
X18579705Y-15216174D02*
X18579705Y-15263793D01*
X18579705Y-15263793D02*
X18570182Y-15301888D01*
X18570182Y-15301888D02*
X18560658Y-15320936D01*
X18560658Y-15320936D02*
X18551134Y-15330460D01*
X18551134Y-15330460D02*
X18532086Y-15339984D01*
X18532086Y-15339984D02*
X18513039Y-15339984D01*
X18513039Y-15339984D02*
X18493991Y-15330460D01*
X18493991Y-15330460D02*
X18484467Y-15320936D01*
X18484467Y-15320936D02*
X18474944Y-15301888D01*
X18474944Y-15301888D02*
X18465420Y-15263793D01*
X18465420Y-15263793D02*
X18465420Y-15216174D01*
X18465420Y-15216174D02*
X18474944Y-15178079D01*
X18474944Y-15178079D02*
X18484467Y-15159031D01*
X18484467Y-15159031D02*
X18493991Y-15149508D01*
X18493991Y-15149508D02*
X18513039Y-15139984D01*
X18665420Y-15339984D02*
X18665420Y-15206650D01*
X18665420Y-15225698D02*
X18674944Y-15216174D01*
X18674944Y-15216174D02*
X18693991Y-15206650D01*
X18693991Y-15206650D02*
X18722563Y-15206650D01*
X18722563Y-15206650D02*
X18741610Y-15216174D01*
X18741610Y-15216174D02*
X18751134Y-15235222D01*
X18751134Y-15235222D02*
X18751134Y-15339984D01*
X18751134Y-15235222D02*
X18760658Y-15216174D01*
X18760658Y-15216174D02*
X18779705Y-15206650D01*
X18779705Y-15206650D02*
X18808277Y-15206650D01*
X18808277Y-15206650D02*
X18827325Y-15216174D01*
X18827325Y-15216174D02*
X18836848Y-15235222D01*
X18836848Y-15235222D02*
X18836848Y-15339984D01*
X18932086Y-15339984D02*
X18932086Y-15206650D01*
X18932086Y-15225698D02*
X18941610Y-15216174D01*
X18941610Y-15216174D02*
X18960658Y-15206650D01*
X18960658Y-15206650D02*
X18989229Y-15206650D01*
X18989229Y-15206650D02*
X19008277Y-15216174D01*
X19008277Y-15216174D02*
X19017801Y-15235222D01*
X19017801Y-15235222D02*
X19017801Y-15339984D01*
X19017801Y-15235222D02*
X19027325Y-15216174D01*
X19027325Y-15216174D02*
X19046372Y-15206650D01*
X19046372Y-15206650D02*
X19074944Y-15206650D01*
X19074944Y-15206650D02*
X19093991Y-15216174D01*
X19093991Y-15216174D02*
X19103515Y-15235222D01*
X19103515Y-15235222D02*
X19103515Y-15339984D01*
X19493991Y-15130460D02*
X19322563Y-15387603D01*
X19751134Y-15139984D02*
X19770182Y-15139984D01*
X19770182Y-15139984D02*
X19789229Y-15149508D01*
X19789229Y-15149508D02*
X19798753Y-15159031D01*
X19798753Y-15159031D02*
X19808277Y-15178079D01*
X19808277Y-15178079D02*
X19817801Y-15216174D01*
X19817801Y-15216174D02*
X19817801Y-15263793D01*
X19817801Y-15263793D02*
X19808277Y-15301888D01*
X19808277Y-15301888D02*
X19798753Y-15320936D01*
X19798753Y-15320936D02*
X19789229Y-15330460D01*
X19789229Y-15330460D02*
X19770182Y-15339984D01*
X19770182Y-15339984D02*
X19751134Y-15339984D01*
X19751134Y-15339984D02*
X19732087Y-15330460D01*
X19732087Y-15330460D02*
X19722563Y-15320936D01*
X19722563Y-15320936D02*
X19713039Y-15301888D01*
X19713039Y-15301888D02*
X19703515Y-15263793D01*
X19703515Y-15263793D02*
X19703515Y-15216174D01*
X19703515Y-15216174D02*
X19713039Y-15178079D01*
X19713039Y-15178079D02*
X19722563Y-15159031D01*
X19722563Y-15159031D02*
X19732087Y-15149508D01*
X19732087Y-15149508D02*
X19751134Y-15139984D01*
X19903515Y-15320936D02*
X19913039Y-15330460D01*
X19913039Y-15330460D02*
X19903515Y-15339984D01*
X19903515Y-15339984D02*
X19893991Y-15330460D01*
X19893991Y-15330460D02*
X19903515Y-15320936D01*
X19903515Y-15320936D02*
X19903515Y-15339984D01*
X20103515Y-15339984D02*
X19989229Y-15339984D01*
X20046372Y-15339984D02*
X20046372Y-15139984D01*
X20046372Y-15139984D02*
X20027325Y-15168555D01*
X20027325Y-15168555D02*
X20008277Y-15187603D01*
X20008277Y-15187603D02*
X19989229Y-15197127D01*
X20293991Y-15339984D02*
X20179706Y-15339984D01*
X20236848Y-15339984D02*
X20236848Y-15139984D01*
X20236848Y-15139984D02*
X20217801Y-15168555D01*
X20217801Y-15168555D02*
X20198753Y-15187603D01*
X20198753Y-15187603D02*
X20179706Y-15197127D01*
X20408277Y-15225698D02*
X20389229Y-15216174D01*
X20389229Y-15216174D02*
X20379706Y-15206650D01*
X20379706Y-15206650D02*
X20370182Y-15187603D01*
X20370182Y-15187603D02*
X20370182Y-15178079D01*
X20370182Y-15178079D02*
X20379706Y-15159031D01*
X20379706Y-15159031D02*
X20389229Y-15149508D01*
X20389229Y-15149508D02*
X20408277Y-15139984D01*
X20408277Y-15139984D02*
X20446372Y-15139984D01*
X20446372Y-15139984D02*
X20465420Y-15149508D01*
X20465420Y-15149508D02*
X20474944Y-15159031D01*
X20474944Y-15159031D02*
X20484468Y-15178079D01*
X20484468Y-15178079D02*
X20484468Y-15187603D01*
X20484468Y-15187603D02*
X20474944Y-15206650D01*
X20474944Y-15206650D02*
X20465420Y-15216174D01*
X20465420Y-15216174D02*
X20446372Y-15225698D01*
X20446372Y-15225698D02*
X20408277Y-15225698D01*
X20408277Y-15225698D02*
X20389229Y-15235222D01*
X20389229Y-15235222D02*
X20379706Y-15244746D01*
X20379706Y-15244746D02*
X20370182Y-15263793D01*
X20370182Y-15263793D02*
X20370182Y-15301888D01*
X20370182Y-15301888D02*
X20379706Y-15320936D01*
X20379706Y-15320936D02*
X20389229Y-15330460D01*
X20389229Y-15330460D02*
X20408277Y-15339984D01*
X20408277Y-15339984D02*
X20446372Y-15339984D01*
X20446372Y-15339984D02*
X20465420Y-15330460D01*
X20465420Y-15330460D02*
X20474944Y-15320936D01*
X20474944Y-15320936D02*
X20484468Y-15301888D01*
X20484468Y-15301888D02*
X20484468Y-15263793D01*
X20484468Y-15263793D02*
X20474944Y-15244746D01*
X20474944Y-15244746D02*
X20465420Y-15235222D01*
X20465420Y-15235222D02*
X20446372Y-15225698D01*
X20674944Y-15339984D02*
X20560658Y-15339984D01*
X20617801Y-15339984D02*
X20617801Y-15139984D01*
X20617801Y-15139984D02*
X20598753Y-15168555D01*
X20598753Y-15168555D02*
X20579706Y-15187603D01*
X20579706Y-15187603D02*
X20560658Y-15197127D01*
X20751134Y-15139984D02*
X20751134Y-15178079D01*
X20827325Y-15139984D02*
X20827325Y-15178079D01*
X21122563Y-15416174D02*
X21113039Y-15406650D01*
X21113039Y-15406650D02*
X21093991Y-15378079D01*
X21093991Y-15378079D02*
X21084468Y-15359031D01*
X21084468Y-15359031D02*
X21074944Y-15330460D01*
X21074944Y-15330460D02*
X21065420Y-15282841D01*
X21065420Y-15282841D02*
X21065420Y-15244746D01*
X21065420Y-15244746D02*
X21074944Y-15197127D01*
X21074944Y-15197127D02*
X21084468Y-15168555D01*
X21084468Y-15168555D02*
X21093991Y-15149508D01*
X21093991Y-15149508D02*
X21113039Y-15120936D01*
X21113039Y-15120936D02*
X21122563Y-15111412D01*
X21284468Y-15206650D02*
X21284468Y-15339984D01*
X21236849Y-15130460D02*
X21189230Y-15273317D01*
X21189230Y-15273317D02*
X21313039Y-15273317D01*
X21541611Y-15339984D02*
X21541611Y-15139984D01*
X21627325Y-15339984D02*
X21627325Y-15235222D01*
X21627325Y-15235222D02*
X21617801Y-15216174D01*
X21617801Y-15216174D02*
X21598753Y-15206650D01*
X21598753Y-15206650D02*
X21570182Y-15206650D01*
X21570182Y-15206650D02*
X21551134Y-15216174D01*
X21551134Y-15216174D02*
X21541611Y-15225698D01*
X21751134Y-15339984D02*
X21732087Y-15330460D01*
X21732087Y-15330460D02*
X21722563Y-15320936D01*
X21722563Y-15320936D02*
X21713039Y-15301888D01*
X21713039Y-15301888D02*
X21713039Y-15244746D01*
X21713039Y-15244746D02*
X21722563Y-15225698D01*
X21722563Y-15225698D02*
X21732087Y-15216174D01*
X21732087Y-15216174D02*
X21751134Y-15206650D01*
X21751134Y-15206650D02*
X21779706Y-15206650D01*
X21779706Y-15206650D02*
X21798753Y-15216174D01*
X21798753Y-15216174D02*
X21808277Y-15225698D01*
X21808277Y-15225698D02*
X21817801Y-15244746D01*
X21817801Y-15244746D02*
X21817801Y-15301888D01*
X21817801Y-15301888D02*
X21808277Y-15320936D01*
X21808277Y-15320936D02*
X21798753Y-15330460D01*
X21798753Y-15330460D02*
X21779706Y-15339984D01*
X21779706Y-15339984D02*
X21751134Y-15339984D01*
X21932087Y-15339984D02*
X21913039Y-15330460D01*
X21913039Y-15330460D02*
X21903515Y-15311412D01*
X21903515Y-15311412D02*
X21903515Y-15139984D01*
X22084468Y-15330460D02*
X22065420Y-15339984D01*
X22065420Y-15339984D02*
X22027325Y-15339984D01*
X22027325Y-15339984D02*
X22008277Y-15330460D01*
X22008277Y-15330460D02*
X21998753Y-15311412D01*
X21998753Y-15311412D02*
X21998753Y-15235222D01*
X21998753Y-15235222D02*
X22008277Y-15216174D01*
X22008277Y-15216174D02*
X22027325Y-15206650D01*
X22027325Y-15206650D02*
X22065420Y-15206650D01*
X22065420Y-15206650D02*
X22084468Y-15216174D01*
X22084468Y-15216174D02*
X22093992Y-15235222D01*
X22093992Y-15235222D02*
X22093992Y-15254269D01*
X22093992Y-15254269D02*
X21998753Y-15273317D01*
X22170182Y-15330460D02*
X22189230Y-15339984D01*
X22189230Y-15339984D02*
X22227325Y-15339984D01*
X22227325Y-15339984D02*
X22246373Y-15330460D01*
X22246373Y-15330460D02*
X22255896Y-15311412D01*
X22255896Y-15311412D02*
X22255896Y-15301888D01*
X22255896Y-15301888D02*
X22246373Y-15282841D01*
X22246373Y-15282841D02*
X22227325Y-15273317D01*
X22227325Y-15273317D02*
X22198753Y-15273317D01*
X22198753Y-15273317D02*
X22179706Y-15263793D01*
X22179706Y-15263793D02*
X22170182Y-15244746D01*
X22170182Y-15244746D02*
X22170182Y-15235222D01*
X22170182Y-15235222D02*
X22179706Y-15216174D01*
X22179706Y-15216174D02*
X22198753Y-15206650D01*
X22198753Y-15206650D02*
X22227325Y-15206650D01*
X22227325Y-15206650D02*
X22246373Y-15216174D01*
X22322563Y-15416174D02*
X22332087Y-15406650D01*
X22332087Y-15406650D02*
X22351134Y-15378079D01*
X22351134Y-15378079D02*
X22360658Y-15359031D01*
X22360658Y-15359031D02*
X22370182Y-15330460D01*
X22370182Y-15330460D02*
X22379706Y-15282841D01*
X22379706Y-15282841D02*
X22379706Y-15244746D01*
X22379706Y-15244746D02*
X22370182Y-15197127D01*
X22370182Y-15197127D02*
X22360658Y-15168555D01*
X22360658Y-15168555D02*
X22351134Y-15149508D01*
X22351134Y-15149508D02*
X22332087Y-15120936D01*
X22332087Y-15120936D02*
X22322563Y-15111412D01*
M02*
