ISO-10303-21;
HEADER;
/* Generated by software containing ST-Developer
 * from STEP Tools, Inc. (www.steptools.com) 
 */
/* OPTION: using custom renumber hook */

FILE_DESCRIPTION(
/* description */ ('STEP AP242',
'CAx-IF Rec.Pracs.---Representation and Presentation of Product Manufa
cturing Information (PMI)---4.0---2014-10-13',
'CAx-IF Rec.Pracs.---3D Tessellated Geometry---0.4---2014-09-14','2;1'),

/* implementation_level */ '2;1');

FILE_NAME(
/* name */ '6869df28e1723828ff5576f9',
/* time_stamp */ '2025-07-06T02:27:53Z',
/* author */ (''),
/* organization */ (''),
/* preprocessor_version */ 'ST-DEVELOPER v20',
/* originating_system */ 'ONSHAPE BY PTC INC, 1.200',
/* authorisation */ '  ');

FILE_SCHEMA (('AP242_MANAGED_MODEL_BASED_3D_ENGINEERING_MIM_LF { 1 0 10303 442 1 1 4 }'));
ENDSEC;

DATA;
#10=SHAPE_REPRESENTATION_RELATIONSHIP('','',#246,#11);
#11=ADVANCED_BREP_SHAPE_REPRESENTATION('',(#244),#415);
#12=PLANE('',#254);
#13=PLANE('',#255);
#14=PLANE('',#256);
#15=PLANE('',#258);
#16=PLANE('',#259);
#17=PLANE('',#260);
#18=PLANE('',#261);
#19=PLANE('',#262);
#20=PLANE('',#264);
#21=PLANE('',#265);
#22=LINE('',#361,#42);
#23=LINE('',#365,#43);
#24=LINE('',#369,#44);
#25=LINE('',#373,#45);
#26=LINE('',#376,#46);
#27=LINE('',#379,#47);
#28=LINE('',#380,#48);
#29=LINE('',#382,#49);
#30=LINE('',#384,#50);
#31=LINE('',#385,#51);
#32=LINE('',#389,#52);
#33=LINE('',#391,#53);
#34=LINE('',#393,#54);
#35=LINE('',#395,#55);
#36=LINE('',#397,#56);
#37=LINE('',#400,#57);
#38=LINE('',#402,#58);
#39=LINE('',#406,#59);
#40=LINE('',#408,#60);
#41=LINE('',#410,#61);
#42=VECTOR('',#276,1.);
#43=VECTOR('',#279,1.);
#44=VECTOR('',#282,1.);
#45=VECTOR('',#285,1.);
#46=VECTOR('',#290,1.);
#47=VECTOR('',#291,1.);
#48=VECTOR('',#292,1.);
#49=VECTOR('',#293,1.);
#50=VECTOR('',#294,1.);
#51=VECTOR('',#295,1.);
#52=VECTOR('',#300,1.);
#53=VECTOR('',#301,1.);
#54=VECTOR('',#302,1.);
#55=VECTOR('',#305,1.);
#56=VECTOR('',#308,1.);
#57=VECTOR('',#313,1.);
#58=VECTOR('',#314,1.);
#59=VECTOR('',#319,1.);
#60=VECTOR('',#320,1.);
#61=VECTOR('',#323,1.);
#62=CIRCLE('',#249,0.00725);
#63=CIRCLE('',#250,0.00725);
#64=CIRCLE('',#251,0.00725);
#65=CIRCLE('',#252,0.00725);
#66=CIRCLE('',#253,0.00725);
#67=CIRCLE('',#257,0.0022);
#68=CIRCLE('',#263,0.0022);
#69=ORIENTED_EDGE('',*,*,#127,.T.);
#70=ORIENTED_EDGE('',*,*,#128,.T.);
#71=ORIENTED_EDGE('',*,*,#129,.F.);
#72=ORIENTED_EDGE('',*,*,#130,.T.);
#73=ORIENTED_EDGE('',*,*,#131,.F.);
#74=ORIENTED_EDGE('',*,*,#132,.T.);
#75=ORIENTED_EDGE('',*,*,#133,.T.);
#76=ORIENTED_EDGE('',*,*,#134,.T.);
#77=ORIENTED_EDGE('',*,*,#135,.F.);
#78=ORIENTED_EDGE('',*,*,#136,.T.);
#79=ORIENTED_EDGE('',*,*,#137,.T.);
#80=ORIENTED_EDGE('',*,*,#129,.T.);
#81=ORIENTED_EDGE('',*,*,#138,.T.);
#82=ORIENTED_EDGE('',*,*,#139,.T.);
#83=ORIENTED_EDGE('',*,*,#134,.F.);
#84=ORIENTED_EDGE('',*,*,#140,.F.);
#85=ORIENTED_EDGE('',*,*,#141,.F.);
#86=ORIENTED_EDGE('',*,*,#142,.T.);
#87=ORIENTED_EDGE('',*,*,#130,.F.);
#88=ORIENTED_EDGE('',*,*,#143,.F.);
#89=ORIENTED_EDGE('',*,*,#144,.T.);
#90=ORIENTED_EDGE('',*,*,#141,.T.);
#91=ORIENTED_EDGE('',*,*,#145,.F.);
#92=ORIENTED_EDGE('',*,*,#146,.F.);
#93=ORIENTED_EDGE('',*,*,#147,.T.);
#94=ORIENTED_EDGE('',*,*,#140,.T.);
#95=ORIENTED_EDGE('',*,*,#133,.F.);
#96=ORIENTED_EDGE('',*,*,#148,.F.);
#97=ORIENTED_EDGE('',*,*,#145,.T.);
#98=ORIENTED_EDGE('',*,*,#142,.F.);
#99=ORIENTED_EDGE('',*,*,#147,.F.);
#100=ORIENTED_EDGE('',*,*,#149,.T.);
#101=ORIENTED_EDGE('',*,*,#131,.T.);
#102=ORIENTED_EDGE('',*,*,#146,.T.);
#103=ORIENTED_EDGE('',*,*,#148,.T.);
#104=ORIENTED_EDGE('',*,*,#132,.F.);
#105=ORIENTED_EDGE('',*,*,#149,.F.);
#106=ORIENTED_EDGE('',*,*,#139,.F.);
#107=ORIENTED_EDGE('',*,*,#150,.F.);
#108=ORIENTED_EDGE('',*,*,#151,.T.);
#109=ORIENTED_EDGE('',*,*,#135,.T.);
#110=ORIENTED_EDGE('',*,*,#152,.F.);
#111=ORIENTED_EDGE('',*,*,#138,.F.);
#112=ORIENTED_EDGE('',*,*,#153,.F.);
#113=ORIENTED_EDGE('',*,*,#154,.T.);
#114=ORIENTED_EDGE('',*,*,#150,.T.);
#115=ORIENTED_EDGE('',*,*,#143,.T.);
#116=ORIENTED_EDGE('',*,*,#137,.F.);
#117=ORIENTED_EDGE('',*,*,#155,.F.);
#118=ORIENTED_EDGE('',*,*,#153,.T.);
#119=ORIENTED_EDGE('',*,*,#151,.F.);
#120=ORIENTED_EDGE('',*,*,#154,.F.);
#121=ORIENTED_EDGE('',*,*,#155,.T.);
#122=ORIENTED_EDGE('',*,*,#136,.F.);
#123=ORIENTED_EDGE('',*,*,#152,.T.);
#124=ORIENTED_EDGE('',*,*,#128,.F.);
#125=ORIENTED_EDGE('',*,*,#144,.F.);
#126=ORIENTED_EDGE('',*,*,#127,.F.);
#127=EDGE_CURVE('',#156,#156,#177,.T.);
#128=EDGE_CURVE('',#157,#157,#178,.T.);
#129=EDGE_CURVE('',#158,#158,#62,.T.);
#130=EDGE_CURVE('',#159,#160,#63,.T.);
#131=EDGE_CURVE('',#161,#160,#22,.T.);
#132=EDGE_CURVE('',#161,#162,#64,.T.);
#133=EDGE_CURVE('',#162,#163,#23,.T.);
#134=EDGE_CURVE('',#163,#164,#65,.T.);
#135=EDGE_CURVE('',#165,#164,#24,.T.);
#136=EDGE_CURVE('',#165,#166,#66,.T.);
#137=EDGE_CURVE('',#166,#159,#25,.T.);
#138=EDGE_CURVE('',#167,#168,#26,.T.);
#139=EDGE_CURVE('',#168,#164,#27,.T.);
#140=EDGE_CURVE('',#169,#163,#28,.T.);
#141=EDGE_CURVE('',#170,#169,#29,.T.);
#142=EDGE_CURVE('',#170,#160,#30,.T.);
#143=EDGE_CURVE('',#167,#159,#31,.T.);
#144=EDGE_CURVE('',#171,#171,#67,.T.);
#145=EDGE_CURVE('',#172,#169,#32,.T.);
#146=EDGE_CURVE('',#173,#172,#33,.T.);
#147=EDGE_CURVE('',#173,#170,#34,.T.);
#148=EDGE_CURVE('',#172,#162,#35,.T.);
#149=EDGE_CURVE('',#173,#161,#36,.T.);
#150=EDGE_CURVE('',#174,#168,#37,.T.);
#151=EDGE_CURVE('',#174,#165,#38,.T.);
#152=EDGE_CURVE('',#175,#175,#68,.T.);
#153=EDGE_CURVE('',#176,#167,#39,.T.);
#154=EDGE_CURVE('',#176,#174,#40,.T.);
#155=EDGE_CURVE('',#176,#166,#41,.T.);
#156=VERTEX_POINT('',#343);
#157=VERTEX_POINT('',#355);
#158=VERTEX_POINT('',#357);
#159=VERTEX_POINT('',#359);
#160=VERTEX_POINT('',#360);
#161=VERTEX_POINT('',#362);
#162=VERTEX_POINT('',#364);
#163=VERTEX_POINT('',#366);
#164=VERTEX_POINT('',#368);
#165=VERTEX_POINT('',#370);
#166=VERTEX_POINT('',#372);
#167=VERTEX_POINT('',#377);
#168=VERTEX_POINT('',#378);
#169=VERTEX_POINT('',#381);
#170=VERTEX_POINT('',#383);
#171=VERTEX_POINT('',#388);
#172=VERTEX_POINT('',#390);
#173=VERTEX_POINT('',#392);
#174=VERTEX_POINT('',#401);
#175=VERTEX_POINT('',#405);
#176=VERTEX_POINT('',#407);
#177=B_SPLINE_CURVE_WITH_KNOTS('',3,(#332,#333,#334,#335,#336,#337,#338,
#339,#340,#341,#342),.UNSPECIFIED.,.T.,.F.,(1,1,1,1,1,1,1,1,1,1,1,1,1,1,
1),(-0.00518873045083295,-0.00345915363388863,-0.00172957681694432,5.03218459013258E-19,
0.00172957681694432,0.00345915363388863,0.00518873045083295,0.00691830726777727,
0.00864788408472158,0.0103774609016659,0.0121070377186102,0.0138366145355545,
0.0155661913524988,0.0172957681694432,0.0190253449863875),.UNSPECIFIED.);
#178=B_SPLINE_CURVE_WITH_KNOTS('',3,(#344,#345,#346,#347,#348,#349,#350,
#351,#352,#353,#354),.UNSPECIFIED.,.T.,.F.,(1,1,1,1,1,1,1,1,1,1,1,1,1,1,
1),(-0.00518873045083295,-0.00345915363388863,-0.00172957681694432,2.92670486979626E-19,
0.00172957681694432,0.00345915363388863,0.00518873045083295,0.00691830726777727,
0.00864788408472158,0.0103774609016659,0.0121070377186102,0.0138366145355545,
0.0155661913524988,0.0172957681694432,0.0190253449863875),.UNSPECIFIED.);
#179=EDGE_LOOP('',(#69));
#180=EDGE_LOOP('',(#70));
#181=EDGE_LOOP('',(#71));
#182=EDGE_LOOP('',(#72,#73,#74,#75,#76,#77,#78,#79));
#183=EDGE_LOOP('',(#80));
#184=EDGE_LOOP('',(#81,#82,#83,#84,#85,#86,#87,#88));
#185=EDGE_LOOP('',(#89));
#186=EDGE_LOOP('',(#90,#91,#92,#93));
#187=EDGE_LOOP('',(#94,#95,#96,#97));
#188=EDGE_LOOP('',(#98,#99,#100,#101));
#189=EDGE_LOOP('',(#102,#103,#104,#105));
#190=EDGE_LOOP('',(#106,#107,#108,#109));
#191=EDGE_LOOP('',(#110));
#192=EDGE_LOOP('',(#111,#112,#113,#114));
#193=EDGE_LOOP('',(#115,#116,#117,#118));
#194=EDGE_LOOP('',(#119,#120,#121,#122));
#195=EDGE_LOOP('',(#123));
#196=EDGE_LOOP('',(#124));
#197=EDGE_LOOP('',(#125));
#198=EDGE_LOOP('',(#126));
#199=FACE_BOUND('',#179,.T.);
#200=FACE_BOUND('',#180,.T.);
#201=FACE_BOUND('',#181,.T.);
#202=FACE_BOUND('',#182,.T.);
#203=FACE_BOUND('',#183,.T.);
#204=FACE_BOUND('',#184,.T.);
#205=FACE_BOUND('',#185,.T.);
#206=FACE_BOUND('',#186,.T.);
#207=FACE_BOUND('',#187,.T.);
#208=FACE_BOUND('',#188,.T.);
#209=FACE_BOUND('',#189,.T.);
#210=FACE_BOUND('',#190,.T.);
#211=FACE_BOUND('',#191,.T.);
#212=FACE_BOUND('',#192,.T.);
#213=FACE_BOUND('',#193,.T.);
#214=FACE_BOUND('',#194,.T.);
#215=FACE_BOUND('',#195,.T.);
#216=FACE_BOUND('',#196,.T.);
#217=FACE_BOUND('',#197,.T.);
#218=FACE_BOUND('',#198,.T.);
#219=CYLINDRICAL_SURFACE('',#248,0.00725);
#220=CYLINDRICAL_SURFACE('',#266,0.0022);
#221=CYLINDRICAL_SURFACE('',#267,0.0022);
#222=ADVANCED_FACE('',(#199,#200,#201,#202),#219,.T.);
#223=ADVANCED_FACE('',(#203),#12,.T.);
#224=ADVANCED_FACE('',(#204),#13,.F.);
#225=ADVANCED_FACE('',(#205,#206),#14,.F.);
#226=ADVANCED_FACE('',(#207),#15,.F.);
#227=ADVANCED_FACE('',(#208),#16,.T.);
#228=ADVANCED_FACE('',(#209),#17,.T.);
#229=ADVANCED_FACE('',(#210),#18,.T.);
#230=ADVANCED_FACE('',(#211,#212),#19,.T.);
#231=ADVANCED_FACE('',(#213),#20,.F.);
#232=ADVANCED_FACE('',(#214),#21,.T.);
#233=ADVANCED_FACE('',(#215,#216),#220,.F.);
#234=ADVANCED_FACE('',(#217,#218),#221,.F.);
#235=CLOSED_SHELL('',(#222,#223,#224,#225,#226,#227,#228,#229,#230,#231,
#232,#233,#234));
#236=STYLED_ITEM('',(#237),#244);
#237=PRESENTATION_STYLE_ASSIGNMENT((#238));
#238=SURFACE_STYLE_USAGE(.BOTH.,#239);
#239=SURFACE_SIDE_STYLE('',(#240));
#240=SURFACE_STYLE_FILL_AREA(#241);
#241=FILL_AREA_STYLE('',(#242));
#242=FILL_AREA_STYLE_COLOUR('',#243);
#243=COLOUR_RGB('',0.615686274509804,0.811764705882353,0.929411764705882);
#244=MANIFOLD_SOLID_BREP('Part 1',#235);
#245=SHAPE_DEFINITION_REPRESENTATION(#420,#246);
#246=SHAPE_REPRESENTATION('Part 1',(#247),#415);
#247=AXIS2_PLACEMENT_3D('',#330,#268,#269);
#248=AXIS2_PLACEMENT_3D('',#331,#270,#271);
#249=AXIS2_PLACEMENT_3D('',#356,#272,#273);
#250=AXIS2_PLACEMENT_3D('',#358,#274,#275);
#251=AXIS2_PLACEMENT_3D('',#363,#277,#278);
#252=AXIS2_PLACEMENT_3D('',#367,#280,#281);
#253=AXIS2_PLACEMENT_3D('',#371,#283,#284);
#254=AXIS2_PLACEMENT_3D('',#374,#286,#287);
#255=AXIS2_PLACEMENT_3D('',#375,#288,#289);
#256=AXIS2_PLACEMENT_3D('',#386,#296,#297);
#257=AXIS2_PLACEMENT_3D('',#387,#298,#299);
#258=AXIS2_PLACEMENT_3D('',#394,#303,#304);
#259=AXIS2_PLACEMENT_3D('',#396,#306,#307);
#260=AXIS2_PLACEMENT_3D('',#398,#309,#310);
#261=AXIS2_PLACEMENT_3D('',#399,#311,#312);
#262=AXIS2_PLACEMENT_3D('',#403,#315,#316);
#263=AXIS2_PLACEMENT_3D('',#404,#317,#318);
#264=AXIS2_PLACEMENT_3D('',#409,#321,#322);
#265=AXIS2_PLACEMENT_3D('',#411,#324,#325);
#266=AXIS2_PLACEMENT_3D('',#412,#326,#327);
#267=AXIS2_PLACEMENT_3D('',#413,#328,#329);
#268=DIRECTION('',(0.,0.,1.));
#269=DIRECTION('',(1.,0.,0.));
#270=DIRECTION('',(0.,0.,-1.));
#271=DIRECTION('',(-1.,0.,0.));
#272=DIRECTION('',(0.,0.,1.));
#273=DIRECTION('',(1.,0.,0.));
#274=DIRECTION('',(0.,0.,1.));
#275=DIRECTION('',(1.,0.,0.));
#276=DIRECTION('',(0.,0.,1.));
#277=DIRECTION('',(0.,0.,1.));
#278=DIRECTION('',(1.,0.,0.));
#279=DIRECTION('',(0.,0.,1.));
#280=DIRECTION('',(0.,0.,1.));
#281=DIRECTION('',(1.,0.,0.));
#282=DIRECTION('',(0.,0.,1.));
#283=DIRECTION('',(0.,0.,1.));
#284=DIRECTION('',(1.,0.,0.));
#285=DIRECTION('',(0.,0.,1.));
#286=DIRECTION('',(0.,0.,1.));
#287=DIRECTION('',(1.,0.,0.));
#288=DIRECTION('',(0.,0.,1.));
#289=DIRECTION('',(1.,0.,0.));
#290=DIRECTION('',(-1.,0.,0.));
#291=DIRECTION('',(0.,-1.,0.));
#292=DIRECTION('',(0.,1.,0.));
#293=DIRECTION('',(-1.,0.,0.));
#294=DIRECTION('',(-6.42400054116381E-16,1.,0.));
#295=DIRECTION('',(-6.42400054116381E-16,-1.,0.));
#296=DIRECTION('',(0.,1.,0.));
#297=DIRECTION('',(0.,0.,1.));
#298=DIRECTION('',(0.,1.,0.));
#299=DIRECTION('',(0.,0.,1.));
#300=DIRECTION('',(0.,0.,1.));
#301=DIRECTION('',(-1.,0.,0.));
#302=DIRECTION('',(0.,0.,1.));
#303=DIRECTION('',(1.,0.,0.));
#304=DIRECTION('',(0.,0.,-1.));
#305=DIRECTION('',(0.,1.,0.));
#306=DIRECTION('',(1.,6.42400054116381E-16,0.));
#307=DIRECTION('',(-6.42400054116381E-16,1.,0.));
#308=DIRECTION('',(-6.42400054116381E-16,1.,0.));
#309=DIRECTION('',(0.,0.,-1.));
#310=DIRECTION('',(1.,0.,0.));
#311=DIRECTION('',(-1.,0.,0.));
#312=DIRECTION('',(0.,0.,1.));
#313=DIRECTION('',(0.,0.,1.));
#314=DIRECTION('',(0.,-1.,0.));
#315=DIRECTION('',(0.,1.,0.));
#316=DIRECTION('',(0.,0.,1.));
#317=DIRECTION('',(0.,1.,0.));
#318=DIRECTION('',(0.,0.,1.));
#319=DIRECTION('',(0.,0.,1.));
#320=DIRECTION('',(-1.,0.,0.));
#321=DIRECTION('',(-1.,6.42400054116381E-16,0.));
#322=DIRECTION('',(-6.42400054116381E-16,-1.,0.));
#323=DIRECTION('',(-6.42400054116381E-16,-1.,0.));
#324=DIRECTION('',(0.,0.,-1.));
#325=DIRECTION('',(1.,0.,0.));
#326=DIRECTION('',(0.,-1.,0.));
#327=DIRECTION('',(0.,0.,-1.));
#328=DIRECTION('',(0.,-1.,0.));
#329=DIRECTION('',(0.,0.,-1.));
#330=CARTESIAN_POINT('',(0.,0.,0.));
#331=CARTESIAN_POINT('',(0.,4.43934464690916E-19,0.0025));
#332=CARTESIAN_POINT('',(-0.0017251463029411,0.00708291980151224,-0.00672275420315494));
#333=CARTESIAN_POINT('',(1.40856453013498E-7,0.00733351592253694,-0.00743873319337877));
#334=CARTESIAN_POINT('',(0.00172458287712905,0.00708301650834002,-0.00672243302333));
#335=CARTESIAN_POINT('',(0.00243795759288583,0.00682066376718454,-0.00500284304287999));
#336=CARTESIAN_POINT('',(0.00172358375420656,0.00708321356020852,-0.0032752099716705));
#337=CARTESIAN_POINT('',(1.34119529055297E-6,0.00733334207829645,-0.00256245185542335));
#338=CARTESIAN_POINT('',(-0.00172337758856959,0.0070834177698764,-0.00327510378222133));
#339=CARTESIAN_POINT('',(-0.00243786890658814,0.00682063669124122,-0.00499967358122766));
#340=CARTESIAN_POINT('',(-0.0017251463029411,0.00708291980151224,-0.00672275420315494));
#341=CARTESIAN_POINT('',(1.40856453013498E-7,0.00733351592253694,-0.00743873319337877));
#342=CARTESIAN_POINT('',(0.00172458287712905,0.00708301650834002,-0.00672243302333));
#343=CARTESIAN_POINT('',(-5.18257707473746E-19,0.00725,-0.00720002));
#344=CARTESIAN_POINT('',(0.0017251463029411,-0.00708291980151223,-0.00672275420315494));
#345=CARTESIAN_POINT('',(-1.40856453013715E-7,-0.00733351592253694,-0.00743873319337876));
#346=CARTESIAN_POINT('',(-0.00172458287712905,-0.00708301650834002,-0.00672243302333));
#347=CARTESIAN_POINT('',(-0.00243795759288583,-0.00682066376718454,-0.00500284304288));
#348=CARTESIAN_POINT('',(-0.00172358375420656,-0.00708321356020852,-0.0032752099716705));
#349=CARTESIAN_POINT('',(-1.34119529055402E-6,-0.00733334207829645,-0.00256245185542335));
#350=CARTESIAN_POINT('',(0.00172337758856959,-0.0070834177698764,-0.00327510378222133));
#351=CARTESIAN_POINT('',(0.00243786890658814,-0.00682063669124122,-0.00499967358122766));
#352=CARTESIAN_POINT('',(0.0017251463029411,-0.00708291980151223,-0.00672275420315494));
#353=CARTESIAN_POINT('',(-1.40856453013715E-7,-0.00733351592253694,-0.00743873319337876));
#354=CARTESIAN_POINT('',(-0.00172458287712905,-0.00708301650834002,-0.00672243302333));
#355=CARTESIAN_POINT('',(3.01417272976645E-19,-0.00725,-0.00720002));
#356=CARTESIAN_POINT('',(0.,4.43934464690916E-19,0.0025));
#357=CARTESIAN_POINT('',(0.00725,4.43934464690916E-19,0.0025));
#358=CARTESIAN_POINT('',(0.,4.43934464690916E-19,0.));
#359=CARTESIAN_POINT('',(0.003,-0.00660018939122204,0.));
#360=CARTESIAN_POINT('',(0.003,0.00660018939122204,0.));
#361=CARTESIAN_POINT('',(0.003,0.00660018939122205,-0.01));
#362=CARTESIAN_POINT('',(0.003,0.00660018939122205,-0.01));
#363=CARTESIAN_POINT('',(0.,4.43934464690916E-19,-0.01));
#364=CARTESIAN_POINT('',(-0.003,0.00660018939122205,-0.01));
#365=CARTESIAN_POINT('',(-0.003,0.00660018939122205,-0.01));
#366=CARTESIAN_POINT('',(-0.003,0.00660018939122205,0.));
#367=CARTESIAN_POINT('',(0.,4.43934464690916E-19,0.));
#368=CARTESIAN_POINT('',(-0.003,-0.00660018939122204,0.));
#369=CARTESIAN_POINT('',(-0.003,-0.00660018939122204,-0.01));
#370=CARTESIAN_POINT('',(-0.003,-0.00660018939122204,-0.01));
#371=CARTESIAN_POINT('',(0.,4.43934464690916E-19,-0.01));
#372=CARTESIAN_POINT('',(0.003,-0.00660018939122204,-0.01));
#373=CARTESIAN_POINT('',(0.003,-0.00660018939122204,-0.01));
#374=CARTESIAN_POINT('',(0.,0.,0.0025));
#375=CARTESIAN_POINT('',(0.,0.,0.));
#376=CARTESIAN_POINT('',(-0.0015,-0.00525,0.));
#377=CARTESIAN_POINT('',(0.003,-0.00525,0.));
#378=CARTESIAN_POINT('',(-0.003,-0.00525,0.));
#379=CARTESIAN_POINT('',(-0.003,-0.00592509469561102,0.));
#380=CARTESIAN_POINT('',(-0.003,0.00592509469561102,0.));
#381=CARTESIAN_POINT('',(-0.003,0.00525,0.));
#382=CARTESIAN_POINT('',(-0.0015,0.00525,0.));
#383=CARTESIAN_POINT('',(0.003,0.00525,0.));
#384=CARTESIAN_POINT('',(0.003,0.00592509469561102,0.));
#385=CARTESIAN_POINT('',(0.003,-0.00592509469561102,0.));
#386=CARTESIAN_POINT('',(-0.0015,0.00525,-0.01));
#387=CARTESIAN_POINT('',(0.,0.00525,-0.00500002));
#388=CARTESIAN_POINT('',(0.,0.00525,-0.00280002));
#389=CARTESIAN_POINT('',(-0.003,0.00525,-0.01));
#390=CARTESIAN_POINT('',(-0.003,0.00525,-0.01));
#391=CARTESIAN_POINT('',(-0.0015,0.00525,-0.01));
#392=CARTESIAN_POINT('',(0.003,0.00525,-0.01));
#393=CARTESIAN_POINT('',(0.003,0.00525,-0.01));
#394=CARTESIAN_POINT('',(-0.003,0.00592509469561102,-0.01));
#395=CARTESIAN_POINT('',(-0.003,0.00592509469561102,-0.01));
#396=CARTESIAN_POINT('',(0.003,0.00592509469561102,-0.01));
#397=CARTESIAN_POINT('',(0.003,0.00592509469561102,-0.01));
#398=CARTESIAN_POINT('',(0.,1.7347234759768E-18,-0.01));
#399=CARTESIAN_POINT('',(-0.003,-0.00592509469561102,-0.01));
#400=CARTESIAN_POINT('',(-0.003,-0.00525,-0.01));
#401=CARTESIAN_POINT('',(-0.003,-0.00525,-0.01));
#402=CARTESIAN_POINT('',(-0.003,-0.00592509469561102,-0.01));
#403=CARTESIAN_POINT('',(-0.0015,-0.00525,-0.01));
#404=CARTESIAN_POINT('',(0.,-0.00525,-0.00500002));
#405=CARTESIAN_POINT('',(0.,-0.00525,-0.00280002));
#406=CARTESIAN_POINT('',(0.003,-0.00525,-0.01));
#407=CARTESIAN_POINT('',(0.003,-0.00525,-0.01));
#408=CARTESIAN_POINT('',(-0.0015,-0.00525,-0.01));
#409=CARTESIAN_POINT('',(0.003,-0.00592509469561102,-0.01));
#410=CARTESIAN_POINT('',(0.003,-0.00592509469561102,-0.01));
#411=CARTESIAN_POINT('',(0.,1.7347234759768E-18,-0.01));
#412=CARTESIAN_POINT('',(0.,0.0125,-0.00500002));
#413=CARTESIAN_POINT('',(0.,0.0125,-0.00500002));
#414=MECHANICAL_DESIGN_GEOMETRIC_PRESENTATION_REPRESENTATION('',(#236),
#415);
#415=(
GEOMETRIC_REPRESENTATION_CONTEXT(3)
GLOBAL_UNCERTAINTY_ASSIGNED_CONTEXT((#416))
GLOBAL_UNIT_ASSIGNED_CONTEXT((#419,#418,#417))
REPRESENTATION_CONTEXT('Part 1','TOP_LEVEL_ASSEMBLY_PART')
);
#416=UNCERTAINTY_MEASURE_WITH_UNIT(LENGTH_MEASURE(2.E-5),#419,
'DISTANCE_ACCURACY_VALUE','Maximum Tolerance applied to model');
#417=(
NAMED_UNIT(*)
SI_UNIT($,.STERADIAN.)
SOLID_ANGLE_UNIT()
);
#418=(
NAMED_UNIT(*)
PLANE_ANGLE_UNIT()
SI_UNIT($,.RADIAN.)
);
#419=(
LENGTH_UNIT()
NAMED_UNIT(*)
SI_UNIT($,.METRE.)
);
#420=PRODUCT_DEFINITION_SHAPE('','',#421);
#421=PRODUCT_DEFINITION('','',#423,#422);
#422=PRODUCT_DEFINITION_CONTEXT('',#429,'design');
#423=PRODUCT_DEFINITION_FORMATION_WITH_SPECIFIED_SOURCE('','',#425,
 .NOT_KNOWN.);
#424=PRODUCT_RELATED_PRODUCT_CATEGORY('','',(#425));
#425=PRODUCT('Part 1','Part 1','Part 1',(#427));
#426=PRODUCT_CATEGORY('','');
#427=PRODUCT_CONTEXT('',#429,'mechanical');
#428=APPLICATION_PROTOCOL_DEFINITION('international standard',
'ap242_managed_model_based_3d_engineering',2011,#429);
#429=APPLICATION_CONTEXT('managed model based 3d engineering');
ENDSEC;
END-ISO-10303-21;
