ISO-10303-21;
HEADER;
/* Generated by software containing ST-Developer
 * from STEP Tools, Inc. (www.steptools.com) 
 */
/* OPTION: using custom renumber hook */

FILE_DESCRIPTION(
/* description */ ('STEP AP242',
'CAx-IF Rec.Pracs.---Representation and Presentation of Product Manufa
cturing Information (PMI)---4.0---2014-10-13',
'CAx-IF Rec.Pracs.---3D Tessellated Geometry---0.4---2014-09-14','2;1'),

/* implementation_level */ '2;1');

FILE_NAME(
/* name */ '6869df15e1723828ff5576de',
/* time_stamp */ '2025-07-06T02:27:33Z',
/* author */ (''),
/* organization */ (''),
/* preprocessor_version */ 'ST-DEVELOPER v20',
/* originating_system */ 'ONSHAPE BY PTC INC, 1.200',
/* authorisation */ '  ');

FILE_SCHEMA (('AP242_MANAGED_MODEL_BASED_3D_ENGINEERING_MIM_LF { 1 0 10303 442 1 1 4 }'));
ENDSEC;

DATA;
#10=SHAPE_REPRESENTATION_RELATIONSHIP('','',#439,#11);
#11=ADVANCED_BREP_SHAPE_REPRESENTATION('',(#437),#717);
#12=CIRCLE('',#447,0.005);
#13=CIRCLE('',#448,0.005);
#14=CIRCLE('',#451,0.005);
#15=CIRCLE('',#452,0.005);
#16=CIRCLE('',#459,0.005);
#17=CIRCLE('',#460,0.005);
#18=CIRCLE('',#463,0.0011);
#19=CIRCLE('',#464,0.0011);
#20=CIRCLE('',#466,0.0011);
#21=CIRCLE('',#467,0.0011);
#22=CIRCLE('',#469,0.0011);
#23=CIRCLE('',#470,0.0011);
#24=CIRCLE('',#472,0.005);
#25=CIRCLE('',#473,0.005);
#26=CIRCLE('',#475,0.0011);
#27=CIRCLE('',#476,0.0011);
#28=CYLINDRICAL_SURFACE('',#446,0.005);
#29=CYLINDRICAL_SURFACE('',#450,0.005);
#30=CYLINDRICAL_SURFACE('',#458,0.005);
#31=CYLINDRICAL_SURFACE('',#462,0.0011);
#32=CYLINDRICAL_SURFACE('',#465,0.0011);
#33=CYLINDRICAL_SURFACE('',#468,0.0011);
#34=CYLINDRICAL_SURFACE('',#471,0.005);
#35=CYLINDRICAL_SURFACE('',#474,0.0011);
#36=ORIENTED_EDGE('',*,*,#148,.F.);
#37=ORIENTED_EDGE('',*,*,#149,.F.);
#38=ORIENTED_EDGE('',*,*,#150,.T.);
#39=ORIENTED_EDGE('',*,*,#151,.T.);
#40=ORIENTED_EDGE('',*,*,#152,.T.);
#41=ORIENTED_EDGE('',*,*,#153,.F.);
#42=ORIENTED_EDGE('',*,*,#154,.F.);
#43=ORIENTED_EDGE('',*,*,#149,.T.);
#44=ORIENTED_EDGE('',*,*,#155,.T.);
#45=ORIENTED_EDGE('',*,*,#156,.F.);
#46=ORIENTED_EDGE('',*,*,#157,.F.);
#47=ORIENTED_EDGE('',*,*,#153,.T.);
#48=ORIENTED_EDGE('',*,*,#158,.F.);
#49=ORIENTED_EDGE('',*,*,#159,.F.);
#50=ORIENTED_EDGE('',*,*,#160,.T.);
#51=ORIENTED_EDGE('',*,*,#156,.T.);
#52=ORIENTED_EDGE('',*,*,#161,.T.);
#53=ORIENTED_EDGE('',*,*,#162,.F.);
#54=ORIENTED_EDGE('',*,*,#163,.F.);
#55=ORIENTED_EDGE('',*,*,#159,.T.);
#56=ORIENTED_EDGE('',*,*,#164,.F.);
#57=ORIENTED_EDGE('',*,*,#165,.F.);
#58=ORIENTED_EDGE('',*,*,#166,.T.);
#59=ORIENTED_EDGE('',*,*,#162,.T.);
#60=ORIENTED_EDGE('',*,*,#167,.F.);
#61=ORIENTED_EDGE('',*,*,#168,.F.);
#62=ORIENTED_EDGE('',*,*,#169,.T.);
#63=ORIENTED_EDGE('',*,*,#165,.T.);
#64=ORIENTED_EDGE('',*,*,#170,.F.);
#65=ORIENTED_EDGE('',*,*,#171,.F.);
#66=ORIENTED_EDGE('',*,*,#172,.T.);
#67=ORIENTED_EDGE('',*,*,#168,.T.);
#68=ORIENTED_EDGE('',*,*,#173,.T.);
#69=ORIENTED_EDGE('',*,*,#174,.F.);
#70=ORIENTED_EDGE('',*,*,#175,.F.);
#71=ORIENTED_EDGE('',*,*,#171,.T.);
#72=ORIENTED_EDGE('',*,*,#176,.F.);
#73=ORIENTED_EDGE('',*,*,#177,.F.);
#74=ORIENTED_EDGE('',*,*,#178,.T.);
#75=ORIENTED_EDGE('',*,*,#174,.T.);
#76=ORIENTED_EDGE('',*,*,#179,.F.);
#77=ORIENTED_EDGE('',*,*,#180,.F.);
#78=ORIENTED_EDGE('',*,*,#181,.T.);
#79=ORIENTED_EDGE('',*,*,#177,.T.);
#80=ORIENTED_EDGE('',*,*,#182,.T.);
#81=ORIENTED_EDGE('',*,*,#183,.F.);
#82=ORIENTED_EDGE('',*,*,#184,.F.);
#83=ORIENTED_EDGE('',*,*,#180,.T.);
#84=ORIENTED_EDGE('',*,*,#185,.T.);
#85=ORIENTED_EDGE('',*,*,#186,.F.);
#86=ORIENTED_EDGE('',*,*,#187,.F.);
#87=ORIENTED_EDGE('',*,*,#183,.T.);
#88=ORIENTED_EDGE('',*,*,#188,.F.);
#89=ORIENTED_EDGE('',*,*,#189,.F.);
#90=ORIENTED_EDGE('',*,*,#190,.T.);
#91=ORIENTED_EDGE('',*,*,#186,.T.);
#92=ORIENTED_EDGE('',*,*,#191,.T.);
#93=ORIENTED_EDGE('',*,*,#192,.F.);
#94=ORIENTED_EDGE('',*,*,#193,.F.);
#95=ORIENTED_EDGE('',*,*,#189,.T.);
#96=ORIENTED_EDGE('',*,*,#194,.F.);
#97=ORIENTED_EDGE('',*,*,#195,.T.);
#98=ORIENTED_EDGE('',*,*,#196,.F.);
#99=ORIENTED_EDGE('',*,*,#197,.T.);
#100=ORIENTED_EDGE('',*,*,#198,.T.);
#101=ORIENTED_EDGE('',*,*,#199,.F.);
#102=ORIENTED_EDGE('',*,*,#200,.F.);
#103=ORIENTED_EDGE('',*,*,#151,.F.);
#104=ORIENTED_EDGE('',*,*,#201,.T.);
#105=ORIENTED_EDGE('',*,*,#192,.T.);
#106=ORIENTED_EDGE('',*,*,#202,.T.);
#107=ORIENTED_EDGE('',*,*,#203,.F.);
#108=ORIENTED_EDGE('',*,*,#150,.F.);
#109=ORIENTED_EDGE('',*,*,#154,.T.);
#110=ORIENTED_EDGE('',*,*,#157,.T.);
#111=ORIENTED_EDGE('',*,*,#160,.F.);
#112=ORIENTED_EDGE('',*,*,#163,.T.);
#113=ORIENTED_EDGE('',*,*,#166,.F.);
#114=ORIENTED_EDGE('',*,*,#169,.F.);
#115=ORIENTED_EDGE('',*,*,#172,.F.);
#116=ORIENTED_EDGE('',*,*,#175,.T.);
#117=ORIENTED_EDGE('',*,*,#178,.F.);
#118=ORIENTED_EDGE('',*,*,#181,.F.);
#119=ORIENTED_EDGE('',*,*,#184,.T.);
#120=ORIENTED_EDGE('',*,*,#187,.T.);
#121=ORIENTED_EDGE('',*,*,#190,.F.);
#122=ORIENTED_EDGE('',*,*,#193,.T.);
#123=ORIENTED_EDGE('',*,*,#201,.F.);
#124=ORIENTED_EDGE('',*,*,#198,.F.);
#125=ORIENTED_EDGE('',*,*,#196,.T.);
#126=ORIENTED_EDGE('',*,*,#194,.T.);
#127=ORIENTED_EDGE('',*,*,#202,.F.);
#128=ORIENTED_EDGE('',*,*,#148,.T.);
#129=ORIENTED_EDGE('',*,*,#200,.T.);
#130=ORIENTED_EDGE('',*,*,#191,.F.);
#131=ORIENTED_EDGE('',*,*,#188,.T.);
#132=ORIENTED_EDGE('',*,*,#185,.F.);
#133=ORIENTED_EDGE('',*,*,#182,.F.);
#134=ORIENTED_EDGE('',*,*,#179,.T.);
#135=ORIENTED_EDGE('',*,*,#176,.T.);
#136=ORIENTED_EDGE('',*,*,#173,.F.);
#137=ORIENTED_EDGE('',*,*,#170,.T.);
#138=ORIENTED_EDGE('',*,*,#167,.T.);
#139=ORIENTED_EDGE('',*,*,#164,.T.);
#140=ORIENTED_EDGE('',*,*,#161,.F.);
#141=ORIENTED_EDGE('',*,*,#158,.T.);
#142=ORIENTED_EDGE('',*,*,#155,.F.);
#143=ORIENTED_EDGE('',*,*,#152,.F.);
#144=ORIENTED_EDGE('',*,*,#199,.T.);
#145=ORIENTED_EDGE('',*,*,#197,.F.);
#146=ORIENTED_EDGE('',*,*,#195,.F.);
#147=ORIENTED_EDGE('',*,*,#203,.T.);
#148=EDGE_CURVE('',#204,#205,#244,.T.);
#149=EDGE_CURVE('',#206,#204,#245,.T.);
#150=EDGE_CURVE('',#206,#207,#246,.T.);
#151=EDGE_CURVE('',#207,#205,#247,.T.);
#152=EDGE_CURVE('',#204,#208,#248,.T.);
#153=EDGE_CURVE('',#209,#208,#249,.T.);
#154=EDGE_CURVE('',#206,#209,#250,.T.);
#155=EDGE_CURVE('',#208,#210,#251,.T.);
#156=EDGE_CURVE('',#211,#210,#252,.T.);
#157=EDGE_CURVE('',#209,#211,#253,.T.);
#158=EDGE_CURVE('',#212,#210,#254,.T.);
#159=EDGE_CURVE('',#213,#212,#255,.T.);
#160=EDGE_CURVE('',#213,#211,#256,.T.);
#161=EDGE_CURVE('',#212,#214,#257,.T.);
#162=EDGE_CURVE('',#215,#214,#258,.T.);
#163=EDGE_CURVE('',#213,#215,#259,.T.);
#164=EDGE_CURVE('',#216,#214,#12,.T.);
#165=EDGE_CURVE('',#217,#216,#260,.T.);
#166=EDGE_CURVE('',#217,#215,#13,.T.);
#167=EDGE_CURVE('',#218,#216,#261,.T.);
#168=EDGE_CURVE('',#219,#218,#262,.T.);
#169=EDGE_CURVE('',#219,#217,#263,.T.);
#170=EDGE_CURVE('',#220,#218,#14,.T.);
#171=EDGE_CURVE('',#221,#220,#264,.T.);
#172=EDGE_CURVE('',#221,#219,#15,.T.);
#173=EDGE_CURVE('',#220,#222,#265,.T.);
#174=EDGE_CURVE('',#223,#222,#266,.T.);
#175=EDGE_CURVE('',#221,#223,#267,.T.);
#176=EDGE_CURVE('',#224,#222,#268,.T.);
#177=EDGE_CURVE('',#225,#224,#269,.T.);
#178=EDGE_CURVE('',#225,#223,#270,.T.);
#179=EDGE_CURVE('',#226,#224,#271,.T.);
#180=EDGE_CURVE('',#227,#226,#272,.T.);
#181=EDGE_CURVE('',#227,#225,#273,.T.);
#182=EDGE_CURVE('',#226,#228,#274,.T.);
#183=EDGE_CURVE('',#229,#228,#275,.T.);
#184=EDGE_CURVE('',#227,#229,#276,.T.);
#185=EDGE_CURVE('',#228,#230,#277,.T.);
#186=EDGE_CURVE('',#231,#230,#278,.T.);
#187=EDGE_CURVE('',#229,#231,#279,.T.);
#188=EDGE_CURVE('',#232,#230,#16,.T.);
#189=EDGE_CURVE('',#233,#232,#280,.T.);
#190=EDGE_CURVE('',#233,#231,#17,.T.);
#191=EDGE_CURVE('',#232,#234,#281,.T.);
#192=EDGE_CURVE('',#235,#234,#282,.T.);
#193=EDGE_CURVE('',#233,#235,#283,.T.);
#194=EDGE_CURVE('',#236,#236,#18,.T.);
#195=EDGE_CURVE('',#237,#237,#19,.T.);
#196=EDGE_CURVE('',#238,#238,#20,.T.);
#197=EDGE_CURVE('',#239,#239,#21,.T.);
#198=EDGE_CURVE('',#240,#240,#22,.T.);
#199=EDGE_CURVE('',#241,#241,#23,.T.);
#200=EDGE_CURVE('',#205,#234,#24,.T.);
#201=EDGE_CURVE('',#207,#235,#25,.T.);
#202=EDGE_CURVE('',#242,#242,#26,.T.);
#203=EDGE_CURVE('',#243,#243,#27,.T.);
#204=VERTEX_POINT('',#600);
#205=VERTEX_POINT('',#601);
#206=VERTEX_POINT('',#603);
#207=VERTEX_POINT('',#605);
#208=VERTEX_POINT('',#609);
#209=VERTEX_POINT('',#611);
#210=VERTEX_POINT('',#615);
#211=VERTEX_POINT('',#617);
#212=VERTEX_POINT('',#621);
#213=VERTEX_POINT('',#623);
#214=VERTEX_POINT('',#627);
#215=VERTEX_POINT('',#629);
#216=VERTEX_POINT('',#633);
#217=VERTEX_POINT('',#635);
#218=VERTEX_POINT('',#639);
#219=VERTEX_POINT('',#641);
#220=VERTEX_POINT('',#645);
#221=VERTEX_POINT('',#647);
#222=VERTEX_POINT('',#651);
#223=VERTEX_POINT('',#653);
#224=VERTEX_POINT('',#657);
#225=VERTEX_POINT('',#659);
#226=VERTEX_POINT('',#663);
#227=VERTEX_POINT('',#665);
#228=VERTEX_POINT('',#669);
#229=VERTEX_POINT('',#671);
#230=VERTEX_POINT('',#675);
#231=VERTEX_POINT('',#677);
#232=VERTEX_POINT('',#681);
#233=VERTEX_POINT('',#683);
#234=VERTEX_POINT('',#687);
#235=VERTEX_POINT('',#689);
#236=VERTEX_POINT('',#693);
#237=VERTEX_POINT('',#695);
#238=VERTEX_POINT('',#698);
#239=VERTEX_POINT('',#700);
#240=VERTEX_POINT('',#703);
#241=VERTEX_POINT('',#705);
#242=VERTEX_POINT('',#711);
#243=VERTEX_POINT('',#713);
#244=LINE('',#599,#284);
#245=LINE('',#602,#285);
#246=LINE('',#604,#286);
#247=LINE('',#606,#287);
#248=LINE('',#608,#288);
#249=LINE('',#610,#289);
#250=LINE('',#612,#290);
#251=LINE('',#614,#291);
#252=LINE('',#616,#292);
#253=LINE('',#618,#293);
#254=LINE('',#620,#294);
#255=LINE('',#622,#295);
#256=LINE('',#624,#296);
#257=LINE('',#626,#297);
#258=LINE('',#628,#298);
#259=LINE('',#630,#299);
#260=LINE('',#634,#300);
#261=LINE('',#638,#301);
#262=LINE('',#640,#302);
#263=LINE('',#642,#303);
#264=LINE('',#646,#304);
#265=LINE('',#650,#305);
#266=LINE('',#652,#306);
#267=LINE('',#654,#307);
#268=LINE('',#656,#308);
#269=LINE('',#658,#309);
#270=LINE('',#660,#310);
#271=LINE('',#662,#311);
#272=LINE('',#664,#312);
#273=LINE('',#666,#313);
#274=LINE('',#668,#314);
#275=LINE('',#670,#315);
#276=LINE('',#672,#316);
#277=LINE('',#674,#317);
#278=LINE('',#676,#318);
#279=LINE('',#678,#319);
#280=LINE('',#682,#320);
#281=LINE('',#686,#321);
#282=LINE('',#688,#322);
#283=LINE('',#690,#323);
#284=VECTOR('',#483,1.);
#285=VECTOR('',#484,1.);
#286=VECTOR('',#485,1.);
#287=VECTOR('',#486,1.);
#288=VECTOR('',#489,1.);
#289=VECTOR('',#490,1.);
#290=VECTOR('',#491,1.);
#291=VECTOR('',#494,1.);
#292=VECTOR('',#495,1.);
#293=VECTOR('',#496,1.);
#294=VECTOR('',#499,1.);
#295=VECTOR('',#500,1.);
#296=VECTOR('',#501,1.);
#297=VECTOR('',#504,1.);
#298=VECTOR('',#505,1.);
#299=VECTOR('',#506,1.);
#300=VECTOR('',#511,1.);
#301=VECTOR('',#516,1.);
#302=VECTOR('',#517,1.);
#303=VECTOR('',#518,1.);
#304=VECTOR('',#523,1.);
#305=VECTOR('',#528,1.);
#306=VECTOR('',#529,1.);
#307=VECTOR('',#530,1.);
#308=VECTOR('',#533,1.);
#309=VECTOR('',#534,1.);
#310=VECTOR('',#535,1.);
#311=VECTOR('',#538,1.);
#312=VECTOR('',#539,1.);
#313=VECTOR('',#540,1.);
#314=VECTOR('',#543,1.);
#315=VECTOR('',#544,1.);
#316=VECTOR('',#545,1.);
#317=VECTOR('',#548,1.);
#318=VECTOR('',#549,1.);
#319=VECTOR('',#550,1.);
#320=VECTOR('',#555,1.);
#321=VECTOR('',#560,1.);
#322=VECTOR('',#561,1.);
#323=VECTOR('',#562,1.);
#324=EDGE_LOOP('',(#36,#37,#38,#39));
#325=EDGE_LOOP('',(#40,#41,#42,#43));
#326=EDGE_LOOP('',(#44,#45,#46,#47));
#327=EDGE_LOOP('',(#48,#49,#50,#51));
#328=EDGE_LOOP('',(#52,#53,#54,#55));
#329=EDGE_LOOP('',(#56,#57,#58,#59));
#330=EDGE_LOOP('',(#60,#61,#62,#63));
#331=EDGE_LOOP('',(#64,#65,#66,#67));
#332=EDGE_LOOP('',(#68,#69,#70,#71));
#333=EDGE_LOOP('',(#72,#73,#74,#75));
#334=EDGE_LOOP('',(#76,#77,#78,#79));
#335=EDGE_LOOP('',(#80,#81,#82,#83));
#336=EDGE_LOOP('',(#84,#85,#86,#87));
#337=EDGE_LOOP('',(#88,#89,#90,#91));
#338=EDGE_LOOP('',(#92,#93,#94,#95));
#339=EDGE_LOOP('',(#96));
#340=EDGE_LOOP('',(#97));
#341=EDGE_LOOP('',(#98));
#342=EDGE_LOOP('',(#99));
#343=EDGE_LOOP('',(#100));
#344=EDGE_LOOP('',(#101));
#345=EDGE_LOOP('',(#102,#103,#104,#105));
#346=EDGE_LOOP('',(#106));
#347=EDGE_LOOP('',(#107));
#348=EDGE_LOOP('',(#108,#109,#110,#111,#112,#113,#114,#115,#116,#117,#118,
#119,#120,#121,#122,#123));
#349=EDGE_LOOP('',(#124));
#350=EDGE_LOOP('',(#125));
#351=EDGE_LOOP('',(#126));
#352=EDGE_LOOP('',(#127));
#353=EDGE_LOOP('',(#128,#129,#130,#131,#132,#133,#134,#135,#136,#137,#138,
#139,#140,#141,#142,#143));
#354=EDGE_LOOP('',(#144));
#355=EDGE_LOOP('',(#145));
#356=EDGE_LOOP('',(#146));
#357=EDGE_LOOP('',(#147));
#358=FACE_BOUND('',#324,.T.);
#359=FACE_BOUND('',#325,.T.);
#360=FACE_BOUND('',#326,.T.);
#361=FACE_BOUND('',#327,.T.);
#362=FACE_BOUND('',#328,.T.);
#363=FACE_BOUND('',#329,.T.);
#364=FACE_BOUND('',#330,.T.);
#365=FACE_BOUND('',#331,.T.);
#366=FACE_BOUND('',#332,.T.);
#367=FACE_BOUND('',#333,.T.);
#368=FACE_BOUND('',#334,.T.);
#369=FACE_BOUND('',#335,.T.);
#370=FACE_BOUND('',#336,.T.);
#371=FACE_BOUND('',#337,.T.);
#372=FACE_BOUND('',#338,.T.);
#373=FACE_BOUND('',#339,.T.);
#374=FACE_BOUND('',#340,.T.);
#375=FACE_BOUND('',#341,.T.);
#376=FACE_BOUND('',#342,.T.);
#377=FACE_BOUND('',#343,.T.);
#378=FACE_BOUND('',#344,.T.);
#379=FACE_BOUND('',#345,.T.);
#380=FACE_BOUND('',#346,.T.);
#381=FACE_BOUND('',#347,.T.);
#382=FACE_BOUND('',#348,.T.);
#383=FACE_BOUND('',#349,.T.);
#384=FACE_BOUND('',#350,.T.);
#385=FACE_BOUND('',#351,.T.);
#386=FACE_BOUND('',#352,.T.);
#387=FACE_BOUND('',#353,.T.);
#388=FACE_BOUND('',#354,.T.);
#389=FACE_BOUND('',#355,.T.);
#390=FACE_BOUND('',#356,.T.);
#391=FACE_BOUND('',#357,.T.);
#392=PLANE('',#441);
#393=PLANE('',#442);
#394=PLANE('',#443);
#395=PLANE('',#444);
#396=PLANE('',#445);
#397=PLANE('',#449);
#398=PLANE('',#453);
#399=PLANE('',#454);
#400=PLANE('',#455);
#401=PLANE('',#456);
#402=PLANE('',#457);
#403=PLANE('',#461);
#404=PLANE('',#477);
#405=PLANE('',#478);
#406=ADVANCED_FACE('',(#358),#392,.T.);
#407=ADVANCED_FACE('',(#359),#393,.F.);
#408=ADVANCED_FACE('',(#360),#394,.F.);
#409=ADVANCED_FACE('',(#361),#395,.T.);
#410=ADVANCED_FACE('',(#362),#396,.F.);
#411=ADVANCED_FACE('',(#363),#28,.F.);
#412=ADVANCED_FACE('',(#364),#397,.T.);
#413=ADVANCED_FACE('',(#365),#29,.F.);
#414=ADVANCED_FACE('',(#366),#398,.F.);
#415=ADVANCED_FACE('',(#367),#399,.T.);
#416=ADVANCED_FACE('',(#368),#400,.T.);
#417=ADVANCED_FACE('',(#369),#401,.F.);
#418=ADVANCED_FACE('',(#370),#402,.F.);
#419=ADVANCED_FACE('',(#371),#30,.F.);
#420=ADVANCED_FACE('',(#372),#403,.F.);
#421=ADVANCED_FACE('',(#373,#374),#31,.F.);
#422=ADVANCED_FACE('',(#375,#376),#32,.F.);
#423=ADVANCED_FACE('',(#377,#378),#33,.F.);
#424=ADVANCED_FACE('',(#379),#34,.F.);
#425=ADVANCED_FACE('',(#380,#381),#35,.F.);
#426=ADVANCED_FACE('',(#382,#383,#384,#385,#386),#404,.T.);
#427=ADVANCED_FACE('',(#387,#388,#389,#390,#391),#405,.F.);
#428=CLOSED_SHELL('',(#406,#407,#408,#409,#410,#411,#412,#413,#414,#415,
#416,#417,#418,#419,#420,#421,#422,#423,#424,#425,#426,#427));
#429=STYLED_ITEM('',(#430),#437);
#430=PRESENTATION_STYLE_ASSIGNMENT((#431));
#431=SURFACE_STYLE_USAGE(.BOTH.,#432);
#432=SURFACE_SIDE_STYLE('',(#433));
#433=SURFACE_STYLE_FILL_AREA(#434);
#434=FILL_AREA_STYLE('',(#435));
#435=FILL_AREA_STYLE_COLOUR('',#436);
#436=COLOUR_RGB('',0.615686274509804,0.811764705882353,0.929411764705882);
#437=MANIFOLD_SOLID_BREP('Part 1',#428);
#438=SHAPE_DEFINITION_REPRESENTATION(#722,#439);
#439=SHAPE_REPRESENTATION('Part 1',(#440),#717);
#440=AXIS2_PLACEMENT_3D('',#597,#479,#480);
#441=AXIS2_PLACEMENT_3D('',#598,#481,#482);
#442=AXIS2_PLACEMENT_3D('',#607,#487,#488);
#443=AXIS2_PLACEMENT_3D('',#613,#492,#493);
#444=AXIS2_PLACEMENT_3D('',#619,#497,#498);
#445=AXIS2_PLACEMENT_3D('',#625,#502,#503);
#446=AXIS2_PLACEMENT_3D('',#631,#507,#508);
#447=AXIS2_PLACEMENT_3D('',#632,#509,#510);
#448=AXIS2_PLACEMENT_3D('',#636,#512,#513);
#449=AXIS2_PLACEMENT_3D('',#637,#514,#515);
#450=AXIS2_PLACEMENT_3D('',#643,#519,#520);
#451=AXIS2_PLACEMENT_3D('',#644,#521,#522);
#452=AXIS2_PLACEMENT_3D('',#648,#524,#525);
#453=AXIS2_PLACEMENT_3D('',#649,#526,#527);
#454=AXIS2_PLACEMENT_3D('',#655,#531,#532);
#455=AXIS2_PLACEMENT_3D('',#661,#536,#537);
#456=AXIS2_PLACEMENT_3D('',#667,#541,#542);
#457=AXIS2_PLACEMENT_3D('',#673,#546,#547);
#458=AXIS2_PLACEMENT_3D('',#679,#551,#552);
#459=AXIS2_PLACEMENT_3D('',#680,#553,#554);
#460=AXIS2_PLACEMENT_3D('',#684,#556,#557);
#461=AXIS2_PLACEMENT_3D('',#685,#558,#559);
#462=AXIS2_PLACEMENT_3D('',#691,#563,#564);
#463=AXIS2_PLACEMENT_3D('',#692,#565,#566);
#464=AXIS2_PLACEMENT_3D('',#694,#567,#568);
#465=AXIS2_PLACEMENT_3D('',#696,#569,#570);
#466=AXIS2_PLACEMENT_3D('',#697,#571,#572);
#467=AXIS2_PLACEMENT_3D('',#699,#573,#574);
#468=AXIS2_PLACEMENT_3D('',#701,#575,#576);
#469=AXIS2_PLACEMENT_3D('',#702,#577,#578);
#470=AXIS2_PLACEMENT_3D('',#704,#579,#580);
#471=AXIS2_PLACEMENT_3D('',#706,#581,#582);
#472=AXIS2_PLACEMENT_3D('',#707,#583,#584);
#473=AXIS2_PLACEMENT_3D('',#708,#585,#586);
#474=AXIS2_PLACEMENT_3D('',#709,#587,#588);
#475=AXIS2_PLACEMENT_3D('',#710,#589,#590);
#476=AXIS2_PLACEMENT_3D('',#712,#591,#592);
#477=AXIS2_PLACEMENT_3D('',#714,#593,#594);
#478=AXIS2_PLACEMENT_3D('',#715,#595,#596);
#479=DIRECTION('',(0.,0.,1.));
#480=DIRECTION('',(1.,0.,0.));
#481=DIRECTION('',(0.,0.,-1.));
#482=DIRECTION('',(-1.,0.,0.));
#483=DIRECTION('',(0.,-1.,0.));
#484=DIRECTION('',(-1.,0.,0.));
#485=DIRECTION('',(0.,-1.,0.));
#486=DIRECTION('',(-1.,0.,0.));
#487=DIRECTION('',(0.,-1.,7.70988211545248E-17));
#488=DIRECTION('',(0.,-7.70988211545248E-17,-1.));
#489=DIRECTION('',(0.,7.70988211545248E-17,1.));
#490=DIRECTION('',(-1.,0.,0.));
#491=DIRECTION('',(0.,7.70988211545248E-17,1.));
#492=DIRECTION('',(0.,0.,-1.));
#493=DIRECTION('',(-1.,0.,0.));
#494=DIRECTION('',(0.,-1.,0.));
#495=DIRECTION('',(-1.,0.,0.));
#496=DIRECTION('',(0.,-1.,0.));
#497=DIRECTION('',(0.,-1.,7.70988211545248E-17));
#498=DIRECTION('',(0.,-7.70988211545248E-17,-1.));
#499=DIRECTION('',(0.,7.70988211545248E-17,1.));
#500=DIRECTION('',(-1.,0.,0.));
#501=DIRECTION('',(0.,7.70988211545248E-17,1.));
#502=DIRECTION('',(0.,0.,1.));
#503=DIRECTION('',(1.,0.,0.));
#504=DIRECTION('',(0.,1.,0.));
#505=DIRECTION('',(-1.,0.,0.));
#506=DIRECTION('',(0.,1.,0.));
#507=DIRECTION('',(-1.,0.,0.));
#508=DIRECTION('',(0.,0.,1.));
#509=DIRECTION('',(1.,0.,0.));
#510=DIRECTION('',(0.,0.,-1.));
#511=DIRECTION('',(-1.,0.,0.));
#512=DIRECTION('',(1.,0.,0.));
#513=DIRECTION('',(0.,0.,-1.));
#514=DIRECTION('',(0.,-1.,-2.31296463463574E-16));
#515=DIRECTION('',(0.,2.31296463463574E-16,-1.));
#516=DIRECTION('',(0.,-2.31296463463574E-16,1.));
#517=DIRECTION('',(-1.,0.,0.));
#518=DIRECTION('',(0.,-2.31296463463574E-16,1.));
#519=DIRECTION('',(-1.,0.,0.));
#520=DIRECTION('',(0.,0.,1.));
#521=DIRECTION('',(1.,0.,0.));
#522=DIRECTION('',(0.,0.,-1.));
#523=DIRECTION('',(-1.,0.,0.));
#524=DIRECTION('',(1.,0.,0.));
#525=DIRECTION('',(0.,0.,-1.));
#526=DIRECTION('',(0.,0.,-1.));
#527=DIRECTION('',(-1.,0.,0.));
#528=DIRECTION('',(0.,-1.,0.));
#529=DIRECTION('',(-1.,0.,0.));
#530=DIRECTION('',(0.,-1.,0.));
#531=DIRECTION('',(0.,-1.,0.));
#532=DIRECTION('',(0.,0.,-1.));
#533=DIRECTION('',(0.,0.,1.));
#534=DIRECTION('',(-1.,0.,0.));
#535=DIRECTION('',(0.,0.,1.));
#536=DIRECTION('',(0.,1.38777878078145E-15,-1.));
#537=DIRECTION('',(0.,1.,1.38777878078145E-15));
#538=DIRECTION('',(0.,-1.,-1.38777878078145E-15));
#539=DIRECTION('',(-1.,0.,0.));
#540=DIRECTION('',(0.,-1.,-1.38777878078145E-15));
#541=DIRECTION('',(0.,-1.,0.));
#542=DIRECTION('',(0.,0.,-1.));
#543=DIRECTION('',(0.,0.,1.));
#544=DIRECTION('',(-1.,0.,0.));
#545=DIRECTION('',(0.,0.,1.));
#546=DIRECTION('',(0.,0.,-1.));
#547=DIRECTION('',(-1.,0.,0.));
#548=DIRECTION('',(0.,-1.,0.));
#549=DIRECTION('',(-1.,0.,0.));
#550=DIRECTION('',(0.,-1.,0.));
#551=DIRECTION('',(-1.,0.,0.));
#552=DIRECTION('',(0.,0.,1.));
#553=DIRECTION('',(1.,0.,0.));
#554=DIRECTION('',(0.,0.,-1.));
#555=DIRECTION('',(-1.,0.,0.));
#556=DIRECTION('',(1.,0.,0.));
#557=DIRECTION('',(0.,0.,-1.));
#558=DIRECTION('',(0.,-1.,-2.31296463463574E-16));
#559=DIRECTION('',(0.,2.31296463463574E-16,-1.));
#560=DIRECTION('',(0.,-2.31296463463574E-16,1.));
#561=DIRECTION('',(-1.,0.,0.));
#562=DIRECTION('',(0.,-2.31296463463574E-16,1.));
#563=DIRECTION('',(-1.,0.,0.));
#564=DIRECTION('',(0.,0.,1.));
#565=DIRECTION('',(-1.,0.,0.));
#566=DIRECTION('',(0.,0.,-1.));
#567=DIRECTION('',(-1.,0.,0.));
#568=DIRECTION('',(0.,0.,-1.));
#569=DIRECTION('',(-1.,0.,0.));
#570=DIRECTION('',(0.,0.,1.));
#571=DIRECTION('',(-1.,0.,0.));
#572=DIRECTION('',(0.,0.,-1.));
#573=DIRECTION('',(-1.,0.,0.));
#574=DIRECTION('',(0.,0.,-1.));
#575=DIRECTION('',(-1.,0.,0.));
#576=DIRECTION('',(0.,0.,1.));
#577=DIRECTION('',(1.,0.,0.));
#578=DIRECTION('',(0.,0.,-1.));
#579=DIRECTION('',(1.,0.,0.));
#580=DIRECTION('',(0.,0.,-1.));
#581=DIRECTION('',(-1.,0.,0.));
#582=DIRECTION('',(0.,0.,1.));
#583=DIRECTION('',(1.,0.,0.));
#584=DIRECTION('',(0.,0.,-1.));
#585=DIRECTION('',(1.,0.,0.));
#586=DIRECTION('',(0.,0.,-1.));
#587=DIRECTION('',(-1.,0.,0.));
#588=DIRECTION('',(0.,0.,1.));
#589=DIRECTION('',(1.,0.,0.));
#590=DIRECTION('',(0.,0.,-1.));
#591=DIRECTION('',(1.,0.,0.));
#592=DIRECTION('',(0.,0.,-1.));
#593=DIRECTION('',(1.,0.,0.));
#594=DIRECTION('',(0.,1.,0.));
#595=DIRECTION('',(1.,0.,0.));
#596=DIRECTION('',(0.,1.,0.));
#597=CARTESIAN_POINT('',(0.,0.,0.));
#598=CARTESIAN_POINT('',(0.0025,0.016,-0.01025));
#599=CARTESIAN_POINT('',(0.,0.016,-0.01025));
#600=CARTESIAN_POINT('',(0.,0.0185,-0.01025));
#601=CARTESIAN_POINT('',(0.,0.0135,-0.01025));
#602=CARTESIAN_POINT('',(0.0025,0.0185,-0.01025));
#603=CARTESIAN_POINT('',(0.0025,0.0185,-0.01025));
#604=CARTESIAN_POINT('',(0.0025,0.016,-0.01025));
#605=CARTESIAN_POINT('',(0.0025,0.0135,-0.01025));
#606=CARTESIAN_POINT('',(0.0025,0.0135,-0.01025));
#607=CARTESIAN_POINT('',(0.0025,0.0185,0.01225));
#608=CARTESIAN_POINT('',(0.,0.0185,0.01225));
#609=CARTESIAN_POINT('',(0.,0.0185,0.03975));
#610=CARTESIAN_POINT('',(0.0025,0.0185,0.03975));
#611=CARTESIAN_POINT('',(0.0025,0.0185,0.03975));
#612=CARTESIAN_POINT('',(0.0025,0.0185,0.01225));
#613=CARTESIAN_POINT('',(0.0025,6.93889390390723E-18,0.03975));
#614=CARTESIAN_POINT('',(0.,6.93889390390723E-18,0.03975));
#615=CARTESIAN_POINT('',(0.,-0.0185,0.03975));
#616=CARTESIAN_POINT('',(0.0025,-0.0185,0.03975));
#617=CARTESIAN_POINT('',(0.0025,-0.0185,0.03975));
#618=CARTESIAN_POINT('',(0.0025,6.93889390390723E-18,0.03975));
#619=CARTESIAN_POINT('',(0.0025,-0.0185,0.01225));
#620=CARTESIAN_POINT('',(0.,-0.0185,0.01225));
#621=CARTESIAN_POINT('',(0.,-0.0185,-0.01025));
#622=CARTESIAN_POINT('',(0.0025,-0.0185,-0.01025));
#623=CARTESIAN_POINT('',(0.0025,-0.0185,-0.01025));
#624=CARTESIAN_POINT('',(0.0025,-0.0185,0.01225));
#625=CARTESIAN_POINT('',(0.0025,-0.016,-0.01025));
#626=CARTESIAN_POINT('',(0.,-0.016,-0.01025));
#627=CARTESIAN_POINT('',(0.,-0.0135,-0.01025));
#628=CARTESIAN_POINT('',(0.0025,-0.0135,-0.01025));
#629=CARTESIAN_POINT('',(0.0025,-0.0135,-0.01025));
#630=CARTESIAN_POINT('',(0.0025,-0.016,-0.01025));
#631=CARTESIAN_POINT('',(0.0025,-0.0135,-0.01525));
#632=CARTESIAN_POINT('',(0.,-0.0135,-0.01525));
#633=CARTESIAN_POINT('',(0.,-0.0085,-0.01525));
#634=CARTESIAN_POINT('',(0.0025,-0.0085,-0.01525));
#635=CARTESIAN_POINT('',(0.0025,-0.0085,-0.01525));
#636=CARTESIAN_POINT('',(0.0025,-0.0135,-0.01525));
#637=CARTESIAN_POINT('',(0.0025,-0.0085,-0.02275));
#638=CARTESIAN_POINT('',(0.,-0.0085,-0.02275));
#639=CARTESIAN_POINT('',(0.,-0.0085,-0.03025));
#640=CARTESIAN_POINT('',(0.0025,-0.0085,-0.03025));
#641=CARTESIAN_POINT('',(0.0025,-0.0085,-0.03025));
#642=CARTESIAN_POINT('',(0.0025,-0.0085,-0.02275));
#643=CARTESIAN_POINT('',(0.0025,-0.0135,-0.03025));
#644=CARTESIAN_POINT('',(0.,-0.0135,-0.03025));
#645=CARTESIAN_POINT('',(0.,-0.0135,-0.03525));
#646=CARTESIAN_POINT('',(0.0025,-0.0135,-0.03525));
#647=CARTESIAN_POINT('',(0.0025,-0.0135,-0.03525));
#648=CARTESIAN_POINT('',(0.0025,-0.0135,-0.03025));
#649=CARTESIAN_POINT('',(0.0025,-0.016,-0.03525));
#650=CARTESIAN_POINT('',(0.,-0.016,-0.03525));
#651=CARTESIAN_POINT('',(0.,-0.0185,-0.03525));
#652=CARTESIAN_POINT('',(0.0025,-0.0185,-0.03525));
#653=CARTESIAN_POINT('',(0.0025,-0.0185,-0.03525));
#654=CARTESIAN_POINT('',(0.0025,-0.016,-0.03525));
#655=CARTESIAN_POINT('',(0.0025,-0.0185,-0.0375));
#656=CARTESIAN_POINT('',(0.,-0.0185,-0.0375));
#657=CARTESIAN_POINT('',(0.,-0.0185,-0.03975));
#658=CARTESIAN_POINT('',(0.0025,-0.0185,-0.03975));
#659=CARTESIAN_POINT('',(0.0025,-0.0185,-0.03975));
#660=CARTESIAN_POINT('',(0.0025,-0.0185,-0.0375));
#661=CARTESIAN_POINT('',(0.0025,0.016,-0.03975));
#662=CARTESIAN_POINT('',(0.,0.016,-0.03975));
#663=CARTESIAN_POINT('',(0.,0.0185,-0.03975));
#664=CARTESIAN_POINT('',(0.0025,0.0185,-0.03975));
#665=CARTESIAN_POINT('',(0.0025,0.0185,-0.03975));
#666=CARTESIAN_POINT('',(0.0025,0.016,-0.03975));
#667=CARTESIAN_POINT('',(0.0025,0.0185,-0.0375));
#668=CARTESIAN_POINT('',(0.,0.0185,-0.0375));
#669=CARTESIAN_POINT('',(0.,0.0185,-0.03525));
#670=CARTESIAN_POINT('',(0.0025,0.0185,-0.03525));
#671=CARTESIAN_POINT('',(0.0025,0.0185,-0.03525));
#672=CARTESIAN_POINT('',(0.0025,0.0185,-0.0375));
#673=CARTESIAN_POINT('',(0.0025,0.016,-0.03525));
#674=CARTESIAN_POINT('',(0.,0.016,-0.03525));
#675=CARTESIAN_POINT('',(0.,0.0135,-0.03525));
#676=CARTESIAN_POINT('',(0.0025,0.0135,-0.03525));
#677=CARTESIAN_POINT('',(0.0025,0.0135,-0.03525));
#678=CARTESIAN_POINT('',(0.0025,0.016,-0.03525));
#679=CARTESIAN_POINT('',(0.0025,0.0135,-0.03025));
#680=CARTESIAN_POINT('',(0.,0.0135,-0.03025));
#681=CARTESIAN_POINT('',(0.,0.0085,-0.03025));
#682=CARTESIAN_POINT('',(0.0025,0.0085,-0.03025));
#683=CARTESIAN_POINT('',(0.0025,0.0085,-0.03025));
#684=CARTESIAN_POINT('',(0.0025,0.0135,-0.03025));
#685=CARTESIAN_POINT('',(0.0025,0.0085,-0.02275));
#686=CARTESIAN_POINT('',(0.,0.0085,-0.02275));
#687=CARTESIAN_POINT('',(0.,0.0085,-0.01525));
#688=CARTESIAN_POINT('',(0.0025,0.0085,-0.01525));
#689=CARTESIAN_POINT('',(0.0025,0.0085,-0.01525));
#690=CARTESIAN_POINT('',(0.0025,0.0085,-0.02275));
#691=CARTESIAN_POINT('',(0.0025,-0.016,0.03725));
#692=CARTESIAN_POINT('',(0.0025,-0.016,0.03725));
#693=CARTESIAN_POINT('',(0.0025,-0.016,0.03615));
#694=CARTESIAN_POINT('',(0.,-0.016,0.03725));
#695=CARTESIAN_POINT('',(0.,-0.016,0.03615));
#696=CARTESIAN_POINT('',(0.0025,-0.016,-0.038));
#697=CARTESIAN_POINT('',(0.0025,-0.016,-0.038));
#698=CARTESIAN_POINT('',(0.0025,-0.016,-0.0391));
#699=CARTESIAN_POINT('',(0.,-0.016,-0.038));
#700=CARTESIAN_POINT('',(0.,-0.016,-0.0391));
#701=CARTESIAN_POINT('',(0.0025,0.016,-0.038));
#702=CARTESIAN_POINT('',(0.0025,0.016,-0.038));
#703=CARTESIAN_POINT('',(0.0025,0.016,-0.0391));
#704=CARTESIAN_POINT('',(0.,0.016,-0.038));
#705=CARTESIAN_POINT('',(0.,0.016,-0.0391));
#706=CARTESIAN_POINT('',(0.0025,0.0135,-0.01525));
#707=CARTESIAN_POINT('',(0.,0.0135,-0.01525));
#708=CARTESIAN_POINT('',(0.0025,0.0135,-0.01525));
#709=CARTESIAN_POINT('',(0.0025,0.016,0.03725));
#710=CARTESIAN_POINT('',(0.0025,0.016,0.03725));
#711=CARTESIAN_POINT('',(0.0025,0.016,0.03615));
#712=CARTESIAN_POINT('',(0.,0.016,0.03725));
#713=CARTESIAN_POINT('',(0.,0.016,0.03615));
#714=CARTESIAN_POINT('',(0.0025,0.,0.));
#715=CARTESIAN_POINT('',(0.,0.,0.));
#716=MECHANICAL_DESIGN_GEOMETRIC_PRESENTATION_REPRESENTATION('',(#429),
#717);
#717=(
GEOMETRIC_REPRESENTATION_CONTEXT(3)
GLOBAL_UNCERTAINTY_ASSIGNED_CONTEXT((#718))
GLOBAL_UNIT_ASSIGNED_CONTEXT((#721,#720,#719))
REPRESENTATION_CONTEXT('Part 1','TOP_LEVEL_ASSEMBLY_PART')
);
#718=UNCERTAINTY_MEASURE_WITH_UNIT(LENGTH_MEASURE(1.E-8),#721,
'DISTANCE_ACCURACY_VALUE','Maximum Tolerance applied to model');
#719=(
NAMED_UNIT(*)
SI_UNIT($,.STERADIAN.)
SOLID_ANGLE_UNIT()
);
#720=(
NAMED_UNIT(*)
PLANE_ANGLE_UNIT()
SI_UNIT($,.RADIAN.)
);
#721=(
LENGTH_UNIT()
NAMED_UNIT(*)
SI_UNIT($,.METRE.)
);
#722=PRODUCT_DEFINITION_SHAPE('','',#723);
#723=PRODUCT_DEFINITION('','',#725,#724);
#724=PRODUCT_DEFINITION_CONTEXT('',#731,'design');
#725=PRODUCT_DEFINITION_FORMATION_WITH_SPECIFIED_SOURCE('','',#727,
 .NOT_KNOWN.);
#726=PRODUCT_RELATED_PRODUCT_CATEGORY('','',(#727));
#727=PRODUCT('Part 1','Part 1','Part 1',(#729));
#728=PRODUCT_CATEGORY('','');
#729=PRODUCT_CONTEXT('',#731,'mechanical');
#730=APPLICATION_PROTOCOL_DEFINITION('international standard',
'ap242_managed_model_based_3d_engineering',2011,#731);
#731=APPLICATION_CONTEXT('managed model based 3d engineering');
ENDSEC;
END-ISO-10303-21;
