%TF.GenerationSoftware,KiCad,Pcbnew,8.0.7*%
%TF.CreationDate,2025-06-16T00:37:15-04:00*%
%TF.ProjectId,controller,636f6e74-726f-46c6-9c65-722e6b696361,rev?*%
%TF.SameCoordinates,Original*%
%TF.FileFunction,Copper,L1,Top*%
%TF.FilePolarity,Positive*%
%FSLAX46Y46*%
G04 Gerber Fmt 4.6, Leading zero omitted, Abs format (unit mm)*
G04 Created by KiCad (PCBNEW 8.0.7) date 2025-06-16 00:37:15*
%MOMM*%
%LPD*%
G01*
G04 APERTURE LIST*
G04 Aperture macros list*
%AMRoundRect*
0 Rectangle with rounded corners*
0 $1 Rounding radius*
0 $2 $3 $4 $5 $6 $7 $8 $9 X,Y pos of 4 corners*
0 Add a 4 corners polygon primitive as box body*
4,1,4,$2,$3,$4,$5,$6,$7,$8,$9,$2,$3,0*
0 Add four circle primitives for the rounded corners*
1,1,$1+$1,$2,$3*
1,1,$1+$1,$4,$5*
1,1,$1+$1,$6,$7*
1,1,$1+$1,$8,$9*
0 Add four rect primitives between the rounded corners*
20,1,$1+$1,$2,$3,$4,$5,0*
20,1,$1+$1,$4,$5,$6,$7,0*
20,1,$1+$1,$6,$7,$8,$9,0*
20,1,$1+$1,$8,$9,$2,$3,0*%
G04 Aperture macros list end*
%TA.AperFunction,ComponentPad*%
%ADD10C,1.600000*%
%TD*%
%TA.AperFunction,ComponentPad*%
%ADD11O,1.600000X1.600000*%
%TD*%
%TA.AperFunction,ComponentPad*%
%ADD12R,1.800000X1.800000*%
%TD*%
%TA.AperFunction,ComponentPad*%
%ADD13C,1.800000*%
%TD*%
%TA.AperFunction,ComponentPad*%
%ADD14RoundRect,0.750000X-1.250000X-0.750000X1.250000X-0.750000X1.250000X0.750000X-1.250000X0.750000X0*%
%TD*%
%TA.AperFunction,ComponentPad*%
%ADD15R,2.200000X2.200000*%
%TD*%
%TA.AperFunction,ComponentPad*%
%ADD16C,2.200000*%
%TD*%
%TA.AperFunction,ComponentPad*%
%ADD17R,2.000000X1.905000*%
%TD*%
%TA.AperFunction,ComponentPad*%
%ADD18O,2.000000X1.905000*%
%TD*%
%TA.AperFunction,ComponentPad*%
%ADD19R,1.560000X1.560000*%
%TD*%
%TA.AperFunction,ComponentPad*%
%ADD20C,1.560000*%
%TD*%
%TA.AperFunction,ComponentPad*%
%ADD21RoundRect,0.250000X-0.350000X-0.625000X0.350000X-0.625000X0.350000X0.625000X-0.350000X0.625000X0*%
%TD*%
%TA.AperFunction,ComponentPad*%
%ADD22O,1.200000X1.750000*%
%TD*%
%TA.AperFunction,ComponentPad*%
%ADD23R,1.600200X1.600200*%
%TD*%
%TA.AperFunction,ComponentPad*%
%ADD24C,1.600200*%
%TD*%
%TA.AperFunction,ComponentPad*%
%ADD25R,1.350000X1.350000*%
%TD*%
%TA.AperFunction,ComponentPad*%
%ADD26O,1.350000X1.350000*%
%TD*%
%TA.AperFunction,ComponentPad*%
%ADD27O,2.200000X2.200000*%
%TD*%
%TA.AperFunction,SMDPad,CuDef*%
%ADD28RoundRect,0.250000X2.050000X0.300000X-2.050000X0.300000X-2.050000X-0.300000X2.050000X-0.300000X0*%
%TD*%
%TA.AperFunction,SMDPad,CuDef*%
%ADD29RoundRect,0.250000X2.025000X2.375000X-2.025000X2.375000X-2.025000X-2.375000X2.025000X-2.375000X0*%
%TD*%
%TA.AperFunction,SMDPad,CuDef*%
%ADD30RoundRect,0.250002X4.449998X5.149998X-4.449998X5.149998X-4.449998X-5.149998X4.449998X-5.149998X0*%
%TD*%
%TA.AperFunction,ViaPad*%
%ADD31C,0.600000*%
%TD*%
%TA.AperFunction,Conductor*%
%ADD32C,0.200000*%
%TD*%
G04 APERTURE END LIST*
D10*
%TO.P,R2,1*%
%TO.N,Net-(BT1--)*%
X173690000Y-116550000D03*
D11*
%TO.P,R2,2*%
%TO.N,Net-(U3-SENSOR_VP)*%
X181310000Y-116550000D03*
%TD*%
D12*
%TO.P,RV1,1,1*%
%TO.N,Net-(BT1--)*%
X140775000Y-113300000D03*
D13*
%TO.P,RV1,2,2*%
%TO.N,Net-(U3-IO35)*%
X140775000Y-110800000D03*
%TO.P,RV1,3,3*%
%TO.N,Net-(D1-K)*%
X140775000Y-108300000D03*
D14*
%TO.P,RV1,MP*%
%TO.N,N/C*%
X137475000Y-115800000D03*
X137475000Y-105800000D03*
%TD*%
D15*
%TO.P,J1,1,Pin_1*%
%TO.N,Net-(D1-K)*%
X149580000Y-72000000D03*
D16*
%TO.P,J1,2,Pin_2*%
%TO.N,Net-(D1-A)*%
X147040000Y-72000000D03*
%TO.P,J1,3*%
%TO.N,N/C*%
X144500000Y-72000000D03*
%TD*%
D17*
%TO.P,Q2,1,G*%
%TO.N,Net-(Q2-G)*%
X168500000Y-97460000D03*
D18*
%TO.P,Q2,2,D*%
%TO.N,Net-(D1-K)*%
X168500000Y-100000000D03*
%TO.P,Q2,3,S*%
%TO.N,Net-(BT1--)*%
X168500000Y-102540000D03*
%TD*%
D19*
%TO.P,U3,J2-1,3V3*%
%TO.N,Net-(D1-K)*%
X116500000Y-105620000D03*
D20*
%TO.P,U3,J2-2,EN*%
%TO.N,unconnected-(U3-EN-PadJ2-2)*%
X116500000Y-103080000D03*
%TO.P,U3,J2-3,SENSOR_VP*%
%TO.N,Net-(U3-SENSOR_VP)*%
X116500000Y-100540000D03*
%TO.P,U3,J2-4,SENSOR_VN*%
%TO.N,unconnected-(U3-SENSOR_VN-PadJ2-4)*%
X116500000Y-98000000D03*
%TO.P,U3,J2-5,IO34*%
%TO.N,unconnected-(U3-IO34-PadJ2-5)*%
X116500000Y-95460000D03*
%TO.P,U3,J2-6,IO35*%
%TO.N,Net-(U3-IO35)*%
X116500000Y-92920000D03*
%TO.P,U3,J2-7,IO32*%
%TO.N,Net-(J2-Pin_1)*%
X116500000Y-90380000D03*
%TO.P,U3,J2-8,IO33*%
%TO.N,Net-(J2-Pin_2)*%
X116500000Y-87840000D03*
%TO.P,U3,J2-9,IO25*%
%TO.N,Net-(J2-Pin_3)*%
X116500000Y-85300000D03*
%TO.P,U3,J2-10,IO26*%
%TO.N,unconnected-(U3-IO26-PadJ2-10)*%
X116500000Y-82760000D03*
%TO.P,U3,J2-11,IO27*%
%TO.N,unconnected-(U3-IO27-PadJ2-11)*%
X116500000Y-80220000D03*
%TO.P,U3,J2-12,IO14*%
%TO.N,Net-(Q2-G)*%
X116500000Y-77680000D03*
%TO.P,U3,J2-13,IO12*%
%TO.N,unconnected-(U3-IO12-PadJ2-13)*%
X116500000Y-75140000D03*
%TO.P,U3,J2-14,GND1*%
%TO.N,Net-(BT1--)*%
X116500000Y-72600000D03*
%TO.P,U3,J2-15,IO13*%
%TO.N,unconnected-(U3-IO13-PadJ2-15)*%
X116500000Y-70060000D03*
%TO.P,U3,J2-16,SD2*%
%TO.N,unconnected-(U3-SD2-PadJ2-16)*%
X116500000Y-67520000D03*
%TO.P,U3,J2-17,SD3*%
%TO.N,unconnected-(U3-SD3-PadJ2-17)*%
X116500000Y-64980000D03*
%TO.P,U3,J2-18,CMD*%
%TO.N,unconnected-(U3-CMD-PadJ2-18)*%
X116500000Y-62440000D03*
%TO.P,U3,J2-19,EXT_5V*%
%TO.N,Net-(U1-OUT)*%
X116500000Y-59900000D03*
%TO.P,U3,J3-1,GND3*%
%TO.N,Net-(BT1--)*%
X91100000Y-105620000D03*
%TO.P,U3,J3-2,IO23*%
%TO.N,unconnected-(U3-IO23-PadJ3-2)*%
X91100000Y-103080000D03*
%TO.P,U3,J3-3,IO22*%
%TO.N,unconnected-(U3-IO22-PadJ3-3)*%
X91100000Y-100540000D03*
%TO.P,U3,J3-4,TXD0*%
%TO.N,unconnected-(U3-TXD0-PadJ3-4)*%
X91100000Y-98000000D03*
%TO.P,U3,J3-5,RXD0*%
%TO.N,unconnected-(U3-RXD0-PadJ3-5)*%
X91100000Y-95460000D03*
%TO.P,U3,J3-6,IO21*%
%TO.N,unconnected-(U3-IO21-PadJ3-6)*%
X91100000Y-92920000D03*
%TO.P,U3,J3-7,GND2*%
%TO.N,Net-(BT1--)*%
X91100000Y-90380000D03*
%TO.P,U3,J3-8,IO19*%
%TO.N,unconnected-(U3-IO19-PadJ3-8)*%
X91100000Y-87840000D03*
%TO.P,U3,J3-9,IO18*%
%TO.N,unconnected-(U3-IO18-PadJ3-9)*%
X91100000Y-85300000D03*
%TO.P,U3,J3-10,IO5*%
%TO.N,unconnected-(U3-IO5-PadJ3-10)*%
X91100000Y-82760000D03*
%TO.P,U3,J3-11,IO17*%
%TO.N,unconnected-(U3-IO17-PadJ3-11)*%
X91100000Y-80220000D03*
%TO.P,U3,J3-12,IO16*%
%TO.N,unconnected-(U3-IO16-PadJ3-12)*%
X91100000Y-77680000D03*
%TO.P,U3,J3-13,IO4*%
%TO.N,unconnected-(U3-IO4-PadJ3-13)*%
X91100000Y-75140000D03*
%TO.P,U3,J3-14,IO0*%
%TO.N,unconnected-(U3-IO0-PadJ3-14)*%
X91100000Y-72600000D03*
%TO.P,U3,J3-15,IO2*%
%TO.N,unconnected-(U3-IO2-PadJ3-15)*%
X91100000Y-70060000D03*
%TO.P,U3,J3-16,IO15*%
%TO.N,unconnected-(U3-IO15-PadJ3-16)*%
X91100000Y-67520000D03*
%TO.P,U3,J3-17,SD1*%
%TO.N,unconnected-(U3-SD1-PadJ3-17)*%
X91100000Y-64980000D03*
%TO.P,U3,J3-18,SD0*%
%TO.N,unconnected-(U3-SD0-PadJ3-18)*%
X91100000Y-62440000D03*
%TO.P,U3,J3-19,CLK*%
%TO.N,unconnected-(U3-CLK-PadJ3-19)*%
X91100000Y-59900000D03*
%TD*%
D21*
%TO.P,BT1,1,+*%
%TO.N,Net-(BT1-+)*%
X175772500Y-69222500D03*
D22*
%TO.P,BT1,2,-*%
%TO.N,Net-(BT1--)*%
X177772500Y-69222500D03*
%TD*%
D23*
%TO.P,U4,1,VOUT*%
%TO.N,Net-(U4-VOUT)*%
X158040000Y-55000000D03*
D24*
%TO.P,U4,2,GROUND*%
%TO.N,Net-(BT1--)*%
X155500000Y-55000000D03*
%TO.P,U4,3,VCC*%
%TO.N,Net-(U1-OUT)*%
X152960000Y-55000000D03*
%TO.P,U4,4,V1*%
%TO.N,unconnected-(U4-V1-Pad4)*%
X150420000Y-55000000D03*
%TO.P,U4,5,V2*%
%TO.N,unconnected-(U4-V2-Pad5)*%
X147880000Y-55000000D03*
%TO.P,U4,6,VEX*%
%TO.N,Net-(U1-OUT)*%
X145340000Y-55000000D03*
%TD*%
D25*
%TO.P,J2,1,Pin_1*%
%TO.N,Net-(J2-Pin_1)*%
X136170000Y-78350000D03*
D26*
%TO.P,J2,2,Pin_2*%
%TO.N,Net-(J2-Pin_2)*%
X136170000Y-76350000D03*
%TO.P,J2,3,Pin_3*%
%TO.N,Net-(J2-Pin_3)*%
X136170000Y-74350000D03*
%TO.P,J2,4,Pin_4*%
%TO.N,Net-(BT1--)*%
X136170000Y-72350000D03*
%TO.P,J2,5,Pin_5*%
%TO.N,Net-(D1-K)*%
X136170000Y-70350000D03*
%TD*%
D10*
%TO.P,R1,1*%
%TO.N,Net-(U3-SENSOR_VP)*%
X173690000Y-112500000D03*
D11*
%TO.P,R1,2*%
%TO.N,Net-(U4-VOUT)*%
X181310000Y-112500000D03*
%TD*%
D12*
%TO.P,SW1,1,A*%
%TO.N,Net-(BT1-+)*%
X175077500Y-81577500D03*
D13*
%TO.P,SW1,2,B*%
%TO.N,Net-(SW1-B)*%
X180077500Y-81577500D03*
%TO.P,SW1,3*%
%TO.N,N/C*%
X175077500Y-87577500D03*
%TO.P,SW1,4*%
X180077500Y-87577500D03*
%TD*%
D15*
%TO.P,D1,1,K*%
%TO.N,Net-(D1-K)*%
X150230000Y-78250000D03*
D27*
%TO.P,D1,2,A*%
%TO.N,Net-(D1-A)*%
X140070000Y-78250000D03*
%TD*%
D28*
%TO.P,U1,1,VIN*%
%TO.N,Net-(SW1-B)*%
X150075000Y-97175000D03*
%TO.P,U1,2,OUT*%
%TO.N,Net-(U1-OUT)*%
X150075000Y-95475000D03*
%TO.P,U1,3,GND*%
%TO.N,Net-(BT1--)*%
X150075000Y-93775000D03*
D29*
X143350000Y-96550000D03*
X143350000Y-91000000D03*
D30*
X140925000Y-93775000D03*
D29*
X138500000Y-96550000D03*
X138500000Y-91000000D03*
D28*
%TO.P,U1,4,FB*%
%TO.N,unconnected-(U1-FB-Pad4)*%
X150075000Y-92075000D03*
%TO.P,U1,5,~{ON}/OFF*%
%TO.N,Net-(BT1--)*%
X150075000Y-90375000D03*
%TD*%
D31*
%TO.N,Net-(U1-OUT)*%
X153500000Y-95500000D03*
%TD*%
D32*
%TO.N,Net-(BT1-+)*%
X175772500Y-69222500D02*
X175772500Y-80882500D01*
X175772500Y-80882500D02*
X175077500Y-81577500D01*
%TO.N,Net-(BT1--)*%
X138500000Y-74680000D02*
X138500000Y-91000000D01*
X143625000Y-101675000D02*
X143625000Y-110450000D01*
X157740000Y-113300000D02*
X168500000Y-102540000D01*
X116500000Y-72600000D02*
X108880000Y-72600000D01*
X108880000Y-72600000D02*
X91100000Y-90380000D01*
X156600100Y-56100100D02*
X155500000Y-55000000D01*
X168500000Y-102540000D02*
X168500000Y-111360000D01*
X138500000Y-96550000D02*
X143625000Y-101675000D01*
X116750000Y-72350000D02*
X116500000Y-72600000D01*
X177772500Y-69222500D02*
X164650100Y-56100100D01*
X138500000Y-91000000D02*
X149450000Y-91000000D01*
X143625000Y-110450000D02*
X140775000Y-113300000D01*
X164650100Y-56100100D02*
X156600100Y-56100100D01*
X155500000Y-55000000D02*
X138150000Y-72350000D01*
X149450000Y-91000000D02*
X150075000Y-90375000D01*
X92180000Y-104540000D02*
X91100000Y-105620000D01*
X168500000Y-111360000D02*
X173690000Y-116550000D01*
X136170000Y-72350000D02*
X138500000Y-74680000D01*
X136170000Y-72350000D02*
X116750000Y-72350000D01*
X140775000Y-113300000D02*
X157740000Y-113300000D01*
X140925000Y-93775000D02*
X150075000Y-93775000D01*
X91100000Y-90380000D02*
X92180000Y-91460000D01*
X92180000Y-91460000D02*
X92180000Y-104540000D01*
X138150000Y-72350000D02*
X136170000Y-72350000D01*
%TO.N,Net-(J2-Pin_3)*%
X116500000Y-85300000D02*
X127450000Y-74350000D01*
X127450000Y-74350000D02*
X136170000Y-74350000D01*
%TO.N,Net-(D1-A)*%
X140070000Y-78250000D02*
X140790000Y-78250000D01*
X140790000Y-78250000D02*
X147040000Y-72000000D01*
%TO.N,Net-(D1-K)*%
X168500000Y-100000000D02*
X163500000Y-100000000D01*
X150000000Y-101500000D02*
X147000000Y-98500000D01*
X147000000Y-95415256D02*
X147790256Y-94625000D01*
X147790256Y-94625000D02*
X152359744Y-94625000D01*
X152675000Y-80695000D02*
X150230000Y-78250000D01*
X152359744Y-94625000D02*
X152675000Y-94309744D01*
X147000000Y-98500000D02*
X147000000Y-95415256D01*
X152675000Y-94309744D02*
X152675000Y-80695000D01*
X163500000Y-100000000D02*
X162000000Y-101500000D01*
X162000000Y-101500000D02*
X150000000Y-101500000D01*
%TO.N,Net-(J2-Pin_1)*%
X117880000Y-89000000D02*
X130500000Y-89000000D01*
X130500000Y-89000000D02*
X136170000Y-83330000D01*
X116500000Y-90380000D02*
X117880000Y-89000000D01*
X136170000Y-83330000D02*
X136170000Y-78350000D01*
%TO.N,Net-(J2-Pin_2)*%
X131000000Y-85000000D02*
X131000000Y-81520000D01*
X116500000Y-87840000D02*
X119340000Y-85000000D01*
X119340000Y-85000000D02*
X131000000Y-85000000D01*
X131000000Y-81520000D02*
X136170000Y-76350000D01*
%TO.N,Net-(U3-IO35)*%
X132000000Y-108420000D02*
X132000000Y-111000000D01*
X132000000Y-111000000D02*
X132200000Y-110800000D01*
X116500000Y-92920000D02*
X132000000Y-108420000D01*
X132200000Y-110800000D02*
X140775000Y-110800000D01*
%TO.N,Net-(SW1-B)*%
X177922500Y-81577500D02*
X162325000Y-97175000D01*
X180077500Y-81577500D02*
X177922500Y-81577500D01*
X162325000Y-97175000D02*
X150075000Y-97175000D01*
%TO.N,Net-(U1-OUT)*%
X153475000Y-95475000D02*
X150075000Y-95475000D01*
X153500000Y-95500000D02*
X153475000Y-95475000D01*
%TD*%
M02*
