%TF.GenerationSoftware,KiCad,Pcbnew,8.0.7*%
%TF.CreationDate,2025-06-16T00:37:16-04:00*%
%TF.ProjectId,controller,636f6e74-726f-46c6-9c65-722e6b696361,rev?*%
%TF.SameCoordinates,Original*%
%TF.FileFunction,Soldermask,Bot*%
%TF.FilePolarity,Negative*%
%FSLAX46Y46*%
G04 Gerber Fmt 4.6, Leading zero omitted, Abs format (unit mm)*
G04 Created by KiCad (PCBNEW 8.0.7) date 2025-06-16 00:37:16*
%MOMM*%
%LPD*%
G01*
G04 APERTURE LIST*
G04 Aperture macros list*
%AMRoundRect*
0 Rectangle with rounded corners*
0 $1 Rounding radius*
0 $2 $3 $4 $5 $6 $7 $8 $9 X,Y pos of 4 corners*
0 Add a 4 corners polygon primitive as box body*
4,1,4,$2,$3,$4,$5,$6,$7,$8,$9,$2,$3,0*
0 Add four circle primitives for the rounded corners*
1,1,$1+$1,$2,$3*
1,1,$1+$1,$4,$5*
1,1,$1+$1,$6,$7*
1,1,$1+$1,$8,$9*
0 Add four rect primitives between the rounded corners*
20,1,$1+$1,$2,$3,$4,$5,0*
20,1,$1+$1,$4,$5,$6,$7,0*
20,1,$1+$1,$6,$7,$8,$9,0*
20,1,$1+$1,$8,$9,$2,$3,0*%
G04 Aperture macros list end*
%ADD10C,1.600000*%
%ADD11O,1.600000X1.600000*%
%ADD12R,1.800000X1.800000*%
%ADD13C,1.800000*%
%ADD14RoundRect,0.750000X-1.250000X-0.750000X1.250000X-0.750000X1.250000X0.750000X-1.250000X0.750000X0*%
%ADD15C,1.100000*%
%ADD16R,2.200000X2.200000*%
%ADD17C,2.200000*%
%ADD18R,2.000000X1.905000*%
%ADD19O,2.000000X1.905000*%
%ADD20RoundRect,0.102000X0.780000X0.780000X-0.780000X0.780000X-0.780000X-0.780000X0.780000X-0.780000X0*%
%ADD21C,1.764000*%
%ADD22RoundRect,0.250000X-0.350000X-0.625000X0.350000X-0.625000X0.350000X0.625000X-0.350000X0.625000X0*%
%ADD23O,1.200000X1.750000*%
%ADD24R,1.600200X1.600200*%
%ADD25C,1.600200*%
%ADD26R,1.350000X1.350000*%
%ADD27O,1.350000X1.350000*%
%ADD28O,2.200000X2.200000*%
G04 APERTURE END LIST*
D10*
%TO.C,R2*%
X173690000Y-116550000D03*
D11*
X181310000Y-116550000D03*
%TD*%
D12*
%TO.C,RV1*%
X140775000Y-113300000D03*
D13*
X140775000Y-110800000D03*
X140775000Y-108300000D03*
D14*
X137475000Y-115800000D03*
X137475000Y-105800000D03*
%TD*%
D15*
%TO.C,J1*%
X149580000Y-69460000D03*
X147040000Y-69460000D03*
X144500000Y-69460000D03*
D16*
X149580000Y-72000000D03*
D17*
X147040000Y-72000000D03*
X144500000Y-72000000D03*
%TD*%
D18*
%TO.C,Q2*%
X168500000Y-97460000D03*
D19*
X168500000Y-100000000D03*
X168500000Y-102540000D03*
%TD*%
D20*
%TO.C,U3*%
X116500000Y-105620000D03*
D21*
X116500000Y-103080000D03*
X116500000Y-100540000D03*
X116500000Y-98000000D03*
X116500000Y-95460000D03*
X116500000Y-92920000D03*
X116500000Y-90380000D03*
X116500000Y-87840000D03*
X116500000Y-85300000D03*
X116500000Y-82760000D03*
X116500000Y-80220000D03*
X116500000Y-77680000D03*
X116500000Y-75140000D03*
X116500000Y-72600000D03*
X116500000Y-70060000D03*
X116500000Y-67520000D03*
X116500000Y-64980000D03*
X116500000Y-62440000D03*
X116500000Y-59900000D03*
X91100000Y-105620000D03*
X91100000Y-103080000D03*
X91100000Y-100540000D03*
X91100000Y-98000000D03*
X91100000Y-95460000D03*
X91100000Y-92920000D03*
X91100000Y-90380000D03*
X91100000Y-87840000D03*
X91100000Y-85300000D03*
X91100000Y-82760000D03*
X91100000Y-80220000D03*
X91100000Y-77680000D03*
X91100000Y-75140000D03*
X91100000Y-72600000D03*
X91100000Y-70060000D03*
X91100000Y-67520000D03*
X91100000Y-64980000D03*
X91100000Y-62440000D03*
X91100000Y-59900000D03*
%TD*%
D22*
%TO.C,BT1*%
X175772500Y-69222500D03*
D23*
X177772500Y-69222500D03*
%TD*%
D24*
%TO.C,U4*%
X158040000Y-55000000D03*
D25*
X155500000Y-55000000D03*
X152960000Y-55000000D03*
X150420000Y-55000000D03*
X147880000Y-55000000D03*
X145340000Y-55000000D03*
%TD*%
D26*
%TO.C,J2*%
X136170000Y-78350000D03*
D27*
X136170000Y-76350000D03*
X136170000Y-74350000D03*
X136170000Y-72350000D03*
X136170000Y-70350000D03*
%TD*%
D10*
%TO.C,R1*%
X173690000Y-112500000D03*
D11*
X181310000Y-112500000D03*
%TD*%
D12*
%TO.C,SW1*%
X175077500Y-81577500D03*
D13*
X180077500Y-81577500D03*
X175077500Y-87577500D03*
X180077500Y-87577500D03*
%TD*%
D16*
%TO.C,D1*%
X150230000Y-78250000D03*
D28*
X140070000Y-78250000D03*
%TD*%
M02*
