%TF.GenerationSoftware,KiCad,Pcbnew,8.0.7*%
%TF.CreationDate,2025-06-16T00:37:15-04:00*%
%TF.ProjectId,controller,636f6e74-726f-46c6-9c65-722e6b696361,rev?*%
%TF.SameCoordinates,Original*%
%TF.FileFunction,Legend,Top*%
%TF.FilePolarity,Positive*%
%FSLAX46Y46*%
G04 Gerber Fmt 4.6, Leading zero omitted, Abs format (unit mm)*
G04 Created by KiCad (PCBNEW 8.0.7) date 2025-06-16 00:37:15*
%MOMM*%
%LPD*%
G01*
G04 APERTURE LIST*
%ADD10C,0.600000*%
%ADD11C,0.150000*%
%ADD12C,0.120000*%
%ADD13C,0.127000*%
%ADD14C,0.200000*%
%ADD15C,0.152400*%
G04 APERTURE END LIST*
D10*
X95591164Y-54101657D02*
X95966164Y-51101657D01*
X95787593Y-52530228D02*
X97501878Y-52530228D01*
X97305450Y-54101657D02*
X97680450Y-51101657D01*
X98734021Y-54101657D02*
X98984021Y-52101657D01*
X99109021Y-51101657D02*
X98948307Y-51244514D01*
X98948307Y-51244514D02*
X99073307Y-51387371D01*
X99073307Y-51387371D02*
X99234021Y-51244514D01*
X99234021Y-51244514D02*
X99109021Y-51101657D01*
X99109021Y-51101657D02*
X99073307Y-51387371D01*
X101698306Y-52101657D02*
X101394735Y-54530228D01*
X101394735Y-54530228D02*
X101216164Y-54815942D01*
X101216164Y-54815942D02*
X101055449Y-54958800D01*
X101055449Y-54958800D02*
X100751878Y-55101657D01*
X100751878Y-55101657D02*
X100323306Y-55101657D01*
X100323306Y-55101657D02*
X100055449Y-54958800D01*
X101466164Y-53958800D02*
X101162592Y-54101657D01*
X101162592Y-54101657D02*
X100591164Y-54101657D01*
X100591164Y-54101657D02*
X100323306Y-53958800D01*
X100323306Y-53958800D02*
X100198306Y-53815942D01*
X100198306Y-53815942D02*
X100091164Y-53530228D01*
X100091164Y-53530228D02*
X100198306Y-52673085D01*
X100198306Y-52673085D02*
X100376878Y-52387371D01*
X100376878Y-52387371D02*
X100537592Y-52244514D01*
X100537592Y-52244514D02*
X100841164Y-52101657D01*
X100841164Y-52101657D02*
X101412592Y-52101657D01*
X101412592Y-52101657D02*
X101680449Y-52244514D01*
X102876878Y-54101657D02*
X103251878Y-51101657D01*
X104162592Y-54101657D02*
X104359021Y-52530228D01*
X104359021Y-52530228D02*
X104251878Y-52244514D01*
X104251878Y-52244514D02*
X103984021Y-52101657D01*
X103984021Y-52101657D02*
X103555450Y-52101657D01*
X103555450Y-52101657D02*
X103251878Y-52244514D01*
X103251878Y-52244514D02*
X103091164Y-52387371D01*
X105555450Y-52101657D02*
X105876878Y-54101657D01*
X105876878Y-54101657D02*
X106626878Y-52673085D01*
X106626878Y-52673085D02*
X107019736Y-54101657D01*
X107019736Y-54101657D02*
X107841164Y-52101657D01*
X110019735Y-54101657D02*
X110216164Y-52530228D01*
X110216164Y-52530228D02*
X110109021Y-52244514D01*
X110109021Y-52244514D02*
X109841164Y-52101657D01*
X109841164Y-52101657D02*
X109269735Y-52101657D01*
X109269735Y-52101657D02*
X108966164Y-52244514D01*
X110037593Y-53958800D02*
X109734021Y-54101657D01*
X109734021Y-54101657D02*
X109019735Y-54101657D01*
X109019735Y-54101657D02*
X108751878Y-53958800D01*
X108751878Y-53958800D02*
X108644735Y-53673085D01*
X108644735Y-53673085D02*
X108680450Y-53387371D01*
X108680450Y-53387371D02*
X108859021Y-53101657D01*
X108859021Y-53101657D02*
X109162593Y-52958800D01*
X109162593Y-52958800D02*
X109876878Y-52958800D01*
X109876878Y-52958800D02*
X110180450Y-52815942D01*
X111412593Y-52101657D02*
X111876879Y-54101657D01*
X112841164Y-52101657D02*
X111876879Y-54101657D01*
X111876879Y-54101657D02*
X111501879Y-54815942D01*
X111501879Y-54815942D02*
X111341164Y-54958800D01*
X111341164Y-54958800D02*
X111037593Y-55101657D01*
X116216164Y-51387371D02*
X116376878Y-51244514D01*
X116376878Y-51244514D02*
X116680449Y-51101657D01*
X116680449Y-51101657D02*
X117394735Y-51101657D01*
X117394735Y-51101657D02*
X117662592Y-51244514D01*
X117662592Y-51244514D02*
X117787592Y-51387371D01*
X117787592Y-51387371D02*
X117894735Y-51673085D01*
X117894735Y-51673085D02*
X117859021Y-51958800D01*
X117859021Y-51958800D02*
X117662592Y-52387371D01*
X117662592Y-52387371D02*
X115734021Y-54101657D01*
X115734021Y-54101657D02*
X117591164Y-54101657D01*
X119823307Y-51101657D02*
X120109021Y-51101657D01*
X120109021Y-51101657D02*
X120376878Y-51244514D01*
X120376878Y-51244514D02*
X120501878Y-51387371D01*
X120501878Y-51387371D02*
X120609021Y-51673085D01*
X120609021Y-51673085D02*
X120680450Y-52244514D01*
X120680450Y-52244514D02*
X120591164Y-52958800D01*
X120591164Y-52958800D02*
X120376878Y-53530228D01*
X120376878Y-53530228D02*
X120198307Y-53815942D01*
X120198307Y-53815942D02*
X120037592Y-53958800D01*
X120037592Y-53958800D02*
X119734021Y-54101657D01*
X119734021Y-54101657D02*
X119448307Y-54101657D01*
X119448307Y-54101657D02*
X119180450Y-53958800D01*
X119180450Y-53958800D02*
X119055450Y-53815942D01*
X119055450Y-53815942D02*
X118948307Y-53530228D01*
X118948307Y-53530228D02*
X118876878Y-52958800D01*
X118876878Y-52958800D02*
X118966164Y-52244514D01*
X118966164Y-52244514D02*
X119180450Y-51673085D01*
X119180450Y-51673085D02*
X119359021Y-51387371D01*
X119359021Y-51387371D02*
X119519735Y-51244514D01*
X119519735Y-51244514D02*
X119823307Y-51101657D01*
X121930450Y-51387371D02*
X122091164Y-51244514D01*
X122091164Y-51244514D02*
X122394735Y-51101657D01*
X122394735Y-51101657D02*
X123109021Y-51101657D01*
X123109021Y-51101657D02*
X123376878Y-51244514D01*
X123376878Y-51244514D02*
X123501878Y-51387371D01*
X123501878Y-51387371D02*
X123609021Y-51673085D01*
X123609021Y-51673085D02*
X123573307Y-51958800D01*
X123573307Y-51958800D02*
X123376878Y-52387371D01*
X123376878Y-52387371D02*
X121448307Y-54101657D01*
X121448307Y-54101657D02*
X123305450Y-54101657D01*
X126394736Y-51101657D02*
X124966164Y-51101657D01*
X124966164Y-51101657D02*
X124644736Y-52530228D01*
X124644736Y-52530228D02*
X124805450Y-52387371D01*
X124805450Y-52387371D02*
X125109021Y-52244514D01*
X125109021Y-52244514D02*
X125823307Y-52244514D01*
X125823307Y-52244514D02*
X126091164Y-52387371D01*
X126091164Y-52387371D02*
X126216164Y-52530228D01*
X126216164Y-52530228D02*
X126323307Y-52815942D01*
X126323307Y-52815942D02*
X126234021Y-53530228D01*
X126234021Y-53530228D02*
X126055450Y-53815942D01*
X126055450Y-53815942D02*
X125894736Y-53958800D01*
X125894736Y-53958800D02*
X125591164Y-54101657D01*
X125591164Y-54101657D02*
X124876878Y-54101657D01*
X124876878Y-54101657D02*
X124609021Y-53958800D01*
X124609021Y-53958800D02*
X124484021Y-53815942D01*
D11*
X169833333Y-115454819D02*
X169500000Y-114978628D01*
X169261905Y-115454819D02*
X169261905Y-114454819D01*
X169261905Y-114454819D02*
X169642857Y-114454819D01*
X169642857Y-114454819D02*
X169738095Y-114502438D01*
X169738095Y-114502438D02*
X169785714Y-114550057D01*
X169785714Y-114550057D02*
X169833333Y-114645295D01*
X169833333Y-114645295D02*
X169833333Y-114788152D01*
X169833333Y-114788152D02*
X169785714Y-114883390D01*
X169785714Y-114883390D02*
X169738095Y-114931009D01*
X169738095Y-114931009D02*
X169642857Y-114978628D01*
X169642857Y-114978628D02*
X169261905Y-114978628D01*
X170214286Y-114550057D02*
X170261905Y-114502438D01*
X170261905Y-114502438D02*
X170357143Y-114454819D01*
X170357143Y-114454819D02*
X170595238Y-114454819D01*
X170595238Y-114454819D02*
X170690476Y-114502438D01*
X170690476Y-114502438D02*
X170738095Y-114550057D01*
X170738095Y-114550057D02*
X170785714Y-114645295D01*
X170785714Y-114645295D02*
X170785714Y-114740533D01*
X170785714Y-114740533D02*
X170738095Y-114883390D01*
X170738095Y-114883390D02*
X170166667Y-115454819D01*
X170166667Y-115454819D02*
X170785714Y-115454819D01*
X131904761Y-113454819D02*
X131571428Y-112978628D01*
X131333333Y-113454819D02*
X131333333Y-112454819D01*
X131333333Y-112454819D02*
X131714285Y-112454819D01*
X131714285Y-112454819D02*
X131809523Y-112502438D01*
X131809523Y-112502438D02*
X131857142Y-112550057D01*
X131857142Y-112550057D02*
X131904761Y-112645295D01*
X131904761Y-112645295D02*
X131904761Y-112788152D01*
X131904761Y-112788152D02*
X131857142Y-112883390D01*
X131857142Y-112883390D02*
X131809523Y-112931009D01*
X131809523Y-112931009D02*
X131714285Y-112978628D01*
X131714285Y-112978628D02*
X131333333Y-112978628D01*
X132190476Y-112454819D02*
X132523809Y-113454819D01*
X132523809Y-113454819D02*
X132857142Y-112454819D01*
X133714285Y-113454819D02*
X133142857Y-113454819D01*
X133428571Y-113454819D02*
X133428571Y-112454819D01*
X133428571Y-112454819D02*
X133333333Y-112597676D01*
X133333333Y-112597676D02*
X133238095Y-112692914D01*
X133238095Y-112692914D02*
X133142857Y-112740533D01*
X146706666Y-75614819D02*
X146706666Y-76329104D01*
X146706666Y-76329104D02*
X146659047Y-76471961D01*
X146659047Y-76471961D02*
X146563809Y-76567200D01*
X146563809Y-76567200D02*
X146420952Y-76614819D01*
X146420952Y-76614819D02*
X146325714Y-76614819D01*
X147706666Y-76614819D02*
X147135238Y-76614819D01*
X147420952Y-76614819D02*
X147420952Y-75614819D01*
X147420952Y-75614819D02*
X147325714Y-75757676D01*
X147325714Y-75757676D02*
X147230476Y-75852914D01*
X147230476Y-75852914D02*
X147135238Y-75900533D01*
X173320057Y-100095238D02*
X173272438Y-100190476D01*
X173272438Y-100190476D02*
X173177200Y-100285714D01*
X173177200Y-100285714D02*
X173034342Y-100428571D01*
X173034342Y-100428571D02*
X172986723Y-100523809D01*
X172986723Y-100523809D02*
X172986723Y-100619047D01*
X173224819Y-100571428D02*
X173177200Y-100666666D01*
X173177200Y-100666666D02*
X173081961Y-100761904D01*
X173081961Y-100761904D02*
X172891485Y-100809523D01*
X172891485Y-100809523D02*
X172558152Y-100809523D01*
X172558152Y-100809523D02*
X172367676Y-100761904D01*
X172367676Y-100761904D02*
X172272438Y-100666666D01*
X172272438Y-100666666D02*
X172224819Y-100571428D01*
X172224819Y-100571428D02*
X172224819Y-100380952D01*
X172224819Y-100380952D02*
X172272438Y-100285714D01*
X172272438Y-100285714D02*
X172367676Y-100190476D01*
X172367676Y-100190476D02*
X172558152Y-100142857D01*
X172558152Y-100142857D02*
X172891485Y-100142857D01*
X172891485Y-100142857D02*
X173081961Y-100190476D01*
X173081961Y-100190476D02*
X173177200Y-100285714D01*
X173177200Y-100285714D02*
X173224819Y-100380952D01*
X173224819Y-100380952D02*
X173224819Y-100571428D01*
X172320057Y-99761904D02*
X172272438Y-99714285D01*
X172272438Y-99714285D02*
X172224819Y-99619047D01*
X172224819Y-99619047D02*
X172224819Y-99380952D01*
X172224819Y-99380952D02*
X172272438Y-99285714D01*
X172272438Y-99285714D02*
X172320057Y-99238095D01*
X172320057Y-99238095D02*
X172415295Y-99190476D01*
X172415295Y-99190476D02*
X172510533Y-99190476D01*
X172510533Y-99190476D02*
X172653390Y-99238095D01*
X172653390Y-99238095D02*
X173224819Y-99809523D01*
X173224819Y-99809523D02*
X173224819Y-99190476D01*
X113866976Y-113760657D02*
X113866976Y-114570493D01*
X113866976Y-114570493D02*
X113914613Y-114665768D01*
X113914613Y-114665768D02*
X113962251Y-114713406D01*
X113962251Y-114713406D02*
X114057525Y-114761043D01*
X114057525Y-114761043D02*
X114248075Y-114761043D01*
X114248075Y-114761043D02*
X114343350Y-114713406D01*
X114343350Y-114713406D02*
X114390987Y-114665768D01*
X114390987Y-114665768D02*
X114438625Y-114570493D01*
X114438625Y-114570493D02*
X114438625Y-113760657D01*
X114819724Y-113760657D02*
X115439010Y-113760657D01*
X115439010Y-113760657D02*
X115105548Y-114141756D01*
X115105548Y-114141756D02*
X115248461Y-114141756D01*
X115248461Y-114141756D02*
X115343736Y-114189394D01*
X115343736Y-114189394D02*
X115391373Y-114237031D01*
X115391373Y-114237031D02*
X115439010Y-114332306D01*
X115439010Y-114332306D02*
X115439010Y-114570493D01*
X115439010Y-114570493D02*
X115391373Y-114665768D01*
X115391373Y-114665768D02*
X115343736Y-114713406D01*
X115343736Y-114713406D02*
X115248461Y-114761043D01*
X115248461Y-114761043D02*
X114962636Y-114761043D01*
X114962636Y-114761043D02*
X114867361Y-114713406D01*
X114867361Y-114713406D02*
X114819724Y-114665768D01*
X175986785Y-66603509D02*
X176129642Y-66651128D01*
X176129642Y-66651128D02*
X176177261Y-66698747D01*
X176177261Y-66698747D02*
X176224880Y-66793985D01*
X176224880Y-66793985D02*
X176224880Y-66936842D01*
X176224880Y-66936842D02*
X176177261Y-67032080D01*
X176177261Y-67032080D02*
X176129642Y-67079700D01*
X176129642Y-67079700D02*
X176034404Y-67127319D01*
X176034404Y-67127319D02*
X175653452Y-67127319D01*
X175653452Y-67127319D02*
X175653452Y-66127319D01*
X175653452Y-66127319D02*
X175986785Y-66127319D01*
X175986785Y-66127319D02*
X176082023Y-66174938D01*
X176082023Y-66174938D02*
X176129642Y-66222557D01*
X176129642Y-66222557D02*
X176177261Y-66317795D01*
X176177261Y-66317795D02*
X176177261Y-66413033D01*
X176177261Y-66413033D02*
X176129642Y-66508271D01*
X176129642Y-66508271D02*
X176082023Y-66555890D01*
X176082023Y-66555890D02*
X175986785Y-66603509D01*
X175986785Y-66603509D02*
X175653452Y-66603509D01*
X176510595Y-66127319D02*
X177082023Y-66127319D01*
X176796309Y-67127319D02*
X176796309Y-66127319D01*
X177939166Y-67127319D02*
X177367738Y-67127319D01*
X177653452Y-67127319D02*
X177653452Y-66127319D01*
X177653452Y-66127319D02*
X177558214Y-66270176D01*
X177558214Y-66270176D02*
X177462976Y-66365414D01*
X177462976Y-66365414D02*
X177367738Y-66413033D01*
X169238095Y-51454819D02*
X169238095Y-52264342D01*
X169238095Y-52264342D02*
X169285714Y-52359580D01*
X169285714Y-52359580D02*
X169333333Y-52407200D01*
X169333333Y-52407200D02*
X169428571Y-52454819D01*
X169428571Y-52454819D02*
X169619047Y-52454819D01*
X169619047Y-52454819D02*
X169714285Y-52407200D01*
X169714285Y-52407200D02*
X169761904Y-52359580D01*
X169761904Y-52359580D02*
X169809523Y-52264342D01*
X169809523Y-52264342D02*
X169809523Y-51454819D01*
X170714285Y-51788152D02*
X170714285Y-52454819D01*
X170476190Y-51407200D02*
X170238095Y-52121485D01*
X170238095Y-52121485D02*
X170857142Y-52121485D01*
X167628500Y-54454819D02*
X167628500Y-54692914D01*
X167390405Y-54597676D02*
X167628500Y-54692914D01*
X167628500Y-54692914D02*
X167866595Y-54597676D01*
X167485643Y-54883390D02*
X167628500Y-54692914D01*
X167628500Y-54692914D02*
X167771357Y-54883390D01*
X167628499Y-55545180D02*
X167628499Y-55307085D01*
X167866594Y-55402323D02*
X167628499Y-55307085D01*
X167628499Y-55307085D02*
X167390404Y-55402323D01*
X167771356Y-55116609D02*
X167628499Y-55307085D01*
X167628499Y-55307085D02*
X167485642Y-55116609D01*
X135836666Y-79864819D02*
X135836666Y-80579104D01*
X135836666Y-80579104D02*
X135789047Y-80721961D01*
X135789047Y-80721961D02*
X135693809Y-80817200D01*
X135693809Y-80817200D02*
X135550952Y-80864819D01*
X135550952Y-80864819D02*
X135455714Y-80864819D01*
X136265238Y-79960057D02*
X136312857Y-79912438D01*
X136312857Y-79912438D02*
X136408095Y-79864819D01*
X136408095Y-79864819D02*
X136646190Y-79864819D01*
X136646190Y-79864819D02*
X136741428Y-79912438D01*
X136741428Y-79912438D02*
X136789047Y-79960057D01*
X136789047Y-79960057D02*
X136836666Y-80055295D01*
X136836666Y-80055295D02*
X136836666Y-80150533D01*
X136836666Y-80150533D02*
X136789047Y-80293390D01*
X136789047Y-80293390D02*
X136217619Y-80864819D01*
X136217619Y-80864819D02*
X136836666Y-80864819D01*
X177333333Y-110584819D02*
X177000000Y-110108628D01*
X176761905Y-110584819D02*
X176761905Y-109584819D01*
X176761905Y-109584819D02*
X177142857Y-109584819D01*
X177142857Y-109584819D02*
X177238095Y-109632438D01*
X177238095Y-109632438D02*
X177285714Y-109680057D01*
X177285714Y-109680057D02*
X177333333Y-109775295D01*
X177333333Y-109775295D02*
X177333333Y-109918152D01*
X177333333Y-109918152D02*
X177285714Y-110013390D01*
X177285714Y-110013390D02*
X177238095Y-110061009D01*
X177238095Y-110061009D02*
X177142857Y-110108628D01*
X177142857Y-110108628D02*
X176761905Y-110108628D01*
X178285714Y-110584819D02*
X177714286Y-110584819D01*
X178000000Y-110584819D02*
X178000000Y-109584819D01*
X178000000Y-109584819D02*
X177904762Y-109727676D01*
X177904762Y-109727676D02*
X177809524Y-109822914D01*
X177809524Y-109822914D02*
X177714286Y-109870533D01*
X176244167Y-79234700D02*
X176387024Y-79282319D01*
X176387024Y-79282319D02*
X176625119Y-79282319D01*
X176625119Y-79282319D02*
X176720357Y-79234700D01*
X176720357Y-79234700D02*
X176767976Y-79187080D01*
X176767976Y-79187080D02*
X176815595Y-79091842D01*
X176815595Y-79091842D02*
X176815595Y-78996604D01*
X176815595Y-78996604D02*
X176767976Y-78901366D01*
X176767976Y-78901366D02*
X176720357Y-78853747D01*
X176720357Y-78853747D02*
X176625119Y-78806128D01*
X176625119Y-78806128D02*
X176434643Y-78758509D01*
X176434643Y-78758509D02*
X176339405Y-78710890D01*
X176339405Y-78710890D02*
X176291786Y-78663271D01*
X176291786Y-78663271D02*
X176244167Y-78568033D01*
X176244167Y-78568033D02*
X176244167Y-78472795D01*
X176244167Y-78472795D02*
X176291786Y-78377557D01*
X176291786Y-78377557D02*
X176339405Y-78329938D01*
X176339405Y-78329938D02*
X176434643Y-78282319D01*
X176434643Y-78282319D02*
X176672738Y-78282319D01*
X176672738Y-78282319D02*
X176815595Y-78329938D01*
X177148929Y-78282319D02*
X177387024Y-79282319D01*
X177387024Y-79282319D02*
X177577500Y-78568033D01*
X177577500Y-78568033D02*
X177767976Y-79282319D01*
X177767976Y-79282319D02*
X178006072Y-78282319D01*
X178910833Y-79282319D02*
X178339405Y-79282319D01*
X178625119Y-79282319D02*
X178625119Y-78282319D01*
X178625119Y-78282319D02*
X178529881Y-78425176D01*
X178529881Y-78425176D02*
X178434643Y-78520414D01*
X178434643Y-78520414D02*
X178339405Y-78568033D01*
X144411905Y-82899819D02*
X144411905Y-81899819D01*
X144411905Y-81899819D02*
X144650000Y-81899819D01*
X144650000Y-81899819D02*
X144792857Y-81947438D01*
X144792857Y-81947438D02*
X144888095Y-82042676D01*
X144888095Y-82042676D02*
X144935714Y-82137914D01*
X144935714Y-82137914D02*
X144983333Y-82328390D01*
X144983333Y-82328390D02*
X144983333Y-82471247D01*
X144983333Y-82471247D02*
X144935714Y-82661723D01*
X144935714Y-82661723D02*
X144888095Y-82756961D01*
X144888095Y-82756961D02*
X144792857Y-82852200D01*
X144792857Y-82852200D02*
X144650000Y-82899819D01*
X144650000Y-82899819D02*
X144411905Y-82899819D01*
X145935714Y-82899819D02*
X145364286Y-82899819D01*
X145650000Y-82899819D02*
X145650000Y-81899819D01*
X145650000Y-81899819D02*
X145554762Y-82042676D01*
X145554762Y-82042676D02*
X145459524Y-82137914D01*
X145459524Y-82137914D02*
X145364286Y-82185533D01*
X149968095Y-80804819D02*
X149968095Y-79804819D01*
X150539523Y-80804819D02*
X150110952Y-80233390D01*
X150539523Y-79804819D02*
X149968095Y-80376247D01*
X140738095Y-101454819D02*
X140738095Y-102264342D01*
X140738095Y-102264342D02*
X140785714Y-102359580D01*
X140785714Y-102359580D02*
X140833333Y-102407200D01*
X140833333Y-102407200D02*
X140928571Y-102454819D01*
X140928571Y-102454819D02*
X141119047Y-102454819D01*
X141119047Y-102454819D02*
X141214285Y-102407200D01*
X141214285Y-102407200D02*
X141261904Y-102359580D01*
X141261904Y-102359580D02*
X141309523Y-102264342D01*
X141309523Y-102264342D02*
X141309523Y-101454819D01*
X142309523Y-102454819D02*
X141738095Y-102454819D01*
X142023809Y-102454819D02*
X142023809Y-101454819D01*
X142023809Y-101454819D02*
X141928571Y-101597676D01*
X141928571Y-101597676D02*
X141833333Y-101692914D01*
X141833333Y-101692914D02*
X141738095Y-101740533D01*
D12*
%TO.C,R2*%
X174230000Y-115180000D02*
X180770000Y-115180000D01*
X174230000Y-115510000D02*
X174230000Y-115180000D01*
X174230000Y-117590000D02*
X174230000Y-117920000D01*
X174230000Y-117920000D02*
X180770000Y-117920000D01*
X180770000Y-115180000D02*
X180770000Y-115510000D01*
X180770000Y-117920000D02*
X180770000Y-117590000D01*
%TO.C,RV1*%
X137255000Y-108356000D02*
X137255000Y-113245000D01*
X139775000Y-105779000D02*
X142025000Y-105779000D01*
X142025000Y-115820000D02*
X139775000Y-115820000D01*
X143525000Y-105779000D02*
X144295000Y-105779000D01*
X143525000Y-115820000D02*
X144295000Y-115820000D01*
X144295000Y-105779000D02*
X144295000Y-115820000D01*
X144295000Y-107430000D02*
X145095000Y-107430000D01*
X144295000Y-114170000D02*
X145095000Y-114170000D01*
X145095000Y-107430000D02*
X145095000Y-114170000D01*
X145095000Y-107680000D02*
X152495000Y-107680000D01*
X145095000Y-113920000D02*
X152495000Y-113920000D01*
X152495000Y-107680000D02*
X152495000Y-113920000D01*
X143525000Y-106450000D02*
X142025000Y-106450000D01*
X142025000Y-105779000D01*
X143525000Y-105779000D01*
X143525000Y-106450000D01*
X143525000Y-115820000D02*
X142025000Y-115820000D01*
X142025000Y-115150000D01*
X143525000Y-115150000D01*
X143525000Y-115820000D01*
%TO.C,J1*%
X142940000Y-75160000D02*
X142940000Y-68840000D01*
X143710000Y-68840000D02*
X142940000Y-68840000D01*
X143710000Y-69400000D02*
X142940000Y-69400000D01*
X146250000Y-68840000D02*
X145290000Y-68840000D01*
X146250000Y-69400000D02*
X145290000Y-69400000D01*
X148790000Y-68840000D02*
X147830000Y-68840000D01*
X148790000Y-69400000D02*
X147830000Y-69400000D01*
X151140000Y-68840000D02*
X150370000Y-68840000D01*
X151140000Y-69400000D02*
X150370000Y-69400000D01*
X151140000Y-74700000D02*
X142940000Y-74700000D01*
X151140000Y-75160000D02*
X142940000Y-75160000D01*
X151140000Y-75160000D02*
X151140000Y-68840000D01*
X151380000Y-68600000D02*
X150880000Y-68600000D01*
X151380000Y-69340000D02*
X151380000Y-68600000D01*
%TO.C,Q2*%
X167129000Y-94880000D02*
X167129000Y-105120000D01*
X170260000Y-94880000D02*
X170260000Y-105120000D01*
X171770000Y-94880000D02*
X167129000Y-94880000D01*
X171770000Y-94880000D02*
X171770000Y-105120000D01*
X171770000Y-98150000D02*
X170260000Y-98150000D01*
X171770000Y-101851000D02*
X170260000Y-101851000D01*
X171770000Y-105120000D02*
X167129000Y-105120000D01*
D13*
%TO.C,U3*%
X89850000Y-58610000D02*
X117750000Y-58610000D01*
X89850000Y-113010000D02*
X89850000Y-58610000D01*
X117750000Y-58610000D02*
X117750000Y-113010000D01*
X117750000Y-113010000D02*
X89850000Y-113010000D01*
D14*
X118500000Y-105620000D02*
G75*
G02*
X118300000Y-105620000I-100000J0D01*
G01*
X118300000Y-105620000D02*
G75*
G02*
X118500000Y-105620000I100000J0D01*
G01*
D12*
%TO.C,BT1*%
X173712500Y-67762500D02*
X173712500Y-75582500D01*
X173712500Y-69362500D02*
X174632500Y-69362500D01*
X173712500Y-75582500D02*
X179832500Y-75582500D01*
X174472500Y-71722500D02*
X174472500Y-73322500D01*
X174472500Y-73322500D02*
X175472500Y-73322500D01*
X174632500Y-67762500D02*
X173712500Y-67762500D01*
X174632500Y-69362500D02*
X174632500Y-67762500D01*
X174912500Y-69362500D02*
X174632500Y-69362500D01*
X174912500Y-69362500D02*
X174912500Y-68147500D01*
X174972500Y-73322500D02*
X174972500Y-75582500D01*
X175472500Y-71722500D02*
X174472500Y-71722500D01*
X175472500Y-73322500D02*
X175472500Y-71722500D01*
X175472500Y-73322500D02*
X175472500Y-75582500D01*
X176272500Y-71222500D02*
X177272500Y-71222500D01*
X176272500Y-75582500D02*
X176272500Y-71222500D01*
X177272500Y-71222500D02*
X177272500Y-75582500D01*
X178072500Y-71722500D02*
X179072500Y-71722500D01*
X178072500Y-73322500D02*
X178072500Y-71722500D01*
X178912500Y-67762500D02*
X178912500Y-69362500D01*
X178912500Y-69362500D02*
X178632500Y-69362500D01*
X179072500Y-71722500D02*
X179072500Y-73322500D01*
X179072500Y-73322500D02*
X178072500Y-73322500D01*
X179832500Y-67762500D02*
X178912500Y-67762500D01*
X179832500Y-69362500D02*
X178912500Y-69362500D01*
X179832500Y-75582500D02*
X179832500Y-67762500D01*
D15*
%TO.C,U4*%
X136640500Y-49348500D02*
X136640500Y-60651500D01*
X136640500Y-60651500D02*
X166739500Y-60651500D01*
X166739500Y-49348500D02*
X136640500Y-49348500D01*
X166739500Y-60651500D02*
X166739500Y-49348500D01*
D12*
%TO.C,J2*%
X135110000Y-77350000D02*
X135110000Y-69290000D01*
X137230000Y-69290000D02*
X135110000Y-69290000D01*
X137230000Y-77350000D02*
X135110000Y-77350000D01*
X137230000Y-77350000D02*
X137230000Y-69290000D01*
X137230000Y-78350000D02*
X137230000Y-79410000D01*
X137230000Y-79410000D02*
X136170000Y-79410000D01*
%TO.C,R1*%
X174230000Y-111130000D02*
X180770000Y-111130000D01*
X174230000Y-111460000D02*
X174230000Y-111130000D01*
X174230000Y-113540000D02*
X174230000Y-113870000D01*
X174230000Y-113870000D02*
X180770000Y-113870000D01*
X180770000Y-111130000D02*
X180770000Y-111460000D01*
X180770000Y-113870000D02*
X180770000Y-113540000D01*
%TO.C,SW1*%
X172307500Y-80607500D02*
X172307500Y-79607500D01*
X172557500Y-89297500D02*
X172557500Y-79857500D01*
X173307500Y-79607500D02*
X172307500Y-79607500D01*
X175877500Y-82877500D02*
X175877500Y-86177500D01*
X179177500Y-82877500D02*
X175877500Y-82877500D01*
X179177500Y-82877500D02*
X179177500Y-86177500D01*
X179177500Y-86177500D02*
X175877500Y-86177500D01*
X182597500Y-79857500D02*
X172557500Y-79857500D01*
X182597500Y-89297500D02*
X172557500Y-89297500D01*
X182597500Y-89297500D02*
X182597500Y-79857500D01*
%TO.C,D1*%
X141410000Y-78250000D02*
X142430000Y-78250000D01*
X142430000Y-76780000D02*
X142430000Y-79720000D01*
X142430000Y-79720000D02*
X147870000Y-79720000D01*
X146850000Y-79720000D02*
X146850000Y-76780000D01*
X146970000Y-79720000D02*
X146970000Y-76780000D01*
X147090000Y-79720000D02*
X147090000Y-76780000D01*
X147870000Y-76780000D02*
X142430000Y-76780000D01*
X147870000Y-79720000D02*
X147870000Y-76780000D01*
X148890000Y-78250000D02*
X147870000Y-78250000D01*
%TO.C,U1*%
X145885000Y-88575000D02*
X147250000Y-88575000D01*
X145885000Y-98975000D02*
X147250000Y-98975000D01*
X147250000Y-88575000D02*
X147250000Y-89525000D01*
X147250000Y-98975000D02*
X147250000Y-98025000D01*
X150415000Y-98455000D02*
X149735000Y-98455000D01*
X150075000Y-97985000D01*
X150415000Y-98455000D01*
G36*
X150415000Y-98455000D02*
G01*
X149735000Y-98455000D01*
X150075000Y-97985000D01*
X150415000Y-98455000D01*
G37*
%TD*%
M02*
