M48
; DRILL file {KiCad 8.0.7} date 2025-06-16T00:37:20-0400
; FORMAT={-:-/ absolute / inch / decimal}
; #@! TF.CreationDate,2025-06-16T00:37:20-04:00
; #@! TF.GenerationSoftware,Kicad,Pcbnew,8.0.7
; #@! TF.FileFunction,Plated,1,2,PTH
FMAT,2
INCH
; #@! TA.AperFunction,Plated,PTH,ViaDrill
T1C0.0118
; #@! TA.AperFunction,Plated,PTH,ComponentDrill
T2C0.0295
; #@! TA.AperFunction,Plated,PTH,ComponentDrill
T3C0.0315
; #@! TA.AperFunction,Plated,PTH,ComponentDrill
T4C0.0354
; #@! TA.AperFunction,Plated,PTH,ComponentDrill
T5C0.0394
; #@! TA.AperFunction,Plated,PTH,ComponentDrill
T6C0.0409
; #@! TA.AperFunction,Plated,PTH,ComponentDrill
T7C0.0430
; #@! TA.AperFunction,Plated,PTH,ComponentDrill
T8C0.0433
; #@! TA.AperFunction,Plated,PTH,ComponentDrill
T9C0.0709
%
G90
G05
T1
X6.0433Y-3.7598
T2
X6.9202Y-2.7253
X6.9989Y-2.7253
T3
X5.361Y-2.7697
X5.361Y-2.8484
X5.361Y-2.9272
X5.361Y-3.0059
X5.361Y-3.0846
X6.8382Y-4.4291
X6.8382Y-4.5886
X7.1382Y-4.4291
X7.1382Y-4.5886
T4
X6.8928Y-3.2117
X6.8928Y-3.4479
X7.0897Y-3.2117
X7.0897Y-3.4479
T5
X5.5423Y-4.2638
X5.5423Y-4.3622
X5.5423Y-4.4606
T6
X3.5866Y-2.3583
X3.5866Y-2.4583
X3.5866Y-2.5583
X3.5866Y-2.6583
X3.5866Y-2.7583
X3.5866Y-2.8583
X3.5866Y-2.9583
X3.5866Y-3.0583
X3.5866Y-3.1583
X3.5866Y-3.2583
X3.5866Y-3.3583
X3.5866Y-3.4583
X3.5866Y-3.5583
X3.5866Y-3.6583
X3.5866Y-3.7583
X3.5866Y-3.8583
X3.5866Y-3.9583
X3.5866Y-4.0583
X3.5866Y-4.1583
X4.5866Y-2.3583
X4.5866Y-2.4583
X4.5866Y-2.5583
X4.5866Y-2.6583
X4.5866Y-2.7583
X4.5866Y-2.8583
X4.5866Y-2.9583
X4.5866Y-3.0583
X4.5866Y-3.1583
X4.5866Y-3.2583
X4.5866Y-3.3583
X4.5866Y-3.4583
X4.5866Y-3.5583
X4.5866Y-3.6583
X4.5866Y-3.7583
X4.5866Y-3.8583
X4.5866Y-3.9583
X4.5866Y-4.0583
X4.5866Y-4.1583
T7
X5.722Y-2.1654
X5.822Y-2.1654
X5.922Y-2.1654
X6.022Y-2.1654
X6.122Y-2.1654
X6.222Y-2.1654
T8
X5.5146Y-3.0807
X5.689Y-2.8346
X5.789Y-2.8346
X5.889Y-2.8346
X5.9146Y-3.0807
X6.6339Y-3.837
X6.6339Y-3.937
X6.6339Y-4.037
T9
G00X5.4065Y-4.1654
M15
G01X5.4183Y-4.1654
M16
G05
G00X5.4065Y-4.5591
M15
G01X5.4183Y-4.5591
M16
G05
M30
