%TF.GenerationSoftware,KiCad,Pcbnew,9.0.2*%
%TF.CreationDate,2025-07-22T19:33:03-04:00*%
%TF.ProjectId,controllerV2,636f6e74-726f-46c6-9c65-7256322e6b69,rev?*%
%TF.SameCoordinates,Original*%
%TF.FileFunction,Legend,Top*%
%TF.FilePolarity,Positive*%
%FSLAX46Y46*%
G04 Gerber Fmt 4.6, Leading zero omitted, Abs format (unit mm)*
G04 Created by KiCad (PCBNEW 9.0.2) date 2025-07-22 19:33:03*
%MOMM*%
%LPD*%
G01*
G04 APERTURE LIST*
%ADD10C,0.100000*%
%ADD11C,0.150000*%
%ADD12C,0.120000*%
G04 APERTURE END LIST*
D10*
X74514285Y-38233609D02*
X74657142Y-38281228D01*
X74657142Y-38281228D02*
X74704761Y-38328847D01*
X74704761Y-38328847D02*
X74752380Y-38424085D01*
X74752380Y-38424085D02*
X74752380Y-38566942D01*
X74752380Y-38566942D02*
X74704761Y-38662180D01*
X74704761Y-38662180D02*
X74657142Y-38709800D01*
X74657142Y-38709800D02*
X74561904Y-38757419D01*
X74561904Y-38757419D02*
X74180952Y-38757419D01*
X74180952Y-38757419D02*
X74180952Y-37757419D01*
X74180952Y-37757419D02*
X74514285Y-37757419D01*
X74514285Y-37757419D02*
X74609523Y-37805038D01*
X74609523Y-37805038D02*
X74657142Y-37852657D01*
X74657142Y-37852657D02*
X74704761Y-37947895D01*
X74704761Y-37947895D02*
X74704761Y-38043133D01*
X74704761Y-38043133D02*
X74657142Y-38138371D01*
X74657142Y-38138371D02*
X74609523Y-38185990D01*
X74609523Y-38185990D02*
X74514285Y-38233609D01*
X74514285Y-38233609D02*
X74180952Y-38233609D01*
X75038095Y-37757419D02*
X75609523Y-37757419D01*
X75323809Y-38757419D02*
X75323809Y-37757419D01*
X76466666Y-38757419D02*
X75895238Y-38757419D01*
X76180952Y-38757419D02*
X76180952Y-37757419D01*
X76180952Y-37757419D02*
X76085714Y-37900276D01*
X76085714Y-37900276D02*
X75990476Y-37995514D01*
X75990476Y-37995514D02*
X75895238Y-38043133D01*
D11*
X152316666Y-83254819D02*
X151983333Y-82778628D01*
X151745238Y-83254819D02*
X151745238Y-82254819D01*
X151745238Y-82254819D02*
X152126190Y-82254819D01*
X152126190Y-82254819D02*
X152221428Y-82302438D01*
X152221428Y-82302438D02*
X152269047Y-82350057D01*
X152269047Y-82350057D02*
X152316666Y-82445295D01*
X152316666Y-82445295D02*
X152316666Y-82588152D01*
X152316666Y-82588152D02*
X152269047Y-82683390D01*
X152269047Y-82683390D02*
X152221428Y-82731009D01*
X152221428Y-82731009D02*
X152126190Y-82778628D01*
X152126190Y-82778628D02*
X151745238Y-82778628D01*
X152745238Y-82731009D02*
X153078571Y-82731009D01*
X153221428Y-83254819D02*
X152745238Y-83254819D01*
X152745238Y-83254819D02*
X152745238Y-82254819D01*
X152745238Y-82254819D02*
X153221428Y-82254819D01*
X153983333Y-82731009D02*
X153650000Y-82731009D01*
X153650000Y-83254819D02*
X153650000Y-82254819D01*
X153650000Y-82254819D02*
X154126190Y-82254819D01*
X154650000Y-82254819D02*
X154650000Y-82492914D01*
X154411905Y-82397676D02*
X154650000Y-82492914D01*
X154650000Y-82492914D02*
X154888095Y-82397676D01*
X154507143Y-82683390D02*
X154650000Y-82492914D01*
X154650000Y-82492914D02*
X154792857Y-82683390D01*
X155411905Y-82254819D02*
X155411905Y-82492914D01*
X155173810Y-82397676D02*
X155411905Y-82492914D01*
X155411905Y-82492914D02*
X155650000Y-82397676D01*
X155269048Y-82683390D02*
X155411905Y-82492914D01*
X155411905Y-82492914D02*
X155554762Y-82683390D01*
X97824819Y-47054404D02*
X98634342Y-47054404D01*
X98634342Y-47054404D02*
X98729580Y-47006785D01*
X98729580Y-47006785D02*
X98777200Y-46959166D01*
X98777200Y-46959166D02*
X98824819Y-46863928D01*
X98824819Y-46863928D02*
X98824819Y-46673452D01*
X98824819Y-46673452D02*
X98777200Y-46578214D01*
X98777200Y-46578214D02*
X98729580Y-46530595D01*
X98729580Y-46530595D02*
X98634342Y-46482976D01*
X98634342Y-46482976D02*
X97824819Y-46482976D01*
X98824819Y-45482976D02*
X98824819Y-46054404D01*
X98824819Y-45768690D02*
X97824819Y-45768690D01*
X97824819Y-45768690D02*
X97967676Y-45863928D01*
X97967676Y-45863928D02*
X98062914Y-45959166D01*
X98062914Y-45959166D02*
X98110533Y-46054404D01*
X130784819Y-75116666D02*
X130308628Y-75449999D01*
X130784819Y-75688094D02*
X129784819Y-75688094D01*
X129784819Y-75688094D02*
X129784819Y-75307142D01*
X129784819Y-75307142D02*
X129832438Y-75211904D01*
X129832438Y-75211904D02*
X129880057Y-75164285D01*
X129880057Y-75164285D02*
X129975295Y-75116666D01*
X129975295Y-75116666D02*
X130118152Y-75116666D01*
X130118152Y-75116666D02*
X130213390Y-75164285D01*
X130213390Y-75164285D02*
X130261009Y-75211904D01*
X130261009Y-75211904D02*
X130308628Y-75307142D01*
X130308628Y-75307142D02*
X130308628Y-75688094D01*
X130784819Y-74164285D02*
X130784819Y-74735713D01*
X130784819Y-74449999D02*
X129784819Y-74449999D01*
X129784819Y-74449999D02*
X129927676Y-74545237D01*
X129927676Y-74545237D02*
X130022914Y-74640475D01*
X130022914Y-74640475D02*
X130070533Y-74735713D01*
X69316666Y-38654819D02*
X68983333Y-38178628D01*
X68745238Y-38654819D02*
X68745238Y-37654819D01*
X68745238Y-37654819D02*
X69126190Y-37654819D01*
X69126190Y-37654819D02*
X69221428Y-37702438D01*
X69221428Y-37702438D02*
X69269047Y-37750057D01*
X69269047Y-37750057D02*
X69316666Y-37845295D01*
X69316666Y-37845295D02*
X69316666Y-37988152D01*
X69316666Y-37988152D02*
X69269047Y-38083390D01*
X69269047Y-38083390D02*
X69221428Y-38131009D01*
X69221428Y-38131009D02*
X69126190Y-38178628D01*
X69126190Y-38178628D02*
X68745238Y-38178628D01*
X69745238Y-38131009D02*
X70078571Y-38131009D01*
X70221428Y-38654819D02*
X69745238Y-38654819D01*
X69745238Y-38654819D02*
X69745238Y-37654819D01*
X69745238Y-37654819D02*
X70221428Y-37654819D01*
X70983333Y-38131009D02*
X70650000Y-38131009D01*
X70650000Y-38654819D02*
X70650000Y-37654819D01*
X70650000Y-37654819D02*
X71126190Y-37654819D01*
X71650000Y-37654819D02*
X71650000Y-37892914D01*
X71411905Y-37797676D02*
X71650000Y-37892914D01*
X71650000Y-37892914D02*
X71888095Y-37797676D01*
X71507143Y-38083390D02*
X71650000Y-37892914D01*
X71650000Y-37892914D02*
X71792857Y-38083390D01*
X72411905Y-37654819D02*
X72411905Y-37892914D01*
X72173810Y-37797676D02*
X72411905Y-37892914D01*
X72411905Y-37892914D02*
X72650000Y-37797676D01*
X72269048Y-38083390D02*
X72411905Y-37892914D01*
X72411905Y-37892914D02*
X72554762Y-38083390D01*
X152316666Y-38654819D02*
X151983333Y-38178628D01*
X151745238Y-38654819D02*
X151745238Y-37654819D01*
X151745238Y-37654819D02*
X152126190Y-37654819D01*
X152126190Y-37654819D02*
X152221428Y-37702438D01*
X152221428Y-37702438D02*
X152269047Y-37750057D01*
X152269047Y-37750057D02*
X152316666Y-37845295D01*
X152316666Y-37845295D02*
X152316666Y-37988152D01*
X152316666Y-37988152D02*
X152269047Y-38083390D01*
X152269047Y-38083390D02*
X152221428Y-38131009D01*
X152221428Y-38131009D02*
X152126190Y-38178628D01*
X152126190Y-38178628D02*
X151745238Y-38178628D01*
X152745238Y-38131009D02*
X153078571Y-38131009D01*
X153221428Y-38654819D02*
X152745238Y-38654819D01*
X152745238Y-38654819D02*
X152745238Y-37654819D01*
X152745238Y-37654819D02*
X153221428Y-37654819D01*
X153983333Y-38131009D02*
X153650000Y-38131009D01*
X153650000Y-38654819D02*
X153650000Y-37654819D01*
X153650000Y-37654819D02*
X154126190Y-37654819D01*
X154650000Y-37654819D02*
X154650000Y-37892914D01*
X154411905Y-37797676D02*
X154650000Y-37892914D01*
X154650000Y-37892914D02*
X154888095Y-37797676D01*
X154507143Y-38083390D02*
X154650000Y-37892914D01*
X154650000Y-37892914D02*
X154792857Y-38083390D01*
X155411905Y-37654819D02*
X155411905Y-37892914D01*
X155173810Y-37797676D02*
X155411905Y-37892914D01*
X155411905Y-37892914D02*
X155650000Y-37797676D01*
X155269048Y-38083390D02*
X155411905Y-37892914D01*
X155411905Y-37892914D02*
X155554762Y-38083390D01*
X100887801Y-37654612D02*
X100887801Y-38464448D01*
X100887801Y-38464448D02*
X100935438Y-38559723D01*
X100935438Y-38559723D02*
X100983076Y-38607361D01*
X100983076Y-38607361D02*
X101078350Y-38654998D01*
X101078350Y-38654998D02*
X101268900Y-38654998D01*
X101268900Y-38654998D02*
X101364175Y-38607361D01*
X101364175Y-38607361D02*
X101411812Y-38559723D01*
X101411812Y-38559723D02*
X101459450Y-38464448D01*
X101459450Y-38464448D02*
X101459450Y-37654612D01*
X101840549Y-37654612D02*
X102459835Y-37654612D01*
X102459835Y-37654612D02*
X102126373Y-38035711D01*
X102126373Y-38035711D02*
X102269286Y-38035711D01*
X102269286Y-38035711D02*
X102364561Y-38083349D01*
X102364561Y-38083349D02*
X102412198Y-38130986D01*
X102412198Y-38130986D02*
X102459835Y-38226261D01*
X102459835Y-38226261D02*
X102459835Y-38464448D01*
X102459835Y-38464448D02*
X102412198Y-38559723D01*
X102412198Y-38559723D02*
X102364561Y-38607361D01*
X102364561Y-38607361D02*
X102269286Y-38654998D01*
X102269286Y-38654998D02*
X101983461Y-38654998D01*
X101983461Y-38654998D02*
X101888186Y-38607361D01*
X101888186Y-38607361D02*
X101840549Y-38559723D01*
D10*
X102102657Y-51046189D02*
X102055038Y-50998570D01*
X102055038Y-50998570D02*
X102007419Y-50903332D01*
X102007419Y-50903332D02*
X102007419Y-50665237D01*
X102007419Y-50665237D02*
X102055038Y-50569999D01*
X102055038Y-50569999D02*
X102102657Y-50522380D01*
X102102657Y-50522380D02*
X102197895Y-50474761D01*
X102197895Y-50474761D02*
X102293133Y-50474761D01*
X102293133Y-50474761D02*
X102435990Y-50522380D01*
X102435990Y-50522380D02*
X103007419Y-51093808D01*
X103007419Y-51093808D02*
X103007419Y-50474761D01*
X102912180Y-50046189D02*
X102959800Y-49998570D01*
X102959800Y-49998570D02*
X103007419Y-50046189D01*
X103007419Y-50046189D02*
X102959800Y-50093808D01*
X102959800Y-50093808D02*
X102912180Y-50046189D01*
X102912180Y-50046189D02*
X103007419Y-50046189D01*
X102007419Y-49093809D02*
X102007419Y-49569999D01*
X102007419Y-49569999D02*
X102483609Y-49617618D01*
X102483609Y-49617618D02*
X102435990Y-49569999D01*
X102435990Y-49569999D02*
X102388371Y-49474761D01*
X102388371Y-49474761D02*
X102388371Y-49236666D01*
X102388371Y-49236666D02*
X102435990Y-49141428D01*
X102435990Y-49141428D02*
X102483609Y-49093809D01*
X102483609Y-49093809D02*
X102578847Y-49046190D01*
X102578847Y-49046190D02*
X102816942Y-49046190D01*
X102816942Y-49046190D02*
X102912180Y-49093809D01*
X102912180Y-49093809D02*
X102959800Y-49141428D01*
X102959800Y-49141428D02*
X103007419Y-49236666D01*
X103007419Y-49236666D02*
X103007419Y-49474761D01*
X103007419Y-49474761D02*
X102959800Y-49569999D01*
X102959800Y-49569999D02*
X102912180Y-49617618D01*
X102340752Y-48189047D02*
X103007419Y-48189047D01*
X101959800Y-48427142D02*
X102674085Y-48665237D01*
X102674085Y-48665237D02*
X102674085Y-48046190D01*
X126340752Y-64549999D02*
X127007419Y-64549999D01*
X125959800Y-64788094D02*
X126674085Y-65026189D01*
X126674085Y-65026189D02*
X126674085Y-64407142D01*
X126435990Y-63883332D02*
X126388371Y-63978570D01*
X126388371Y-63978570D02*
X126340752Y-64026189D01*
X126340752Y-64026189D02*
X126245514Y-64073808D01*
X126245514Y-64073808D02*
X126197895Y-64073808D01*
X126197895Y-64073808D02*
X126102657Y-64026189D01*
X126102657Y-64026189D02*
X126055038Y-63978570D01*
X126055038Y-63978570D02*
X126007419Y-63883332D01*
X126007419Y-63883332D02*
X126007419Y-63692856D01*
X126007419Y-63692856D02*
X126055038Y-63597618D01*
X126055038Y-63597618D02*
X126102657Y-63549999D01*
X126102657Y-63549999D02*
X126197895Y-63502380D01*
X126197895Y-63502380D02*
X126245514Y-63502380D01*
X126245514Y-63502380D02*
X126340752Y-63549999D01*
X126340752Y-63549999D02*
X126388371Y-63597618D01*
X126388371Y-63597618D02*
X126435990Y-63692856D01*
X126435990Y-63692856D02*
X126435990Y-63883332D01*
X126435990Y-63883332D02*
X126483609Y-63978570D01*
X126483609Y-63978570D02*
X126531228Y-64026189D01*
X126531228Y-64026189D02*
X126626466Y-64073808D01*
X126626466Y-64073808D02*
X126816942Y-64073808D01*
X126816942Y-64073808D02*
X126912180Y-64026189D01*
X126912180Y-64026189D02*
X126959800Y-63978570D01*
X126959800Y-63978570D02*
X127007419Y-63883332D01*
X127007419Y-63883332D02*
X127007419Y-63692856D01*
X127007419Y-63692856D02*
X126959800Y-63597618D01*
X126959800Y-63597618D02*
X126912180Y-63549999D01*
X126912180Y-63549999D02*
X126816942Y-63502380D01*
X126816942Y-63502380D02*
X126626466Y-63502380D01*
X126626466Y-63502380D02*
X126531228Y-63549999D01*
X126531228Y-63549999D02*
X126483609Y-63597618D01*
X126483609Y-63597618D02*
X126435990Y-63692856D01*
X126912180Y-63073808D02*
X126959800Y-63026189D01*
X126959800Y-63026189D02*
X127007419Y-63073808D01*
X127007419Y-63073808D02*
X126959800Y-63121427D01*
X126959800Y-63121427D02*
X126912180Y-63073808D01*
X126912180Y-63073808D02*
X127007419Y-63073808D01*
X126007419Y-62692856D02*
X126007419Y-62073809D01*
X126007419Y-62073809D02*
X126388371Y-62407142D01*
X126388371Y-62407142D02*
X126388371Y-62264285D01*
X126388371Y-62264285D02*
X126435990Y-62169047D01*
X126435990Y-62169047D02*
X126483609Y-62121428D01*
X126483609Y-62121428D02*
X126578847Y-62073809D01*
X126578847Y-62073809D02*
X126816942Y-62073809D01*
X126816942Y-62073809D02*
X126912180Y-62121428D01*
X126912180Y-62121428D02*
X126959800Y-62169047D01*
X126959800Y-62169047D02*
X127007419Y-62264285D01*
X127007419Y-62264285D02*
X127007419Y-62549999D01*
X127007419Y-62549999D02*
X126959800Y-62645237D01*
X126959800Y-62645237D02*
X126912180Y-62692856D01*
X110673810Y-33152657D02*
X110721429Y-33105038D01*
X110721429Y-33105038D02*
X110816667Y-33057419D01*
X110816667Y-33057419D02*
X111054762Y-33057419D01*
X111054762Y-33057419D02*
X111150000Y-33105038D01*
X111150000Y-33105038D02*
X111197619Y-33152657D01*
X111197619Y-33152657D02*
X111245238Y-33247895D01*
X111245238Y-33247895D02*
X111245238Y-33343133D01*
X111245238Y-33343133D02*
X111197619Y-33485990D01*
X111197619Y-33485990D02*
X110626191Y-34057419D01*
X110626191Y-34057419D02*
X111245238Y-34057419D01*
X112150000Y-33057419D02*
X111673810Y-33057419D01*
X111673810Y-33057419D02*
X111626191Y-33533609D01*
X111626191Y-33533609D02*
X111673810Y-33485990D01*
X111673810Y-33485990D02*
X111769048Y-33438371D01*
X111769048Y-33438371D02*
X112007143Y-33438371D01*
X112007143Y-33438371D02*
X112102381Y-33485990D01*
X112102381Y-33485990D02*
X112150000Y-33533609D01*
X112150000Y-33533609D02*
X112197619Y-33628847D01*
X112197619Y-33628847D02*
X112197619Y-33866942D01*
X112197619Y-33866942D02*
X112150000Y-33962180D01*
X112150000Y-33962180D02*
X112102381Y-34009800D01*
X112102381Y-34009800D02*
X112007143Y-34057419D01*
X112007143Y-34057419D02*
X111769048Y-34057419D01*
X111769048Y-34057419D02*
X111673810Y-34009800D01*
X111673810Y-34009800D02*
X111626191Y-33962180D01*
X112626191Y-33962180D02*
X112673810Y-34009800D01*
X112673810Y-34009800D02*
X112626191Y-34057419D01*
X112626191Y-34057419D02*
X112578572Y-34009800D01*
X112578572Y-34009800D02*
X112626191Y-33962180D01*
X112626191Y-33962180D02*
X112626191Y-34057419D01*
X113530952Y-33390752D02*
X113530952Y-34057419D01*
X113292857Y-33009800D02*
X113054762Y-33724085D01*
X113054762Y-33724085D02*
X113673809Y-33724085D01*
X110573810Y-40652657D02*
X110621429Y-40605038D01*
X110621429Y-40605038D02*
X110716667Y-40557419D01*
X110716667Y-40557419D02*
X110954762Y-40557419D01*
X110954762Y-40557419D02*
X111050000Y-40605038D01*
X111050000Y-40605038D02*
X111097619Y-40652657D01*
X111097619Y-40652657D02*
X111145238Y-40747895D01*
X111145238Y-40747895D02*
X111145238Y-40843133D01*
X111145238Y-40843133D02*
X111097619Y-40985990D01*
X111097619Y-40985990D02*
X110526191Y-41557419D01*
X110526191Y-41557419D02*
X111145238Y-41557419D01*
X111526191Y-40652657D02*
X111573810Y-40605038D01*
X111573810Y-40605038D02*
X111669048Y-40557419D01*
X111669048Y-40557419D02*
X111907143Y-40557419D01*
X111907143Y-40557419D02*
X112002381Y-40605038D01*
X112002381Y-40605038D02*
X112050000Y-40652657D01*
X112050000Y-40652657D02*
X112097619Y-40747895D01*
X112097619Y-40747895D02*
X112097619Y-40843133D01*
X112097619Y-40843133D02*
X112050000Y-40985990D01*
X112050000Y-40985990D02*
X111478572Y-41557419D01*
X111478572Y-41557419D02*
X112097619Y-41557419D01*
X112526191Y-41462180D02*
X112573810Y-41509800D01*
X112573810Y-41509800D02*
X112526191Y-41557419D01*
X112526191Y-41557419D02*
X112478572Y-41509800D01*
X112478572Y-41509800D02*
X112526191Y-41462180D01*
X112526191Y-41462180D02*
X112526191Y-41557419D01*
X113050000Y-41557419D02*
X113240476Y-41557419D01*
X113240476Y-41557419D02*
X113335714Y-41509800D01*
X113335714Y-41509800D02*
X113383333Y-41462180D01*
X113383333Y-41462180D02*
X113478571Y-41319323D01*
X113478571Y-41319323D02*
X113526190Y-41128847D01*
X113526190Y-41128847D02*
X113526190Y-40747895D01*
X113526190Y-40747895D02*
X113478571Y-40652657D01*
X113478571Y-40652657D02*
X113430952Y-40605038D01*
X113430952Y-40605038D02*
X113335714Y-40557419D01*
X113335714Y-40557419D02*
X113145238Y-40557419D01*
X113145238Y-40557419D02*
X113050000Y-40605038D01*
X113050000Y-40605038D02*
X113002381Y-40652657D01*
X113002381Y-40652657D02*
X112954762Y-40747895D01*
X112954762Y-40747895D02*
X112954762Y-40985990D01*
X112954762Y-40985990D02*
X113002381Y-41081228D01*
X113002381Y-41081228D02*
X113050000Y-41128847D01*
X113050000Y-41128847D02*
X113145238Y-41176466D01*
X113145238Y-41176466D02*
X113335714Y-41176466D01*
X113335714Y-41176466D02*
X113430952Y-41128847D01*
X113430952Y-41128847D02*
X113478571Y-41081228D01*
X113478571Y-41081228D02*
X113526190Y-40985990D01*
D11*
X132936666Y-53132319D02*
X132936666Y-53846604D01*
X132936666Y-53846604D02*
X132889047Y-53989461D01*
X132889047Y-53989461D02*
X132793809Y-54084700D01*
X132793809Y-54084700D02*
X132650952Y-54132319D01*
X132650952Y-54132319D02*
X132555714Y-54132319D01*
X133365238Y-53227557D02*
X133412857Y-53179938D01*
X133412857Y-53179938D02*
X133508095Y-53132319D01*
X133508095Y-53132319D02*
X133746190Y-53132319D01*
X133746190Y-53132319D02*
X133841428Y-53179938D01*
X133841428Y-53179938D02*
X133889047Y-53227557D01*
X133889047Y-53227557D02*
X133936666Y-53322795D01*
X133936666Y-53322795D02*
X133936666Y-53418033D01*
X133936666Y-53418033D02*
X133889047Y-53560890D01*
X133889047Y-53560890D02*
X133317619Y-54132319D01*
X133317619Y-54132319D02*
X133936666Y-54132319D01*
X142936666Y-43827319D02*
X142936666Y-44541604D01*
X142936666Y-44541604D02*
X142889047Y-44684461D01*
X142889047Y-44684461D02*
X142793809Y-44779700D01*
X142793809Y-44779700D02*
X142650952Y-44827319D01*
X142650952Y-44827319D02*
X142555714Y-44827319D01*
X143841428Y-44160652D02*
X143841428Y-44827319D01*
X143603333Y-43779700D02*
X143365238Y-44493985D01*
X143365238Y-44493985D02*
X143984285Y-44493985D01*
X132936666Y-50477319D02*
X132936666Y-51191604D01*
X132936666Y-51191604D02*
X132889047Y-51334461D01*
X132889047Y-51334461D02*
X132793809Y-51429700D01*
X132793809Y-51429700D02*
X132650952Y-51477319D01*
X132650952Y-51477319D02*
X132555714Y-51477319D01*
X133317619Y-50477319D02*
X133936666Y-50477319D01*
X133936666Y-50477319D02*
X133603333Y-50858271D01*
X133603333Y-50858271D02*
X133746190Y-50858271D01*
X133746190Y-50858271D02*
X133841428Y-50905890D01*
X133841428Y-50905890D02*
X133889047Y-50953509D01*
X133889047Y-50953509D02*
X133936666Y-51048747D01*
X133936666Y-51048747D02*
X133936666Y-51286842D01*
X133936666Y-51286842D02*
X133889047Y-51382080D01*
X133889047Y-51382080D02*
X133841428Y-51429700D01*
X133841428Y-51429700D02*
X133746190Y-51477319D01*
X133746190Y-51477319D02*
X133460476Y-51477319D01*
X133460476Y-51477319D02*
X133365238Y-51429700D01*
X133365238Y-51429700D02*
X133317619Y-51382080D01*
X93994819Y-75116666D02*
X93518628Y-75449999D01*
X93994819Y-75688094D02*
X92994819Y-75688094D01*
X92994819Y-75688094D02*
X92994819Y-75307142D01*
X92994819Y-75307142D02*
X93042438Y-75211904D01*
X93042438Y-75211904D02*
X93090057Y-75164285D01*
X93090057Y-75164285D02*
X93185295Y-75116666D01*
X93185295Y-75116666D02*
X93328152Y-75116666D01*
X93328152Y-75116666D02*
X93423390Y-75164285D01*
X93423390Y-75164285D02*
X93471009Y-75211904D01*
X93471009Y-75211904D02*
X93518628Y-75307142D01*
X93518628Y-75307142D02*
X93518628Y-75688094D01*
X93090057Y-74735713D02*
X93042438Y-74688094D01*
X93042438Y-74688094D02*
X92994819Y-74592856D01*
X92994819Y-74592856D02*
X92994819Y-74354761D01*
X92994819Y-74354761D02*
X93042438Y-74259523D01*
X93042438Y-74259523D02*
X93090057Y-74211904D01*
X93090057Y-74211904D02*
X93185295Y-74164285D01*
X93185295Y-74164285D02*
X93280533Y-74164285D01*
X93280533Y-74164285D02*
X93423390Y-74211904D01*
X93423390Y-74211904D02*
X93994819Y-74783332D01*
X93994819Y-74783332D02*
X93994819Y-74164285D01*
X69316666Y-83254819D02*
X68983333Y-82778628D01*
X68745238Y-83254819D02*
X68745238Y-82254819D01*
X68745238Y-82254819D02*
X69126190Y-82254819D01*
X69126190Y-82254819D02*
X69221428Y-82302438D01*
X69221428Y-82302438D02*
X69269047Y-82350057D01*
X69269047Y-82350057D02*
X69316666Y-82445295D01*
X69316666Y-82445295D02*
X69316666Y-82588152D01*
X69316666Y-82588152D02*
X69269047Y-82683390D01*
X69269047Y-82683390D02*
X69221428Y-82731009D01*
X69221428Y-82731009D02*
X69126190Y-82778628D01*
X69126190Y-82778628D02*
X68745238Y-82778628D01*
X69745238Y-82731009D02*
X70078571Y-82731009D01*
X70221428Y-83254819D02*
X69745238Y-83254819D01*
X69745238Y-83254819D02*
X69745238Y-82254819D01*
X69745238Y-82254819D02*
X70221428Y-82254819D01*
X70983333Y-82731009D02*
X70650000Y-82731009D01*
X70650000Y-83254819D02*
X70650000Y-82254819D01*
X70650000Y-82254819D02*
X71126190Y-82254819D01*
X71650000Y-82254819D02*
X71650000Y-82492914D01*
X71411905Y-82397676D02*
X71650000Y-82492914D01*
X71650000Y-82492914D02*
X71888095Y-82397676D01*
X71507143Y-82683390D02*
X71650000Y-82492914D01*
X71650000Y-82492914D02*
X71792857Y-82683390D01*
X72411905Y-82254819D02*
X72411905Y-82492914D01*
X72173810Y-82397676D02*
X72411905Y-82492914D01*
X72411905Y-82492914D02*
X72650000Y-82397676D01*
X72269048Y-82683390D02*
X72411905Y-82492914D01*
X72411905Y-82492914D02*
X72554762Y-82683390D01*
D10*
X83936666Y-37789919D02*
X83936666Y-38504204D01*
X83936666Y-38504204D02*
X83889047Y-38647061D01*
X83889047Y-38647061D02*
X83793809Y-38742300D01*
X83793809Y-38742300D02*
X83650952Y-38789919D01*
X83650952Y-38789919D02*
X83555714Y-38789919D01*
X84936666Y-38789919D02*
X84365238Y-38789919D01*
X84650952Y-38789919D02*
X84650952Y-37789919D01*
X84650952Y-37789919D02*
X84555714Y-37932776D01*
X84555714Y-37932776D02*
X84460476Y-38028014D01*
X84460476Y-38028014D02*
X84365238Y-38075633D01*
%TO.C,BT1*%
X73800000Y-39800000D02*
X80800000Y-39800000D01*
X80800000Y-52800000D01*
X73800000Y-52800000D01*
X73800000Y-39800000D01*
D12*
%TO.C,U1*%
X92910000Y-41182500D02*
X92910000Y-51402500D01*
X96150000Y-41182500D02*
X96150000Y-51402500D01*
X97530000Y-41182500D02*
X92910000Y-41182500D01*
X97530000Y-41182500D02*
X97530000Y-51402500D01*
X97530000Y-44442500D02*
X96150000Y-44442500D01*
X97530000Y-48142500D02*
X96150000Y-48142500D01*
X97530000Y-51402500D02*
X92910000Y-51402500D01*
%TO.C,R1*%
X127590000Y-74222936D02*
X127590000Y-75677064D01*
X129410000Y-74222936D02*
X129410000Y-75677064D01*
%TO.C,U3*%
D10*
X99450000Y-39400000D02*
X124850000Y-39400000D01*
X124850000Y-87700000D01*
X99450000Y-87700000D01*
X99450000Y-39400000D01*
X102102657Y-51046189D02*
X102055038Y-50998570D01*
X102055038Y-50998570D02*
X102007419Y-50903332D01*
X102007419Y-50903332D02*
X102007419Y-50665237D01*
X102007419Y-50665237D02*
X102055038Y-50569999D01*
X102055038Y-50569999D02*
X102102657Y-50522380D01*
X102102657Y-50522380D02*
X102197895Y-50474761D01*
X102197895Y-50474761D02*
X102293133Y-50474761D01*
X102293133Y-50474761D02*
X102435990Y-50522380D01*
X102435990Y-50522380D02*
X103007419Y-51093808D01*
X103007419Y-51093808D02*
X103007419Y-50474761D01*
X102912180Y-50046189D02*
X102959800Y-49998570D01*
X102959800Y-49998570D02*
X103007419Y-50046189D01*
X103007419Y-50046189D02*
X102959800Y-50093808D01*
X102959800Y-50093808D02*
X102912180Y-50046189D01*
X102912180Y-50046189D02*
X103007419Y-50046189D01*
X102007419Y-49093809D02*
X102007419Y-49569999D01*
X102007419Y-49569999D02*
X102483609Y-49617618D01*
X102483609Y-49617618D02*
X102435990Y-49569999D01*
X102435990Y-49569999D02*
X102388371Y-49474761D01*
X102388371Y-49474761D02*
X102388371Y-49236666D01*
X102388371Y-49236666D02*
X102435990Y-49141428D01*
X102435990Y-49141428D02*
X102483609Y-49093809D01*
X102483609Y-49093809D02*
X102578847Y-49046190D01*
X102578847Y-49046190D02*
X102816942Y-49046190D01*
X102816942Y-49046190D02*
X102912180Y-49093809D01*
X102912180Y-49093809D02*
X102959800Y-49141428D01*
X102959800Y-49141428D02*
X103007419Y-49236666D01*
X103007419Y-49236666D02*
X103007419Y-49474761D01*
X103007419Y-49474761D02*
X102959800Y-49569999D01*
X102959800Y-49569999D02*
X102912180Y-49617618D01*
X102340752Y-48189047D02*
X103007419Y-48189047D01*
X101959800Y-48427142D02*
X102674085Y-48665237D01*
X102674085Y-48665237D02*
X102674085Y-48046190D01*
X101100000Y-48300000D02*
X104236420Y-48300000D01*
X104236420Y-50840000D02*
X101100000Y-50840000D01*
X103650000Y-48300000D02*
X103650000Y-50840000D01*
X103650000Y-48300000D02*
X104236421Y-49426504D01*
X103650000Y-48300000D02*
X103063579Y-49426504D01*
X103650000Y-50840000D02*
X103063579Y-49713496D01*
X103650000Y-50840000D02*
X104236421Y-49713496D01*
X126340752Y-64549999D02*
X127007419Y-64549999D01*
X125959800Y-64788094D02*
X126674085Y-65026189D01*
X126674085Y-65026189D02*
X126674085Y-64407142D01*
X126435990Y-63883332D02*
X126388371Y-63978570D01*
X126388371Y-63978570D02*
X126340752Y-64026189D01*
X126340752Y-64026189D02*
X126245514Y-64073808D01*
X126245514Y-64073808D02*
X126197895Y-64073808D01*
X126197895Y-64073808D02*
X126102657Y-64026189D01*
X126102657Y-64026189D02*
X126055038Y-63978570D01*
X126055038Y-63978570D02*
X126007419Y-63883332D01*
X126007419Y-63883332D02*
X126007419Y-63692856D01*
X126007419Y-63692856D02*
X126055038Y-63597618D01*
X126055038Y-63597618D02*
X126102657Y-63549999D01*
X126102657Y-63549999D02*
X126197895Y-63502380D01*
X126197895Y-63502380D02*
X126245514Y-63502380D01*
X126245514Y-63502380D02*
X126340752Y-63549999D01*
X126340752Y-63549999D02*
X126388371Y-63597618D01*
X126388371Y-63597618D02*
X126435990Y-63692856D01*
X126435990Y-63692856D02*
X126435990Y-63883332D01*
X126435990Y-63883332D02*
X126483609Y-63978570D01*
X126483609Y-63978570D02*
X126531228Y-64026189D01*
X126531228Y-64026189D02*
X126626466Y-64073808D01*
X126626466Y-64073808D02*
X126816942Y-64073808D01*
X126816942Y-64073808D02*
X126912180Y-64026189D01*
X126912180Y-64026189D02*
X126959800Y-63978570D01*
X126959800Y-63978570D02*
X127007419Y-63883332D01*
X127007419Y-63883332D02*
X127007419Y-63692856D01*
X127007419Y-63692856D02*
X126959800Y-63597618D01*
X126959800Y-63597618D02*
X126912180Y-63549999D01*
X126912180Y-63549999D02*
X126816942Y-63502380D01*
X126816942Y-63502380D02*
X126626466Y-63502380D01*
X126626466Y-63502380D02*
X126531228Y-63549999D01*
X126531228Y-63549999D02*
X126483609Y-63597618D01*
X126483609Y-63597618D02*
X126435990Y-63692856D01*
X126912180Y-63073808D02*
X126959800Y-63026189D01*
X126959800Y-63026189D02*
X127007419Y-63073808D01*
X127007419Y-63073808D02*
X126959800Y-63121427D01*
X126959800Y-63121427D02*
X126912180Y-63073808D01*
X126912180Y-63073808D02*
X127007419Y-63073808D01*
X126007419Y-62692856D02*
X126007419Y-62073809D01*
X126007419Y-62073809D02*
X126388371Y-62407142D01*
X126388371Y-62407142D02*
X126388371Y-62264285D01*
X126388371Y-62264285D02*
X126435990Y-62169047D01*
X126435990Y-62169047D02*
X126483609Y-62121428D01*
X126483609Y-62121428D02*
X126578847Y-62073809D01*
X126578847Y-62073809D02*
X126816942Y-62073809D01*
X126816942Y-62073809D02*
X126912180Y-62121428D01*
X126912180Y-62121428D02*
X126959800Y-62169047D01*
X126959800Y-62169047D02*
X127007419Y-62264285D01*
X127007419Y-62264285D02*
X127007419Y-62549999D01*
X127007419Y-62549999D02*
X126959800Y-62645237D01*
X126959800Y-62645237D02*
X126912180Y-62692856D01*
X125350000Y-87700000D02*
X128236420Y-87700000D01*
X128236420Y-39400000D02*
X125350000Y-39400000D01*
X127650000Y-87700000D02*
X127650000Y-39400000D01*
X127650000Y-87700000D02*
X127063579Y-86573496D01*
X127650000Y-87700000D02*
X128236421Y-86573496D01*
X127650000Y-39400000D02*
X128236421Y-40526504D01*
X127650000Y-39400000D02*
X127063579Y-40526504D01*
X110673810Y-33152657D02*
X110721429Y-33105038D01*
X110721429Y-33105038D02*
X110816667Y-33057419D01*
X110816667Y-33057419D02*
X111054762Y-33057419D01*
X111054762Y-33057419D02*
X111150000Y-33105038D01*
X111150000Y-33105038D02*
X111197619Y-33152657D01*
X111197619Y-33152657D02*
X111245238Y-33247895D01*
X111245238Y-33247895D02*
X111245238Y-33343133D01*
X111245238Y-33343133D02*
X111197619Y-33485990D01*
X111197619Y-33485990D02*
X110626191Y-34057419D01*
X110626191Y-34057419D02*
X111245238Y-34057419D01*
X112150000Y-33057419D02*
X111673810Y-33057419D01*
X111673810Y-33057419D02*
X111626191Y-33533609D01*
X111626191Y-33533609D02*
X111673810Y-33485990D01*
X111673810Y-33485990D02*
X111769048Y-33438371D01*
X111769048Y-33438371D02*
X112007143Y-33438371D01*
X112007143Y-33438371D02*
X112102381Y-33485990D01*
X112102381Y-33485990D02*
X112150000Y-33533609D01*
X112150000Y-33533609D02*
X112197619Y-33628847D01*
X112197619Y-33628847D02*
X112197619Y-33866942D01*
X112197619Y-33866942D02*
X112150000Y-33962180D01*
X112150000Y-33962180D02*
X112102381Y-34009800D01*
X112102381Y-34009800D02*
X112007143Y-34057419D01*
X112007143Y-34057419D02*
X111769048Y-34057419D01*
X111769048Y-34057419D02*
X111673810Y-34009800D01*
X111673810Y-34009800D02*
X111626191Y-33962180D01*
X112626191Y-33962180D02*
X112673810Y-34009800D01*
X112673810Y-34009800D02*
X112626191Y-34057419D01*
X112626191Y-34057419D02*
X112578572Y-34009800D01*
X112578572Y-34009800D02*
X112626191Y-33962180D01*
X112626191Y-33962180D02*
X112626191Y-34057419D01*
X113530952Y-33390752D02*
X113530952Y-34057419D01*
X113292857Y-33009800D02*
X113054762Y-33724085D01*
X113054762Y-33724085D02*
X113673809Y-33724085D01*
X99450000Y-38900000D02*
X99450000Y-34113580D01*
X124850000Y-34113580D02*
X124850000Y-38900000D01*
X99450000Y-34700000D02*
X124850000Y-34700000D01*
X99450000Y-34700000D02*
X100576504Y-34113579D01*
X99450000Y-34700000D02*
X100576504Y-35286421D01*
X124850000Y-34700000D02*
X123723496Y-35286421D01*
X124850000Y-34700000D02*
X123723496Y-34113579D01*
X110573810Y-40652657D02*
X110621429Y-40605038D01*
X110621429Y-40605038D02*
X110716667Y-40557419D01*
X110716667Y-40557419D02*
X110954762Y-40557419D01*
X110954762Y-40557419D02*
X111050000Y-40605038D01*
X111050000Y-40605038D02*
X111097619Y-40652657D01*
X111097619Y-40652657D02*
X111145238Y-40747895D01*
X111145238Y-40747895D02*
X111145238Y-40843133D01*
X111145238Y-40843133D02*
X111097619Y-40985990D01*
X111097619Y-40985990D02*
X110526191Y-41557419D01*
X110526191Y-41557419D02*
X111145238Y-41557419D01*
X111526191Y-40652657D02*
X111573810Y-40605038D01*
X111573810Y-40605038D02*
X111669048Y-40557419D01*
X111669048Y-40557419D02*
X111907143Y-40557419D01*
X111907143Y-40557419D02*
X112002381Y-40605038D01*
X112002381Y-40605038D02*
X112050000Y-40652657D01*
X112050000Y-40652657D02*
X112097619Y-40747895D01*
X112097619Y-40747895D02*
X112097619Y-40843133D01*
X112097619Y-40843133D02*
X112050000Y-40985990D01*
X112050000Y-40985990D02*
X111478572Y-41557419D01*
X111478572Y-41557419D02*
X112097619Y-41557419D01*
X112526191Y-41462180D02*
X112573810Y-41509800D01*
X112573810Y-41509800D02*
X112526191Y-41557419D01*
X112526191Y-41557419D02*
X112478572Y-41509800D01*
X112478572Y-41509800D02*
X112526191Y-41462180D01*
X112526191Y-41462180D02*
X112526191Y-41557419D01*
X113050000Y-41557419D02*
X113240476Y-41557419D01*
X113240476Y-41557419D02*
X113335714Y-41509800D01*
X113335714Y-41509800D02*
X113383333Y-41462180D01*
X113383333Y-41462180D02*
X113478571Y-41319323D01*
X113478571Y-41319323D02*
X113526190Y-41128847D01*
X113526190Y-41128847D02*
X113526190Y-40747895D01*
X113526190Y-40747895D02*
X113478571Y-40652657D01*
X113478571Y-40652657D02*
X113430952Y-40605038D01*
X113430952Y-40605038D02*
X113335714Y-40557419D01*
X113335714Y-40557419D02*
X113145238Y-40557419D01*
X113145238Y-40557419D02*
X113050000Y-40605038D01*
X113050000Y-40605038D02*
X113002381Y-40652657D01*
X113002381Y-40652657D02*
X112954762Y-40747895D01*
X112954762Y-40747895D02*
X112954762Y-40985990D01*
X112954762Y-40985990D02*
X113002381Y-41081228D01*
X113002381Y-41081228D02*
X113050000Y-41128847D01*
X113050000Y-41128847D02*
X113145238Y-41176466D01*
X113145238Y-41176466D02*
X113335714Y-41176466D01*
X113335714Y-41176466D02*
X113430952Y-41128847D01*
X113430952Y-41128847D02*
X113478571Y-41081228D01*
X113478571Y-41081228D02*
X113526190Y-40985990D01*
X100600000Y-41180000D02*
X100600000Y-42786420D01*
X123500000Y-42786420D02*
X123500000Y-41180000D01*
X100600000Y-42200000D02*
X123500000Y-42200000D01*
X100600000Y-42200000D02*
X101726504Y-41613579D01*
X100600000Y-42200000D02*
X101726504Y-42786421D01*
X123500000Y-42200000D02*
X122373496Y-42786421D01*
X123500000Y-42200000D02*
X122373496Y-41613579D01*
D12*
%TO.C,J2*%
X131890000Y-54677500D02*
X133270000Y-54677500D01*
X131890000Y-56057500D02*
X131890000Y-54677500D01*
X131890000Y-57327500D02*
X131890000Y-59977500D01*
X131890000Y-57327500D02*
X134650000Y-57327500D01*
X131890000Y-59977500D02*
X134650000Y-59977500D01*
X134650000Y-57327500D02*
X134650000Y-59977500D01*
%TO.C,J4*%
X141890000Y-45372500D02*
X143270000Y-45372500D01*
X141890000Y-46752500D02*
X141890000Y-45372500D01*
X141890000Y-48022500D02*
X141890000Y-55752500D01*
X141890000Y-48022500D02*
X144650000Y-48022500D01*
X141890000Y-55752500D02*
X144650000Y-55752500D01*
X144650000Y-48022500D02*
X144650000Y-55752500D01*
%TO.C,J3*%
X131890000Y-47372500D02*
X131890000Y-39642500D01*
X134650000Y-39642500D02*
X131890000Y-39642500D01*
X134650000Y-47372500D02*
X131890000Y-47372500D01*
X134650000Y-47372500D02*
X134650000Y-39642500D01*
X134650000Y-48642500D02*
X134650000Y-50022500D01*
X134650000Y-50022500D02*
X133270000Y-50022500D01*
%TO.C,R2*%
X94460000Y-75677064D02*
X94460000Y-74222936D01*
X96280000Y-75677064D02*
X96280000Y-74222936D01*
%TO.C,J1*%
D10*
X82770000Y-39832500D02*
X89770000Y-39832500D01*
X89770000Y-52832500D01*
X82770000Y-52832500D01*
X82770000Y-39832500D01*
%TD*%
M02*
