%TF.GenerationSoftware,KiCad,Pcbnew,9.0.2*%
%TF.CreationDate,2025-07-22T19:33:36-04:00*%
%TF.ProjectId,controllerV2,636f6e74-726f-46c6-9c65-7256322e6b69,rev?*%
%TF.SameCoordinates,Original*%
%TF.FileFunction,Drillmap*%
%TF.FilePolarity,Positive*%
%FSLAX45Y45*%
G04 Gerber Fmt 4.5, Leading zero omitted, Abs format (unit mm)*
G04 Created by KiCad (PCBNEW 9.0.2) date 2025-07-22 19:33:36*
%MOMM*%
%LPD*%
G01*
G04 APERTURE LIST*
%ADD10C,0.050000*%
%ADD11C,0.200000*%
%ADD12C,0.100000*%
%ADD13C,0.104000*%
%ADD14C,0.110000*%
%ADD15C,0.139700*%
%ADD16C,0.300000*%
G04 APERTURE END LIST*
D10*
X6820000Y-3890000D02*
X15610000Y-3890000D01*
X15610000Y-8840000D01*
X6820000Y-8840000D01*
X6820000Y-3890000D01*
D11*
D12*
X8885000Y-7335000D02*
X8915000Y-7365000D01*
X8915000Y-7335000D02*
X8885000Y-7365000D01*
X8985000Y-7435000D02*
X9015000Y-7465000D01*
X9015000Y-7435000D02*
X8985000Y-7465000D01*
X9675000Y-7075000D02*
X9705000Y-7105000D01*
X9705000Y-7075000D02*
X9675000Y-7105000D01*
X9735000Y-6135000D02*
X9765000Y-6165000D01*
X9765000Y-6135000D02*
X9735000Y-6165000D01*
X9735000Y-6885000D02*
X9765000Y-6915000D01*
X9765000Y-6885000D02*
X9735000Y-6915000D01*
X9875000Y-7375000D02*
X9905000Y-7405000D01*
X9905000Y-7375000D02*
X9875000Y-7405000D01*
X11085000Y-7075000D02*
X11115000Y-7105000D01*
X11115000Y-7075000D02*
X11085000Y-7105000D01*
X11690000Y-6550000D02*
X11720000Y-6580000D01*
X11720000Y-6550000D02*
X11690000Y-6580000D01*
X12545000Y-7475000D02*
X12575000Y-7505000D01*
X12575000Y-7475000D02*
X12545000Y-7505000D01*
X12675000Y-7345000D02*
X12705000Y-7375000D01*
X12705000Y-7345000D02*
X12675000Y-7375000D01*
X13745000Y-5085000D02*
X13775000Y-5115000D01*
X13775000Y-5085000D02*
X13745000Y-5115000D01*
X14275000Y-7255000D02*
X14305000Y-7285000D01*
X14305000Y-7255000D02*
X14275000Y-7285000D01*
X7905450Y-8566000D02*
G75*
G02*
X7816550Y-8566000I-44450J0D01*
G01*
X7816550Y-8566000D02*
G75*
G02*
X7905450Y-8566000I44450J0D01*
G01*
X8159450Y-8566000D02*
G75*
G02*
X8070550Y-8566000I-44450J0D01*
G01*
X8070550Y-8566000D02*
G75*
G02*
X8159450Y-8566000I44450J0D01*
G01*
X8413450Y-8566000D02*
G75*
G02*
X8324550Y-8566000I-44450J0D01*
G01*
X8324550Y-8566000D02*
G75*
G02*
X8413450Y-8566000I44450J0D01*
G01*
X9175450Y-7296000D02*
G75*
G02*
X9086550Y-7296000I-44450J0D01*
G01*
X9086550Y-7296000D02*
G75*
G02*
X9175450Y-7296000I44450J0D01*
G01*
X9175450Y-7550000D02*
G75*
G02*
X9086550Y-7550000I-44450J0D01*
G01*
X9086550Y-7550000D02*
G75*
G02*
X9175450Y-7550000I44450J0D01*
G01*
X9175450Y-7804000D02*
G75*
G02*
X9086550Y-7804000I-44450J0D01*
G01*
X9086550Y-7804000D02*
G75*
G02*
X9175450Y-7804000I44450J0D01*
G01*
X14105450Y-8566000D02*
G75*
G02*
X14016550Y-8566000I-44450J0D01*
G01*
X14016550Y-8566000D02*
G75*
G02*
X14105450Y-8566000I44450J0D01*
G01*
X14359450Y-8566000D02*
G75*
G02*
X14270550Y-8566000I-44450J0D01*
G01*
X14270550Y-8566000D02*
G75*
G02*
X14359450Y-8566000I44450J0D01*
G01*
X14613450Y-8566000D02*
G75*
G02*
X14524550Y-8566000I-44450J0D01*
G01*
X14524550Y-8566000D02*
G75*
G02*
X14613450Y-8566000I44450J0D01*
G01*
X15375450Y-7296000D02*
G75*
G02*
X15286550Y-7296000I-44450J0D01*
G01*
X15286550Y-7296000D02*
G75*
G02*
X15375450Y-7296000I44450J0D01*
G01*
X15375450Y-7550000D02*
G75*
G02*
X15286550Y-7550000I-44450J0D01*
G01*
X15286550Y-7550000D02*
G75*
G02*
X15375450Y-7550000I44450J0D01*
G01*
X15375450Y-7804000D02*
G75*
G02*
X15286550Y-7804000I-44450J0D01*
G01*
X15286550Y-7804000D02*
G75*
G02*
X15375450Y-7804000I44450J0D01*
G01*
X7797500Y-6235000D02*
X7797500Y-6325000D01*
X7752500Y-6280000D02*
X7842500Y-6280000D01*
X7797500Y-6743000D02*
X7797500Y-6833000D01*
X7752500Y-6788000D02*
X7842500Y-6788000D01*
X8432500Y-6235000D02*
X8432500Y-6325000D01*
X8387500Y-6280000D02*
X8477500Y-6280000D01*
X8432500Y-6743000D02*
X8432500Y-6833000D01*
X8387500Y-6788000D02*
X8477500Y-6788000D01*
X13997500Y-6235000D02*
X13997500Y-6325000D01*
X13952500Y-6280000D02*
X14042500Y-6280000D01*
X13997500Y-6743000D02*
X13997500Y-6833000D01*
X13952500Y-6788000D02*
X14042500Y-6788000D01*
X14632500Y-6235000D02*
X14632500Y-6325000D01*
X14587500Y-6280000D02*
X14677500Y-6280000D01*
X14632500Y-6743000D02*
X14632500Y-6833000D01*
X14587500Y-6788000D02*
X14677500Y-6788000D01*
X13362356Y-4137606D02*
X13362356Y-4066894D01*
X13291644Y-4066894D01*
X13291644Y-4137606D01*
X13362356Y-4137606D01*
X13362356Y-4391606D02*
X13362356Y-4320894D01*
X13291644Y-4320894D01*
X13291644Y-4391606D01*
X13362356Y-4391606D01*
X13362356Y-4645606D02*
X13362356Y-4574894D01*
X13291644Y-4574894D01*
X13291644Y-4645606D01*
X13362356Y-4645606D01*
X13362356Y-4899606D02*
X13362356Y-4828894D01*
X13291644Y-4828894D01*
X13291644Y-4899606D01*
X13362356Y-4899606D01*
X13362356Y-5641106D02*
X13362356Y-5570394D01*
X13291644Y-5570394D01*
X13291644Y-5641106D01*
X13362356Y-5641106D01*
X13362356Y-5895106D02*
X13362356Y-5824394D01*
X13291644Y-5824394D01*
X13291644Y-5895106D01*
X13362356Y-5895106D01*
X14362356Y-4710606D02*
X14362356Y-4639894D01*
X14291644Y-4639894D01*
X14291644Y-4710606D01*
X14362356Y-4710606D01*
X14362356Y-4964606D02*
X14362356Y-4893894D01*
X14291644Y-4893894D01*
X14291644Y-4964606D01*
X14362356Y-4964606D01*
X14362356Y-5218606D02*
X14362356Y-5147894D01*
X14291644Y-5147894D01*
X14291644Y-5218606D01*
X14362356Y-5218606D01*
X14362356Y-5472606D02*
X14362356Y-5401894D01*
X14291644Y-5401894D01*
X14291644Y-5472606D01*
X14362356Y-5472606D01*
D13*
X10060000Y-4120000D02*
X10112000Y-4068000D01*
X10060000Y-4016000D01*
X10008000Y-4068000D01*
X10060000Y-4120000D01*
X10060000Y-4374000D02*
X10112000Y-4322000D01*
X10060000Y-4270000D01*
X10008000Y-4322000D01*
X10060000Y-4374000D01*
X10060000Y-4628000D02*
X10112000Y-4576000D01*
X10060000Y-4524000D01*
X10008000Y-4576000D01*
X10060000Y-4628000D01*
X10060000Y-4882000D02*
X10112000Y-4830000D01*
X10060000Y-4778000D01*
X10008000Y-4830000D01*
X10060000Y-4882000D01*
X10060000Y-5136000D02*
X10112000Y-5084000D01*
X10060000Y-5032000D01*
X10008000Y-5084000D01*
X10060000Y-5136000D01*
X10060000Y-5390000D02*
X10112000Y-5338000D01*
X10060000Y-5286000D01*
X10008000Y-5338000D01*
X10060000Y-5390000D01*
X10060000Y-5644000D02*
X10112000Y-5592000D01*
X10060000Y-5540000D01*
X10008000Y-5592000D01*
X10060000Y-5644000D01*
X10060000Y-5898000D02*
X10112000Y-5846000D01*
X10060000Y-5794000D01*
X10008000Y-5846000D01*
X10060000Y-5898000D01*
X10060000Y-6152000D02*
X10112000Y-6100000D01*
X10060000Y-6048000D01*
X10008000Y-6100000D01*
X10060000Y-6152000D01*
X10060000Y-6406000D02*
X10112000Y-6354000D01*
X10060000Y-6302000D01*
X10008000Y-6354000D01*
X10060000Y-6406000D01*
X10060000Y-6660000D02*
X10112000Y-6608000D01*
X10060000Y-6556000D01*
X10008000Y-6608000D01*
X10060000Y-6660000D01*
X10060000Y-6914000D02*
X10112000Y-6862000D01*
X10060000Y-6810000D01*
X10008000Y-6862000D01*
X10060000Y-6914000D01*
X10060000Y-7168000D02*
X10112000Y-7116000D01*
X10060000Y-7064000D01*
X10008000Y-7116000D01*
X10060000Y-7168000D01*
X10060000Y-7422000D02*
X10112000Y-7370000D01*
X10060000Y-7318000D01*
X10008000Y-7370000D01*
X10060000Y-7422000D01*
X10060000Y-7676000D02*
X10112000Y-7624000D01*
X10060000Y-7572000D01*
X10008000Y-7624000D01*
X10060000Y-7676000D01*
X10060000Y-7930000D02*
X10112000Y-7878000D01*
X10060000Y-7826000D01*
X10008000Y-7878000D01*
X10060000Y-7930000D01*
X10060000Y-8184000D02*
X10112000Y-8132000D01*
X10060000Y-8080000D01*
X10008000Y-8132000D01*
X10060000Y-8184000D01*
X10060000Y-8438000D02*
X10112000Y-8386000D01*
X10060000Y-8334000D01*
X10008000Y-8386000D01*
X10060000Y-8438000D01*
X10060000Y-8692000D02*
X10112000Y-8640000D01*
X10060000Y-8588000D01*
X10008000Y-8640000D01*
X10060000Y-8692000D01*
X12350000Y-4120000D02*
X12402000Y-4068000D01*
X12350000Y-4016000D01*
X12298000Y-4068000D01*
X12350000Y-4120000D01*
X12350000Y-4374000D02*
X12402000Y-4322000D01*
X12350000Y-4270000D01*
X12298000Y-4322000D01*
X12350000Y-4374000D01*
X12350000Y-4628000D02*
X12402000Y-4576000D01*
X12350000Y-4524000D01*
X12298000Y-4576000D01*
X12350000Y-4628000D01*
X12350000Y-4882000D02*
X12402000Y-4830000D01*
X12350000Y-4778000D01*
X12298000Y-4830000D01*
X12350000Y-4882000D01*
X12350000Y-5136000D02*
X12402000Y-5084000D01*
X12350000Y-5032000D01*
X12298000Y-5084000D01*
X12350000Y-5136000D01*
X12350000Y-5390000D02*
X12402000Y-5338000D01*
X12350000Y-5286000D01*
X12298000Y-5338000D01*
X12350000Y-5390000D01*
X12350000Y-5644000D02*
X12402000Y-5592000D01*
X12350000Y-5540000D01*
X12298000Y-5592000D01*
X12350000Y-5644000D01*
X12350000Y-5898000D02*
X12402000Y-5846000D01*
X12350000Y-5794000D01*
X12298000Y-5846000D01*
X12350000Y-5898000D01*
X12350000Y-6152000D02*
X12402000Y-6100000D01*
X12350000Y-6048000D01*
X12298000Y-6100000D01*
X12350000Y-6152000D01*
X12350000Y-6406000D02*
X12402000Y-6354000D01*
X12350000Y-6302000D01*
X12298000Y-6354000D01*
X12350000Y-6406000D01*
X12350000Y-6660000D02*
X12402000Y-6608000D01*
X12350000Y-6556000D01*
X12298000Y-6608000D01*
X12350000Y-6660000D01*
X12350000Y-6914000D02*
X12402000Y-6862000D01*
X12350000Y-6810000D01*
X12298000Y-6862000D01*
X12350000Y-6914000D01*
X12350000Y-7168000D02*
X12402000Y-7116000D01*
X12350000Y-7064000D01*
X12298000Y-7116000D01*
X12350000Y-7168000D01*
X12350000Y-7422000D02*
X12402000Y-7370000D01*
X12350000Y-7318000D01*
X12298000Y-7370000D01*
X12350000Y-7422000D01*
X12350000Y-7676000D02*
X12402000Y-7624000D01*
X12350000Y-7572000D01*
X12298000Y-7624000D01*
X12350000Y-7676000D01*
X12350000Y-7930000D02*
X12402000Y-7878000D01*
X12350000Y-7826000D01*
X12298000Y-7878000D01*
X12350000Y-7930000D01*
X12350000Y-8184000D02*
X12402000Y-8132000D01*
X12350000Y-8080000D01*
X12298000Y-8132000D01*
X12350000Y-8184000D01*
X12350000Y-8438000D02*
X12402000Y-8386000D01*
X12350000Y-8334000D01*
X12298000Y-8386000D01*
X12350000Y-8438000D01*
X12350000Y-8692000D02*
X12402000Y-8640000D01*
X12350000Y-8588000D01*
X12298000Y-8640000D01*
X12350000Y-8692000D01*
D14*
X9372000Y-4320250D02*
X9482000Y-4430250D01*
X9482000Y-4320250D02*
X9372000Y-4430250D01*
X9482000Y-4375250D02*
G75*
G02*
X9372000Y-4375250I-55000J0D01*
G01*
X9372000Y-4375250D02*
G75*
G02*
X9482000Y-4375250I55000J0D01*
G01*
X9372000Y-4574250D02*
X9482000Y-4684250D01*
X9482000Y-4574250D02*
X9372000Y-4684250D01*
X9482000Y-4629250D02*
G75*
G02*
X9372000Y-4629250I-55000J0D01*
G01*
X9372000Y-4629250D02*
G75*
G02*
X9482000Y-4629250I55000J0D01*
G01*
X9372000Y-4828250D02*
X9482000Y-4938250D01*
X9482000Y-4828250D02*
X9372000Y-4938250D01*
X9482000Y-4883250D02*
G75*
G02*
X9372000Y-4883250I-55000J0D01*
G01*
X9372000Y-4883250D02*
G75*
G02*
X9482000Y-4883250I55000J0D01*
G01*
D15*
X7283150Y-6813400D02*
X7422850Y-6953100D01*
X7422850Y-6813400D02*
X7283150Y-6953100D01*
X7353000Y-6813400D02*
X7353000Y-6953100D01*
X7283150Y-6883250D02*
X7422850Y-6883250D01*
X7283150Y-8146900D02*
X7422850Y-8286600D01*
X7422850Y-8146900D02*
X7283150Y-8286600D01*
X7353000Y-8146900D02*
X7353000Y-8286600D01*
X7283150Y-8216750D02*
X7422850Y-8216750D01*
X8807150Y-6813400D02*
X8946850Y-6953100D01*
X8946850Y-6813400D02*
X8807150Y-6953100D01*
X8877000Y-6813400D02*
X8877000Y-6953100D01*
X8807150Y-6883250D02*
X8946850Y-6883250D01*
X8807150Y-8146900D02*
X8946850Y-8286600D01*
X8946850Y-8146900D02*
X8807150Y-8286600D01*
X8877000Y-8146900D02*
X8877000Y-8286600D01*
X8807150Y-8216750D02*
X8946850Y-8216750D01*
X13483150Y-6813400D02*
X13622850Y-6953100D01*
X13622850Y-6813400D02*
X13483150Y-6953100D01*
X13553000Y-6813400D02*
X13553000Y-6953100D01*
X13483150Y-6883250D02*
X13622850Y-6883250D01*
X13483150Y-8146900D02*
X13622850Y-8286600D01*
X13622850Y-8146900D02*
X13483150Y-8286600D01*
X13553000Y-8146900D02*
X13553000Y-8286600D01*
X13483150Y-8216750D02*
X13622850Y-8216750D01*
X15007150Y-6813400D02*
X15146850Y-6953100D01*
X15146850Y-6813400D02*
X15007150Y-6953100D01*
X15077000Y-6813400D02*
X15077000Y-6953100D01*
X15007150Y-6883250D02*
X15146850Y-6883250D01*
X15007150Y-8146900D02*
X15146850Y-8286600D01*
X15146850Y-8146900D02*
X15007150Y-8286600D01*
X15077000Y-8146900D02*
X15077000Y-8286600D01*
X15007150Y-8216750D02*
X15146850Y-8216750D01*
D16*
X7580000Y-4130000D02*
X7880000Y-4430000D01*
X7880000Y-4130000D02*
X7580000Y-4430000D01*
X7836067Y-4386067D02*
X7836067Y-4173933D01*
X7623933Y-4173933D01*
X7623933Y-4386067D01*
X7836067Y-4386067D01*
X7580000Y-4830000D02*
X7880000Y-5130000D01*
X7880000Y-4830000D02*
X7580000Y-5130000D01*
X7836067Y-5086067D02*
X7836067Y-4873933D01*
X7623933Y-4873933D01*
X7623933Y-5086067D01*
X7836067Y-5086067D01*
X8477000Y-4133250D02*
X8777000Y-4433250D01*
X8777000Y-4133250D02*
X8477000Y-4433250D01*
X8733067Y-4389317D02*
X8733067Y-4177183D01*
X8520933Y-4177183D01*
X8520933Y-4389317D01*
X8733067Y-4389317D01*
X8477000Y-4833250D02*
X8777000Y-5133250D01*
X8777000Y-4833250D02*
X8477000Y-5133250D01*
X8733067Y-5089317D02*
X8733067Y-4877183D01*
X8520933Y-4877183D01*
X8520933Y-5089317D01*
X8733067Y-5089317D01*
D11*
X7078277Y-9153984D02*
X7078277Y-8953984D01*
X7078277Y-8953984D02*
X7125896Y-8953984D01*
X7125896Y-8953984D02*
X7154467Y-8963508D01*
X7154467Y-8963508D02*
X7173515Y-8982555D01*
X7173515Y-8982555D02*
X7183039Y-9001603D01*
X7183039Y-9001603D02*
X7192562Y-9039698D01*
X7192562Y-9039698D02*
X7192562Y-9068270D01*
X7192562Y-9068270D02*
X7183039Y-9106365D01*
X7183039Y-9106365D02*
X7173515Y-9125412D01*
X7173515Y-9125412D02*
X7154467Y-9144460D01*
X7154467Y-9144460D02*
X7125896Y-9153984D01*
X7125896Y-9153984D02*
X7078277Y-9153984D01*
X7278277Y-9153984D02*
X7278277Y-9020650D01*
X7278277Y-9058746D02*
X7287801Y-9039698D01*
X7287801Y-9039698D02*
X7297324Y-9030174D01*
X7297324Y-9030174D02*
X7316372Y-9020650D01*
X7316372Y-9020650D02*
X7335420Y-9020650D01*
X7402086Y-9153984D02*
X7402086Y-9020650D01*
X7402086Y-8953984D02*
X7392562Y-8963508D01*
X7392562Y-8963508D02*
X7402086Y-8973031D01*
X7402086Y-8973031D02*
X7411610Y-8963508D01*
X7411610Y-8963508D02*
X7402086Y-8953984D01*
X7402086Y-8953984D02*
X7402086Y-8973031D01*
X7525896Y-9153984D02*
X7506848Y-9144460D01*
X7506848Y-9144460D02*
X7497324Y-9125412D01*
X7497324Y-9125412D02*
X7497324Y-8953984D01*
X7630658Y-9153984D02*
X7611610Y-9144460D01*
X7611610Y-9144460D02*
X7602086Y-9125412D01*
X7602086Y-9125412D02*
X7602086Y-8953984D01*
X7859229Y-9153984D02*
X7859229Y-8953984D01*
X7859229Y-8953984D02*
X7925896Y-9096841D01*
X7925896Y-9096841D02*
X7992562Y-8953984D01*
X7992562Y-8953984D02*
X7992562Y-9153984D01*
X8173515Y-9153984D02*
X8173515Y-9049222D01*
X8173515Y-9049222D02*
X8163991Y-9030174D01*
X8163991Y-9030174D02*
X8144943Y-9020650D01*
X8144943Y-9020650D02*
X8106848Y-9020650D01*
X8106848Y-9020650D02*
X8087801Y-9030174D01*
X8173515Y-9144460D02*
X8154467Y-9153984D01*
X8154467Y-9153984D02*
X8106848Y-9153984D01*
X8106848Y-9153984D02*
X8087801Y-9144460D01*
X8087801Y-9144460D02*
X8078277Y-9125412D01*
X8078277Y-9125412D02*
X8078277Y-9106365D01*
X8078277Y-9106365D02*
X8087801Y-9087317D01*
X8087801Y-9087317D02*
X8106848Y-9077793D01*
X8106848Y-9077793D02*
X8154467Y-9077793D01*
X8154467Y-9077793D02*
X8173515Y-9068270D01*
X8268753Y-9020650D02*
X8268753Y-9220650D01*
X8268753Y-9030174D02*
X8287801Y-9020650D01*
X8287801Y-9020650D02*
X8325896Y-9020650D01*
X8325896Y-9020650D02*
X8344943Y-9030174D01*
X8344943Y-9030174D02*
X8354467Y-9039698D01*
X8354467Y-9039698D02*
X8363991Y-9058746D01*
X8363991Y-9058746D02*
X8363991Y-9115889D01*
X8363991Y-9115889D02*
X8354467Y-9134936D01*
X8354467Y-9134936D02*
X8344943Y-9144460D01*
X8344943Y-9144460D02*
X8325896Y-9153984D01*
X8325896Y-9153984D02*
X8287801Y-9153984D01*
X8287801Y-9153984D02*
X8268753Y-9144460D01*
X8449705Y-9134936D02*
X8459229Y-9144460D01*
X8459229Y-9144460D02*
X8449705Y-9153984D01*
X8449705Y-9153984D02*
X8440182Y-9144460D01*
X8440182Y-9144460D02*
X8449705Y-9134936D01*
X8449705Y-9134936D02*
X8449705Y-9153984D01*
X8449705Y-9030174D02*
X8459229Y-9039698D01*
X8459229Y-9039698D02*
X8449705Y-9049222D01*
X8449705Y-9049222D02*
X8440182Y-9039698D01*
X8440182Y-9039698D02*
X8449705Y-9030174D01*
X8449705Y-9030174D02*
X8449705Y-9049222D01*
D12*
X6787500Y-9467500D02*
X6817500Y-9497500D01*
X6817500Y-9467500D02*
X6787500Y-9497500D01*
D11*
X7116372Y-9373984D02*
X7135420Y-9373984D01*
X7135420Y-9373984D02*
X7154467Y-9383508D01*
X7154467Y-9383508D02*
X7163991Y-9393031D01*
X7163991Y-9393031D02*
X7173515Y-9412079D01*
X7173515Y-9412079D02*
X7183039Y-9450174D01*
X7183039Y-9450174D02*
X7183039Y-9497793D01*
X7183039Y-9497793D02*
X7173515Y-9535889D01*
X7173515Y-9535889D02*
X7163991Y-9554936D01*
X7163991Y-9554936D02*
X7154467Y-9564460D01*
X7154467Y-9564460D02*
X7135420Y-9573984D01*
X7135420Y-9573984D02*
X7116372Y-9573984D01*
X7116372Y-9573984D02*
X7097324Y-9564460D01*
X7097324Y-9564460D02*
X7087801Y-9554936D01*
X7087801Y-9554936D02*
X7078277Y-9535889D01*
X7078277Y-9535889D02*
X7068753Y-9497793D01*
X7068753Y-9497793D02*
X7068753Y-9450174D01*
X7068753Y-9450174D02*
X7078277Y-9412079D01*
X7078277Y-9412079D02*
X7087801Y-9393031D01*
X7087801Y-9393031D02*
X7097324Y-9383508D01*
X7097324Y-9383508D02*
X7116372Y-9373984D01*
X7268753Y-9554936D02*
X7278277Y-9564460D01*
X7278277Y-9564460D02*
X7268753Y-9573984D01*
X7268753Y-9573984D02*
X7259229Y-9564460D01*
X7259229Y-9564460D02*
X7268753Y-9554936D01*
X7268753Y-9554936D02*
X7268753Y-9573984D01*
X7344943Y-9373984D02*
X7468753Y-9373984D01*
X7468753Y-9373984D02*
X7402086Y-9450174D01*
X7402086Y-9450174D02*
X7430658Y-9450174D01*
X7430658Y-9450174D02*
X7449705Y-9459698D01*
X7449705Y-9459698D02*
X7459229Y-9469222D01*
X7459229Y-9469222D02*
X7468753Y-9488270D01*
X7468753Y-9488270D02*
X7468753Y-9535889D01*
X7468753Y-9535889D02*
X7459229Y-9554936D01*
X7459229Y-9554936D02*
X7449705Y-9564460D01*
X7449705Y-9564460D02*
X7430658Y-9573984D01*
X7430658Y-9573984D02*
X7373515Y-9573984D01*
X7373515Y-9573984D02*
X7354467Y-9564460D01*
X7354467Y-9564460D02*
X7344943Y-9554936D01*
X7592562Y-9373984D02*
X7611610Y-9373984D01*
X7611610Y-9373984D02*
X7630658Y-9383508D01*
X7630658Y-9383508D02*
X7640182Y-9393031D01*
X7640182Y-9393031D02*
X7649705Y-9412079D01*
X7649705Y-9412079D02*
X7659229Y-9450174D01*
X7659229Y-9450174D02*
X7659229Y-9497793D01*
X7659229Y-9497793D02*
X7649705Y-9535889D01*
X7649705Y-9535889D02*
X7640182Y-9554936D01*
X7640182Y-9554936D02*
X7630658Y-9564460D01*
X7630658Y-9564460D02*
X7611610Y-9573984D01*
X7611610Y-9573984D02*
X7592562Y-9573984D01*
X7592562Y-9573984D02*
X7573515Y-9564460D01*
X7573515Y-9564460D02*
X7563991Y-9554936D01*
X7563991Y-9554936D02*
X7554467Y-9535889D01*
X7554467Y-9535889D02*
X7544943Y-9497793D01*
X7544943Y-9497793D02*
X7544943Y-9450174D01*
X7544943Y-9450174D02*
X7554467Y-9412079D01*
X7554467Y-9412079D02*
X7563991Y-9393031D01*
X7563991Y-9393031D02*
X7573515Y-9383508D01*
X7573515Y-9383508D02*
X7592562Y-9373984D01*
X7783039Y-9373984D02*
X7802086Y-9373984D01*
X7802086Y-9373984D02*
X7821134Y-9383508D01*
X7821134Y-9383508D02*
X7830658Y-9393031D01*
X7830658Y-9393031D02*
X7840182Y-9412079D01*
X7840182Y-9412079D02*
X7849705Y-9450174D01*
X7849705Y-9450174D02*
X7849705Y-9497793D01*
X7849705Y-9497793D02*
X7840182Y-9535889D01*
X7840182Y-9535889D02*
X7830658Y-9554936D01*
X7830658Y-9554936D02*
X7821134Y-9564460D01*
X7821134Y-9564460D02*
X7802086Y-9573984D01*
X7802086Y-9573984D02*
X7783039Y-9573984D01*
X7783039Y-9573984D02*
X7763991Y-9564460D01*
X7763991Y-9564460D02*
X7754467Y-9554936D01*
X7754467Y-9554936D02*
X7744943Y-9535889D01*
X7744943Y-9535889D02*
X7735420Y-9497793D01*
X7735420Y-9497793D02*
X7735420Y-9450174D01*
X7735420Y-9450174D02*
X7744943Y-9412079D01*
X7744943Y-9412079D02*
X7754467Y-9393031D01*
X7754467Y-9393031D02*
X7763991Y-9383508D01*
X7763991Y-9383508D02*
X7783039Y-9373984D01*
X7935420Y-9573984D02*
X7935420Y-9440650D01*
X7935420Y-9459698D02*
X7944943Y-9450174D01*
X7944943Y-9450174D02*
X7963991Y-9440650D01*
X7963991Y-9440650D02*
X7992563Y-9440650D01*
X7992563Y-9440650D02*
X8011610Y-9450174D01*
X8011610Y-9450174D02*
X8021134Y-9469222D01*
X8021134Y-9469222D02*
X8021134Y-9573984D01*
X8021134Y-9469222D02*
X8030658Y-9450174D01*
X8030658Y-9450174D02*
X8049705Y-9440650D01*
X8049705Y-9440650D02*
X8078277Y-9440650D01*
X8078277Y-9440650D02*
X8097324Y-9450174D01*
X8097324Y-9450174D02*
X8106848Y-9469222D01*
X8106848Y-9469222D02*
X8106848Y-9573984D01*
X8202086Y-9573984D02*
X8202086Y-9440650D01*
X8202086Y-9459698D02*
X8211610Y-9450174D01*
X8211610Y-9450174D02*
X8230658Y-9440650D01*
X8230658Y-9440650D02*
X8259229Y-9440650D01*
X8259229Y-9440650D02*
X8278277Y-9450174D01*
X8278277Y-9450174D02*
X8287801Y-9469222D01*
X8287801Y-9469222D02*
X8287801Y-9573984D01*
X8287801Y-9469222D02*
X8297324Y-9450174D01*
X8297324Y-9450174D02*
X8316372Y-9440650D01*
X8316372Y-9440650D02*
X8344943Y-9440650D01*
X8344943Y-9440650D02*
X8363991Y-9450174D01*
X8363991Y-9450174D02*
X8373515Y-9469222D01*
X8373515Y-9469222D02*
X8373515Y-9573984D01*
X8763991Y-9364460D02*
X8592563Y-9621603D01*
X9021134Y-9373984D02*
X9040182Y-9373984D01*
X9040182Y-9373984D02*
X9059229Y-9383508D01*
X9059229Y-9383508D02*
X9068753Y-9393031D01*
X9068753Y-9393031D02*
X9078277Y-9412079D01*
X9078277Y-9412079D02*
X9087801Y-9450174D01*
X9087801Y-9450174D02*
X9087801Y-9497793D01*
X9087801Y-9497793D02*
X9078277Y-9535889D01*
X9078277Y-9535889D02*
X9068753Y-9554936D01*
X9068753Y-9554936D02*
X9059229Y-9564460D01*
X9059229Y-9564460D02*
X9040182Y-9573984D01*
X9040182Y-9573984D02*
X9021134Y-9573984D01*
X9021134Y-9573984D02*
X9002087Y-9564460D01*
X9002087Y-9564460D02*
X8992563Y-9554936D01*
X8992563Y-9554936D02*
X8983039Y-9535889D01*
X8983039Y-9535889D02*
X8973515Y-9497793D01*
X8973515Y-9497793D02*
X8973515Y-9450174D01*
X8973515Y-9450174D02*
X8983039Y-9412079D01*
X8983039Y-9412079D02*
X8992563Y-9393031D01*
X8992563Y-9393031D02*
X9002087Y-9383508D01*
X9002087Y-9383508D02*
X9021134Y-9373984D01*
X9173515Y-9554936D02*
X9183039Y-9564460D01*
X9183039Y-9564460D02*
X9173515Y-9573984D01*
X9173515Y-9573984D02*
X9163991Y-9564460D01*
X9163991Y-9564460D02*
X9173515Y-9554936D01*
X9173515Y-9554936D02*
X9173515Y-9573984D01*
X9306848Y-9373984D02*
X9325896Y-9373984D01*
X9325896Y-9373984D02*
X9344944Y-9383508D01*
X9344944Y-9383508D02*
X9354468Y-9393031D01*
X9354468Y-9393031D02*
X9363991Y-9412079D01*
X9363991Y-9412079D02*
X9373515Y-9450174D01*
X9373515Y-9450174D02*
X9373515Y-9497793D01*
X9373515Y-9497793D02*
X9363991Y-9535889D01*
X9363991Y-9535889D02*
X9354468Y-9554936D01*
X9354468Y-9554936D02*
X9344944Y-9564460D01*
X9344944Y-9564460D02*
X9325896Y-9573984D01*
X9325896Y-9573984D02*
X9306848Y-9573984D01*
X9306848Y-9573984D02*
X9287801Y-9564460D01*
X9287801Y-9564460D02*
X9278277Y-9554936D01*
X9278277Y-9554936D02*
X9268753Y-9535889D01*
X9268753Y-9535889D02*
X9259229Y-9497793D01*
X9259229Y-9497793D02*
X9259229Y-9450174D01*
X9259229Y-9450174D02*
X9268753Y-9412079D01*
X9268753Y-9412079D02*
X9278277Y-9393031D01*
X9278277Y-9393031D02*
X9287801Y-9383508D01*
X9287801Y-9383508D02*
X9306848Y-9373984D01*
X9563991Y-9573984D02*
X9449706Y-9573984D01*
X9506848Y-9573984D02*
X9506848Y-9373984D01*
X9506848Y-9373984D02*
X9487801Y-9402555D01*
X9487801Y-9402555D02*
X9468753Y-9421603D01*
X9468753Y-9421603D02*
X9449706Y-9431127D01*
X9754468Y-9573984D02*
X9640182Y-9573984D01*
X9697325Y-9573984D02*
X9697325Y-9373984D01*
X9697325Y-9373984D02*
X9678277Y-9402555D01*
X9678277Y-9402555D02*
X9659229Y-9421603D01*
X9659229Y-9421603D02*
X9640182Y-9431127D01*
X9868753Y-9459698D02*
X9849706Y-9450174D01*
X9849706Y-9450174D02*
X9840182Y-9440650D01*
X9840182Y-9440650D02*
X9830658Y-9421603D01*
X9830658Y-9421603D02*
X9830658Y-9412079D01*
X9830658Y-9412079D02*
X9840182Y-9393031D01*
X9840182Y-9393031D02*
X9849706Y-9383508D01*
X9849706Y-9383508D02*
X9868753Y-9373984D01*
X9868753Y-9373984D02*
X9906849Y-9373984D01*
X9906849Y-9373984D02*
X9925896Y-9383508D01*
X9925896Y-9383508D02*
X9935420Y-9393031D01*
X9935420Y-9393031D02*
X9944944Y-9412079D01*
X9944944Y-9412079D02*
X9944944Y-9421603D01*
X9944944Y-9421603D02*
X9935420Y-9440650D01*
X9935420Y-9440650D02*
X9925896Y-9450174D01*
X9925896Y-9450174D02*
X9906849Y-9459698D01*
X9906849Y-9459698D02*
X9868753Y-9459698D01*
X9868753Y-9459698D02*
X9849706Y-9469222D01*
X9849706Y-9469222D02*
X9840182Y-9478746D01*
X9840182Y-9478746D02*
X9830658Y-9497793D01*
X9830658Y-9497793D02*
X9830658Y-9535889D01*
X9830658Y-9535889D02*
X9840182Y-9554936D01*
X9840182Y-9554936D02*
X9849706Y-9564460D01*
X9849706Y-9564460D02*
X9868753Y-9573984D01*
X9868753Y-9573984D02*
X9906849Y-9573984D01*
X9906849Y-9573984D02*
X9925896Y-9564460D01*
X9925896Y-9564460D02*
X9935420Y-9554936D01*
X9935420Y-9554936D02*
X9944944Y-9535889D01*
X9944944Y-9535889D02*
X9944944Y-9497793D01*
X9944944Y-9497793D02*
X9935420Y-9478746D01*
X9935420Y-9478746D02*
X9925896Y-9469222D01*
X9925896Y-9469222D02*
X9906849Y-9459698D01*
X10021134Y-9373984D02*
X10021134Y-9412079D01*
X10097325Y-9373984D02*
X10097325Y-9412079D01*
X10392563Y-9650174D02*
X10383039Y-9640650D01*
X10383039Y-9640650D02*
X10363991Y-9612079D01*
X10363991Y-9612079D02*
X10354468Y-9593031D01*
X10354468Y-9593031D02*
X10344944Y-9564460D01*
X10344944Y-9564460D02*
X10335420Y-9516841D01*
X10335420Y-9516841D02*
X10335420Y-9478746D01*
X10335420Y-9478746D02*
X10344944Y-9431127D01*
X10344944Y-9431127D02*
X10354468Y-9402555D01*
X10354468Y-9402555D02*
X10363991Y-9383508D01*
X10363991Y-9383508D02*
X10383039Y-9354936D01*
X10383039Y-9354936D02*
X10392563Y-9345412D01*
X10573515Y-9573984D02*
X10459230Y-9573984D01*
X10516372Y-9573984D02*
X10516372Y-9373984D01*
X10516372Y-9373984D02*
X10497325Y-9402555D01*
X10497325Y-9402555D02*
X10478277Y-9421603D01*
X10478277Y-9421603D02*
X10459230Y-9431127D01*
X10649706Y-9393031D02*
X10659230Y-9383508D01*
X10659230Y-9383508D02*
X10678277Y-9373984D01*
X10678277Y-9373984D02*
X10725896Y-9373984D01*
X10725896Y-9373984D02*
X10744944Y-9383508D01*
X10744944Y-9383508D02*
X10754468Y-9393031D01*
X10754468Y-9393031D02*
X10763991Y-9412079D01*
X10763991Y-9412079D02*
X10763991Y-9431127D01*
X10763991Y-9431127D02*
X10754468Y-9459698D01*
X10754468Y-9459698D02*
X10640182Y-9573984D01*
X10640182Y-9573984D02*
X10763991Y-9573984D01*
X11002087Y-9573984D02*
X11002087Y-9373984D01*
X11087801Y-9573984D02*
X11087801Y-9469222D01*
X11087801Y-9469222D02*
X11078277Y-9450174D01*
X11078277Y-9450174D02*
X11059230Y-9440650D01*
X11059230Y-9440650D02*
X11030658Y-9440650D01*
X11030658Y-9440650D02*
X11011611Y-9450174D01*
X11011611Y-9450174D02*
X11002087Y-9459698D01*
X11211610Y-9573984D02*
X11192563Y-9564460D01*
X11192563Y-9564460D02*
X11183039Y-9554936D01*
X11183039Y-9554936D02*
X11173515Y-9535889D01*
X11173515Y-9535889D02*
X11173515Y-9478746D01*
X11173515Y-9478746D02*
X11183039Y-9459698D01*
X11183039Y-9459698D02*
X11192563Y-9450174D01*
X11192563Y-9450174D02*
X11211610Y-9440650D01*
X11211610Y-9440650D02*
X11240182Y-9440650D01*
X11240182Y-9440650D02*
X11259230Y-9450174D01*
X11259230Y-9450174D02*
X11268753Y-9459698D01*
X11268753Y-9459698D02*
X11278277Y-9478746D01*
X11278277Y-9478746D02*
X11278277Y-9535889D01*
X11278277Y-9535889D02*
X11268753Y-9554936D01*
X11268753Y-9554936D02*
X11259230Y-9564460D01*
X11259230Y-9564460D02*
X11240182Y-9573984D01*
X11240182Y-9573984D02*
X11211610Y-9573984D01*
X11392563Y-9573984D02*
X11373515Y-9564460D01*
X11373515Y-9564460D02*
X11363991Y-9545412D01*
X11363991Y-9545412D02*
X11363991Y-9373984D01*
X11544944Y-9564460D02*
X11525896Y-9573984D01*
X11525896Y-9573984D02*
X11487801Y-9573984D01*
X11487801Y-9573984D02*
X11468753Y-9564460D01*
X11468753Y-9564460D02*
X11459230Y-9545412D01*
X11459230Y-9545412D02*
X11459230Y-9469222D01*
X11459230Y-9469222D02*
X11468753Y-9450174D01*
X11468753Y-9450174D02*
X11487801Y-9440650D01*
X11487801Y-9440650D02*
X11525896Y-9440650D01*
X11525896Y-9440650D02*
X11544944Y-9450174D01*
X11544944Y-9450174D02*
X11554468Y-9469222D01*
X11554468Y-9469222D02*
X11554468Y-9488270D01*
X11554468Y-9488270D02*
X11459230Y-9507317D01*
X11630658Y-9564460D02*
X11649706Y-9573984D01*
X11649706Y-9573984D02*
X11687801Y-9573984D01*
X11687801Y-9573984D02*
X11706849Y-9564460D01*
X11706849Y-9564460D02*
X11716372Y-9545412D01*
X11716372Y-9545412D02*
X11716372Y-9535889D01*
X11716372Y-9535889D02*
X11706849Y-9516841D01*
X11706849Y-9516841D02*
X11687801Y-9507317D01*
X11687801Y-9507317D02*
X11659230Y-9507317D01*
X11659230Y-9507317D02*
X11640182Y-9497793D01*
X11640182Y-9497793D02*
X11630658Y-9478746D01*
X11630658Y-9478746D02*
X11630658Y-9469222D01*
X11630658Y-9469222D02*
X11640182Y-9450174D01*
X11640182Y-9450174D02*
X11659230Y-9440650D01*
X11659230Y-9440650D02*
X11687801Y-9440650D01*
X11687801Y-9440650D02*
X11706849Y-9450174D01*
X11783039Y-9650174D02*
X11792563Y-9640650D01*
X11792563Y-9640650D02*
X11811611Y-9612079D01*
X11811611Y-9612079D02*
X11821134Y-9593031D01*
X11821134Y-9593031D02*
X11830658Y-9564460D01*
X11830658Y-9564460D02*
X11840182Y-9516841D01*
X11840182Y-9516841D02*
X11840182Y-9478746D01*
X11840182Y-9478746D02*
X11830658Y-9431127D01*
X11830658Y-9431127D02*
X11821134Y-9402555D01*
X11821134Y-9402555D02*
X11811611Y-9383508D01*
X11811611Y-9383508D02*
X11792563Y-9354936D01*
X11792563Y-9354936D02*
X11783039Y-9345412D01*
D12*
X6817500Y-9746500D02*
G75*
G02*
X6728600Y-9746500I-44450J0D01*
G01*
X6728600Y-9746500D02*
G75*
G02*
X6817500Y-9746500I44450J0D01*
G01*
D11*
X7116372Y-9637984D02*
X7135420Y-9637984D01*
X7135420Y-9637984D02*
X7154467Y-9647508D01*
X7154467Y-9647508D02*
X7163991Y-9657031D01*
X7163991Y-9657031D02*
X7173515Y-9676079D01*
X7173515Y-9676079D02*
X7183039Y-9714174D01*
X7183039Y-9714174D02*
X7183039Y-9761793D01*
X7183039Y-9761793D02*
X7173515Y-9799889D01*
X7173515Y-9799889D02*
X7163991Y-9818936D01*
X7163991Y-9818936D02*
X7154467Y-9828460D01*
X7154467Y-9828460D02*
X7135420Y-9837984D01*
X7135420Y-9837984D02*
X7116372Y-9837984D01*
X7116372Y-9837984D02*
X7097324Y-9828460D01*
X7097324Y-9828460D02*
X7087801Y-9818936D01*
X7087801Y-9818936D02*
X7078277Y-9799889D01*
X7078277Y-9799889D02*
X7068753Y-9761793D01*
X7068753Y-9761793D02*
X7068753Y-9714174D01*
X7068753Y-9714174D02*
X7078277Y-9676079D01*
X7078277Y-9676079D02*
X7087801Y-9657031D01*
X7087801Y-9657031D02*
X7097324Y-9647508D01*
X7097324Y-9647508D02*
X7116372Y-9637984D01*
X7268753Y-9818936D02*
X7278277Y-9828460D01*
X7278277Y-9828460D02*
X7268753Y-9837984D01*
X7268753Y-9837984D02*
X7259229Y-9828460D01*
X7259229Y-9828460D02*
X7268753Y-9818936D01*
X7268753Y-9818936D02*
X7268753Y-9837984D01*
X7392562Y-9723698D02*
X7373515Y-9714174D01*
X7373515Y-9714174D02*
X7363991Y-9704650D01*
X7363991Y-9704650D02*
X7354467Y-9685603D01*
X7354467Y-9685603D02*
X7354467Y-9676079D01*
X7354467Y-9676079D02*
X7363991Y-9657031D01*
X7363991Y-9657031D02*
X7373515Y-9647508D01*
X7373515Y-9647508D02*
X7392562Y-9637984D01*
X7392562Y-9637984D02*
X7430658Y-9637984D01*
X7430658Y-9637984D02*
X7449705Y-9647508D01*
X7449705Y-9647508D02*
X7459229Y-9657031D01*
X7459229Y-9657031D02*
X7468753Y-9676079D01*
X7468753Y-9676079D02*
X7468753Y-9685603D01*
X7468753Y-9685603D02*
X7459229Y-9704650D01*
X7459229Y-9704650D02*
X7449705Y-9714174D01*
X7449705Y-9714174D02*
X7430658Y-9723698D01*
X7430658Y-9723698D02*
X7392562Y-9723698D01*
X7392562Y-9723698D02*
X7373515Y-9733222D01*
X7373515Y-9733222D02*
X7363991Y-9742746D01*
X7363991Y-9742746D02*
X7354467Y-9761793D01*
X7354467Y-9761793D02*
X7354467Y-9799889D01*
X7354467Y-9799889D02*
X7363991Y-9818936D01*
X7363991Y-9818936D02*
X7373515Y-9828460D01*
X7373515Y-9828460D02*
X7392562Y-9837984D01*
X7392562Y-9837984D02*
X7430658Y-9837984D01*
X7430658Y-9837984D02*
X7449705Y-9828460D01*
X7449705Y-9828460D02*
X7459229Y-9818936D01*
X7459229Y-9818936D02*
X7468753Y-9799889D01*
X7468753Y-9799889D02*
X7468753Y-9761793D01*
X7468753Y-9761793D02*
X7459229Y-9742746D01*
X7459229Y-9742746D02*
X7449705Y-9733222D01*
X7449705Y-9733222D02*
X7430658Y-9723698D01*
X7583039Y-9723698D02*
X7563991Y-9714174D01*
X7563991Y-9714174D02*
X7554467Y-9704650D01*
X7554467Y-9704650D02*
X7544943Y-9685603D01*
X7544943Y-9685603D02*
X7544943Y-9676079D01*
X7544943Y-9676079D02*
X7554467Y-9657031D01*
X7554467Y-9657031D02*
X7563991Y-9647508D01*
X7563991Y-9647508D02*
X7583039Y-9637984D01*
X7583039Y-9637984D02*
X7621134Y-9637984D01*
X7621134Y-9637984D02*
X7640182Y-9647508D01*
X7640182Y-9647508D02*
X7649705Y-9657031D01*
X7649705Y-9657031D02*
X7659229Y-9676079D01*
X7659229Y-9676079D02*
X7659229Y-9685603D01*
X7659229Y-9685603D02*
X7649705Y-9704650D01*
X7649705Y-9704650D02*
X7640182Y-9714174D01*
X7640182Y-9714174D02*
X7621134Y-9723698D01*
X7621134Y-9723698D02*
X7583039Y-9723698D01*
X7583039Y-9723698D02*
X7563991Y-9733222D01*
X7563991Y-9733222D02*
X7554467Y-9742746D01*
X7554467Y-9742746D02*
X7544943Y-9761793D01*
X7544943Y-9761793D02*
X7544943Y-9799889D01*
X7544943Y-9799889D02*
X7554467Y-9818936D01*
X7554467Y-9818936D02*
X7563991Y-9828460D01*
X7563991Y-9828460D02*
X7583039Y-9837984D01*
X7583039Y-9837984D02*
X7621134Y-9837984D01*
X7621134Y-9837984D02*
X7640182Y-9828460D01*
X7640182Y-9828460D02*
X7649705Y-9818936D01*
X7649705Y-9818936D02*
X7659229Y-9799889D01*
X7659229Y-9799889D02*
X7659229Y-9761793D01*
X7659229Y-9761793D02*
X7649705Y-9742746D01*
X7649705Y-9742746D02*
X7640182Y-9733222D01*
X7640182Y-9733222D02*
X7621134Y-9723698D01*
X7754467Y-9837984D02*
X7792562Y-9837984D01*
X7792562Y-9837984D02*
X7811610Y-9828460D01*
X7811610Y-9828460D02*
X7821134Y-9818936D01*
X7821134Y-9818936D02*
X7840182Y-9790365D01*
X7840182Y-9790365D02*
X7849705Y-9752270D01*
X7849705Y-9752270D02*
X7849705Y-9676079D01*
X7849705Y-9676079D02*
X7840182Y-9657031D01*
X7840182Y-9657031D02*
X7830658Y-9647508D01*
X7830658Y-9647508D02*
X7811610Y-9637984D01*
X7811610Y-9637984D02*
X7773515Y-9637984D01*
X7773515Y-9637984D02*
X7754467Y-9647508D01*
X7754467Y-9647508D02*
X7744943Y-9657031D01*
X7744943Y-9657031D02*
X7735420Y-9676079D01*
X7735420Y-9676079D02*
X7735420Y-9723698D01*
X7735420Y-9723698D02*
X7744943Y-9742746D01*
X7744943Y-9742746D02*
X7754467Y-9752270D01*
X7754467Y-9752270D02*
X7773515Y-9761793D01*
X7773515Y-9761793D02*
X7811610Y-9761793D01*
X7811610Y-9761793D02*
X7830658Y-9752270D01*
X7830658Y-9752270D02*
X7840182Y-9742746D01*
X7840182Y-9742746D02*
X7849705Y-9723698D01*
X7935420Y-9837984D02*
X7935420Y-9704650D01*
X7935420Y-9723698D02*
X7944943Y-9714174D01*
X7944943Y-9714174D02*
X7963991Y-9704650D01*
X7963991Y-9704650D02*
X7992563Y-9704650D01*
X7992563Y-9704650D02*
X8011610Y-9714174D01*
X8011610Y-9714174D02*
X8021134Y-9733222D01*
X8021134Y-9733222D02*
X8021134Y-9837984D01*
X8021134Y-9733222D02*
X8030658Y-9714174D01*
X8030658Y-9714174D02*
X8049705Y-9704650D01*
X8049705Y-9704650D02*
X8078277Y-9704650D01*
X8078277Y-9704650D02*
X8097324Y-9714174D01*
X8097324Y-9714174D02*
X8106848Y-9733222D01*
X8106848Y-9733222D02*
X8106848Y-9837984D01*
X8202086Y-9837984D02*
X8202086Y-9704650D01*
X8202086Y-9723698D02*
X8211610Y-9714174D01*
X8211610Y-9714174D02*
X8230658Y-9704650D01*
X8230658Y-9704650D02*
X8259229Y-9704650D01*
X8259229Y-9704650D02*
X8278277Y-9714174D01*
X8278277Y-9714174D02*
X8287801Y-9733222D01*
X8287801Y-9733222D02*
X8287801Y-9837984D01*
X8287801Y-9733222D02*
X8297324Y-9714174D01*
X8297324Y-9714174D02*
X8316372Y-9704650D01*
X8316372Y-9704650D02*
X8344943Y-9704650D01*
X8344943Y-9704650D02*
X8363991Y-9714174D01*
X8363991Y-9714174D02*
X8373515Y-9733222D01*
X8373515Y-9733222D02*
X8373515Y-9837984D01*
X8763991Y-9628460D02*
X8592563Y-9885603D01*
X9021134Y-9637984D02*
X9040182Y-9637984D01*
X9040182Y-9637984D02*
X9059229Y-9647508D01*
X9059229Y-9647508D02*
X9068753Y-9657031D01*
X9068753Y-9657031D02*
X9078277Y-9676079D01*
X9078277Y-9676079D02*
X9087801Y-9714174D01*
X9087801Y-9714174D02*
X9087801Y-9761793D01*
X9087801Y-9761793D02*
X9078277Y-9799889D01*
X9078277Y-9799889D02*
X9068753Y-9818936D01*
X9068753Y-9818936D02*
X9059229Y-9828460D01*
X9059229Y-9828460D02*
X9040182Y-9837984D01*
X9040182Y-9837984D02*
X9021134Y-9837984D01*
X9021134Y-9837984D02*
X9002087Y-9828460D01*
X9002087Y-9828460D02*
X8992563Y-9818936D01*
X8992563Y-9818936D02*
X8983039Y-9799889D01*
X8983039Y-9799889D02*
X8973515Y-9761793D01*
X8973515Y-9761793D02*
X8973515Y-9714174D01*
X8973515Y-9714174D02*
X8983039Y-9676079D01*
X8983039Y-9676079D02*
X8992563Y-9657031D01*
X8992563Y-9657031D02*
X9002087Y-9647508D01*
X9002087Y-9647508D02*
X9021134Y-9637984D01*
X9173515Y-9818936D02*
X9183039Y-9828460D01*
X9183039Y-9828460D02*
X9173515Y-9837984D01*
X9173515Y-9837984D02*
X9163991Y-9828460D01*
X9163991Y-9828460D02*
X9173515Y-9818936D01*
X9173515Y-9818936D02*
X9173515Y-9837984D01*
X9306848Y-9637984D02*
X9325896Y-9637984D01*
X9325896Y-9637984D02*
X9344944Y-9647508D01*
X9344944Y-9647508D02*
X9354468Y-9657031D01*
X9354468Y-9657031D02*
X9363991Y-9676079D01*
X9363991Y-9676079D02*
X9373515Y-9714174D01*
X9373515Y-9714174D02*
X9373515Y-9761793D01*
X9373515Y-9761793D02*
X9363991Y-9799889D01*
X9363991Y-9799889D02*
X9354468Y-9818936D01*
X9354468Y-9818936D02*
X9344944Y-9828460D01*
X9344944Y-9828460D02*
X9325896Y-9837984D01*
X9325896Y-9837984D02*
X9306848Y-9837984D01*
X9306848Y-9837984D02*
X9287801Y-9828460D01*
X9287801Y-9828460D02*
X9278277Y-9818936D01*
X9278277Y-9818936D02*
X9268753Y-9799889D01*
X9268753Y-9799889D02*
X9259229Y-9761793D01*
X9259229Y-9761793D02*
X9259229Y-9714174D01*
X9259229Y-9714174D02*
X9268753Y-9676079D01*
X9268753Y-9676079D02*
X9278277Y-9657031D01*
X9278277Y-9657031D02*
X9287801Y-9647508D01*
X9287801Y-9647508D02*
X9306848Y-9637984D01*
X9440182Y-9637984D02*
X9563991Y-9637984D01*
X9563991Y-9637984D02*
X9497325Y-9714174D01*
X9497325Y-9714174D02*
X9525896Y-9714174D01*
X9525896Y-9714174D02*
X9544944Y-9723698D01*
X9544944Y-9723698D02*
X9554468Y-9733222D01*
X9554468Y-9733222D02*
X9563991Y-9752270D01*
X9563991Y-9752270D02*
X9563991Y-9799889D01*
X9563991Y-9799889D02*
X9554468Y-9818936D01*
X9554468Y-9818936D02*
X9544944Y-9828460D01*
X9544944Y-9828460D02*
X9525896Y-9837984D01*
X9525896Y-9837984D02*
X9468753Y-9837984D01*
X9468753Y-9837984D02*
X9449706Y-9828460D01*
X9449706Y-9828460D02*
X9440182Y-9818936D01*
X9744944Y-9637984D02*
X9649706Y-9637984D01*
X9649706Y-9637984D02*
X9640182Y-9733222D01*
X9640182Y-9733222D02*
X9649706Y-9723698D01*
X9649706Y-9723698D02*
X9668753Y-9714174D01*
X9668753Y-9714174D02*
X9716372Y-9714174D01*
X9716372Y-9714174D02*
X9735420Y-9723698D01*
X9735420Y-9723698D02*
X9744944Y-9733222D01*
X9744944Y-9733222D02*
X9754468Y-9752270D01*
X9754468Y-9752270D02*
X9754468Y-9799889D01*
X9754468Y-9799889D02*
X9744944Y-9818936D01*
X9744944Y-9818936D02*
X9735420Y-9828460D01*
X9735420Y-9828460D02*
X9716372Y-9837984D01*
X9716372Y-9837984D02*
X9668753Y-9837984D01*
X9668753Y-9837984D02*
X9649706Y-9828460D01*
X9649706Y-9828460D02*
X9640182Y-9818936D01*
X9878277Y-9637984D02*
X9897325Y-9637984D01*
X9897325Y-9637984D02*
X9916372Y-9647508D01*
X9916372Y-9647508D02*
X9925896Y-9657031D01*
X9925896Y-9657031D02*
X9935420Y-9676079D01*
X9935420Y-9676079D02*
X9944944Y-9714174D01*
X9944944Y-9714174D02*
X9944944Y-9761793D01*
X9944944Y-9761793D02*
X9935420Y-9799889D01*
X9935420Y-9799889D02*
X9925896Y-9818936D01*
X9925896Y-9818936D02*
X9916372Y-9828460D01*
X9916372Y-9828460D02*
X9897325Y-9837984D01*
X9897325Y-9837984D02*
X9878277Y-9837984D01*
X9878277Y-9837984D02*
X9859229Y-9828460D01*
X9859229Y-9828460D02*
X9849706Y-9818936D01*
X9849706Y-9818936D02*
X9840182Y-9799889D01*
X9840182Y-9799889D02*
X9830658Y-9761793D01*
X9830658Y-9761793D02*
X9830658Y-9714174D01*
X9830658Y-9714174D02*
X9840182Y-9676079D01*
X9840182Y-9676079D02*
X9849706Y-9657031D01*
X9849706Y-9657031D02*
X9859229Y-9647508D01*
X9859229Y-9647508D02*
X9878277Y-9637984D01*
X10021134Y-9637984D02*
X10021134Y-9676079D01*
X10097325Y-9637984D02*
X10097325Y-9676079D01*
X10392563Y-9914174D02*
X10383039Y-9904650D01*
X10383039Y-9904650D02*
X10363991Y-9876079D01*
X10363991Y-9876079D02*
X10354468Y-9857031D01*
X10354468Y-9857031D02*
X10344944Y-9828460D01*
X10344944Y-9828460D02*
X10335420Y-9780841D01*
X10335420Y-9780841D02*
X10335420Y-9742746D01*
X10335420Y-9742746D02*
X10344944Y-9695127D01*
X10344944Y-9695127D02*
X10354468Y-9666555D01*
X10354468Y-9666555D02*
X10363991Y-9647508D01*
X10363991Y-9647508D02*
X10383039Y-9618936D01*
X10383039Y-9618936D02*
X10392563Y-9609412D01*
X10573515Y-9837984D02*
X10459230Y-9837984D01*
X10516372Y-9837984D02*
X10516372Y-9637984D01*
X10516372Y-9637984D02*
X10497325Y-9666555D01*
X10497325Y-9666555D02*
X10478277Y-9685603D01*
X10478277Y-9685603D02*
X10459230Y-9695127D01*
X10649706Y-9657031D02*
X10659230Y-9647508D01*
X10659230Y-9647508D02*
X10678277Y-9637984D01*
X10678277Y-9637984D02*
X10725896Y-9637984D01*
X10725896Y-9637984D02*
X10744944Y-9647508D01*
X10744944Y-9647508D02*
X10754468Y-9657031D01*
X10754468Y-9657031D02*
X10763991Y-9676079D01*
X10763991Y-9676079D02*
X10763991Y-9695127D01*
X10763991Y-9695127D02*
X10754468Y-9723698D01*
X10754468Y-9723698D02*
X10640182Y-9837984D01*
X10640182Y-9837984D02*
X10763991Y-9837984D01*
X11002087Y-9837984D02*
X11002087Y-9637984D01*
X11087801Y-9837984D02*
X11087801Y-9733222D01*
X11087801Y-9733222D02*
X11078277Y-9714174D01*
X11078277Y-9714174D02*
X11059230Y-9704650D01*
X11059230Y-9704650D02*
X11030658Y-9704650D01*
X11030658Y-9704650D02*
X11011611Y-9714174D01*
X11011611Y-9714174D02*
X11002087Y-9723698D01*
X11211610Y-9837984D02*
X11192563Y-9828460D01*
X11192563Y-9828460D02*
X11183039Y-9818936D01*
X11183039Y-9818936D02*
X11173515Y-9799889D01*
X11173515Y-9799889D02*
X11173515Y-9742746D01*
X11173515Y-9742746D02*
X11183039Y-9723698D01*
X11183039Y-9723698D02*
X11192563Y-9714174D01*
X11192563Y-9714174D02*
X11211610Y-9704650D01*
X11211610Y-9704650D02*
X11240182Y-9704650D01*
X11240182Y-9704650D02*
X11259230Y-9714174D01*
X11259230Y-9714174D02*
X11268753Y-9723698D01*
X11268753Y-9723698D02*
X11278277Y-9742746D01*
X11278277Y-9742746D02*
X11278277Y-9799889D01*
X11278277Y-9799889D02*
X11268753Y-9818936D01*
X11268753Y-9818936D02*
X11259230Y-9828460D01*
X11259230Y-9828460D02*
X11240182Y-9837984D01*
X11240182Y-9837984D02*
X11211610Y-9837984D01*
X11392563Y-9837984D02*
X11373515Y-9828460D01*
X11373515Y-9828460D02*
X11363991Y-9809412D01*
X11363991Y-9809412D02*
X11363991Y-9637984D01*
X11544944Y-9828460D02*
X11525896Y-9837984D01*
X11525896Y-9837984D02*
X11487801Y-9837984D01*
X11487801Y-9837984D02*
X11468753Y-9828460D01*
X11468753Y-9828460D02*
X11459230Y-9809412D01*
X11459230Y-9809412D02*
X11459230Y-9733222D01*
X11459230Y-9733222D02*
X11468753Y-9714174D01*
X11468753Y-9714174D02*
X11487801Y-9704650D01*
X11487801Y-9704650D02*
X11525896Y-9704650D01*
X11525896Y-9704650D02*
X11544944Y-9714174D01*
X11544944Y-9714174D02*
X11554468Y-9733222D01*
X11554468Y-9733222D02*
X11554468Y-9752270D01*
X11554468Y-9752270D02*
X11459230Y-9771317D01*
X11630658Y-9828460D02*
X11649706Y-9837984D01*
X11649706Y-9837984D02*
X11687801Y-9837984D01*
X11687801Y-9837984D02*
X11706849Y-9828460D01*
X11706849Y-9828460D02*
X11716372Y-9809412D01*
X11716372Y-9809412D02*
X11716372Y-9799889D01*
X11716372Y-9799889D02*
X11706849Y-9780841D01*
X11706849Y-9780841D02*
X11687801Y-9771317D01*
X11687801Y-9771317D02*
X11659230Y-9771317D01*
X11659230Y-9771317D02*
X11640182Y-9761793D01*
X11640182Y-9761793D02*
X11630658Y-9742746D01*
X11630658Y-9742746D02*
X11630658Y-9733222D01*
X11630658Y-9733222D02*
X11640182Y-9714174D01*
X11640182Y-9714174D02*
X11659230Y-9704650D01*
X11659230Y-9704650D02*
X11687801Y-9704650D01*
X11687801Y-9704650D02*
X11706849Y-9714174D01*
X11783039Y-9914174D02*
X11792563Y-9904650D01*
X11792563Y-9904650D02*
X11811611Y-9876079D01*
X11811611Y-9876079D02*
X11821134Y-9857031D01*
X11821134Y-9857031D02*
X11830658Y-9828460D01*
X11830658Y-9828460D02*
X11840182Y-9780841D01*
X11840182Y-9780841D02*
X11840182Y-9742746D01*
X11840182Y-9742746D02*
X11830658Y-9695127D01*
X11830658Y-9695127D02*
X11821134Y-9666555D01*
X11821134Y-9666555D02*
X11811611Y-9647508D01*
X11811611Y-9647508D02*
X11792563Y-9618936D01*
X11792563Y-9618936D02*
X11783039Y-9609412D01*
D12*
X6772500Y-9965500D02*
X6772500Y-10055500D01*
X6727500Y-10010500D02*
X6817500Y-10010500D01*
D11*
X7116372Y-9901984D02*
X7135420Y-9901984D01*
X7135420Y-9901984D02*
X7154467Y-9911508D01*
X7154467Y-9911508D02*
X7163991Y-9921031D01*
X7163991Y-9921031D02*
X7173515Y-9940079D01*
X7173515Y-9940079D02*
X7183039Y-9978174D01*
X7183039Y-9978174D02*
X7183039Y-10025793D01*
X7183039Y-10025793D02*
X7173515Y-10063889D01*
X7173515Y-10063889D02*
X7163991Y-10082936D01*
X7163991Y-10082936D02*
X7154467Y-10092460D01*
X7154467Y-10092460D02*
X7135420Y-10101984D01*
X7135420Y-10101984D02*
X7116372Y-10101984D01*
X7116372Y-10101984D02*
X7097324Y-10092460D01*
X7097324Y-10092460D02*
X7087801Y-10082936D01*
X7087801Y-10082936D02*
X7078277Y-10063889D01*
X7078277Y-10063889D02*
X7068753Y-10025793D01*
X7068753Y-10025793D02*
X7068753Y-9978174D01*
X7068753Y-9978174D02*
X7078277Y-9940079D01*
X7078277Y-9940079D02*
X7087801Y-9921031D01*
X7087801Y-9921031D02*
X7097324Y-9911508D01*
X7097324Y-9911508D02*
X7116372Y-9901984D01*
X7268753Y-10082936D02*
X7278277Y-10092460D01*
X7278277Y-10092460D02*
X7268753Y-10101984D01*
X7268753Y-10101984D02*
X7259229Y-10092460D01*
X7259229Y-10092460D02*
X7268753Y-10082936D01*
X7268753Y-10082936D02*
X7268753Y-10101984D01*
X7373515Y-10101984D02*
X7411610Y-10101984D01*
X7411610Y-10101984D02*
X7430658Y-10092460D01*
X7430658Y-10092460D02*
X7440182Y-10082936D01*
X7440182Y-10082936D02*
X7459229Y-10054365D01*
X7459229Y-10054365D02*
X7468753Y-10016270D01*
X7468753Y-10016270D02*
X7468753Y-9940079D01*
X7468753Y-9940079D02*
X7459229Y-9921031D01*
X7459229Y-9921031D02*
X7449705Y-9911508D01*
X7449705Y-9911508D02*
X7430658Y-9901984D01*
X7430658Y-9901984D02*
X7392562Y-9901984D01*
X7392562Y-9901984D02*
X7373515Y-9911508D01*
X7373515Y-9911508D02*
X7363991Y-9921031D01*
X7363991Y-9921031D02*
X7354467Y-9940079D01*
X7354467Y-9940079D02*
X7354467Y-9987698D01*
X7354467Y-9987698D02*
X7363991Y-10006746D01*
X7363991Y-10006746D02*
X7373515Y-10016270D01*
X7373515Y-10016270D02*
X7392562Y-10025793D01*
X7392562Y-10025793D02*
X7430658Y-10025793D01*
X7430658Y-10025793D02*
X7449705Y-10016270D01*
X7449705Y-10016270D02*
X7459229Y-10006746D01*
X7459229Y-10006746D02*
X7468753Y-9987698D01*
X7592562Y-9901984D02*
X7611610Y-9901984D01*
X7611610Y-9901984D02*
X7630658Y-9911508D01*
X7630658Y-9911508D02*
X7640182Y-9921031D01*
X7640182Y-9921031D02*
X7649705Y-9940079D01*
X7649705Y-9940079D02*
X7659229Y-9978174D01*
X7659229Y-9978174D02*
X7659229Y-10025793D01*
X7659229Y-10025793D02*
X7649705Y-10063889D01*
X7649705Y-10063889D02*
X7640182Y-10082936D01*
X7640182Y-10082936D02*
X7630658Y-10092460D01*
X7630658Y-10092460D02*
X7611610Y-10101984D01*
X7611610Y-10101984D02*
X7592562Y-10101984D01*
X7592562Y-10101984D02*
X7573515Y-10092460D01*
X7573515Y-10092460D02*
X7563991Y-10082936D01*
X7563991Y-10082936D02*
X7554467Y-10063889D01*
X7554467Y-10063889D02*
X7544943Y-10025793D01*
X7544943Y-10025793D02*
X7544943Y-9978174D01*
X7544943Y-9978174D02*
X7554467Y-9940079D01*
X7554467Y-9940079D02*
X7563991Y-9921031D01*
X7563991Y-9921031D02*
X7573515Y-9911508D01*
X7573515Y-9911508D02*
X7592562Y-9901984D01*
X7783039Y-9901984D02*
X7802086Y-9901984D01*
X7802086Y-9901984D02*
X7821134Y-9911508D01*
X7821134Y-9911508D02*
X7830658Y-9921031D01*
X7830658Y-9921031D02*
X7840182Y-9940079D01*
X7840182Y-9940079D02*
X7849705Y-9978174D01*
X7849705Y-9978174D02*
X7849705Y-10025793D01*
X7849705Y-10025793D02*
X7840182Y-10063889D01*
X7840182Y-10063889D02*
X7830658Y-10082936D01*
X7830658Y-10082936D02*
X7821134Y-10092460D01*
X7821134Y-10092460D02*
X7802086Y-10101984D01*
X7802086Y-10101984D02*
X7783039Y-10101984D01*
X7783039Y-10101984D02*
X7763991Y-10092460D01*
X7763991Y-10092460D02*
X7754467Y-10082936D01*
X7754467Y-10082936D02*
X7744943Y-10063889D01*
X7744943Y-10063889D02*
X7735420Y-10025793D01*
X7735420Y-10025793D02*
X7735420Y-9978174D01*
X7735420Y-9978174D02*
X7744943Y-9940079D01*
X7744943Y-9940079D02*
X7754467Y-9921031D01*
X7754467Y-9921031D02*
X7763991Y-9911508D01*
X7763991Y-9911508D02*
X7783039Y-9901984D01*
X7935420Y-10101984D02*
X7935420Y-9968650D01*
X7935420Y-9987698D02*
X7944943Y-9978174D01*
X7944943Y-9978174D02*
X7963991Y-9968650D01*
X7963991Y-9968650D02*
X7992563Y-9968650D01*
X7992563Y-9968650D02*
X8011610Y-9978174D01*
X8011610Y-9978174D02*
X8021134Y-9997222D01*
X8021134Y-9997222D02*
X8021134Y-10101984D01*
X8021134Y-9997222D02*
X8030658Y-9978174D01*
X8030658Y-9978174D02*
X8049705Y-9968650D01*
X8049705Y-9968650D02*
X8078277Y-9968650D01*
X8078277Y-9968650D02*
X8097324Y-9978174D01*
X8097324Y-9978174D02*
X8106848Y-9997222D01*
X8106848Y-9997222D02*
X8106848Y-10101984D01*
X8202086Y-10101984D02*
X8202086Y-9968650D01*
X8202086Y-9987698D02*
X8211610Y-9978174D01*
X8211610Y-9978174D02*
X8230658Y-9968650D01*
X8230658Y-9968650D02*
X8259229Y-9968650D01*
X8259229Y-9968650D02*
X8278277Y-9978174D01*
X8278277Y-9978174D02*
X8287801Y-9997222D01*
X8287801Y-9997222D02*
X8287801Y-10101984D01*
X8287801Y-9997222D02*
X8297324Y-9978174D01*
X8297324Y-9978174D02*
X8316372Y-9968650D01*
X8316372Y-9968650D02*
X8344943Y-9968650D01*
X8344943Y-9968650D02*
X8363991Y-9978174D01*
X8363991Y-9978174D02*
X8373515Y-9997222D01*
X8373515Y-9997222D02*
X8373515Y-10101984D01*
X8763991Y-9892460D02*
X8592563Y-10149603D01*
X9021134Y-9901984D02*
X9040182Y-9901984D01*
X9040182Y-9901984D02*
X9059229Y-9911508D01*
X9059229Y-9911508D02*
X9068753Y-9921031D01*
X9068753Y-9921031D02*
X9078277Y-9940079D01*
X9078277Y-9940079D02*
X9087801Y-9978174D01*
X9087801Y-9978174D02*
X9087801Y-10025793D01*
X9087801Y-10025793D02*
X9078277Y-10063889D01*
X9078277Y-10063889D02*
X9068753Y-10082936D01*
X9068753Y-10082936D02*
X9059229Y-10092460D01*
X9059229Y-10092460D02*
X9040182Y-10101984D01*
X9040182Y-10101984D02*
X9021134Y-10101984D01*
X9021134Y-10101984D02*
X9002087Y-10092460D01*
X9002087Y-10092460D02*
X8992563Y-10082936D01*
X8992563Y-10082936D02*
X8983039Y-10063889D01*
X8983039Y-10063889D02*
X8973515Y-10025793D01*
X8973515Y-10025793D02*
X8973515Y-9978174D01*
X8973515Y-9978174D02*
X8983039Y-9940079D01*
X8983039Y-9940079D02*
X8992563Y-9921031D01*
X8992563Y-9921031D02*
X9002087Y-9911508D01*
X9002087Y-9911508D02*
X9021134Y-9901984D01*
X9173515Y-10082936D02*
X9183039Y-10092460D01*
X9183039Y-10092460D02*
X9173515Y-10101984D01*
X9173515Y-10101984D02*
X9163991Y-10092460D01*
X9163991Y-10092460D02*
X9173515Y-10082936D01*
X9173515Y-10082936D02*
X9173515Y-10101984D01*
X9306848Y-9901984D02*
X9325896Y-9901984D01*
X9325896Y-9901984D02*
X9344944Y-9911508D01*
X9344944Y-9911508D02*
X9354468Y-9921031D01*
X9354468Y-9921031D02*
X9363991Y-9940079D01*
X9363991Y-9940079D02*
X9373515Y-9978174D01*
X9373515Y-9978174D02*
X9373515Y-10025793D01*
X9373515Y-10025793D02*
X9363991Y-10063889D01*
X9363991Y-10063889D02*
X9354468Y-10082936D01*
X9354468Y-10082936D02*
X9344944Y-10092460D01*
X9344944Y-10092460D02*
X9325896Y-10101984D01*
X9325896Y-10101984D02*
X9306848Y-10101984D01*
X9306848Y-10101984D02*
X9287801Y-10092460D01*
X9287801Y-10092460D02*
X9278277Y-10082936D01*
X9278277Y-10082936D02*
X9268753Y-10063889D01*
X9268753Y-10063889D02*
X9259229Y-10025793D01*
X9259229Y-10025793D02*
X9259229Y-9978174D01*
X9259229Y-9978174D02*
X9268753Y-9940079D01*
X9268753Y-9940079D02*
X9278277Y-9921031D01*
X9278277Y-9921031D02*
X9287801Y-9911508D01*
X9287801Y-9911508D02*
X9306848Y-9901984D01*
X9440182Y-9901984D02*
X9563991Y-9901984D01*
X9563991Y-9901984D02*
X9497325Y-9978174D01*
X9497325Y-9978174D02*
X9525896Y-9978174D01*
X9525896Y-9978174D02*
X9544944Y-9987698D01*
X9544944Y-9987698D02*
X9554468Y-9997222D01*
X9554468Y-9997222D02*
X9563991Y-10016270D01*
X9563991Y-10016270D02*
X9563991Y-10063889D01*
X9563991Y-10063889D02*
X9554468Y-10082936D01*
X9554468Y-10082936D02*
X9544944Y-10092460D01*
X9544944Y-10092460D02*
X9525896Y-10101984D01*
X9525896Y-10101984D02*
X9468753Y-10101984D01*
X9468753Y-10101984D02*
X9449706Y-10092460D01*
X9449706Y-10092460D02*
X9440182Y-10082936D01*
X9744944Y-9901984D02*
X9649706Y-9901984D01*
X9649706Y-9901984D02*
X9640182Y-9997222D01*
X9640182Y-9997222D02*
X9649706Y-9987698D01*
X9649706Y-9987698D02*
X9668753Y-9978174D01*
X9668753Y-9978174D02*
X9716372Y-9978174D01*
X9716372Y-9978174D02*
X9735420Y-9987698D01*
X9735420Y-9987698D02*
X9744944Y-9997222D01*
X9744944Y-9997222D02*
X9754468Y-10016270D01*
X9754468Y-10016270D02*
X9754468Y-10063889D01*
X9754468Y-10063889D02*
X9744944Y-10082936D01*
X9744944Y-10082936D02*
X9735420Y-10092460D01*
X9735420Y-10092460D02*
X9716372Y-10101984D01*
X9716372Y-10101984D02*
X9668753Y-10101984D01*
X9668753Y-10101984D02*
X9649706Y-10092460D01*
X9649706Y-10092460D02*
X9640182Y-10082936D01*
X9925896Y-9968650D02*
X9925896Y-10101984D01*
X9878277Y-9892460D02*
X9830658Y-10035317D01*
X9830658Y-10035317D02*
X9954468Y-10035317D01*
X10021134Y-9901984D02*
X10021134Y-9940079D01*
X10097325Y-9901984D02*
X10097325Y-9940079D01*
X10392563Y-10178174D02*
X10383039Y-10168650D01*
X10383039Y-10168650D02*
X10363991Y-10140079D01*
X10363991Y-10140079D02*
X10354468Y-10121031D01*
X10354468Y-10121031D02*
X10344944Y-10092460D01*
X10344944Y-10092460D02*
X10335420Y-10044841D01*
X10335420Y-10044841D02*
X10335420Y-10006746D01*
X10335420Y-10006746D02*
X10344944Y-9959127D01*
X10344944Y-9959127D02*
X10354468Y-9930555D01*
X10354468Y-9930555D02*
X10363991Y-9911508D01*
X10363991Y-9911508D02*
X10383039Y-9882936D01*
X10383039Y-9882936D02*
X10392563Y-9873412D01*
X10497325Y-9987698D02*
X10478277Y-9978174D01*
X10478277Y-9978174D02*
X10468753Y-9968650D01*
X10468753Y-9968650D02*
X10459230Y-9949603D01*
X10459230Y-9949603D02*
X10459230Y-9940079D01*
X10459230Y-9940079D02*
X10468753Y-9921031D01*
X10468753Y-9921031D02*
X10478277Y-9911508D01*
X10478277Y-9911508D02*
X10497325Y-9901984D01*
X10497325Y-9901984D02*
X10535420Y-9901984D01*
X10535420Y-9901984D02*
X10554468Y-9911508D01*
X10554468Y-9911508D02*
X10563991Y-9921031D01*
X10563991Y-9921031D02*
X10573515Y-9940079D01*
X10573515Y-9940079D02*
X10573515Y-9949603D01*
X10573515Y-9949603D02*
X10563991Y-9968650D01*
X10563991Y-9968650D02*
X10554468Y-9978174D01*
X10554468Y-9978174D02*
X10535420Y-9987698D01*
X10535420Y-9987698D02*
X10497325Y-9987698D01*
X10497325Y-9987698D02*
X10478277Y-9997222D01*
X10478277Y-9997222D02*
X10468753Y-10006746D01*
X10468753Y-10006746D02*
X10459230Y-10025793D01*
X10459230Y-10025793D02*
X10459230Y-10063889D01*
X10459230Y-10063889D02*
X10468753Y-10082936D01*
X10468753Y-10082936D02*
X10478277Y-10092460D01*
X10478277Y-10092460D02*
X10497325Y-10101984D01*
X10497325Y-10101984D02*
X10535420Y-10101984D01*
X10535420Y-10101984D02*
X10554468Y-10092460D01*
X10554468Y-10092460D02*
X10563991Y-10082936D01*
X10563991Y-10082936D02*
X10573515Y-10063889D01*
X10573515Y-10063889D02*
X10573515Y-10025793D01*
X10573515Y-10025793D02*
X10563991Y-10006746D01*
X10563991Y-10006746D02*
X10554468Y-9997222D01*
X10554468Y-9997222D02*
X10535420Y-9987698D01*
X10811611Y-10101984D02*
X10811611Y-9901984D01*
X10897325Y-10101984D02*
X10897325Y-9997222D01*
X10897325Y-9997222D02*
X10887801Y-9978174D01*
X10887801Y-9978174D02*
X10868753Y-9968650D01*
X10868753Y-9968650D02*
X10840182Y-9968650D01*
X10840182Y-9968650D02*
X10821134Y-9978174D01*
X10821134Y-9978174D02*
X10811611Y-9987698D01*
X11021134Y-10101984D02*
X11002087Y-10092460D01*
X11002087Y-10092460D02*
X10992563Y-10082936D01*
X10992563Y-10082936D02*
X10983039Y-10063889D01*
X10983039Y-10063889D02*
X10983039Y-10006746D01*
X10983039Y-10006746D02*
X10992563Y-9987698D01*
X10992563Y-9987698D02*
X11002087Y-9978174D01*
X11002087Y-9978174D02*
X11021134Y-9968650D01*
X11021134Y-9968650D02*
X11049706Y-9968650D01*
X11049706Y-9968650D02*
X11068753Y-9978174D01*
X11068753Y-9978174D02*
X11078277Y-9987698D01*
X11078277Y-9987698D02*
X11087801Y-10006746D01*
X11087801Y-10006746D02*
X11087801Y-10063889D01*
X11087801Y-10063889D02*
X11078277Y-10082936D01*
X11078277Y-10082936D02*
X11068753Y-10092460D01*
X11068753Y-10092460D02*
X11049706Y-10101984D01*
X11049706Y-10101984D02*
X11021134Y-10101984D01*
X11202087Y-10101984D02*
X11183039Y-10092460D01*
X11183039Y-10092460D02*
X11173515Y-10073412D01*
X11173515Y-10073412D02*
X11173515Y-9901984D01*
X11354468Y-10092460D02*
X11335420Y-10101984D01*
X11335420Y-10101984D02*
X11297325Y-10101984D01*
X11297325Y-10101984D02*
X11278277Y-10092460D01*
X11278277Y-10092460D02*
X11268753Y-10073412D01*
X11268753Y-10073412D02*
X11268753Y-9997222D01*
X11268753Y-9997222D02*
X11278277Y-9978174D01*
X11278277Y-9978174D02*
X11297325Y-9968650D01*
X11297325Y-9968650D02*
X11335420Y-9968650D01*
X11335420Y-9968650D02*
X11354468Y-9978174D01*
X11354468Y-9978174D02*
X11363991Y-9997222D01*
X11363991Y-9997222D02*
X11363991Y-10016270D01*
X11363991Y-10016270D02*
X11268753Y-10035317D01*
X11440182Y-10092460D02*
X11459230Y-10101984D01*
X11459230Y-10101984D02*
X11497325Y-10101984D01*
X11497325Y-10101984D02*
X11516372Y-10092460D01*
X11516372Y-10092460D02*
X11525896Y-10073412D01*
X11525896Y-10073412D02*
X11525896Y-10063889D01*
X11525896Y-10063889D02*
X11516372Y-10044841D01*
X11516372Y-10044841D02*
X11497325Y-10035317D01*
X11497325Y-10035317D02*
X11468753Y-10035317D01*
X11468753Y-10035317D02*
X11449706Y-10025793D01*
X11449706Y-10025793D02*
X11440182Y-10006746D01*
X11440182Y-10006746D02*
X11440182Y-9997222D01*
X11440182Y-9997222D02*
X11449706Y-9978174D01*
X11449706Y-9978174D02*
X11468753Y-9968650D01*
X11468753Y-9968650D02*
X11497325Y-9968650D01*
X11497325Y-9968650D02*
X11516372Y-9978174D01*
X11592563Y-10178174D02*
X11602087Y-10168650D01*
X11602087Y-10168650D02*
X11621134Y-10140079D01*
X11621134Y-10140079D02*
X11630658Y-10121031D01*
X11630658Y-10121031D02*
X11640182Y-10092460D01*
X11640182Y-10092460D02*
X11649706Y-10044841D01*
X11649706Y-10044841D02*
X11649706Y-10006746D01*
X11649706Y-10006746D02*
X11640182Y-9959127D01*
X11640182Y-9959127D02*
X11630658Y-9930555D01*
X11630658Y-9930555D02*
X11621134Y-9911508D01*
X11621134Y-9911508D02*
X11602087Y-9882936D01*
X11602087Y-9882936D02*
X11592563Y-9873412D01*
D12*
X6802856Y-10309856D02*
X6802856Y-10239144D01*
X6732144Y-10239144D01*
X6732144Y-10309856D01*
X6802856Y-10309856D01*
D11*
X7183039Y-10365984D02*
X7068753Y-10365984D01*
X7125896Y-10365984D02*
X7125896Y-10165984D01*
X7125896Y-10165984D02*
X7106848Y-10194555D01*
X7106848Y-10194555D02*
X7087801Y-10213603D01*
X7087801Y-10213603D02*
X7068753Y-10223127D01*
X7268753Y-10346936D02*
X7278277Y-10356460D01*
X7278277Y-10356460D02*
X7268753Y-10365984D01*
X7268753Y-10365984D02*
X7259229Y-10356460D01*
X7259229Y-10356460D02*
X7268753Y-10346936D01*
X7268753Y-10346936D02*
X7268753Y-10365984D01*
X7402086Y-10165984D02*
X7421134Y-10165984D01*
X7421134Y-10165984D02*
X7440182Y-10175508D01*
X7440182Y-10175508D02*
X7449705Y-10185031D01*
X7449705Y-10185031D02*
X7459229Y-10204079D01*
X7459229Y-10204079D02*
X7468753Y-10242174D01*
X7468753Y-10242174D02*
X7468753Y-10289793D01*
X7468753Y-10289793D02*
X7459229Y-10327889D01*
X7459229Y-10327889D02*
X7449705Y-10346936D01*
X7449705Y-10346936D02*
X7440182Y-10356460D01*
X7440182Y-10356460D02*
X7421134Y-10365984D01*
X7421134Y-10365984D02*
X7402086Y-10365984D01*
X7402086Y-10365984D02*
X7383039Y-10356460D01*
X7383039Y-10356460D02*
X7373515Y-10346936D01*
X7373515Y-10346936D02*
X7363991Y-10327889D01*
X7363991Y-10327889D02*
X7354467Y-10289793D01*
X7354467Y-10289793D02*
X7354467Y-10242174D01*
X7354467Y-10242174D02*
X7363991Y-10204079D01*
X7363991Y-10204079D02*
X7373515Y-10185031D01*
X7373515Y-10185031D02*
X7383039Y-10175508D01*
X7383039Y-10175508D02*
X7402086Y-10165984D01*
X7592562Y-10165984D02*
X7611610Y-10165984D01*
X7611610Y-10165984D02*
X7630658Y-10175508D01*
X7630658Y-10175508D02*
X7640182Y-10185031D01*
X7640182Y-10185031D02*
X7649705Y-10204079D01*
X7649705Y-10204079D02*
X7659229Y-10242174D01*
X7659229Y-10242174D02*
X7659229Y-10289793D01*
X7659229Y-10289793D02*
X7649705Y-10327889D01*
X7649705Y-10327889D02*
X7640182Y-10346936D01*
X7640182Y-10346936D02*
X7630658Y-10356460D01*
X7630658Y-10356460D02*
X7611610Y-10365984D01*
X7611610Y-10365984D02*
X7592562Y-10365984D01*
X7592562Y-10365984D02*
X7573515Y-10356460D01*
X7573515Y-10356460D02*
X7563991Y-10346936D01*
X7563991Y-10346936D02*
X7554467Y-10327889D01*
X7554467Y-10327889D02*
X7544943Y-10289793D01*
X7544943Y-10289793D02*
X7544943Y-10242174D01*
X7544943Y-10242174D02*
X7554467Y-10204079D01*
X7554467Y-10204079D02*
X7563991Y-10185031D01*
X7563991Y-10185031D02*
X7573515Y-10175508D01*
X7573515Y-10175508D02*
X7592562Y-10165984D01*
X7783039Y-10165984D02*
X7802086Y-10165984D01*
X7802086Y-10165984D02*
X7821134Y-10175508D01*
X7821134Y-10175508D02*
X7830658Y-10185031D01*
X7830658Y-10185031D02*
X7840182Y-10204079D01*
X7840182Y-10204079D02*
X7849705Y-10242174D01*
X7849705Y-10242174D02*
X7849705Y-10289793D01*
X7849705Y-10289793D02*
X7840182Y-10327889D01*
X7840182Y-10327889D02*
X7830658Y-10346936D01*
X7830658Y-10346936D02*
X7821134Y-10356460D01*
X7821134Y-10356460D02*
X7802086Y-10365984D01*
X7802086Y-10365984D02*
X7783039Y-10365984D01*
X7783039Y-10365984D02*
X7763991Y-10356460D01*
X7763991Y-10356460D02*
X7754467Y-10346936D01*
X7754467Y-10346936D02*
X7744943Y-10327889D01*
X7744943Y-10327889D02*
X7735420Y-10289793D01*
X7735420Y-10289793D02*
X7735420Y-10242174D01*
X7735420Y-10242174D02*
X7744943Y-10204079D01*
X7744943Y-10204079D02*
X7754467Y-10185031D01*
X7754467Y-10185031D02*
X7763991Y-10175508D01*
X7763991Y-10175508D02*
X7783039Y-10165984D01*
X7935420Y-10365984D02*
X7935420Y-10232650D01*
X7935420Y-10251698D02*
X7944943Y-10242174D01*
X7944943Y-10242174D02*
X7963991Y-10232650D01*
X7963991Y-10232650D02*
X7992563Y-10232650D01*
X7992563Y-10232650D02*
X8011610Y-10242174D01*
X8011610Y-10242174D02*
X8021134Y-10261222D01*
X8021134Y-10261222D02*
X8021134Y-10365984D01*
X8021134Y-10261222D02*
X8030658Y-10242174D01*
X8030658Y-10242174D02*
X8049705Y-10232650D01*
X8049705Y-10232650D02*
X8078277Y-10232650D01*
X8078277Y-10232650D02*
X8097324Y-10242174D01*
X8097324Y-10242174D02*
X8106848Y-10261222D01*
X8106848Y-10261222D02*
X8106848Y-10365984D01*
X8202086Y-10365984D02*
X8202086Y-10232650D01*
X8202086Y-10251698D02*
X8211610Y-10242174D01*
X8211610Y-10242174D02*
X8230658Y-10232650D01*
X8230658Y-10232650D02*
X8259229Y-10232650D01*
X8259229Y-10232650D02*
X8278277Y-10242174D01*
X8278277Y-10242174D02*
X8287801Y-10261222D01*
X8287801Y-10261222D02*
X8287801Y-10365984D01*
X8287801Y-10261222D02*
X8297324Y-10242174D01*
X8297324Y-10242174D02*
X8316372Y-10232650D01*
X8316372Y-10232650D02*
X8344943Y-10232650D01*
X8344943Y-10232650D02*
X8363991Y-10242174D01*
X8363991Y-10242174D02*
X8373515Y-10261222D01*
X8373515Y-10261222D02*
X8373515Y-10365984D01*
X8763991Y-10156460D02*
X8592563Y-10413603D01*
X9021134Y-10165984D02*
X9040182Y-10165984D01*
X9040182Y-10165984D02*
X9059229Y-10175508D01*
X9059229Y-10175508D02*
X9068753Y-10185031D01*
X9068753Y-10185031D02*
X9078277Y-10204079D01*
X9078277Y-10204079D02*
X9087801Y-10242174D01*
X9087801Y-10242174D02*
X9087801Y-10289793D01*
X9087801Y-10289793D02*
X9078277Y-10327889D01*
X9078277Y-10327889D02*
X9068753Y-10346936D01*
X9068753Y-10346936D02*
X9059229Y-10356460D01*
X9059229Y-10356460D02*
X9040182Y-10365984D01*
X9040182Y-10365984D02*
X9021134Y-10365984D01*
X9021134Y-10365984D02*
X9002087Y-10356460D01*
X9002087Y-10356460D02*
X8992563Y-10346936D01*
X8992563Y-10346936D02*
X8983039Y-10327889D01*
X8983039Y-10327889D02*
X8973515Y-10289793D01*
X8973515Y-10289793D02*
X8973515Y-10242174D01*
X8973515Y-10242174D02*
X8983039Y-10204079D01*
X8983039Y-10204079D02*
X8992563Y-10185031D01*
X8992563Y-10185031D02*
X9002087Y-10175508D01*
X9002087Y-10175508D02*
X9021134Y-10165984D01*
X9173515Y-10346936D02*
X9183039Y-10356460D01*
X9183039Y-10356460D02*
X9173515Y-10365984D01*
X9173515Y-10365984D02*
X9163991Y-10356460D01*
X9163991Y-10356460D02*
X9173515Y-10346936D01*
X9173515Y-10346936D02*
X9173515Y-10365984D01*
X9306848Y-10165984D02*
X9325896Y-10165984D01*
X9325896Y-10165984D02*
X9344944Y-10175508D01*
X9344944Y-10175508D02*
X9354468Y-10185031D01*
X9354468Y-10185031D02*
X9363991Y-10204079D01*
X9363991Y-10204079D02*
X9373515Y-10242174D01*
X9373515Y-10242174D02*
X9373515Y-10289793D01*
X9373515Y-10289793D02*
X9363991Y-10327889D01*
X9363991Y-10327889D02*
X9354468Y-10346936D01*
X9354468Y-10346936D02*
X9344944Y-10356460D01*
X9344944Y-10356460D02*
X9325896Y-10365984D01*
X9325896Y-10365984D02*
X9306848Y-10365984D01*
X9306848Y-10365984D02*
X9287801Y-10356460D01*
X9287801Y-10356460D02*
X9278277Y-10346936D01*
X9278277Y-10346936D02*
X9268753Y-10327889D01*
X9268753Y-10327889D02*
X9259229Y-10289793D01*
X9259229Y-10289793D02*
X9259229Y-10242174D01*
X9259229Y-10242174D02*
X9268753Y-10204079D01*
X9268753Y-10204079D02*
X9278277Y-10185031D01*
X9278277Y-10185031D02*
X9287801Y-10175508D01*
X9287801Y-10175508D02*
X9306848Y-10165984D01*
X9440182Y-10165984D02*
X9563991Y-10165984D01*
X9563991Y-10165984D02*
X9497325Y-10242174D01*
X9497325Y-10242174D02*
X9525896Y-10242174D01*
X9525896Y-10242174D02*
X9544944Y-10251698D01*
X9544944Y-10251698D02*
X9554468Y-10261222D01*
X9554468Y-10261222D02*
X9563991Y-10280270D01*
X9563991Y-10280270D02*
X9563991Y-10327889D01*
X9563991Y-10327889D02*
X9554468Y-10346936D01*
X9554468Y-10346936D02*
X9544944Y-10356460D01*
X9544944Y-10356460D02*
X9525896Y-10365984D01*
X9525896Y-10365984D02*
X9468753Y-10365984D01*
X9468753Y-10365984D02*
X9449706Y-10356460D01*
X9449706Y-10356460D02*
X9440182Y-10346936D01*
X9659229Y-10365984D02*
X9697325Y-10365984D01*
X9697325Y-10365984D02*
X9716372Y-10356460D01*
X9716372Y-10356460D02*
X9725896Y-10346936D01*
X9725896Y-10346936D02*
X9744944Y-10318365D01*
X9744944Y-10318365D02*
X9754468Y-10280270D01*
X9754468Y-10280270D02*
X9754468Y-10204079D01*
X9754468Y-10204079D02*
X9744944Y-10185031D01*
X9744944Y-10185031D02*
X9735420Y-10175508D01*
X9735420Y-10175508D02*
X9716372Y-10165984D01*
X9716372Y-10165984D02*
X9678277Y-10165984D01*
X9678277Y-10165984D02*
X9659229Y-10175508D01*
X9659229Y-10175508D02*
X9649706Y-10185031D01*
X9649706Y-10185031D02*
X9640182Y-10204079D01*
X9640182Y-10204079D02*
X9640182Y-10251698D01*
X9640182Y-10251698D02*
X9649706Y-10270746D01*
X9649706Y-10270746D02*
X9659229Y-10280270D01*
X9659229Y-10280270D02*
X9678277Y-10289793D01*
X9678277Y-10289793D02*
X9716372Y-10289793D01*
X9716372Y-10289793D02*
X9735420Y-10280270D01*
X9735420Y-10280270D02*
X9744944Y-10270746D01*
X9744944Y-10270746D02*
X9754468Y-10251698D01*
X9925896Y-10232650D02*
X9925896Y-10365984D01*
X9878277Y-10156460D02*
X9830658Y-10299317D01*
X9830658Y-10299317D02*
X9954468Y-10299317D01*
X10021134Y-10165984D02*
X10021134Y-10204079D01*
X10097325Y-10165984D02*
X10097325Y-10204079D01*
X10392563Y-10442174D02*
X10383039Y-10432650D01*
X10383039Y-10432650D02*
X10363991Y-10404079D01*
X10363991Y-10404079D02*
X10354468Y-10385031D01*
X10354468Y-10385031D02*
X10344944Y-10356460D01*
X10344944Y-10356460D02*
X10335420Y-10308841D01*
X10335420Y-10308841D02*
X10335420Y-10270746D01*
X10335420Y-10270746D02*
X10344944Y-10223127D01*
X10344944Y-10223127D02*
X10354468Y-10194555D01*
X10354468Y-10194555D02*
X10363991Y-10175508D01*
X10363991Y-10175508D02*
X10383039Y-10146936D01*
X10383039Y-10146936D02*
X10392563Y-10137412D01*
X10573515Y-10365984D02*
X10459230Y-10365984D01*
X10516372Y-10365984D02*
X10516372Y-10165984D01*
X10516372Y-10165984D02*
X10497325Y-10194555D01*
X10497325Y-10194555D02*
X10478277Y-10213603D01*
X10478277Y-10213603D02*
X10459230Y-10223127D01*
X10697325Y-10165984D02*
X10716372Y-10165984D01*
X10716372Y-10165984D02*
X10735420Y-10175508D01*
X10735420Y-10175508D02*
X10744944Y-10185031D01*
X10744944Y-10185031D02*
X10754468Y-10204079D01*
X10754468Y-10204079D02*
X10763991Y-10242174D01*
X10763991Y-10242174D02*
X10763991Y-10289793D01*
X10763991Y-10289793D02*
X10754468Y-10327889D01*
X10754468Y-10327889D02*
X10744944Y-10346936D01*
X10744944Y-10346936D02*
X10735420Y-10356460D01*
X10735420Y-10356460D02*
X10716372Y-10365984D01*
X10716372Y-10365984D02*
X10697325Y-10365984D01*
X10697325Y-10365984D02*
X10678277Y-10356460D01*
X10678277Y-10356460D02*
X10668753Y-10346936D01*
X10668753Y-10346936D02*
X10659230Y-10327889D01*
X10659230Y-10327889D02*
X10649706Y-10289793D01*
X10649706Y-10289793D02*
X10649706Y-10242174D01*
X10649706Y-10242174D02*
X10659230Y-10204079D01*
X10659230Y-10204079D02*
X10668753Y-10185031D01*
X10668753Y-10185031D02*
X10678277Y-10175508D01*
X10678277Y-10175508D02*
X10697325Y-10165984D01*
X11002087Y-10365984D02*
X11002087Y-10165984D01*
X11087801Y-10365984D02*
X11087801Y-10261222D01*
X11087801Y-10261222D02*
X11078277Y-10242174D01*
X11078277Y-10242174D02*
X11059230Y-10232650D01*
X11059230Y-10232650D02*
X11030658Y-10232650D01*
X11030658Y-10232650D02*
X11011611Y-10242174D01*
X11011611Y-10242174D02*
X11002087Y-10251698D01*
X11211610Y-10365984D02*
X11192563Y-10356460D01*
X11192563Y-10356460D02*
X11183039Y-10346936D01*
X11183039Y-10346936D02*
X11173515Y-10327889D01*
X11173515Y-10327889D02*
X11173515Y-10270746D01*
X11173515Y-10270746D02*
X11183039Y-10251698D01*
X11183039Y-10251698D02*
X11192563Y-10242174D01*
X11192563Y-10242174D02*
X11211610Y-10232650D01*
X11211610Y-10232650D02*
X11240182Y-10232650D01*
X11240182Y-10232650D02*
X11259230Y-10242174D01*
X11259230Y-10242174D02*
X11268753Y-10251698D01*
X11268753Y-10251698D02*
X11278277Y-10270746D01*
X11278277Y-10270746D02*
X11278277Y-10327889D01*
X11278277Y-10327889D02*
X11268753Y-10346936D01*
X11268753Y-10346936D02*
X11259230Y-10356460D01*
X11259230Y-10356460D02*
X11240182Y-10365984D01*
X11240182Y-10365984D02*
X11211610Y-10365984D01*
X11392563Y-10365984D02*
X11373515Y-10356460D01*
X11373515Y-10356460D02*
X11363991Y-10337412D01*
X11363991Y-10337412D02*
X11363991Y-10165984D01*
X11544944Y-10356460D02*
X11525896Y-10365984D01*
X11525896Y-10365984D02*
X11487801Y-10365984D01*
X11487801Y-10365984D02*
X11468753Y-10356460D01*
X11468753Y-10356460D02*
X11459230Y-10337412D01*
X11459230Y-10337412D02*
X11459230Y-10261222D01*
X11459230Y-10261222D02*
X11468753Y-10242174D01*
X11468753Y-10242174D02*
X11487801Y-10232650D01*
X11487801Y-10232650D02*
X11525896Y-10232650D01*
X11525896Y-10232650D02*
X11544944Y-10242174D01*
X11544944Y-10242174D02*
X11554468Y-10261222D01*
X11554468Y-10261222D02*
X11554468Y-10280270D01*
X11554468Y-10280270D02*
X11459230Y-10299317D01*
X11630658Y-10356460D02*
X11649706Y-10365984D01*
X11649706Y-10365984D02*
X11687801Y-10365984D01*
X11687801Y-10365984D02*
X11706849Y-10356460D01*
X11706849Y-10356460D02*
X11716372Y-10337412D01*
X11716372Y-10337412D02*
X11716372Y-10327889D01*
X11716372Y-10327889D02*
X11706849Y-10308841D01*
X11706849Y-10308841D02*
X11687801Y-10299317D01*
X11687801Y-10299317D02*
X11659230Y-10299317D01*
X11659230Y-10299317D02*
X11640182Y-10289793D01*
X11640182Y-10289793D02*
X11630658Y-10270746D01*
X11630658Y-10270746D02*
X11630658Y-10261222D01*
X11630658Y-10261222D02*
X11640182Y-10242174D01*
X11640182Y-10242174D02*
X11659230Y-10232650D01*
X11659230Y-10232650D02*
X11687801Y-10232650D01*
X11687801Y-10232650D02*
X11706849Y-10242174D01*
X11783039Y-10442174D02*
X11792563Y-10432650D01*
X11792563Y-10432650D02*
X11811611Y-10404079D01*
X11811611Y-10404079D02*
X11821134Y-10385031D01*
X11821134Y-10385031D02*
X11830658Y-10356460D01*
X11830658Y-10356460D02*
X11840182Y-10308841D01*
X11840182Y-10308841D02*
X11840182Y-10270746D01*
X11840182Y-10270746D02*
X11830658Y-10223127D01*
X11830658Y-10223127D02*
X11821134Y-10194555D01*
X11821134Y-10194555D02*
X11811611Y-10175508D01*
X11811611Y-10175508D02*
X11792563Y-10146936D01*
X11792563Y-10146936D02*
X11783039Y-10137412D01*
D13*
X6765500Y-10590500D02*
X6817500Y-10538500D01*
X6765500Y-10486500D01*
X6713500Y-10538500D01*
X6765500Y-10590500D01*
D11*
X7183039Y-10629984D02*
X7068753Y-10629984D01*
X7125896Y-10629984D02*
X7125896Y-10429984D01*
X7125896Y-10429984D02*
X7106848Y-10458555D01*
X7106848Y-10458555D02*
X7087801Y-10477603D01*
X7087801Y-10477603D02*
X7068753Y-10487127D01*
X7268753Y-10610936D02*
X7278277Y-10620460D01*
X7278277Y-10620460D02*
X7268753Y-10629984D01*
X7268753Y-10629984D02*
X7259229Y-10620460D01*
X7259229Y-10620460D02*
X7268753Y-10610936D01*
X7268753Y-10610936D02*
X7268753Y-10629984D01*
X7402086Y-10429984D02*
X7421134Y-10429984D01*
X7421134Y-10429984D02*
X7440182Y-10439508D01*
X7440182Y-10439508D02*
X7449705Y-10449031D01*
X7449705Y-10449031D02*
X7459229Y-10468079D01*
X7459229Y-10468079D02*
X7468753Y-10506174D01*
X7468753Y-10506174D02*
X7468753Y-10553793D01*
X7468753Y-10553793D02*
X7459229Y-10591889D01*
X7459229Y-10591889D02*
X7449705Y-10610936D01*
X7449705Y-10610936D02*
X7440182Y-10620460D01*
X7440182Y-10620460D02*
X7421134Y-10629984D01*
X7421134Y-10629984D02*
X7402086Y-10629984D01*
X7402086Y-10629984D02*
X7383039Y-10620460D01*
X7383039Y-10620460D02*
X7373515Y-10610936D01*
X7373515Y-10610936D02*
X7363991Y-10591889D01*
X7363991Y-10591889D02*
X7354467Y-10553793D01*
X7354467Y-10553793D02*
X7354467Y-10506174D01*
X7354467Y-10506174D02*
X7363991Y-10468079D01*
X7363991Y-10468079D02*
X7373515Y-10449031D01*
X7373515Y-10449031D02*
X7383039Y-10439508D01*
X7383039Y-10439508D02*
X7402086Y-10429984D01*
X7640182Y-10496650D02*
X7640182Y-10629984D01*
X7592562Y-10420460D02*
X7544943Y-10563317D01*
X7544943Y-10563317D02*
X7668753Y-10563317D01*
X7783039Y-10429984D02*
X7802086Y-10429984D01*
X7802086Y-10429984D02*
X7821134Y-10439508D01*
X7821134Y-10439508D02*
X7830658Y-10449031D01*
X7830658Y-10449031D02*
X7840182Y-10468079D01*
X7840182Y-10468079D02*
X7849705Y-10506174D01*
X7849705Y-10506174D02*
X7849705Y-10553793D01*
X7849705Y-10553793D02*
X7840182Y-10591889D01*
X7840182Y-10591889D02*
X7830658Y-10610936D01*
X7830658Y-10610936D02*
X7821134Y-10620460D01*
X7821134Y-10620460D02*
X7802086Y-10629984D01*
X7802086Y-10629984D02*
X7783039Y-10629984D01*
X7783039Y-10629984D02*
X7763991Y-10620460D01*
X7763991Y-10620460D02*
X7754467Y-10610936D01*
X7754467Y-10610936D02*
X7744943Y-10591889D01*
X7744943Y-10591889D02*
X7735420Y-10553793D01*
X7735420Y-10553793D02*
X7735420Y-10506174D01*
X7735420Y-10506174D02*
X7744943Y-10468079D01*
X7744943Y-10468079D02*
X7754467Y-10449031D01*
X7754467Y-10449031D02*
X7763991Y-10439508D01*
X7763991Y-10439508D02*
X7783039Y-10429984D01*
X7935420Y-10629984D02*
X7935420Y-10496650D01*
X7935420Y-10515698D02*
X7944943Y-10506174D01*
X7944943Y-10506174D02*
X7963991Y-10496650D01*
X7963991Y-10496650D02*
X7992563Y-10496650D01*
X7992563Y-10496650D02*
X8011610Y-10506174D01*
X8011610Y-10506174D02*
X8021134Y-10525222D01*
X8021134Y-10525222D02*
X8021134Y-10629984D01*
X8021134Y-10525222D02*
X8030658Y-10506174D01*
X8030658Y-10506174D02*
X8049705Y-10496650D01*
X8049705Y-10496650D02*
X8078277Y-10496650D01*
X8078277Y-10496650D02*
X8097324Y-10506174D01*
X8097324Y-10506174D02*
X8106848Y-10525222D01*
X8106848Y-10525222D02*
X8106848Y-10629984D01*
X8202086Y-10629984D02*
X8202086Y-10496650D01*
X8202086Y-10515698D02*
X8211610Y-10506174D01*
X8211610Y-10506174D02*
X8230658Y-10496650D01*
X8230658Y-10496650D02*
X8259229Y-10496650D01*
X8259229Y-10496650D02*
X8278277Y-10506174D01*
X8278277Y-10506174D02*
X8287801Y-10525222D01*
X8287801Y-10525222D02*
X8287801Y-10629984D01*
X8287801Y-10525222D02*
X8297324Y-10506174D01*
X8297324Y-10506174D02*
X8316372Y-10496650D01*
X8316372Y-10496650D02*
X8344943Y-10496650D01*
X8344943Y-10496650D02*
X8363991Y-10506174D01*
X8363991Y-10506174D02*
X8373515Y-10525222D01*
X8373515Y-10525222D02*
X8373515Y-10629984D01*
X8763991Y-10420460D02*
X8592563Y-10677603D01*
X9021134Y-10429984D02*
X9040182Y-10429984D01*
X9040182Y-10429984D02*
X9059229Y-10439508D01*
X9059229Y-10439508D02*
X9068753Y-10449031D01*
X9068753Y-10449031D02*
X9078277Y-10468079D01*
X9078277Y-10468079D02*
X9087801Y-10506174D01*
X9087801Y-10506174D02*
X9087801Y-10553793D01*
X9087801Y-10553793D02*
X9078277Y-10591889D01*
X9078277Y-10591889D02*
X9068753Y-10610936D01*
X9068753Y-10610936D02*
X9059229Y-10620460D01*
X9059229Y-10620460D02*
X9040182Y-10629984D01*
X9040182Y-10629984D02*
X9021134Y-10629984D01*
X9021134Y-10629984D02*
X9002087Y-10620460D01*
X9002087Y-10620460D02*
X8992563Y-10610936D01*
X8992563Y-10610936D02*
X8983039Y-10591889D01*
X8983039Y-10591889D02*
X8973515Y-10553793D01*
X8973515Y-10553793D02*
X8973515Y-10506174D01*
X8973515Y-10506174D02*
X8983039Y-10468079D01*
X8983039Y-10468079D02*
X8992563Y-10449031D01*
X8992563Y-10449031D02*
X9002087Y-10439508D01*
X9002087Y-10439508D02*
X9021134Y-10429984D01*
X9173515Y-10610936D02*
X9183039Y-10620460D01*
X9183039Y-10620460D02*
X9173515Y-10629984D01*
X9173515Y-10629984D02*
X9163991Y-10620460D01*
X9163991Y-10620460D02*
X9173515Y-10610936D01*
X9173515Y-10610936D02*
X9173515Y-10629984D01*
X9306848Y-10429984D02*
X9325896Y-10429984D01*
X9325896Y-10429984D02*
X9344944Y-10439508D01*
X9344944Y-10439508D02*
X9354468Y-10449031D01*
X9354468Y-10449031D02*
X9363991Y-10468079D01*
X9363991Y-10468079D02*
X9373515Y-10506174D01*
X9373515Y-10506174D02*
X9373515Y-10553793D01*
X9373515Y-10553793D02*
X9363991Y-10591889D01*
X9363991Y-10591889D02*
X9354468Y-10610936D01*
X9354468Y-10610936D02*
X9344944Y-10620460D01*
X9344944Y-10620460D02*
X9325896Y-10629984D01*
X9325896Y-10629984D02*
X9306848Y-10629984D01*
X9306848Y-10629984D02*
X9287801Y-10620460D01*
X9287801Y-10620460D02*
X9278277Y-10610936D01*
X9278277Y-10610936D02*
X9268753Y-10591889D01*
X9268753Y-10591889D02*
X9259229Y-10553793D01*
X9259229Y-10553793D02*
X9259229Y-10506174D01*
X9259229Y-10506174D02*
X9268753Y-10468079D01*
X9268753Y-10468079D02*
X9278277Y-10449031D01*
X9278277Y-10449031D02*
X9287801Y-10439508D01*
X9287801Y-10439508D02*
X9306848Y-10429984D01*
X9544944Y-10496650D02*
X9544944Y-10629984D01*
X9497325Y-10420460D02*
X9449706Y-10563317D01*
X9449706Y-10563317D02*
X9573515Y-10563317D01*
X9687801Y-10429984D02*
X9706849Y-10429984D01*
X9706849Y-10429984D02*
X9725896Y-10439508D01*
X9725896Y-10439508D02*
X9735420Y-10449031D01*
X9735420Y-10449031D02*
X9744944Y-10468079D01*
X9744944Y-10468079D02*
X9754468Y-10506174D01*
X9754468Y-10506174D02*
X9754468Y-10553793D01*
X9754468Y-10553793D02*
X9744944Y-10591889D01*
X9744944Y-10591889D02*
X9735420Y-10610936D01*
X9735420Y-10610936D02*
X9725896Y-10620460D01*
X9725896Y-10620460D02*
X9706849Y-10629984D01*
X9706849Y-10629984D02*
X9687801Y-10629984D01*
X9687801Y-10629984D02*
X9668753Y-10620460D01*
X9668753Y-10620460D02*
X9659229Y-10610936D01*
X9659229Y-10610936D02*
X9649706Y-10591889D01*
X9649706Y-10591889D02*
X9640182Y-10553793D01*
X9640182Y-10553793D02*
X9640182Y-10506174D01*
X9640182Y-10506174D02*
X9649706Y-10468079D01*
X9649706Y-10468079D02*
X9659229Y-10449031D01*
X9659229Y-10449031D02*
X9668753Y-10439508D01*
X9668753Y-10439508D02*
X9687801Y-10429984D01*
X9849706Y-10629984D02*
X9887801Y-10629984D01*
X9887801Y-10629984D02*
X9906849Y-10620460D01*
X9906849Y-10620460D02*
X9916372Y-10610936D01*
X9916372Y-10610936D02*
X9935420Y-10582365D01*
X9935420Y-10582365D02*
X9944944Y-10544270D01*
X9944944Y-10544270D02*
X9944944Y-10468079D01*
X9944944Y-10468079D02*
X9935420Y-10449031D01*
X9935420Y-10449031D02*
X9925896Y-10439508D01*
X9925896Y-10439508D02*
X9906849Y-10429984D01*
X9906849Y-10429984D02*
X9868753Y-10429984D01*
X9868753Y-10429984D02*
X9849706Y-10439508D01*
X9849706Y-10439508D02*
X9840182Y-10449031D01*
X9840182Y-10449031D02*
X9830658Y-10468079D01*
X9830658Y-10468079D02*
X9830658Y-10515698D01*
X9830658Y-10515698D02*
X9840182Y-10534746D01*
X9840182Y-10534746D02*
X9849706Y-10544270D01*
X9849706Y-10544270D02*
X9868753Y-10553793D01*
X9868753Y-10553793D02*
X9906849Y-10553793D01*
X9906849Y-10553793D02*
X9925896Y-10544270D01*
X9925896Y-10544270D02*
X9935420Y-10534746D01*
X9935420Y-10534746D02*
X9944944Y-10515698D01*
X10021134Y-10429984D02*
X10021134Y-10468079D01*
X10097325Y-10429984D02*
X10097325Y-10468079D01*
X10392563Y-10706174D02*
X10383039Y-10696650D01*
X10383039Y-10696650D02*
X10363991Y-10668079D01*
X10363991Y-10668079D02*
X10354468Y-10649031D01*
X10354468Y-10649031D02*
X10344944Y-10620460D01*
X10344944Y-10620460D02*
X10335420Y-10572841D01*
X10335420Y-10572841D02*
X10335420Y-10534746D01*
X10335420Y-10534746D02*
X10344944Y-10487127D01*
X10344944Y-10487127D02*
X10354468Y-10458555D01*
X10354468Y-10458555D02*
X10363991Y-10439508D01*
X10363991Y-10439508D02*
X10383039Y-10410936D01*
X10383039Y-10410936D02*
X10392563Y-10401412D01*
X10449706Y-10429984D02*
X10573515Y-10429984D01*
X10573515Y-10429984D02*
X10506849Y-10506174D01*
X10506849Y-10506174D02*
X10535420Y-10506174D01*
X10535420Y-10506174D02*
X10554468Y-10515698D01*
X10554468Y-10515698D02*
X10563991Y-10525222D01*
X10563991Y-10525222D02*
X10573515Y-10544270D01*
X10573515Y-10544270D02*
X10573515Y-10591889D01*
X10573515Y-10591889D02*
X10563991Y-10610936D01*
X10563991Y-10610936D02*
X10554468Y-10620460D01*
X10554468Y-10620460D02*
X10535420Y-10629984D01*
X10535420Y-10629984D02*
X10478277Y-10629984D01*
X10478277Y-10629984D02*
X10459230Y-10620460D01*
X10459230Y-10620460D02*
X10449706Y-10610936D01*
X10687801Y-10515698D02*
X10668753Y-10506174D01*
X10668753Y-10506174D02*
X10659230Y-10496650D01*
X10659230Y-10496650D02*
X10649706Y-10477603D01*
X10649706Y-10477603D02*
X10649706Y-10468079D01*
X10649706Y-10468079D02*
X10659230Y-10449031D01*
X10659230Y-10449031D02*
X10668753Y-10439508D01*
X10668753Y-10439508D02*
X10687801Y-10429984D01*
X10687801Y-10429984D02*
X10725896Y-10429984D01*
X10725896Y-10429984D02*
X10744944Y-10439508D01*
X10744944Y-10439508D02*
X10754468Y-10449031D01*
X10754468Y-10449031D02*
X10763991Y-10468079D01*
X10763991Y-10468079D02*
X10763991Y-10477603D01*
X10763991Y-10477603D02*
X10754468Y-10496650D01*
X10754468Y-10496650D02*
X10744944Y-10506174D01*
X10744944Y-10506174D02*
X10725896Y-10515698D01*
X10725896Y-10515698D02*
X10687801Y-10515698D01*
X10687801Y-10515698D02*
X10668753Y-10525222D01*
X10668753Y-10525222D02*
X10659230Y-10534746D01*
X10659230Y-10534746D02*
X10649706Y-10553793D01*
X10649706Y-10553793D02*
X10649706Y-10591889D01*
X10649706Y-10591889D02*
X10659230Y-10610936D01*
X10659230Y-10610936D02*
X10668753Y-10620460D01*
X10668753Y-10620460D02*
X10687801Y-10629984D01*
X10687801Y-10629984D02*
X10725896Y-10629984D01*
X10725896Y-10629984D02*
X10744944Y-10620460D01*
X10744944Y-10620460D02*
X10754468Y-10610936D01*
X10754468Y-10610936D02*
X10763991Y-10591889D01*
X10763991Y-10591889D02*
X10763991Y-10553793D01*
X10763991Y-10553793D02*
X10754468Y-10534746D01*
X10754468Y-10534746D02*
X10744944Y-10525222D01*
X10744944Y-10525222D02*
X10725896Y-10515698D01*
X11002087Y-10629984D02*
X11002087Y-10429984D01*
X11087801Y-10629984D02*
X11087801Y-10525222D01*
X11087801Y-10525222D02*
X11078277Y-10506174D01*
X11078277Y-10506174D02*
X11059230Y-10496650D01*
X11059230Y-10496650D02*
X11030658Y-10496650D01*
X11030658Y-10496650D02*
X11011611Y-10506174D01*
X11011611Y-10506174D02*
X11002087Y-10515698D01*
X11211610Y-10629984D02*
X11192563Y-10620460D01*
X11192563Y-10620460D02*
X11183039Y-10610936D01*
X11183039Y-10610936D02*
X11173515Y-10591889D01*
X11173515Y-10591889D02*
X11173515Y-10534746D01*
X11173515Y-10534746D02*
X11183039Y-10515698D01*
X11183039Y-10515698D02*
X11192563Y-10506174D01*
X11192563Y-10506174D02*
X11211610Y-10496650D01*
X11211610Y-10496650D02*
X11240182Y-10496650D01*
X11240182Y-10496650D02*
X11259230Y-10506174D01*
X11259230Y-10506174D02*
X11268753Y-10515698D01*
X11268753Y-10515698D02*
X11278277Y-10534746D01*
X11278277Y-10534746D02*
X11278277Y-10591889D01*
X11278277Y-10591889D02*
X11268753Y-10610936D01*
X11268753Y-10610936D02*
X11259230Y-10620460D01*
X11259230Y-10620460D02*
X11240182Y-10629984D01*
X11240182Y-10629984D02*
X11211610Y-10629984D01*
X11392563Y-10629984D02*
X11373515Y-10620460D01*
X11373515Y-10620460D02*
X11363991Y-10601412D01*
X11363991Y-10601412D02*
X11363991Y-10429984D01*
X11544944Y-10620460D02*
X11525896Y-10629984D01*
X11525896Y-10629984D02*
X11487801Y-10629984D01*
X11487801Y-10629984D02*
X11468753Y-10620460D01*
X11468753Y-10620460D02*
X11459230Y-10601412D01*
X11459230Y-10601412D02*
X11459230Y-10525222D01*
X11459230Y-10525222D02*
X11468753Y-10506174D01*
X11468753Y-10506174D02*
X11487801Y-10496650D01*
X11487801Y-10496650D02*
X11525896Y-10496650D01*
X11525896Y-10496650D02*
X11544944Y-10506174D01*
X11544944Y-10506174D02*
X11554468Y-10525222D01*
X11554468Y-10525222D02*
X11554468Y-10544270D01*
X11554468Y-10544270D02*
X11459230Y-10563317D01*
X11630658Y-10620460D02*
X11649706Y-10629984D01*
X11649706Y-10629984D02*
X11687801Y-10629984D01*
X11687801Y-10629984D02*
X11706849Y-10620460D01*
X11706849Y-10620460D02*
X11716372Y-10601412D01*
X11716372Y-10601412D02*
X11716372Y-10591889D01*
X11716372Y-10591889D02*
X11706849Y-10572841D01*
X11706849Y-10572841D02*
X11687801Y-10563317D01*
X11687801Y-10563317D02*
X11659230Y-10563317D01*
X11659230Y-10563317D02*
X11640182Y-10553793D01*
X11640182Y-10553793D02*
X11630658Y-10534746D01*
X11630658Y-10534746D02*
X11630658Y-10525222D01*
X11630658Y-10525222D02*
X11640182Y-10506174D01*
X11640182Y-10506174D02*
X11659230Y-10496650D01*
X11659230Y-10496650D02*
X11687801Y-10496650D01*
X11687801Y-10496650D02*
X11706849Y-10506174D01*
X11783039Y-10706174D02*
X11792563Y-10696650D01*
X11792563Y-10696650D02*
X11811611Y-10668079D01*
X11811611Y-10668079D02*
X11821134Y-10649031D01*
X11821134Y-10649031D02*
X11830658Y-10620460D01*
X11830658Y-10620460D02*
X11840182Y-10572841D01*
X11840182Y-10572841D02*
X11840182Y-10534746D01*
X11840182Y-10534746D02*
X11830658Y-10487127D01*
X11830658Y-10487127D02*
X11821134Y-10458555D01*
X11821134Y-10458555D02*
X11811611Y-10439508D01*
X11811611Y-10439508D02*
X11792563Y-10410936D01*
X11792563Y-10410936D02*
X11783039Y-10401412D01*
D14*
X6707500Y-10747500D02*
X6817500Y-10857500D01*
X6817500Y-10747500D02*
X6707500Y-10857500D01*
X6817500Y-10802500D02*
G75*
G02*
X6707500Y-10802500I-55000J0D01*
G01*
X6707500Y-10802500D02*
G75*
G02*
X6817500Y-10802500I55000J0D01*
G01*
D11*
X7183039Y-10893984D02*
X7068753Y-10893984D01*
X7125896Y-10893984D02*
X7125896Y-10693984D01*
X7125896Y-10693984D02*
X7106848Y-10722555D01*
X7106848Y-10722555D02*
X7087801Y-10741603D01*
X7087801Y-10741603D02*
X7068753Y-10751127D01*
X7268753Y-10874936D02*
X7278277Y-10884460D01*
X7278277Y-10884460D02*
X7268753Y-10893984D01*
X7268753Y-10893984D02*
X7259229Y-10884460D01*
X7259229Y-10884460D02*
X7268753Y-10874936D01*
X7268753Y-10874936D02*
X7268753Y-10893984D01*
X7468753Y-10893984D02*
X7354467Y-10893984D01*
X7411610Y-10893984D02*
X7411610Y-10693984D01*
X7411610Y-10693984D02*
X7392562Y-10722555D01*
X7392562Y-10722555D02*
X7373515Y-10741603D01*
X7373515Y-10741603D02*
X7354467Y-10751127D01*
X7592562Y-10693984D02*
X7611610Y-10693984D01*
X7611610Y-10693984D02*
X7630658Y-10703508D01*
X7630658Y-10703508D02*
X7640182Y-10713031D01*
X7640182Y-10713031D02*
X7649705Y-10732079D01*
X7649705Y-10732079D02*
X7659229Y-10770174D01*
X7659229Y-10770174D02*
X7659229Y-10817793D01*
X7659229Y-10817793D02*
X7649705Y-10855889D01*
X7649705Y-10855889D02*
X7640182Y-10874936D01*
X7640182Y-10874936D02*
X7630658Y-10884460D01*
X7630658Y-10884460D02*
X7611610Y-10893984D01*
X7611610Y-10893984D02*
X7592562Y-10893984D01*
X7592562Y-10893984D02*
X7573515Y-10884460D01*
X7573515Y-10884460D02*
X7563991Y-10874936D01*
X7563991Y-10874936D02*
X7554467Y-10855889D01*
X7554467Y-10855889D02*
X7544943Y-10817793D01*
X7544943Y-10817793D02*
X7544943Y-10770174D01*
X7544943Y-10770174D02*
X7554467Y-10732079D01*
X7554467Y-10732079D02*
X7563991Y-10713031D01*
X7563991Y-10713031D02*
X7573515Y-10703508D01*
X7573515Y-10703508D02*
X7592562Y-10693984D01*
X7783039Y-10693984D02*
X7802086Y-10693984D01*
X7802086Y-10693984D02*
X7821134Y-10703508D01*
X7821134Y-10703508D02*
X7830658Y-10713031D01*
X7830658Y-10713031D02*
X7840182Y-10732079D01*
X7840182Y-10732079D02*
X7849705Y-10770174D01*
X7849705Y-10770174D02*
X7849705Y-10817793D01*
X7849705Y-10817793D02*
X7840182Y-10855889D01*
X7840182Y-10855889D02*
X7830658Y-10874936D01*
X7830658Y-10874936D02*
X7821134Y-10884460D01*
X7821134Y-10884460D02*
X7802086Y-10893984D01*
X7802086Y-10893984D02*
X7783039Y-10893984D01*
X7783039Y-10893984D02*
X7763991Y-10884460D01*
X7763991Y-10884460D02*
X7754467Y-10874936D01*
X7754467Y-10874936D02*
X7744943Y-10855889D01*
X7744943Y-10855889D02*
X7735420Y-10817793D01*
X7735420Y-10817793D02*
X7735420Y-10770174D01*
X7735420Y-10770174D02*
X7744943Y-10732079D01*
X7744943Y-10732079D02*
X7754467Y-10713031D01*
X7754467Y-10713031D02*
X7763991Y-10703508D01*
X7763991Y-10703508D02*
X7783039Y-10693984D01*
X7935420Y-10893984D02*
X7935420Y-10760650D01*
X7935420Y-10779698D02*
X7944943Y-10770174D01*
X7944943Y-10770174D02*
X7963991Y-10760650D01*
X7963991Y-10760650D02*
X7992563Y-10760650D01*
X7992563Y-10760650D02*
X8011610Y-10770174D01*
X8011610Y-10770174D02*
X8021134Y-10789222D01*
X8021134Y-10789222D02*
X8021134Y-10893984D01*
X8021134Y-10789222D02*
X8030658Y-10770174D01*
X8030658Y-10770174D02*
X8049705Y-10760650D01*
X8049705Y-10760650D02*
X8078277Y-10760650D01*
X8078277Y-10760650D02*
X8097324Y-10770174D01*
X8097324Y-10770174D02*
X8106848Y-10789222D01*
X8106848Y-10789222D02*
X8106848Y-10893984D01*
X8202086Y-10893984D02*
X8202086Y-10760650D01*
X8202086Y-10779698D02*
X8211610Y-10770174D01*
X8211610Y-10770174D02*
X8230658Y-10760650D01*
X8230658Y-10760650D02*
X8259229Y-10760650D01*
X8259229Y-10760650D02*
X8278277Y-10770174D01*
X8278277Y-10770174D02*
X8287801Y-10789222D01*
X8287801Y-10789222D02*
X8287801Y-10893984D01*
X8287801Y-10789222D02*
X8297324Y-10770174D01*
X8297324Y-10770174D02*
X8316372Y-10760650D01*
X8316372Y-10760650D02*
X8344943Y-10760650D01*
X8344943Y-10760650D02*
X8363991Y-10770174D01*
X8363991Y-10770174D02*
X8373515Y-10789222D01*
X8373515Y-10789222D02*
X8373515Y-10893984D01*
X8763991Y-10684460D02*
X8592563Y-10941603D01*
X9021134Y-10693984D02*
X9040182Y-10693984D01*
X9040182Y-10693984D02*
X9059229Y-10703508D01*
X9059229Y-10703508D02*
X9068753Y-10713031D01*
X9068753Y-10713031D02*
X9078277Y-10732079D01*
X9078277Y-10732079D02*
X9087801Y-10770174D01*
X9087801Y-10770174D02*
X9087801Y-10817793D01*
X9087801Y-10817793D02*
X9078277Y-10855889D01*
X9078277Y-10855889D02*
X9068753Y-10874936D01*
X9068753Y-10874936D02*
X9059229Y-10884460D01*
X9059229Y-10884460D02*
X9040182Y-10893984D01*
X9040182Y-10893984D02*
X9021134Y-10893984D01*
X9021134Y-10893984D02*
X9002087Y-10884460D01*
X9002087Y-10884460D02*
X8992563Y-10874936D01*
X8992563Y-10874936D02*
X8983039Y-10855889D01*
X8983039Y-10855889D02*
X8973515Y-10817793D01*
X8973515Y-10817793D02*
X8973515Y-10770174D01*
X8973515Y-10770174D02*
X8983039Y-10732079D01*
X8983039Y-10732079D02*
X8992563Y-10713031D01*
X8992563Y-10713031D02*
X9002087Y-10703508D01*
X9002087Y-10703508D02*
X9021134Y-10693984D01*
X9173515Y-10874936D02*
X9183039Y-10884460D01*
X9183039Y-10884460D02*
X9173515Y-10893984D01*
X9173515Y-10893984D02*
X9163991Y-10884460D01*
X9163991Y-10884460D02*
X9173515Y-10874936D01*
X9173515Y-10874936D02*
X9173515Y-10893984D01*
X9306848Y-10693984D02*
X9325896Y-10693984D01*
X9325896Y-10693984D02*
X9344944Y-10703508D01*
X9344944Y-10703508D02*
X9354468Y-10713031D01*
X9354468Y-10713031D02*
X9363991Y-10732079D01*
X9363991Y-10732079D02*
X9373515Y-10770174D01*
X9373515Y-10770174D02*
X9373515Y-10817793D01*
X9373515Y-10817793D02*
X9363991Y-10855889D01*
X9363991Y-10855889D02*
X9354468Y-10874936D01*
X9354468Y-10874936D02*
X9344944Y-10884460D01*
X9344944Y-10884460D02*
X9325896Y-10893984D01*
X9325896Y-10893984D02*
X9306848Y-10893984D01*
X9306848Y-10893984D02*
X9287801Y-10884460D01*
X9287801Y-10884460D02*
X9278277Y-10874936D01*
X9278277Y-10874936D02*
X9268753Y-10855889D01*
X9268753Y-10855889D02*
X9259229Y-10817793D01*
X9259229Y-10817793D02*
X9259229Y-10770174D01*
X9259229Y-10770174D02*
X9268753Y-10732079D01*
X9268753Y-10732079D02*
X9278277Y-10713031D01*
X9278277Y-10713031D02*
X9287801Y-10703508D01*
X9287801Y-10703508D02*
X9306848Y-10693984D01*
X9544944Y-10760650D02*
X9544944Y-10893984D01*
X9497325Y-10684460D02*
X9449706Y-10827317D01*
X9449706Y-10827317D02*
X9573515Y-10827317D01*
X9630658Y-10693984D02*
X9754468Y-10693984D01*
X9754468Y-10693984D02*
X9687801Y-10770174D01*
X9687801Y-10770174D02*
X9716372Y-10770174D01*
X9716372Y-10770174D02*
X9735420Y-10779698D01*
X9735420Y-10779698D02*
X9744944Y-10789222D01*
X9744944Y-10789222D02*
X9754468Y-10808270D01*
X9754468Y-10808270D02*
X9754468Y-10855889D01*
X9754468Y-10855889D02*
X9744944Y-10874936D01*
X9744944Y-10874936D02*
X9735420Y-10884460D01*
X9735420Y-10884460D02*
X9716372Y-10893984D01*
X9716372Y-10893984D02*
X9659229Y-10893984D01*
X9659229Y-10893984D02*
X9640182Y-10884460D01*
X9640182Y-10884460D02*
X9630658Y-10874936D01*
X9821134Y-10693984D02*
X9944944Y-10693984D01*
X9944944Y-10693984D02*
X9878277Y-10770174D01*
X9878277Y-10770174D02*
X9906849Y-10770174D01*
X9906849Y-10770174D02*
X9925896Y-10779698D01*
X9925896Y-10779698D02*
X9935420Y-10789222D01*
X9935420Y-10789222D02*
X9944944Y-10808270D01*
X9944944Y-10808270D02*
X9944944Y-10855889D01*
X9944944Y-10855889D02*
X9935420Y-10874936D01*
X9935420Y-10874936D02*
X9925896Y-10884460D01*
X9925896Y-10884460D02*
X9906849Y-10893984D01*
X9906849Y-10893984D02*
X9849706Y-10893984D01*
X9849706Y-10893984D02*
X9830658Y-10884460D01*
X9830658Y-10884460D02*
X9821134Y-10874936D01*
X10021134Y-10693984D02*
X10021134Y-10732079D01*
X10097325Y-10693984D02*
X10097325Y-10732079D01*
X10392563Y-10970174D02*
X10383039Y-10960650D01*
X10383039Y-10960650D02*
X10363991Y-10932079D01*
X10363991Y-10932079D02*
X10354468Y-10913031D01*
X10354468Y-10913031D02*
X10344944Y-10884460D01*
X10344944Y-10884460D02*
X10335420Y-10836841D01*
X10335420Y-10836841D02*
X10335420Y-10798746D01*
X10335420Y-10798746D02*
X10344944Y-10751127D01*
X10344944Y-10751127D02*
X10354468Y-10722555D01*
X10354468Y-10722555D02*
X10363991Y-10703508D01*
X10363991Y-10703508D02*
X10383039Y-10674936D01*
X10383039Y-10674936D02*
X10392563Y-10665412D01*
X10449706Y-10693984D02*
X10573515Y-10693984D01*
X10573515Y-10693984D02*
X10506849Y-10770174D01*
X10506849Y-10770174D02*
X10535420Y-10770174D01*
X10535420Y-10770174D02*
X10554468Y-10779698D01*
X10554468Y-10779698D02*
X10563991Y-10789222D01*
X10563991Y-10789222D02*
X10573515Y-10808270D01*
X10573515Y-10808270D02*
X10573515Y-10855889D01*
X10573515Y-10855889D02*
X10563991Y-10874936D01*
X10563991Y-10874936D02*
X10554468Y-10884460D01*
X10554468Y-10884460D02*
X10535420Y-10893984D01*
X10535420Y-10893984D02*
X10478277Y-10893984D01*
X10478277Y-10893984D02*
X10459230Y-10884460D01*
X10459230Y-10884460D02*
X10449706Y-10874936D01*
X10811611Y-10893984D02*
X10811611Y-10693984D01*
X10897325Y-10893984D02*
X10897325Y-10789222D01*
X10897325Y-10789222D02*
X10887801Y-10770174D01*
X10887801Y-10770174D02*
X10868753Y-10760650D01*
X10868753Y-10760650D02*
X10840182Y-10760650D01*
X10840182Y-10760650D02*
X10821134Y-10770174D01*
X10821134Y-10770174D02*
X10811611Y-10779698D01*
X11021134Y-10893984D02*
X11002087Y-10884460D01*
X11002087Y-10884460D02*
X10992563Y-10874936D01*
X10992563Y-10874936D02*
X10983039Y-10855889D01*
X10983039Y-10855889D02*
X10983039Y-10798746D01*
X10983039Y-10798746D02*
X10992563Y-10779698D01*
X10992563Y-10779698D02*
X11002087Y-10770174D01*
X11002087Y-10770174D02*
X11021134Y-10760650D01*
X11021134Y-10760650D02*
X11049706Y-10760650D01*
X11049706Y-10760650D02*
X11068753Y-10770174D01*
X11068753Y-10770174D02*
X11078277Y-10779698D01*
X11078277Y-10779698D02*
X11087801Y-10798746D01*
X11087801Y-10798746D02*
X11087801Y-10855889D01*
X11087801Y-10855889D02*
X11078277Y-10874936D01*
X11078277Y-10874936D02*
X11068753Y-10884460D01*
X11068753Y-10884460D02*
X11049706Y-10893984D01*
X11049706Y-10893984D02*
X11021134Y-10893984D01*
X11202087Y-10893984D02*
X11183039Y-10884460D01*
X11183039Y-10884460D02*
X11173515Y-10865412D01*
X11173515Y-10865412D02*
X11173515Y-10693984D01*
X11354468Y-10884460D02*
X11335420Y-10893984D01*
X11335420Y-10893984D02*
X11297325Y-10893984D01*
X11297325Y-10893984D02*
X11278277Y-10884460D01*
X11278277Y-10884460D02*
X11268753Y-10865412D01*
X11268753Y-10865412D02*
X11268753Y-10789222D01*
X11268753Y-10789222D02*
X11278277Y-10770174D01*
X11278277Y-10770174D02*
X11297325Y-10760650D01*
X11297325Y-10760650D02*
X11335420Y-10760650D01*
X11335420Y-10760650D02*
X11354468Y-10770174D01*
X11354468Y-10770174D02*
X11363991Y-10789222D01*
X11363991Y-10789222D02*
X11363991Y-10808270D01*
X11363991Y-10808270D02*
X11268753Y-10827317D01*
X11440182Y-10884460D02*
X11459230Y-10893984D01*
X11459230Y-10893984D02*
X11497325Y-10893984D01*
X11497325Y-10893984D02*
X11516372Y-10884460D01*
X11516372Y-10884460D02*
X11525896Y-10865412D01*
X11525896Y-10865412D02*
X11525896Y-10855889D01*
X11525896Y-10855889D02*
X11516372Y-10836841D01*
X11516372Y-10836841D02*
X11497325Y-10827317D01*
X11497325Y-10827317D02*
X11468753Y-10827317D01*
X11468753Y-10827317D02*
X11449706Y-10817793D01*
X11449706Y-10817793D02*
X11440182Y-10798746D01*
X11440182Y-10798746D02*
X11440182Y-10789222D01*
X11440182Y-10789222D02*
X11449706Y-10770174D01*
X11449706Y-10770174D02*
X11468753Y-10760650D01*
X11468753Y-10760650D02*
X11497325Y-10760650D01*
X11497325Y-10760650D02*
X11516372Y-10770174D01*
X11592563Y-10970174D02*
X11602087Y-10960650D01*
X11602087Y-10960650D02*
X11621134Y-10932079D01*
X11621134Y-10932079D02*
X11630658Y-10913031D01*
X11630658Y-10913031D02*
X11640182Y-10884460D01*
X11640182Y-10884460D02*
X11649706Y-10836841D01*
X11649706Y-10836841D02*
X11649706Y-10798746D01*
X11649706Y-10798746D02*
X11640182Y-10751127D01*
X11640182Y-10751127D02*
X11630658Y-10722555D01*
X11630658Y-10722555D02*
X11621134Y-10703508D01*
X11621134Y-10703508D02*
X11602087Y-10674936D01*
X11602087Y-10674936D02*
X11592563Y-10665412D01*
D15*
X6677800Y-10996650D02*
X6817500Y-11136350D01*
X6817500Y-10996650D02*
X6677800Y-11136350D01*
X6747650Y-10996650D02*
X6747650Y-11136350D01*
X6677800Y-11066500D02*
X6817500Y-11066500D01*
D11*
X7183039Y-11157984D02*
X7068753Y-11157984D01*
X7125896Y-11157984D02*
X7125896Y-10957984D01*
X7125896Y-10957984D02*
X7106848Y-10986555D01*
X7106848Y-10986555D02*
X7087801Y-11005603D01*
X7087801Y-11005603D02*
X7068753Y-11015127D01*
X7268753Y-11138936D02*
X7278277Y-11148460D01*
X7278277Y-11148460D02*
X7268753Y-11157984D01*
X7268753Y-11157984D02*
X7259229Y-11148460D01*
X7259229Y-11148460D02*
X7268753Y-11138936D01*
X7268753Y-11138936D02*
X7268753Y-11157984D01*
X7344943Y-10957984D02*
X7468753Y-10957984D01*
X7468753Y-10957984D02*
X7402086Y-11034174D01*
X7402086Y-11034174D02*
X7430658Y-11034174D01*
X7430658Y-11034174D02*
X7449705Y-11043698D01*
X7449705Y-11043698D02*
X7459229Y-11053222D01*
X7459229Y-11053222D02*
X7468753Y-11072270D01*
X7468753Y-11072270D02*
X7468753Y-11119889D01*
X7468753Y-11119889D02*
X7459229Y-11138936D01*
X7459229Y-11138936D02*
X7449705Y-11148460D01*
X7449705Y-11148460D02*
X7430658Y-11157984D01*
X7430658Y-11157984D02*
X7373515Y-11157984D01*
X7373515Y-11157984D02*
X7354467Y-11148460D01*
X7354467Y-11148460D02*
X7344943Y-11138936D01*
X7563991Y-11157984D02*
X7602086Y-11157984D01*
X7602086Y-11157984D02*
X7621134Y-11148460D01*
X7621134Y-11148460D02*
X7630658Y-11138936D01*
X7630658Y-11138936D02*
X7649705Y-11110365D01*
X7649705Y-11110365D02*
X7659229Y-11072270D01*
X7659229Y-11072270D02*
X7659229Y-10996079D01*
X7659229Y-10996079D02*
X7649705Y-10977031D01*
X7649705Y-10977031D02*
X7640182Y-10967508D01*
X7640182Y-10967508D02*
X7621134Y-10957984D01*
X7621134Y-10957984D02*
X7583039Y-10957984D01*
X7583039Y-10957984D02*
X7563991Y-10967508D01*
X7563991Y-10967508D02*
X7554467Y-10977031D01*
X7554467Y-10977031D02*
X7544943Y-10996079D01*
X7544943Y-10996079D02*
X7544943Y-11043698D01*
X7544943Y-11043698D02*
X7554467Y-11062746D01*
X7554467Y-11062746D02*
X7563991Y-11072270D01*
X7563991Y-11072270D02*
X7583039Y-11081793D01*
X7583039Y-11081793D02*
X7621134Y-11081793D01*
X7621134Y-11081793D02*
X7640182Y-11072270D01*
X7640182Y-11072270D02*
X7649705Y-11062746D01*
X7649705Y-11062746D02*
X7659229Y-11043698D01*
X7725896Y-10957984D02*
X7859229Y-10957984D01*
X7859229Y-10957984D02*
X7773515Y-11157984D01*
X7935420Y-11157984D02*
X7935420Y-11024650D01*
X7935420Y-11043698D02*
X7944943Y-11034174D01*
X7944943Y-11034174D02*
X7963991Y-11024650D01*
X7963991Y-11024650D02*
X7992563Y-11024650D01*
X7992563Y-11024650D02*
X8011610Y-11034174D01*
X8011610Y-11034174D02*
X8021134Y-11053222D01*
X8021134Y-11053222D02*
X8021134Y-11157984D01*
X8021134Y-11053222D02*
X8030658Y-11034174D01*
X8030658Y-11034174D02*
X8049705Y-11024650D01*
X8049705Y-11024650D02*
X8078277Y-11024650D01*
X8078277Y-11024650D02*
X8097324Y-11034174D01*
X8097324Y-11034174D02*
X8106848Y-11053222D01*
X8106848Y-11053222D02*
X8106848Y-11157984D01*
X8202086Y-11157984D02*
X8202086Y-11024650D01*
X8202086Y-11043698D02*
X8211610Y-11034174D01*
X8211610Y-11034174D02*
X8230658Y-11024650D01*
X8230658Y-11024650D02*
X8259229Y-11024650D01*
X8259229Y-11024650D02*
X8278277Y-11034174D01*
X8278277Y-11034174D02*
X8287801Y-11053222D01*
X8287801Y-11053222D02*
X8287801Y-11157984D01*
X8287801Y-11053222D02*
X8297324Y-11034174D01*
X8297324Y-11034174D02*
X8316372Y-11024650D01*
X8316372Y-11024650D02*
X8344943Y-11024650D01*
X8344943Y-11024650D02*
X8363991Y-11034174D01*
X8363991Y-11034174D02*
X8373515Y-11053222D01*
X8373515Y-11053222D02*
X8373515Y-11157984D01*
X8763991Y-10948460D02*
X8592563Y-11205603D01*
X9021134Y-10957984D02*
X9040182Y-10957984D01*
X9040182Y-10957984D02*
X9059229Y-10967508D01*
X9059229Y-10967508D02*
X9068753Y-10977031D01*
X9068753Y-10977031D02*
X9078277Y-10996079D01*
X9078277Y-10996079D02*
X9087801Y-11034174D01*
X9087801Y-11034174D02*
X9087801Y-11081793D01*
X9087801Y-11081793D02*
X9078277Y-11119889D01*
X9078277Y-11119889D02*
X9068753Y-11138936D01*
X9068753Y-11138936D02*
X9059229Y-11148460D01*
X9059229Y-11148460D02*
X9040182Y-11157984D01*
X9040182Y-11157984D02*
X9021134Y-11157984D01*
X9021134Y-11157984D02*
X9002087Y-11148460D01*
X9002087Y-11148460D02*
X8992563Y-11138936D01*
X8992563Y-11138936D02*
X8983039Y-11119889D01*
X8983039Y-11119889D02*
X8973515Y-11081793D01*
X8973515Y-11081793D02*
X8973515Y-11034174D01*
X8973515Y-11034174D02*
X8983039Y-10996079D01*
X8983039Y-10996079D02*
X8992563Y-10977031D01*
X8992563Y-10977031D02*
X9002087Y-10967508D01*
X9002087Y-10967508D02*
X9021134Y-10957984D01*
X9173515Y-11138936D02*
X9183039Y-11148460D01*
X9183039Y-11148460D02*
X9173515Y-11157984D01*
X9173515Y-11157984D02*
X9163991Y-11148460D01*
X9163991Y-11148460D02*
X9173515Y-11138936D01*
X9173515Y-11138936D02*
X9173515Y-11157984D01*
X9306848Y-10957984D02*
X9325896Y-10957984D01*
X9325896Y-10957984D02*
X9344944Y-10967508D01*
X9344944Y-10967508D02*
X9354468Y-10977031D01*
X9354468Y-10977031D02*
X9363991Y-10996079D01*
X9363991Y-10996079D02*
X9373515Y-11034174D01*
X9373515Y-11034174D02*
X9373515Y-11081793D01*
X9373515Y-11081793D02*
X9363991Y-11119889D01*
X9363991Y-11119889D02*
X9354468Y-11138936D01*
X9354468Y-11138936D02*
X9344944Y-11148460D01*
X9344944Y-11148460D02*
X9325896Y-11157984D01*
X9325896Y-11157984D02*
X9306848Y-11157984D01*
X9306848Y-11157984D02*
X9287801Y-11148460D01*
X9287801Y-11148460D02*
X9278277Y-11138936D01*
X9278277Y-11138936D02*
X9268753Y-11119889D01*
X9268753Y-11119889D02*
X9259229Y-11081793D01*
X9259229Y-11081793D02*
X9259229Y-11034174D01*
X9259229Y-11034174D02*
X9268753Y-10996079D01*
X9268753Y-10996079D02*
X9278277Y-10977031D01*
X9278277Y-10977031D02*
X9287801Y-10967508D01*
X9287801Y-10967508D02*
X9306848Y-10957984D01*
X9554468Y-10957984D02*
X9459229Y-10957984D01*
X9459229Y-10957984D02*
X9449706Y-11053222D01*
X9449706Y-11053222D02*
X9459229Y-11043698D01*
X9459229Y-11043698D02*
X9478277Y-11034174D01*
X9478277Y-11034174D02*
X9525896Y-11034174D01*
X9525896Y-11034174D02*
X9544944Y-11043698D01*
X9544944Y-11043698D02*
X9554468Y-11053222D01*
X9554468Y-11053222D02*
X9563991Y-11072270D01*
X9563991Y-11072270D02*
X9563991Y-11119889D01*
X9563991Y-11119889D02*
X9554468Y-11138936D01*
X9554468Y-11138936D02*
X9544944Y-11148460D01*
X9544944Y-11148460D02*
X9525896Y-11157984D01*
X9525896Y-11157984D02*
X9478277Y-11157984D01*
X9478277Y-11157984D02*
X9459229Y-11148460D01*
X9459229Y-11148460D02*
X9449706Y-11138936D01*
X9744944Y-10957984D02*
X9649706Y-10957984D01*
X9649706Y-10957984D02*
X9640182Y-11053222D01*
X9640182Y-11053222D02*
X9649706Y-11043698D01*
X9649706Y-11043698D02*
X9668753Y-11034174D01*
X9668753Y-11034174D02*
X9716372Y-11034174D01*
X9716372Y-11034174D02*
X9735420Y-11043698D01*
X9735420Y-11043698D02*
X9744944Y-11053222D01*
X9744944Y-11053222D02*
X9754468Y-11072270D01*
X9754468Y-11072270D02*
X9754468Y-11119889D01*
X9754468Y-11119889D02*
X9744944Y-11138936D01*
X9744944Y-11138936D02*
X9735420Y-11148460D01*
X9735420Y-11148460D02*
X9716372Y-11157984D01*
X9716372Y-11157984D02*
X9668753Y-11157984D01*
X9668753Y-11157984D02*
X9649706Y-11148460D01*
X9649706Y-11148460D02*
X9640182Y-11138936D01*
X9878277Y-10957984D02*
X9897325Y-10957984D01*
X9897325Y-10957984D02*
X9916372Y-10967508D01*
X9916372Y-10967508D02*
X9925896Y-10977031D01*
X9925896Y-10977031D02*
X9935420Y-10996079D01*
X9935420Y-10996079D02*
X9944944Y-11034174D01*
X9944944Y-11034174D02*
X9944944Y-11081793D01*
X9944944Y-11081793D02*
X9935420Y-11119889D01*
X9935420Y-11119889D02*
X9925896Y-11138936D01*
X9925896Y-11138936D02*
X9916372Y-11148460D01*
X9916372Y-11148460D02*
X9897325Y-11157984D01*
X9897325Y-11157984D02*
X9878277Y-11157984D01*
X9878277Y-11157984D02*
X9859229Y-11148460D01*
X9859229Y-11148460D02*
X9849706Y-11138936D01*
X9849706Y-11138936D02*
X9840182Y-11119889D01*
X9840182Y-11119889D02*
X9830658Y-11081793D01*
X9830658Y-11081793D02*
X9830658Y-11034174D01*
X9830658Y-11034174D02*
X9840182Y-10996079D01*
X9840182Y-10996079D02*
X9849706Y-10977031D01*
X9849706Y-10977031D02*
X9859229Y-10967508D01*
X9859229Y-10967508D02*
X9878277Y-10957984D01*
X10021134Y-10957984D02*
X10021134Y-10996079D01*
X10097325Y-10957984D02*
X10097325Y-10996079D01*
X10392563Y-11234174D02*
X10383039Y-11224650D01*
X10383039Y-11224650D02*
X10363991Y-11196079D01*
X10363991Y-11196079D02*
X10354468Y-11177031D01*
X10354468Y-11177031D02*
X10344944Y-11148460D01*
X10344944Y-11148460D02*
X10335420Y-11100841D01*
X10335420Y-11100841D02*
X10335420Y-11062746D01*
X10335420Y-11062746D02*
X10344944Y-11015127D01*
X10344944Y-11015127D02*
X10354468Y-10986555D01*
X10354468Y-10986555D02*
X10363991Y-10967508D01*
X10363991Y-10967508D02*
X10383039Y-10938936D01*
X10383039Y-10938936D02*
X10392563Y-10929412D01*
X10497325Y-11043698D02*
X10478277Y-11034174D01*
X10478277Y-11034174D02*
X10468753Y-11024650D01*
X10468753Y-11024650D02*
X10459230Y-11005603D01*
X10459230Y-11005603D02*
X10459230Y-10996079D01*
X10459230Y-10996079D02*
X10468753Y-10977031D01*
X10468753Y-10977031D02*
X10478277Y-10967508D01*
X10478277Y-10967508D02*
X10497325Y-10957984D01*
X10497325Y-10957984D02*
X10535420Y-10957984D01*
X10535420Y-10957984D02*
X10554468Y-10967508D01*
X10554468Y-10967508D02*
X10563991Y-10977031D01*
X10563991Y-10977031D02*
X10573515Y-10996079D01*
X10573515Y-10996079D02*
X10573515Y-11005603D01*
X10573515Y-11005603D02*
X10563991Y-11024650D01*
X10563991Y-11024650D02*
X10554468Y-11034174D01*
X10554468Y-11034174D02*
X10535420Y-11043698D01*
X10535420Y-11043698D02*
X10497325Y-11043698D01*
X10497325Y-11043698D02*
X10478277Y-11053222D01*
X10478277Y-11053222D02*
X10468753Y-11062746D01*
X10468753Y-11062746D02*
X10459230Y-11081793D01*
X10459230Y-11081793D02*
X10459230Y-11119889D01*
X10459230Y-11119889D02*
X10468753Y-11138936D01*
X10468753Y-11138936D02*
X10478277Y-11148460D01*
X10478277Y-11148460D02*
X10497325Y-11157984D01*
X10497325Y-11157984D02*
X10535420Y-11157984D01*
X10535420Y-11157984D02*
X10554468Y-11148460D01*
X10554468Y-11148460D02*
X10563991Y-11138936D01*
X10563991Y-11138936D02*
X10573515Y-11119889D01*
X10573515Y-11119889D02*
X10573515Y-11081793D01*
X10573515Y-11081793D02*
X10563991Y-11062746D01*
X10563991Y-11062746D02*
X10554468Y-11053222D01*
X10554468Y-11053222D02*
X10535420Y-11043698D01*
X10811611Y-11157984D02*
X10811611Y-10957984D01*
X10897325Y-11157984D02*
X10897325Y-11053222D01*
X10897325Y-11053222D02*
X10887801Y-11034174D01*
X10887801Y-11034174D02*
X10868753Y-11024650D01*
X10868753Y-11024650D02*
X10840182Y-11024650D01*
X10840182Y-11024650D02*
X10821134Y-11034174D01*
X10821134Y-11034174D02*
X10811611Y-11043698D01*
X11021134Y-11157984D02*
X11002087Y-11148460D01*
X11002087Y-11148460D02*
X10992563Y-11138936D01*
X10992563Y-11138936D02*
X10983039Y-11119889D01*
X10983039Y-11119889D02*
X10983039Y-11062746D01*
X10983039Y-11062746D02*
X10992563Y-11043698D01*
X10992563Y-11043698D02*
X11002087Y-11034174D01*
X11002087Y-11034174D02*
X11021134Y-11024650D01*
X11021134Y-11024650D02*
X11049706Y-11024650D01*
X11049706Y-11024650D02*
X11068753Y-11034174D01*
X11068753Y-11034174D02*
X11078277Y-11043698D01*
X11078277Y-11043698D02*
X11087801Y-11062746D01*
X11087801Y-11062746D02*
X11087801Y-11119889D01*
X11087801Y-11119889D02*
X11078277Y-11138936D01*
X11078277Y-11138936D02*
X11068753Y-11148460D01*
X11068753Y-11148460D02*
X11049706Y-11157984D01*
X11049706Y-11157984D02*
X11021134Y-11157984D01*
X11202087Y-11157984D02*
X11183039Y-11148460D01*
X11183039Y-11148460D02*
X11173515Y-11129412D01*
X11173515Y-11129412D02*
X11173515Y-10957984D01*
X11354468Y-11148460D02*
X11335420Y-11157984D01*
X11335420Y-11157984D02*
X11297325Y-11157984D01*
X11297325Y-11157984D02*
X11278277Y-11148460D01*
X11278277Y-11148460D02*
X11268753Y-11129412D01*
X11268753Y-11129412D02*
X11268753Y-11053222D01*
X11268753Y-11053222D02*
X11278277Y-11034174D01*
X11278277Y-11034174D02*
X11297325Y-11024650D01*
X11297325Y-11024650D02*
X11335420Y-11024650D01*
X11335420Y-11024650D02*
X11354468Y-11034174D01*
X11354468Y-11034174D02*
X11363991Y-11053222D01*
X11363991Y-11053222D02*
X11363991Y-11072270D01*
X11363991Y-11072270D02*
X11268753Y-11091317D01*
X11440182Y-11148460D02*
X11459230Y-11157984D01*
X11459230Y-11157984D02*
X11497325Y-11157984D01*
X11497325Y-11157984D02*
X11516372Y-11148460D01*
X11516372Y-11148460D02*
X11525896Y-11129412D01*
X11525896Y-11129412D02*
X11525896Y-11119889D01*
X11525896Y-11119889D02*
X11516372Y-11100841D01*
X11516372Y-11100841D02*
X11497325Y-11091317D01*
X11497325Y-11091317D02*
X11468753Y-11091317D01*
X11468753Y-11091317D02*
X11449706Y-11081793D01*
X11449706Y-11081793D02*
X11440182Y-11062746D01*
X11440182Y-11062746D02*
X11440182Y-11053222D01*
X11440182Y-11053222D02*
X11449706Y-11034174D01*
X11449706Y-11034174D02*
X11468753Y-11024650D01*
X11468753Y-11024650D02*
X11497325Y-11024650D01*
X11497325Y-11024650D02*
X11516372Y-11034174D01*
X11592563Y-11234174D02*
X11602087Y-11224650D01*
X11602087Y-11224650D02*
X11621134Y-11196079D01*
X11621134Y-11196079D02*
X11630658Y-11177031D01*
X11630658Y-11177031D02*
X11640182Y-11148460D01*
X11640182Y-11148460D02*
X11649706Y-11100841D01*
X11649706Y-11100841D02*
X11649706Y-11062746D01*
X11649706Y-11062746D02*
X11640182Y-11015127D01*
X11640182Y-11015127D02*
X11630658Y-10986555D01*
X11630658Y-10986555D02*
X11621134Y-10967508D01*
X11621134Y-10967508D02*
X11602087Y-10938936D01*
X11602087Y-10938936D02*
X11592563Y-10929412D01*
X6617500Y-11230500D02*
X6817500Y-11430500D01*
X6817500Y-11230500D02*
X6617500Y-11430500D01*
X6788211Y-11401211D02*
X6788211Y-11259789D01*
X6646789Y-11259789D01*
X6646789Y-11401211D01*
X6788211Y-11401211D01*
X7059229Y-11221984D02*
X7183039Y-11221984D01*
X7183039Y-11221984D02*
X7116372Y-11298174D01*
X7116372Y-11298174D02*
X7144943Y-11298174D01*
X7144943Y-11298174D02*
X7163991Y-11307698D01*
X7163991Y-11307698D02*
X7173515Y-11317222D01*
X7173515Y-11317222D02*
X7183039Y-11336269D01*
X7183039Y-11336269D02*
X7183039Y-11383888D01*
X7183039Y-11383888D02*
X7173515Y-11402936D01*
X7173515Y-11402936D02*
X7163991Y-11412460D01*
X7163991Y-11412460D02*
X7144943Y-11421984D01*
X7144943Y-11421984D02*
X7087801Y-11421984D01*
X7087801Y-11421984D02*
X7068753Y-11412460D01*
X7068753Y-11412460D02*
X7059229Y-11402936D01*
X7268753Y-11402936D02*
X7278277Y-11412460D01*
X7278277Y-11412460D02*
X7268753Y-11421984D01*
X7268753Y-11421984D02*
X7259229Y-11412460D01*
X7259229Y-11412460D02*
X7268753Y-11402936D01*
X7268753Y-11402936D02*
X7268753Y-11421984D01*
X7402086Y-11221984D02*
X7421134Y-11221984D01*
X7421134Y-11221984D02*
X7440182Y-11231508D01*
X7440182Y-11231508D02*
X7449705Y-11241031D01*
X7449705Y-11241031D02*
X7459229Y-11260079D01*
X7459229Y-11260079D02*
X7468753Y-11298174D01*
X7468753Y-11298174D02*
X7468753Y-11345793D01*
X7468753Y-11345793D02*
X7459229Y-11383888D01*
X7459229Y-11383888D02*
X7449705Y-11402936D01*
X7449705Y-11402936D02*
X7440182Y-11412460D01*
X7440182Y-11412460D02*
X7421134Y-11421984D01*
X7421134Y-11421984D02*
X7402086Y-11421984D01*
X7402086Y-11421984D02*
X7383039Y-11412460D01*
X7383039Y-11412460D02*
X7373515Y-11402936D01*
X7373515Y-11402936D02*
X7363991Y-11383888D01*
X7363991Y-11383888D02*
X7354467Y-11345793D01*
X7354467Y-11345793D02*
X7354467Y-11298174D01*
X7354467Y-11298174D02*
X7363991Y-11260079D01*
X7363991Y-11260079D02*
X7373515Y-11241031D01*
X7373515Y-11241031D02*
X7383039Y-11231508D01*
X7383039Y-11231508D02*
X7402086Y-11221984D01*
X7592562Y-11221984D02*
X7611610Y-11221984D01*
X7611610Y-11221984D02*
X7630658Y-11231508D01*
X7630658Y-11231508D02*
X7640182Y-11241031D01*
X7640182Y-11241031D02*
X7649705Y-11260079D01*
X7649705Y-11260079D02*
X7659229Y-11298174D01*
X7659229Y-11298174D02*
X7659229Y-11345793D01*
X7659229Y-11345793D02*
X7649705Y-11383888D01*
X7649705Y-11383888D02*
X7640182Y-11402936D01*
X7640182Y-11402936D02*
X7630658Y-11412460D01*
X7630658Y-11412460D02*
X7611610Y-11421984D01*
X7611610Y-11421984D02*
X7592562Y-11421984D01*
X7592562Y-11421984D02*
X7573515Y-11412460D01*
X7573515Y-11412460D02*
X7563991Y-11402936D01*
X7563991Y-11402936D02*
X7554467Y-11383888D01*
X7554467Y-11383888D02*
X7544943Y-11345793D01*
X7544943Y-11345793D02*
X7544943Y-11298174D01*
X7544943Y-11298174D02*
X7554467Y-11260079D01*
X7554467Y-11260079D02*
X7563991Y-11241031D01*
X7563991Y-11241031D02*
X7573515Y-11231508D01*
X7573515Y-11231508D02*
X7592562Y-11221984D01*
X7783039Y-11221984D02*
X7802086Y-11221984D01*
X7802086Y-11221984D02*
X7821134Y-11231508D01*
X7821134Y-11231508D02*
X7830658Y-11241031D01*
X7830658Y-11241031D02*
X7840182Y-11260079D01*
X7840182Y-11260079D02*
X7849705Y-11298174D01*
X7849705Y-11298174D02*
X7849705Y-11345793D01*
X7849705Y-11345793D02*
X7840182Y-11383888D01*
X7840182Y-11383888D02*
X7830658Y-11402936D01*
X7830658Y-11402936D02*
X7821134Y-11412460D01*
X7821134Y-11412460D02*
X7802086Y-11421984D01*
X7802086Y-11421984D02*
X7783039Y-11421984D01*
X7783039Y-11421984D02*
X7763991Y-11412460D01*
X7763991Y-11412460D02*
X7754467Y-11402936D01*
X7754467Y-11402936D02*
X7744943Y-11383888D01*
X7744943Y-11383888D02*
X7735420Y-11345793D01*
X7735420Y-11345793D02*
X7735420Y-11298174D01*
X7735420Y-11298174D02*
X7744943Y-11260079D01*
X7744943Y-11260079D02*
X7754467Y-11241031D01*
X7754467Y-11241031D02*
X7763991Y-11231508D01*
X7763991Y-11231508D02*
X7783039Y-11221984D01*
X7935420Y-11421984D02*
X7935420Y-11288650D01*
X7935420Y-11307698D02*
X7944943Y-11298174D01*
X7944943Y-11298174D02*
X7963991Y-11288650D01*
X7963991Y-11288650D02*
X7992563Y-11288650D01*
X7992563Y-11288650D02*
X8011610Y-11298174D01*
X8011610Y-11298174D02*
X8021134Y-11317222D01*
X8021134Y-11317222D02*
X8021134Y-11421984D01*
X8021134Y-11317222D02*
X8030658Y-11298174D01*
X8030658Y-11298174D02*
X8049705Y-11288650D01*
X8049705Y-11288650D02*
X8078277Y-11288650D01*
X8078277Y-11288650D02*
X8097324Y-11298174D01*
X8097324Y-11298174D02*
X8106848Y-11317222D01*
X8106848Y-11317222D02*
X8106848Y-11421984D01*
X8202086Y-11421984D02*
X8202086Y-11288650D01*
X8202086Y-11307698D02*
X8211610Y-11298174D01*
X8211610Y-11298174D02*
X8230658Y-11288650D01*
X8230658Y-11288650D02*
X8259229Y-11288650D01*
X8259229Y-11288650D02*
X8278277Y-11298174D01*
X8278277Y-11298174D02*
X8287801Y-11317222D01*
X8287801Y-11317222D02*
X8287801Y-11421984D01*
X8287801Y-11317222D02*
X8297324Y-11298174D01*
X8297324Y-11298174D02*
X8316372Y-11288650D01*
X8316372Y-11288650D02*
X8344943Y-11288650D01*
X8344943Y-11288650D02*
X8363991Y-11298174D01*
X8363991Y-11298174D02*
X8373515Y-11317222D01*
X8373515Y-11317222D02*
X8373515Y-11421984D01*
X8763991Y-11212460D02*
X8592563Y-11469603D01*
X9021134Y-11221984D02*
X9040182Y-11221984D01*
X9040182Y-11221984D02*
X9059229Y-11231508D01*
X9059229Y-11231508D02*
X9068753Y-11241031D01*
X9068753Y-11241031D02*
X9078277Y-11260079D01*
X9078277Y-11260079D02*
X9087801Y-11298174D01*
X9087801Y-11298174D02*
X9087801Y-11345793D01*
X9087801Y-11345793D02*
X9078277Y-11383888D01*
X9078277Y-11383888D02*
X9068753Y-11402936D01*
X9068753Y-11402936D02*
X9059229Y-11412460D01*
X9059229Y-11412460D02*
X9040182Y-11421984D01*
X9040182Y-11421984D02*
X9021134Y-11421984D01*
X9021134Y-11421984D02*
X9002087Y-11412460D01*
X9002087Y-11412460D02*
X8992563Y-11402936D01*
X8992563Y-11402936D02*
X8983039Y-11383888D01*
X8983039Y-11383888D02*
X8973515Y-11345793D01*
X8973515Y-11345793D02*
X8973515Y-11298174D01*
X8973515Y-11298174D02*
X8983039Y-11260079D01*
X8983039Y-11260079D02*
X8992563Y-11241031D01*
X8992563Y-11241031D02*
X9002087Y-11231508D01*
X9002087Y-11231508D02*
X9021134Y-11221984D01*
X9173515Y-11402936D02*
X9183039Y-11412460D01*
X9183039Y-11412460D02*
X9173515Y-11421984D01*
X9173515Y-11421984D02*
X9163991Y-11412460D01*
X9163991Y-11412460D02*
X9173515Y-11402936D01*
X9173515Y-11402936D02*
X9173515Y-11421984D01*
X9373515Y-11421984D02*
X9259229Y-11421984D01*
X9316372Y-11421984D02*
X9316372Y-11221984D01*
X9316372Y-11221984D02*
X9297325Y-11250555D01*
X9297325Y-11250555D02*
X9278277Y-11269603D01*
X9278277Y-11269603D02*
X9259229Y-11279127D01*
X9563991Y-11421984D02*
X9449706Y-11421984D01*
X9506848Y-11421984D02*
X9506848Y-11221984D01*
X9506848Y-11221984D02*
X9487801Y-11250555D01*
X9487801Y-11250555D02*
X9468753Y-11269603D01*
X9468753Y-11269603D02*
X9449706Y-11279127D01*
X9678277Y-11307698D02*
X9659229Y-11298174D01*
X9659229Y-11298174D02*
X9649706Y-11288650D01*
X9649706Y-11288650D02*
X9640182Y-11269603D01*
X9640182Y-11269603D02*
X9640182Y-11260079D01*
X9640182Y-11260079D02*
X9649706Y-11241031D01*
X9649706Y-11241031D02*
X9659229Y-11231508D01*
X9659229Y-11231508D02*
X9678277Y-11221984D01*
X9678277Y-11221984D02*
X9716372Y-11221984D01*
X9716372Y-11221984D02*
X9735420Y-11231508D01*
X9735420Y-11231508D02*
X9744944Y-11241031D01*
X9744944Y-11241031D02*
X9754468Y-11260079D01*
X9754468Y-11260079D02*
X9754468Y-11269603D01*
X9754468Y-11269603D02*
X9744944Y-11288650D01*
X9744944Y-11288650D02*
X9735420Y-11298174D01*
X9735420Y-11298174D02*
X9716372Y-11307698D01*
X9716372Y-11307698D02*
X9678277Y-11307698D01*
X9678277Y-11307698D02*
X9659229Y-11317222D01*
X9659229Y-11317222D02*
X9649706Y-11326746D01*
X9649706Y-11326746D02*
X9640182Y-11345793D01*
X9640182Y-11345793D02*
X9640182Y-11383888D01*
X9640182Y-11383888D02*
X9649706Y-11402936D01*
X9649706Y-11402936D02*
X9659229Y-11412460D01*
X9659229Y-11412460D02*
X9678277Y-11421984D01*
X9678277Y-11421984D02*
X9716372Y-11421984D01*
X9716372Y-11421984D02*
X9735420Y-11412460D01*
X9735420Y-11412460D02*
X9744944Y-11402936D01*
X9744944Y-11402936D02*
X9754468Y-11383888D01*
X9754468Y-11383888D02*
X9754468Y-11345793D01*
X9754468Y-11345793D02*
X9744944Y-11326746D01*
X9744944Y-11326746D02*
X9735420Y-11317222D01*
X9735420Y-11317222D02*
X9716372Y-11307698D01*
X9944944Y-11421984D02*
X9830658Y-11421984D01*
X9887801Y-11421984D02*
X9887801Y-11221984D01*
X9887801Y-11221984D02*
X9868753Y-11250555D01*
X9868753Y-11250555D02*
X9849706Y-11269603D01*
X9849706Y-11269603D02*
X9830658Y-11279127D01*
X10021134Y-11221984D02*
X10021134Y-11260079D01*
X10097325Y-11221984D02*
X10097325Y-11260079D01*
X10392563Y-11498174D02*
X10383039Y-11488650D01*
X10383039Y-11488650D02*
X10363991Y-11460079D01*
X10363991Y-11460079D02*
X10354468Y-11441031D01*
X10354468Y-11441031D02*
X10344944Y-11412460D01*
X10344944Y-11412460D02*
X10335420Y-11364841D01*
X10335420Y-11364841D02*
X10335420Y-11326746D01*
X10335420Y-11326746D02*
X10344944Y-11279127D01*
X10344944Y-11279127D02*
X10354468Y-11250555D01*
X10354468Y-11250555D02*
X10363991Y-11231508D01*
X10363991Y-11231508D02*
X10383039Y-11202936D01*
X10383039Y-11202936D02*
X10392563Y-11193412D01*
X10554468Y-11288650D02*
X10554468Y-11421984D01*
X10506849Y-11212460D02*
X10459230Y-11355317D01*
X10459230Y-11355317D02*
X10583039Y-11355317D01*
X10811611Y-11421984D02*
X10811611Y-11221984D01*
X10897325Y-11421984D02*
X10897325Y-11317222D01*
X10897325Y-11317222D02*
X10887801Y-11298174D01*
X10887801Y-11298174D02*
X10868753Y-11288650D01*
X10868753Y-11288650D02*
X10840182Y-11288650D01*
X10840182Y-11288650D02*
X10821134Y-11298174D01*
X10821134Y-11298174D02*
X10811611Y-11307698D01*
X11021134Y-11421984D02*
X11002087Y-11412460D01*
X11002087Y-11412460D02*
X10992563Y-11402936D01*
X10992563Y-11402936D02*
X10983039Y-11383888D01*
X10983039Y-11383888D02*
X10983039Y-11326746D01*
X10983039Y-11326746D02*
X10992563Y-11307698D01*
X10992563Y-11307698D02*
X11002087Y-11298174D01*
X11002087Y-11298174D02*
X11021134Y-11288650D01*
X11021134Y-11288650D02*
X11049706Y-11288650D01*
X11049706Y-11288650D02*
X11068753Y-11298174D01*
X11068753Y-11298174D02*
X11078277Y-11307698D01*
X11078277Y-11307698D02*
X11087801Y-11326746D01*
X11087801Y-11326746D02*
X11087801Y-11383888D01*
X11087801Y-11383888D02*
X11078277Y-11402936D01*
X11078277Y-11402936D02*
X11068753Y-11412460D01*
X11068753Y-11412460D02*
X11049706Y-11421984D01*
X11049706Y-11421984D02*
X11021134Y-11421984D01*
X11202087Y-11421984D02*
X11183039Y-11412460D01*
X11183039Y-11412460D02*
X11173515Y-11393412D01*
X11173515Y-11393412D02*
X11173515Y-11221984D01*
X11354468Y-11412460D02*
X11335420Y-11421984D01*
X11335420Y-11421984D02*
X11297325Y-11421984D01*
X11297325Y-11421984D02*
X11278277Y-11412460D01*
X11278277Y-11412460D02*
X11268753Y-11393412D01*
X11268753Y-11393412D02*
X11268753Y-11317222D01*
X11268753Y-11317222D02*
X11278277Y-11298174D01*
X11278277Y-11298174D02*
X11297325Y-11288650D01*
X11297325Y-11288650D02*
X11335420Y-11288650D01*
X11335420Y-11288650D02*
X11354468Y-11298174D01*
X11354468Y-11298174D02*
X11363991Y-11317222D01*
X11363991Y-11317222D02*
X11363991Y-11336269D01*
X11363991Y-11336269D02*
X11268753Y-11355317D01*
X11440182Y-11412460D02*
X11459230Y-11421984D01*
X11459230Y-11421984D02*
X11497325Y-11421984D01*
X11497325Y-11421984D02*
X11516372Y-11412460D01*
X11516372Y-11412460D02*
X11525896Y-11393412D01*
X11525896Y-11393412D02*
X11525896Y-11383888D01*
X11525896Y-11383888D02*
X11516372Y-11364841D01*
X11516372Y-11364841D02*
X11497325Y-11355317D01*
X11497325Y-11355317D02*
X11468753Y-11355317D01*
X11468753Y-11355317D02*
X11449706Y-11345793D01*
X11449706Y-11345793D02*
X11440182Y-11326746D01*
X11440182Y-11326746D02*
X11440182Y-11317222D01*
X11440182Y-11317222D02*
X11449706Y-11298174D01*
X11449706Y-11298174D02*
X11468753Y-11288650D01*
X11468753Y-11288650D02*
X11497325Y-11288650D01*
X11497325Y-11288650D02*
X11516372Y-11298174D01*
X11592563Y-11498174D02*
X11602087Y-11488650D01*
X11602087Y-11488650D02*
X11621134Y-11460079D01*
X11621134Y-11460079D02*
X11630658Y-11441031D01*
X11630658Y-11441031D02*
X11640182Y-11412460D01*
X11640182Y-11412460D02*
X11649706Y-11364841D01*
X11649706Y-11364841D02*
X11649706Y-11326746D01*
X11649706Y-11326746D02*
X11640182Y-11279127D01*
X11640182Y-11279127D02*
X11630658Y-11250555D01*
X11630658Y-11250555D02*
X11621134Y-11231508D01*
X11621134Y-11231508D02*
X11602087Y-11202936D01*
X11602087Y-11202936D02*
X11592563Y-11193412D01*
M02*
