%TF.GenerationSoftware,KiCad,Pcbnew,9.0.2*%
%TF.CreationDate,2025-07-22T19:33:03-04:00*%
%TF.ProjectId,controllerV2,636f6e74-726f-46c6-9c65-7256322e6b69,rev?*%
%TF.SameCoordinates,Original*%
%TF.FileFunction,Legend,Bot*%
%TF.FilePolarity,Positive*%
%FSLAX46Y46*%
G04 Gerber Fmt 4.6, Leading zero omitted, Abs format (unit mm)*
G04 Created by KiCad (PCBNEW 9.0.2) date 2025-07-22 19:33:03*
%MOMM*%
%LPD*%
G01*
G04 APERTURE LIST*
%ADD10C,0.203200*%
G04 APERTURE END LIST*
D10*
%TO.C,SW2*%
X133625000Y-71436000D02*
X133625000Y-79564000D01*
X135530000Y-68515000D02*
X137562000Y-68515000D01*
X135530000Y-71436000D02*
X133625000Y-71436000D01*
X135530000Y-71436000D02*
X135530000Y-68515000D01*
X135530000Y-79564000D02*
X133625000Y-79564000D01*
X135530000Y-79564000D02*
X135530000Y-84390000D01*
X137562000Y-61530000D02*
X137562000Y-68515000D01*
X137562000Y-61530000D02*
X148738000Y-61530000D01*
X138324000Y-84390000D02*
X135530000Y-84390000D01*
X138324000Y-86930000D02*
X138324000Y-84390000D01*
X138324000Y-86930000D02*
X147976000Y-86930000D01*
X147976000Y-84390000D02*
X150770000Y-84390000D01*
X147976000Y-86930000D02*
X147976000Y-84390000D01*
X148738000Y-61530000D02*
X148738000Y-68515000D01*
X148738000Y-68515000D02*
X150770000Y-68515000D01*
X150770000Y-70674000D02*
X150770000Y-68515000D01*
X150770000Y-70674000D02*
X154326000Y-70674000D01*
X150770000Y-80326000D02*
X150770000Y-84390000D01*
X150770000Y-80326000D02*
X154326000Y-80326000D01*
X154326000Y-70674000D02*
X154326000Y-80326000D01*
X143785000Y-75500000D02*
G75*
G02*
X142515000Y-75500000I-635000J0D01*
G01*
X142515000Y-75500000D02*
G75*
G02*
X143785000Y-75500000I635000J0D01*
G01*
%TO.C,SW1*%
X71625000Y-71436000D02*
X71625000Y-79564000D01*
X73530000Y-68515000D02*
X75562000Y-68515000D01*
X73530000Y-71436000D02*
X71625000Y-71436000D01*
X73530000Y-71436000D02*
X73530000Y-68515000D01*
X73530000Y-79564000D02*
X71625000Y-79564000D01*
X73530000Y-79564000D02*
X73530000Y-84390000D01*
X75562000Y-61530000D02*
X75562000Y-68515000D01*
X75562000Y-61530000D02*
X86738000Y-61530000D01*
X76324000Y-84390000D02*
X73530000Y-84390000D01*
X76324000Y-86930000D02*
X76324000Y-84390000D01*
X76324000Y-86930000D02*
X85976000Y-86930000D01*
X85976000Y-84390000D02*
X88770000Y-84390000D01*
X85976000Y-86930000D02*
X85976000Y-84390000D01*
X86738000Y-61530000D02*
X86738000Y-68515000D01*
X86738000Y-68515000D02*
X88770000Y-68515000D01*
X88770000Y-70674000D02*
X88770000Y-68515000D01*
X88770000Y-70674000D02*
X92326000Y-70674000D01*
X88770000Y-80326000D02*
X88770000Y-84390000D01*
X88770000Y-80326000D02*
X92326000Y-80326000D01*
X92326000Y-70674000D02*
X92326000Y-80326000D01*
X81785000Y-75500000D02*
G75*
G02*
X80515000Y-75500000I-635000J0D01*
G01*
X80515000Y-75500000D02*
G75*
G02*
X81785000Y-75500000I635000J0D01*
G01*
%TD*%
M02*
