%TF.GenerationSoftware,KiCad,Pcbnew,9.0.2*%
%TF.CreationDate,2025-07-06T01:08:17-04:00*%
%TF.ProjectId,controller,636f6e74-726f-46c6-9c65-722e6b696361,rev?*%
%TF.SameCoordinates,Original*%
%TF.FileFunction,Legend,Top*%
%TF.FilePolarity,Positive*%
%FSLAX46Y46*%
G04 Gerber Fmt 4.6, Leading zero omitted, Abs format (unit mm)*
G04 Created by KiCad (PCBNEW 9.0.2) date 2025-07-06 01:08:17*
%MOMM*%
%LPD*%
G01*
G04 APERTURE LIST*
G04 Aperture macros list*
%AMRoundRect*
0 Rectangle with rounded corners*
0 $1 Rounding radius*
0 $2 $3 $4 $5 $6 $7 $8 $9 X,Y pos of 4 corners*
0 Add a 4 corners polygon primitive as box body*
4,1,4,$2,$3,$4,$5,$6,$7,$8,$9,$2,$3,0*
0 Add four circle primitives for the rounded corners*
1,1,$1+$1,$2,$3*
1,1,$1+$1,$4,$5*
1,1,$1+$1,$6,$7*
1,1,$1+$1,$8,$9*
0 Add four rect primitives between the rounded corners*
20,1,$1+$1,$2,$3,$4,$5,0*
20,1,$1+$1,$4,$5,$6,$7,0*
20,1,$1+$1,$6,$7,$8,$9,0*
20,1,$1+$1,$8,$9,$2,$3,0*%
G04 Aperture macros list end*
%ADD10C,0.150000*%
%ADD11C,0.100000*%
%ADD12C,0.120000*%
%ADD13C,5.000000*%
%ADD14R,1.700000X1.700000*%
%ADD15C,1.700000*%
%ADD16C,2.200000*%
%ADD17R,1.905000X2.000000*%
%ADD18O,1.905000X2.000000*%
%ADD19RoundRect,0.102000X-0.780000X-0.780000X0.780000X-0.780000X0.780000X0.780000X-0.780000X0.780000X0*%
%ADD20C,1.764000*%
G04 APERTURE END LIST*
D10*
X218166666Y-120114819D02*
X218166666Y-120829104D01*
X218166666Y-120829104D02*
X218119047Y-120971961D01*
X218119047Y-120971961D02*
X218023809Y-121067200D01*
X218023809Y-121067200D02*
X217880952Y-121114819D01*
X217880952Y-121114819D02*
X217785714Y-121114819D01*
X218595238Y-120210057D02*
X218642857Y-120162438D01*
X218642857Y-120162438D02*
X218738095Y-120114819D01*
X218738095Y-120114819D02*
X218976190Y-120114819D01*
X218976190Y-120114819D02*
X219071428Y-120162438D01*
X219071428Y-120162438D02*
X219119047Y-120210057D01*
X219119047Y-120210057D02*
X219166666Y-120305295D01*
X219166666Y-120305295D02*
X219166666Y-120400533D01*
X219166666Y-120400533D02*
X219119047Y-120543390D01*
X219119047Y-120543390D02*
X218547619Y-121114819D01*
X218547619Y-121114819D02*
X219166666Y-121114819D01*
X177166666Y-77804819D02*
X176833333Y-77328628D01*
X176595238Y-77804819D02*
X176595238Y-76804819D01*
X176595238Y-76804819D02*
X176976190Y-76804819D01*
X176976190Y-76804819D02*
X177071428Y-76852438D01*
X177071428Y-76852438D02*
X177119047Y-76900057D01*
X177119047Y-76900057D02*
X177166666Y-76995295D01*
X177166666Y-76995295D02*
X177166666Y-77138152D01*
X177166666Y-77138152D02*
X177119047Y-77233390D01*
X177119047Y-77233390D02*
X177071428Y-77281009D01*
X177071428Y-77281009D02*
X176976190Y-77328628D01*
X176976190Y-77328628D02*
X176595238Y-77328628D01*
X177595238Y-77281009D02*
X177928571Y-77281009D01*
X178071428Y-77804819D02*
X177595238Y-77804819D01*
X177595238Y-77804819D02*
X177595238Y-76804819D01*
X177595238Y-76804819D02*
X178071428Y-76804819D01*
X178833333Y-77281009D02*
X178500000Y-77281009D01*
X178500000Y-77804819D02*
X178500000Y-76804819D01*
X178500000Y-76804819D02*
X178976190Y-76804819D01*
X179500000Y-76804819D02*
X179500000Y-77042914D01*
X179261905Y-76947676D02*
X179500000Y-77042914D01*
X179500000Y-77042914D02*
X179738095Y-76947676D01*
X179357143Y-77233390D02*
X179500000Y-77042914D01*
X179500000Y-77042914D02*
X179642857Y-77233390D01*
X180261905Y-76804819D02*
X180261905Y-77042914D01*
X180023810Y-76947676D02*
X180261905Y-77042914D01*
X180261905Y-77042914D02*
X180500000Y-76947676D01*
X180119048Y-77233390D02*
X180261905Y-77042914D01*
X180261905Y-77042914D02*
X180404762Y-77233390D01*
X221666666Y-77804819D02*
X221333333Y-77328628D01*
X221095238Y-77804819D02*
X221095238Y-76804819D01*
X221095238Y-76804819D02*
X221476190Y-76804819D01*
X221476190Y-76804819D02*
X221571428Y-76852438D01*
X221571428Y-76852438D02*
X221619047Y-76900057D01*
X221619047Y-76900057D02*
X221666666Y-76995295D01*
X221666666Y-76995295D02*
X221666666Y-77138152D01*
X221666666Y-77138152D02*
X221619047Y-77233390D01*
X221619047Y-77233390D02*
X221571428Y-77281009D01*
X221571428Y-77281009D02*
X221476190Y-77328628D01*
X221476190Y-77328628D02*
X221095238Y-77328628D01*
X222095238Y-77281009D02*
X222428571Y-77281009D01*
X222571428Y-77804819D02*
X222095238Y-77804819D01*
X222095238Y-77804819D02*
X222095238Y-76804819D01*
X222095238Y-76804819D02*
X222571428Y-76804819D01*
X223333333Y-77281009D02*
X223000000Y-77281009D01*
X223000000Y-77804819D02*
X223000000Y-76804819D01*
X223000000Y-76804819D02*
X223476190Y-76804819D01*
X224000000Y-76804819D02*
X224000000Y-77042914D01*
X223761905Y-76947676D02*
X224000000Y-77042914D01*
X224000000Y-77042914D02*
X224238095Y-76947676D01*
X223857143Y-77233390D02*
X224000000Y-77042914D01*
X224000000Y-77042914D02*
X224142857Y-77233390D01*
X224761905Y-76804819D02*
X224761905Y-77042914D01*
X224523810Y-76947676D02*
X224761905Y-77042914D01*
X224761905Y-77042914D02*
X225000000Y-76947676D01*
X224619048Y-77233390D02*
X224761905Y-77042914D01*
X224761905Y-77042914D02*
X224904762Y-77233390D01*
X211166666Y-131454819D02*
X211166666Y-132169104D01*
X211166666Y-132169104D02*
X211119047Y-132311961D01*
X211119047Y-132311961D02*
X211023809Y-132407200D01*
X211023809Y-132407200D02*
X210880952Y-132454819D01*
X210880952Y-132454819D02*
X210785714Y-132454819D01*
X211690476Y-132454819D02*
X211880952Y-132454819D01*
X211880952Y-132454819D02*
X211976190Y-132407200D01*
X211976190Y-132407200D02*
X212023809Y-132359580D01*
X212023809Y-132359580D02*
X212119047Y-132216723D01*
X212119047Y-132216723D02*
X212166666Y-132026247D01*
X212166666Y-132026247D02*
X212166666Y-131645295D01*
X212166666Y-131645295D02*
X212119047Y-131550057D01*
X212119047Y-131550057D02*
X212071428Y-131502438D01*
X212071428Y-131502438D02*
X211976190Y-131454819D01*
X211976190Y-131454819D02*
X211785714Y-131454819D01*
X211785714Y-131454819D02*
X211690476Y-131502438D01*
X211690476Y-131502438D02*
X211642857Y-131550057D01*
X211642857Y-131550057D02*
X211595238Y-131645295D01*
X211595238Y-131645295D02*
X211595238Y-131883390D01*
X211595238Y-131883390D02*
X211642857Y-131978628D01*
X211642857Y-131978628D02*
X211690476Y-132026247D01*
X211690476Y-132026247D02*
X211785714Y-132073866D01*
X211785714Y-132073866D02*
X211976190Y-132073866D01*
X211976190Y-132073866D02*
X212071428Y-132026247D01*
X212071428Y-132026247D02*
X212119047Y-131978628D01*
X212119047Y-131978628D02*
X212166666Y-131883390D01*
X177166666Y-129804819D02*
X176833333Y-129328628D01*
X176595238Y-129804819D02*
X176595238Y-128804819D01*
X176595238Y-128804819D02*
X176976190Y-128804819D01*
X176976190Y-128804819D02*
X177071428Y-128852438D01*
X177071428Y-128852438D02*
X177119047Y-128900057D01*
X177119047Y-128900057D02*
X177166666Y-128995295D01*
X177166666Y-128995295D02*
X177166666Y-129138152D01*
X177166666Y-129138152D02*
X177119047Y-129233390D01*
X177119047Y-129233390D02*
X177071428Y-129281009D01*
X177071428Y-129281009D02*
X176976190Y-129328628D01*
X176976190Y-129328628D02*
X176595238Y-129328628D01*
X177595238Y-129281009D02*
X177928571Y-129281009D01*
X178071428Y-129804819D02*
X177595238Y-129804819D01*
X177595238Y-129804819D02*
X177595238Y-128804819D01*
X177595238Y-128804819D02*
X178071428Y-128804819D01*
X178833333Y-129281009D02*
X178500000Y-129281009D01*
X178500000Y-129804819D02*
X178500000Y-128804819D01*
X178500000Y-128804819D02*
X178976190Y-128804819D01*
X179500000Y-128804819D02*
X179500000Y-129042914D01*
X179261905Y-128947676D02*
X179500000Y-129042914D01*
X179500000Y-129042914D02*
X179738095Y-128947676D01*
X179357143Y-129233390D02*
X179500000Y-129042914D01*
X179500000Y-129042914D02*
X179642857Y-129233390D01*
X180261905Y-128804819D02*
X180261905Y-129042914D01*
X180023810Y-128947676D02*
X180261905Y-129042914D01*
X180261905Y-129042914D02*
X180500000Y-128947676D01*
X180119048Y-129233390D02*
X180261905Y-129042914D01*
X180261905Y-129042914D02*
X180404762Y-129233390D01*
X211166666Y-117454819D02*
X211166666Y-118169104D01*
X211166666Y-118169104D02*
X211119047Y-118311961D01*
X211119047Y-118311961D02*
X211023809Y-118407200D01*
X211023809Y-118407200D02*
X210880952Y-118454819D01*
X210880952Y-118454819D02*
X210785714Y-118454819D01*
X211785714Y-117883390D02*
X211690476Y-117835771D01*
X211690476Y-117835771D02*
X211642857Y-117788152D01*
X211642857Y-117788152D02*
X211595238Y-117692914D01*
X211595238Y-117692914D02*
X211595238Y-117645295D01*
X211595238Y-117645295D02*
X211642857Y-117550057D01*
X211642857Y-117550057D02*
X211690476Y-117502438D01*
X211690476Y-117502438D02*
X211785714Y-117454819D01*
X211785714Y-117454819D02*
X211976190Y-117454819D01*
X211976190Y-117454819D02*
X212071428Y-117502438D01*
X212071428Y-117502438D02*
X212119047Y-117550057D01*
X212119047Y-117550057D02*
X212166666Y-117645295D01*
X212166666Y-117645295D02*
X212166666Y-117692914D01*
X212166666Y-117692914D02*
X212119047Y-117788152D01*
X212119047Y-117788152D02*
X212071428Y-117835771D01*
X212071428Y-117835771D02*
X211976190Y-117883390D01*
X211976190Y-117883390D02*
X211785714Y-117883390D01*
X211785714Y-117883390D02*
X211690476Y-117931009D01*
X211690476Y-117931009D02*
X211642857Y-117978628D01*
X211642857Y-117978628D02*
X211595238Y-118073866D01*
X211595238Y-118073866D02*
X211595238Y-118264342D01*
X211595238Y-118264342D02*
X211642857Y-118359580D01*
X211642857Y-118359580D02*
X211690476Y-118407200D01*
X211690476Y-118407200D02*
X211785714Y-118454819D01*
X211785714Y-118454819D02*
X211976190Y-118454819D01*
X211976190Y-118454819D02*
X212071428Y-118407200D01*
X212071428Y-118407200D02*
X212119047Y-118359580D01*
X212119047Y-118359580D02*
X212166666Y-118264342D01*
X212166666Y-118264342D02*
X212166666Y-118073866D01*
X212166666Y-118073866D02*
X212119047Y-117978628D01*
X212119047Y-117978628D02*
X212071428Y-117931009D01*
X212071428Y-117931009D02*
X211976190Y-117883390D01*
X217690476Y-104534819D02*
X217690476Y-105249104D01*
X217690476Y-105249104D02*
X217642857Y-105391961D01*
X217642857Y-105391961D02*
X217547619Y-105487200D01*
X217547619Y-105487200D02*
X217404762Y-105534819D01*
X217404762Y-105534819D02*
X217309524Y-105534819D01*
X218690476Y-105534819D02*
X218119048Y-105534819D01*
X218404762Y-105534819D02*
X218404762Y-104534819D01*
X218404762Y-104534819D02*
X218309524Y-104677676D01*
X218309524Y-104677676D02*
X218214286Y-104772914D01*
X218214286Y-104772914D02*
X218119048Y-104820533D01*
X219309524Y-104534819D02*
X219404762Y-104534819D01*
X219404762Y-104534819D02*
X219500000Y-104582438D01*
X219500000Y-104582438D02*
X219547619Y-104630057D01*
X219547619Y-104630057D02*
X219595238Y-104725295D01*
X219595238Y-104725295D02*
X219642857Y-104915771D01*
X219642857Y-104915771D02*
X219642857Y-105153866D01*
X219642857Y-105153866D02*
X219595238Y-105344342D01*
X219595238Y-105344342D02*
X219547619Y-105439580D01*
X219547619Y-105439580D02*
X219500000Y-105487200D01*
X219500000Y-105487200D02*
X219404762Y-105534819D01*
X219404762Y-105534819D02*
X219309524Y-105534819D01*
X219309524Y-105534819D02*
X219214286Y-105487200D01*
X219214286Y-105487200D02*
X219166667Y-105439580D01*
X219166667Y-105439580D02*
X219119048Y-105344342D01*
X219119048Y-105344342D02*
X219071429Y-105153866D01*
X219071429Y-105153866D02*
X219071429Y-104915771D01*
X219071429Y-104915771D02*
X219119048Y-104725295D01*
X219119048Y-104725295D02*
X219166667Y-104630057D01*
X219166667Y-104630057D02*
X219214286Y-104582438D01*
X219214286Y-104582438D02*
X219309524Y-104534819D01*
X213198095Y-97354819D02*
X213198095Y-98164342D01*
X213198095Y-98164342D02*
X213245714Y-98259580D01*
X213245714Y-98259580D02*
X213293333Y-98307200D01*
X213293333Y-98307200D02*
X213388571Y-98354819D01*
X213388571Y-98354819D02*
X213579047Y-98354819D01*
X213579047Y-98354819D02*
X213674285Y-98307200D01*
X213674285Y-98307200D02*
X213721904Y-98259580D01*
X213721904Y-98259580D02*
X213769523Y-98164342D01*
X213769523Y-98164342D02*
X213769523Y-97354819D01*
X214769523Y-98354819D02*
X214198095Y-98354819D01*
X214483809Y-98354819D02*
X214483809Y-97354819D01*
X214483809Y-97354819D02*
X214388571Y-97497676D01*
X214388571Y-97497676D02*
X214293333Y-97592914D01*
X214293333Y-97592914D02*
X214198095Y-97640533D01*
X221666666Y-129804819D02*
X221333333Y-129328628D01*
X221095238Y-129804819D02*
X221095238Y-128804819D01*
X221095238Y-128804819D02*
X221476190Y-128804819D01*
X221476190Y-128804819D02*
X221571428Y-128852438D01*
X221571428Y-128852438D02*
X221619047Y-128900057D01*
X221619047Y-128900057D02*
X221666666Y-128995295D01*
X221666666Y-128995295D02*
X221666666Y-129138152D01*
X221666666Y-129138152D02*
X221619047Y-129233390D01*
X221619047Y-129233390D02*
X221571428Y-129281009D01*
X221571428Y-129281009D02*
X221476190Y-129328628D01*
X221476190Y-129328628D02*
X221095238Y-129328628D01*
X222095238Y-129281009D02*
X222428571Y-129281009D01*
X222571428Y-129804819D02*
X222095238Y-129804819D01*
X222095238Y-129804819D02*
X222095238Y-128804819D01*
X222095238Y-128804819D02*
X222571428Y-128804819D01*
X223333333Y-129281009D02*
X223000000Y-129281009D01*
X223000000Y-129804819D02*
X223000000Y-128804819D01*
X223000000Y-128804819D02*
X223476190Y-128804819D01*
X224000000Y-128804819D02*
X224000000Y-129042914D01*
X223761905Y-128947676D02*
X224000000Y-129042914D01*
X224000000Y-129042914D02*
X224238095Y-128947676D01*
X223857143Y-129233390D02*
X224000000Y-129042914D01*
X224000000Y-129042914D02*
X224142857Y-129233390D01*
X224761905Y-128804819D02*
X224761905Y-129042914D01*
X224523810Y-128947676D02*
X224761905Y-129042914D01*
X224761905Y-129042914D02*
X225000000Y-128947676D01*
X224619048Y-129233390D02*
X224761905Y-129042914D01*
X224761905Y-129042914D02*
X224904762Y-129233390D01*
%TO.C,J1*%
D11*
X207460000Y-97880000D02*
X220460000Y-97880000D01*
X220460000Y-90880000D01*
X207460000Y-90880000D01*
X207460000Y-97880000D01*
D12*
%TO.C,J2*%
X217120000Y-121660000D02*
X218500000Y-121660000D01*
X217120000Y-123040000D02*
X217120000Y-121660000D01*
X217120000Y-124310000D02*
X217120000Y-126960000D01*
X217120000Y-124310000D02*
X219880000Y-124310000D01*
X217120000Y-126960000D02*
X219880000Y-126960000D01*
X219880000Y-124310000D02*
X219880000Y-126960000D01*
%TO.C,J9*%
X210120000Y-128350000D02*
X210120000Y-118080000D01*
X212880000Y-118080000D02*
X210120000Y-118080000D01*
X212880000Y-128350000D02*
X210120000Y-128350000D01*
X212880000Y-128350000D02*
X212880000Y-118080000D01*
X212880000Y-129620000D02*
X212880000Y-131000000D01*
X212880000Y-131000000D02*
X211500000Y-131000000D01*
%TO.C,J8*%
X210120000Y-114350000D02*
X210120000Y-104080000D01*
X212880000Y-104080000D02*
X210120000Y-104080000D01*
X212880000Y-114350000D02*
X210120000Y-114350000D01*
X212880000Y-114350000D02*
X212880000Y-104080000D01*
X212880000Y-115620000D02*
X212880000Y-117000000D01*
X212880000Y-117000000D02*
X211500000Y-117000000D01*
%TO.C,J10*%
X217120000Y-106080000D02*
X218500000Y-106080000D01*
X217120000Y-107460000D02*
X217120000Y-106080000D01*
X217120000Y-108730000D02*
X217120000Y-116460000D01*
X217120000Y-108730000D02*
X219880000Y-108730000D01*
X217120000Y-116460000D02*
X219880000Y-116460000D01*
X219880000Y-108730000D02*
X219880000Y-116460000D01*
%TO.C,U1*%
X208850000Y-98740000D02*
X208850000Y-103360000D01*
X208850000Y-98740000D02*
X219070000Y-98740000D01*
X208850000Y-100120000D02*
X219070000Y-100120000D01*
X208850000Y-103360000D02*
X219070000Y-103360000D01*
X212110000Y-98740000D02*
X212110000Y-100120000D01*
X215810000Y-98740000D02*
X215810000Y-100120000D01*
X219070000Y-98740000D02*
X219070000Y-103360000D01*
%TO.C,BT1*%
D11*
X207460000Y-89580000D02*
X220460000Y-89580000D01*
X220460000Y-82580000D01*
X207460000Y-82580000D01*
X207460000Y-89580000D01*
%TO.C,U3*%
X180960000Y-82480000D02*
X206360000Y-82480000D01*
X206360000Y-130780000D01*
X180960000Y-130780000D01*
X180960000Y-82480000D01*
%TD*%
%LPC*%
D13*
%TO.C,J1*%
X210460000Y-94380000D03*
X217460000Y-94380000D03*
%TD*%
D14*
%TO.C,J2*%
X218500000Y-123040000D03*
D15*
X218500000Y-125580000D03*
%TD*%
D16*
%TO.C,REF\u002A\u002A*%
X178500000Y-80500000D03*
%TD*%
%TO.C,REF\u002A\u002A*%
X223000000Y-80500000D03*
%TD*%
D14*
%TO.C,J9*%
X211500000Y-129620000D03*
D15*
X211500000Y-127080000D03*
X211500000Y-124540000D03*
X211500000Y-122000000D03*
X211500000Y-119460000D03*
%TD*%
D16*
%TO.C,REF\u002A\u002A*%
X178500000Y-132500000D03*
%TD*%
D14*
%TO.C,J8*%
X211500000Y-115620000D03*
D15*
X211500000Y-113080000D03*
X211500000Y-110540000D03*
X211500000Y-108000000D03*
X211500000Y-105460000D03*
%TD*%
D14*
%TO.C,J10*%
X218500000Y-107460000D03*
D15*
X218500000Y-110000000D03*
X218500000Y-112540000D03*
X218500000Y-115080000D03*
%TD*%
D17*
%TO.C,U1*%
X211420000Y-102000000D03*
D18*
X213960000Y-102000000D03*
X216500000Y-102000000D03*
%TD*%
D13*
%TO.C,BT1*%
X210460000Y-86080000D03*
X217460000Y-86080000D03*
%TD*%
D16*
%TO.C,REF\u002A\u002A*%
X223000000Y-132500000D03*
%TD*%
D19*
%TO.C,U3*%
X182110000Y-83760000D03*
D20*
X182110000Y-86300000D03*
X182110000Y-88840000D03*
X182110000Y-91380000D03*
X182110000Y-93920000D03*
X182110000Y-96460000D03*
X182110000Y-99000000D03*
X182110000Y-101540000D03*
X182110000Y-104080000D03*
X182110000Y-106620000D03*
X182110000Y-109160000D03*
X182110000Y-111700000D03*
X182110000Y-114240000D03*
X182110000Y-116780000D03*
X182110000Y-119320000D03*
X182110000Y-121860000D03*
X182110000Y-124400000D03*
X182110000Y-126940000D03*
X182110000Y-129480000D03*
X205010000Y-83760000D03*
X205010000Y-86300000D03*
X205010000Y-88840000D03*
X205010000Y-91380000D03*
X205010000Y-93920000D03*
X205010000Y-96460000D03*
X205010000Y-99000000D03*
X205010000Y-101540000D03*
X205010000Y-104080000D03*
X205010000Y-106620000D03*
X205010000Y-109160000D03*
X205010000Y-111700000D03*
X205010000Y-114240000D03*
X205010000Y-116780000D03*
X205010000Y-119320000D03*
X205010000Y-121860000D03*
X205010000Y-124400000D03*
X205010000Y-126940000D03*
X205010000Y-129480000D03*
%TD*%
%LPD*%
M02*
